<svg width="596" height="40" viewBox="0 0 596 40" fill="none" xmlns="http://www.w3.org/2000/svg">
<rect width="143" height="40" fill="#9D832F"/>
<path d="M55.6046 25V16.6H56.6366V24.076H60.8246V25H55.6046ZM63.3545 25V24.076H64.8425V17.524H63.3545V16.6H67.3505V17.524H65.8745V24.076H67.3505V25H63.3545ZM70.5296 25V16.6H75.8456V17.524H71.5616V20.296H75.0656V21.22H71.5616V25H70.5296ZM78.5903 25V16.6H83.8943V17.524H79.6223V20.2H83.1143V21.124H79.6223V24.076H84.0263V25H78.5903Z" fill="white"/>
<rect width="143" height="40" transform="translate(151)" fill="#2A8D45"/>
<path d="M201.764 25V21.124H197.756V25H196.736V16.6H197.756V20.2H201.764V16.6H202.796V25H201.764ZM205.869 25V16.6H211.173V17.524H206.901V20.2H210.393V21.124H206.901V24.076H211.305V25H205.869ZM213.242 25L216.326 16.6H217.298L220.37 25H219.314L218.522 22.732H215.09L214.286 25H213.242ZM215.414 21.82H218.198L216.818 17.872L215.414 21.82ZM222.933 25V16.6H223.965V24.076H228.153V25H222.933ZM232.172 25V17.524H229.508V16.6H235.868V17.524H233.204V25H232.172ZM243.231 25V21.124H239.223V25H238.203V16.6H239.223V20.2H243.231V16.6H244.263V25H243.231Z" fill="white"/>
<rect width="143" height="40" transform="translate(302)" fill="#2F499D"/>
<path d="M355.925 25L354.149 16.6H355.121L356.489 23.236L358.013 16.6H358.817L360.329 23.236L361.721 16.6H362.681L360.917 25H359.873L358.409 18.616L356.957 25H355.925ZM368.1 25.096C365.952 25.096 364.488 23.368 364.488 20.8C364.488 18.232 365.952 16.504 368.1 16.504C370.212 16.504 371.64 18.232 371.64 20.8C371.64 23.368 370.212 25.096 368.1 25.096ZM368.088 24.172C369.576 24.172 370.584 22.816 370.584 20.8C370.584 18.784 369.576 17.428 368.088 17.428C366.576 17.428 365.544 18.784 365.544 20.8C365.544 22.816 366.576 24.172 368.088 24.172ZM374.201 25V16.6H377.285C378.953 16.6 379.961 17.488 379.961 18.94C379.961 19.924 379.433 20.62 378.629 21.004C379.289 21.364 379.709 22.06 379.757 22.912L379.901 25H378.905L378.761 22.972C378.713 22.156 378.185 21.58 377.405 21.58H375.221V25H374.201ZM377.285 20.656C378.473 20.656 378.917 19.888 378.917 19.06C378.917 18.232 378.473 17.512 377.285 17.512H375.221V20.656H377.285ZM383.752 25H382.708V16.6H383.752V20.596L387.412 16.6H388.72L385.636 19.948L388.936 25H387.748L384.928 20.716L383.752 21.988V25Z" fill="white"/>
<rect width="143" height="40" transform="translate(453)" fill="#992E7D"/>
<path d="M506.126 25.096C504.11 25.096 503.018 23.968 502.898 22.252H503.918C504.026 23.416 504.686 24.172 506.126 24.172C507.29 24.172 508.106 23.728 508.106 22.708C508.106 20.452 503.186 21.844 503.186 18.736C503.186 17.404 504.35 16.504 506.042 16.504C507.71 16.504 508.874 17.476 509.006 18.988H507.998C507.902 18.04 507.158 17.428 506.042 17.428C504.902 17.428 504.218 17.932 504.218 18.736C504.218 20.98 509.174 19.456 509.174 22.708C509.174 24.232 507.878 25.096 506.126 25.096ZM512.044 25V16.6H513.076V24.076H517.264V25H512.044ZM519.937 25V16.6H525.241V17.524H520.969V20.2H524.461V21.124H520.969V24.076H525.373V25H519.937ZM528.186 25V16.6H533.49V17.524H529.218V20.2H532.71V21.124H529.218V24.076H533.622V25H528.186ZM536.316 25V16.6H539.472C541.128 16.6 542.148 17.608 542.148 19.084C542.148 20.56 541.128 21.568 539.472 21.568H537.336V25H536.316ZM539.46 20.656C540.648 20.656 541.092 19.912 541.092 19.084C541.092 18.256 540.648 17.512 539.46 17.512H537.336V20.656H539.46Z" fill="white"/>
</svg>
