<svg width="12" height="7" viewBox="0 0 12 7" fill="none" xmlns="http://www.w3.org/2000/svg">
<path fill-rule="evenodd" clip-rule="evenodd" d="M3.33333 0C3.33333 0.929293 3.65627 1.71747 4.30273 2.36393C4.9492 3.0104 5.73737 3.33333 6.66667 3.33333C5.73737 3.33333 4.9492 3.65627 4.30273 4.30273C3.65627 4.9492 3.33333 5.73737 3.33333 6.66667C3.33333 5.79544 3.04932 5.04842 2.48112 4.42578L2.36393 4.30273C1.71747 3.65627 0.929293 3.33333 0 3.33333C0.871228 3.33333 1.61825 3.04932 2.24089 2.48112L2.36393 2.36393C3.0104 1.71747 3.33333 0.929293 3.33333 0ZM3.33333 2.23503C3.19006 2.44559 3.02439 2.64619 2.83529 2.83529C2.64619 3.02439 2.44559 3.19006 2.23503 3.33333C2.44559 3.47661 2.64619 3.64228 2.83529 3.83138C3.02425 4.02035 3.19013 4.22059 3.33333 4.43099C3.47654 4.22059 3.64241 4.02035 3.83138 3.83138C4.02035 3.64241 4.22059 3.47654 4.43099 3.33333C4.22059 3.19013 4.02035 3.02425 3.83138 2.83529C3.64228 2.64619 3.47661 2.44559 3.33333 2.23503Z" fill="white"/>
<path d="M12 3.66667L7.35091 3.66667V3L12 3V3.66667Z" fill="white"/>
<path d="M12 1L5.33333 1V0.333333L12 0.333333V1Z" fill="white"/>
<path d="M12 6.33333L5.35091 6.33333V5.66667L12 5.66667V6.33333Z" fill="white"/>
</svg>
