<?xml version="1.0" encoding="UTF-8"?>
<svg id="Layer_1" xmlns="http://www.w3.org/2000/svg" xmlns:xlink="http://www.w3.org/1999/xlink" version="1.1" viewBox="0 0 1906.75 907.06">
  <!-- Generator: Adobe Illustrator 30.2.1, SVG Export Plug-In . SVG Version: 2.1.1 Build 1)  -->
  <defs>
    <clipPath id="clippath">
      <rect width="1906.75" height="907.06" fill="none"/>
    </clipPath>
    <clipPath id="clippath-1">
      <rect width="1906.75" height="907.06" fill="none"/>
    </clipPath>
  </defs>
  <g clip-path="url(#clippath)">
    <g>
      <g opacity=".7">
        <polygon points="153.52 463.47 -161.71 513.39 -161.71 198.16 153.52 148.23 153.52 463.47" fill="#00ff5b"/>
      </g>
      <g opacity=".7">
        <polygon points="266.46 532.61 -48.77 582.54 -48.77 267.3 266.46 217.38 266.46 532.61" fill="#f200ff"/>
      </g>
      <g opacity=".7">
        <polygon points="367.03 611.62 38.32 663.68 38.32 334.97 367.03 282.91 367.03 611.62" fill="#0af"/>
      </g>
      <g opacity=".7">
        <polygon points="467.06 697.32 117.7 752.66 117.7 403.29 467.06 347.96 467.06 697.32" fill="#ff1800"/>
      </g>
      <g opacity=".7">
        <polygon points="570.51 771.71 210.26 828.77 210.26 468.52 570.51 411.47 570.51 771.71" fill="#00cc2b"/>
      </g>
      <g opacity=".7">
        <polygon points="713.52 856.31 323.97 918 323.97 528.46 713.52 466.76 713.52 856.31" fill="#bc0000"/>
      </g>
      <g opacity=".7">
        <polygon points="846.32 963.6 424.13 1030.47 424.13 608.28 846.32 541.41 846.32 963.6" fill="#3330b7"/>
      </g>
    </g>
  </g>
  <g clip-path="url(#clippath-1)">
    <g>
      <g opacity=".2">
        <polygon points="1752.96 463.17 1752.96 148.64 2067.5 198.46 2067.5 512.99 1752.96 463.17" fill="#fff"/>
        <path d="M1753.3,149.04l313.85,49.71v313.83l-313.85-49.71V149.04M1752.61,148.23v315.23l315.23,49.93V198.16l-315.23-49.93h0Z"/>
      </g>
      <g opacity=".3">
        <polygon points="1640.02 532.31 1640.02 217.78 1954.56 267.6 1954.56 582.13 1640.02 532.31" fill="#fff"/>
        <path d="M1640.37,218.18l313.85,49.71v313.83l-313.85-49.71V218.18M1639.68,217.38v315.23l315.23,49.93v-315.23l-315.23-49.93h0Z"/>
      </g>
      <g opacity=".4">
        <polygon points="1539.45 611.32 1539.45 283.32 1867.47 335.27 1867.47 663.28 1539.45 611.32" fill="#fff"/>
        <path d="M1539.79,283.72l327.33,51.84v327.31l-327.33-51.84v-327.31M1539.11,282.91v328.71l328.71,52.06v-328.71l-328.71-52.06h0Z"/>
      </g>
      <g opacity=".5">
        <polygon points="1439.42 697.03 1439.42 348.36 1788.09 403.59 1788.09 752.25 1439.42 697.03" fill="#fff"/>
        <path d="M1439.76,348.77l347.98,55.12v347.97l-347.98-55.12v-347.97M1439.08,347.96v349.36l349.36,55.33v-349.36l-349.36-55.33h0Z"/>
      </g>
      <g opacity=".6">
        <polygon points="1335.97 771.41 1335.97 411.87 1695.53 468.82 1695.53 828.36 1335.97 771.41" fill="#fff"/>
        <path d="M1336.32,412.27l358.86,56.84v358.85l-358.86-56.84v-358.85M1335.63,411.47v360.24l360.24,57.06v-360.24l-360.24-57.06h0Z"/>
      </g>
      <g opacity=".7">
        <polygon points="1192.96 856.01 1192.96 467.16 1581.82 528.75 1581.82 917.6 1192.96 856.01" fill="#fff"/>
        <path d="M1193.31,467.57l388.17,61.48v388.15l-388.17-61.48v-388.15M1192.62,466.76v389.55l389.55,61.7v-389.55l-389.55-61.7h0Z"/>
      </g>
      <g opacity=".8">
        <polygon points="1060.16 963.31 1060.16 541.82 1481.66 608.58 1481.66 1030.07 1060.16 963.31" fill="#fff"/>
        <path d="M1060.51,542.22l420.81,66.65v420.79l-420.81-66.65v-420.79M1059.82,541.41v422.19l422.19,66.87v-422.19l-422.19-66.87h0Z"/>
      </g>
    </g>
  </g>
</svg>