<?xml version="1.0" encoding="UTF-8"?>
<svg id="Layer_1" xmlns="http://www.w3.org/2000/svg" xmlns:xlink="http://www.w3.org/1999/xlink" version="1.1" viewBox="0 0 1920.38 1083.53">
  <!-- Generator: Adobe Illustrator 30.2.1, SVG Export Plug-In . SVG Version: 2.1.1 Build 1)  -->
  <defs>
    <clipPath id="clippath">
      <rect width="1920.38" height="1083.53" fill="none"/>
    </clipPath>
  </defs>
  <rect width="1920.38" height="1083.53" fill="#fff"/>
  <g clip-path="url(#clippath)">
    <g>
      <g opacity=".7">
        <polygon points="297.9 647.36 -159.27 719.77 -159.27 262.6 297.9 190.19 297.9 647.36" fill="#f200ff"/>
      </g>
      <g opacity=".7">
        <polygon points="397.22 730.36 -79.5 805.87 -79.5 329.15 397.22 253.64 397.22 730.36" fill="#0af"/>
      </g>
      <g opacity=".7">
        <polygon points="518.46 837.92 11.79 918.17 11.79 411.49 518.46 331.24 518.46 837.92" fill="#ff1800"/>
      </g>
      <g opacity=".7">
        <polygon points="603.78 927.58 81.33 1010.33 81.33 487.88 603.78 405.13 603.78 927.58" fill="#00cc2b"/>
      </g>
      <g opacity=".7">
        <polygon points="731.63 1046.19 166.68 1135.67 166.68 570.72 731.63 481.24 731.63 1046.19" fill="#bc0000"/>
      </g>
      <g opacity=".7">
        <polygon points="854.49 1193.12 242.19 1290.1 242.19 677.81 854.49 580.83 854.49 1193.12" fill="#3330b7"/>
      </g>
    </g>
    <g>
      <g opacity=".3">
        <polygon points="1619.76 646.94 1619.76 190.77 2075.93 263.03 2075.93 719.19 1619.76 646.94" fill="#fff"/>
        <path d="M1620.26,191.36l455.17,72.09v455.15l-455.17-72.09V191.36M1619.26,190.19v457.17l457.17,72.41v-457.17l-457.17-72.41h0Z"/>
      </g>
      <g opacity=".4">
        <polygon points="1520.44 729.94 1520.44 254.23 1996.16 329.58 1996.16 805.28 1520.44 729.94" fill="#fff"/>
        <path d="M1520.94,254.82l474.72,75.19v474.69l-474.72-75.19V254.82M1519.94,253.64v476.72l476.72,75.5v-476.72l-476.72-75.5h0Z"/>
      </g>
      <g opacity=".5">
        <polygon points="1399.2 837.49 1399.2 331.83 1904.88 411.92 1904.88 917.58 1399.2 837.49" fill="#fff"/>
        <path d="M1399.7,332.41l504.68,79.93v504.65l-504.68-79.93v-504.65M1398.7,331.24v506.68l506.68,80.25v-506.68l-506.68-80.25h0Z"/>
      </g>
      <g opacity=".6">
        <polygon points="1313.88 927.16 1313.88 405.71 1835.33 488.3 1835.33 1009.74 1313.88 927.16" fill="#fff"/>
        <path d="M1314.38,406.3l520.46,82.43v520.43l-520.46-82.43V406.3M1313.38,405.13v522.46l522.46,82.75V487.88l-522.46-82.75h0Z"/>
      </g>
      <g opacity=".7">
        <polygon points="1186.03 1045.76 1186.03 481.82 1749.98 571.14 1749.98 1135.08 1186.03 1045.76" fill="#fff"/>
        <path d="M1186.53,482.41l562.95,89.16v562.93l-562.95-89.16V482.41M1185.53,481.24v564.95l564.95,89.48v-564.95l-564.95-89.48h0Z"/>
      </g>
      <g opacity=".8">
        <polygon points="1063.17 1192.7 1063.17 581.41 1674.47 678.23 1674.47 1289.52 1063.17 1192.7" fill="#fff"/>
        <path d="M1063.67,582l610.3,96.66v610.27l-610.3-96.66v-610.27M1062.67,580.83v612.3l612.3,96.98v-612.3l-612.3-96.98h0Z"/>
      </g>
    </g>
  </g>
</svg>