<?xml version="1.0" encoding="UTF-8"?>
<svg id="Layer_1" xmlns="http://www.w3.org/2000/svg" version="1.1" viewBox="0 0 1117.29 1123.29">
  <!-- Generator: Adobe Illustrator 30.2.1, SVG Export Plug-In . SVG Version: 2.1.1 Build 1)  -->
  <g>
    <path d="M85.44,347.81c-28.79,64.46-44.8,135.88-44.8,211.04,0,270.6,207.5,492.74,472.06,515.99" fill="none" stroke="#fff" stroke-miterlimit="10" stroke-width="3"/>
    <polygon points="70.24 352 71.43 354.76 85 348.88 89.87 362.85 92.71 361.86 86.77 344.85 70.24 352" fill="#fff"/>
  </g>
  <g>
    <path d="M977.96,254.65c-94.16-129.56-246.9-213.8-419.32-213.8S229.55,127.27,135.71,259.69" fill="none" stroke="#fff" stroke-miterlimit="10" stroke-width="3"/>
    <polygon points="981.88 239.38 978.9 239.04 977.25 253.74 962.7 251.02 962.15 253.97 979.86 257.28 981.88 239.38" fill="#fff"/>
  </g>
  <g>
    <path d="M620.57,1073.19c256.89-30.6,456.08-249.21,456.08-514.34,0-77.94-17.21-151.87-48.05-218.17" fill="none" stroke="#fff" stroke-miterlimit="10" stroke-width="3"/>
    <polygon points="632.07 1083.94 633.8 1081.49 621.7 1072.98 631.07 1061.53 628.75 1059.63 617.33 1073.57 632.07 1083.94" fill="#fff"/>
  </g>
</svg>