<svg width="14" height="14" viewBox="0 0 14 14" fill="none" xmlns="http://www.w3.org/2000/svg">
<path d="M0.833333 12.5H1.74833L10.6635 3.585L9.74833 2.66979L0.833333 11.585V12.5ZM0 13.3333V11.234L10.984 0.23875C11.0694 0.162639 11.1636 0.103819 11.2667 0.0622915C11.3699 0.0207637 11.4774 0 11.5894 0C11.7013 0 11.8098 0.0176384 11.9148 0.0529162C12.0197 0.088194 12.1165 0.151736 12.2052 0.243542L13.0946 1.13792C13.1864 1.22653 13.2492 1.32375 13.2829 1.42958C13.3165 1.53556 13.3333 1.64146 13.3333 1.74729C13.3333 1.86021 13.3143 1.96826 13.2762 2.07146C13.2382 2.17451 13.1776 2.26875 13.0946 2.35417L2.09937 13.3333H0ZM10.1979 3.13542L9.74833 2.66979L10.6635 3.585L10.1979 3.13542Z" fill="white"/>
</svg>
