<svg width="15" height="15" viewBox="0 0 15 15" fill="none" xmlns="http://www.w3.org/2000/svg">
<path d="M1.34625 14.6154C0.962639 14.6154 0.642361 14.4869 0.385417 14.23C0.128472 13.9731 0 13.6528 0 13.2692V5.96167C0 5.57805 0.128472 5.25778 0.385417 5.00083C0.642361 4.74389 0.962639 4.61542 1.34625 4.61542H13.6538C14.0374 4.61542 14.3576 4.74389 14.6146 5.00083C14.8715 5.25778 15 5.57805 15 5.96167V13.2692C15 13.6528 14.8715 13.9731 14.6146 14.23C14.3576 14.4869 14.0374 14.6154 13.6538 14.6154H1.34625ZM1.34625 13.7821H13.6538C13.7821 13.7821 13.8997 13.7287 14.0065 13.6219C14.1133 13.5151 14.1667 13.3975 14.1667 13.2692V5.96167C14.1667 5.83333 14.1133 5.71576 14.0065 5.60896C13.8997 5.50215 13.7821 5.44875 13.6538 5.44875H1.34625C1.21792 5.44875 1.10035 5.50215 0.993542 5.60896C0.886736 5.71576 0.833333 5.83333 0.833333 5.96167V13.2692C0.833333 13.3975 0.886736 13.5151 0.993542 13.6219C1.10035 13.7287 1.21792 13.7821 1.34625 13.7821ZM6.25 12.1796L10.0963 9.61542L6.25 7.05125V12.1796ZM1.25 3.14104V2.30771H13.75V3.14104H1.25ZM3.75 0.833333V0H11.25V0.833333H3.75Z" fill="white"/>
</svg>
