<?xml version="1.0" encoding="UTF-8"?>
<svg id="Layer_1" xmlns="http://www.w3.org/2000/svg" version="1.1" viewBox="0 0 405.09 405.34">
  <!-- Generator: Adobe Illustrator 30.2.1, SVG Export Plug-In . SVG Version: 2.1.1 Build 1)  -->
  <g>
    <path d="M48.59,152.36l4.08-10.23h1.14l4.06,10.23h-1.3l-3.33-8.69-3.35,8.69h-1.3ZM50.59,149.6l.26-1.11h4.75l.26,1.11h-5.27Z"/>
    <path d="M61.97,152.48c-.77,0-1.42-.18-1.96-.54-.54-.36-.94-.83-1.21-1.4-.27-.57-.41-1.19-.41-1.86,0-.5.08-.97.23-1.42s.38-.86.69-1.22c.31-.36.68-.64,1.12-.85.44-.2.96-.31,1.54-.31s1.07.1,1.56.31c.48.21.88.5,1.21.89.32.39.52.86.58,1.4h-1.15c-.05-.29-.18-.56-.39-.79s-.47-.42-.77-.56c-.31-.14-.65-.2-1.02-.2-.54,0-.98.12-1.34.37-.36.25-.62.58-.79.99-.17.41-.26.87-.26,1.38s.09.96.26,1.37c.18.42.44.75.8,1,.36.25.8.37,1.32.37.56,0,1.02-.13,1.41-.39s.64-.61.77-1.05h1.14c-.08.5-.26.93-.55,1.31-.29.38-.67.67-1.14.88-.47.21-1.01.31-1.64.31Z"/>
    <path d="M69.82,152.36c-.7,0-1.26-.2-1.68-.61-.42-.41-.63-.97-.63-1.69v-4.02h-1.53v-1.04h1.53v-2.35h1.17v2.35h2.26v1.04h-2.26v3.99c0,.41.11.73.32.96.21.23.5.34.86.34h1.08v1.04h-1.12Z"/>
    <path d="M75.06,152.48c-.55,0-1.02-.12-1.44-.37-.41-.25-.73-.6-.96-1.04s-.34-.97-.34-1.56v-4.5h1.17v4.31c0,.62.17,1.13.5,1.52.34.39.78.58,1.34.58.42,0,.79-.1,1.12-.31.33-.21.58-.5.77-.87s.28-.79.28-1.26v-3.97h1.17v7.36h-1.17v-1.42c-.19.51-.51.89-.94,1.15-.43.26-.93.39-1.5.39Z"/>
    <path d="M83.08,152.48c-.51,0-.95-.09-1.34-.28-.38-.19-.68-.45-.89-.78s-.31-.72-.31-1.16c0-.48.12-.89.36-1.24.24-.35.58-.62,1.02-.81.44-.19.95-.28,1.55-.28h1.71c.16,0,.27-.03.34-.09.07-.06.1-.15.1-.26,0-.5-.17-.9-.52-1.22-.35-.32-.83-.47-1.45-.47-.36,0-.69.07-.98.21-.29.14-.53.32-.71.54-.18.22-.28.47-.3.75h-1.12c.05-.49.22-.92.5-1.29s.66-.66,1.12-.88c.46-.21.96-.32,1.5-.32.64,0,1.2.11,1.66.34.46.23.82.55,1.08.96.26.41.39.89.39,1.43v4.75h-1.17v-1.27c-.14.27-.33.51-.58.72-.25.21-.54.37-.87.49-.33.12-.69.18-1.08.18ZM83.26,151.48c.74,0,1.32-.22,1.73-.65s.62-1.03.62-1.79v-.16h-2.07c-.54,0-.97.12-1.3.36-.33.24-.5.57-.5,1,0,.37.14.67.42.9.28.23.65.34,1.1.34Z"/>
    <path d="M88.9,152.36v-10.39h1.17v10.39h-1.17Z"/>
  </g>
  <g>
    <path d="M298.59,152.36v-10.23h1.26v10.23h-1.26ZM299.84,143.26h-1.26v-1.12h1.26v1.12ZM299.84,152.36h-1.26v-1.12h1.26v1.12Z"/>
    <path d="M302.17,152.36v-7.36h1.17v1.42c.21-.51.52-.89.95-1.15.43-.26.92-.39,1.49-.39s1.04.12,1.45.37c.41.25.73.59.96,1.04.22.44.34.97.34,1.57v4.5h-1.18v-4.31c0-.63-.17-1.14-.5-1.53s-.77-.58-1.33-.58c-.43,0-.81.1-1.13.31-.33.21-.58.5-.77.86-.19.37-.28.79-.28,1.26v3.97h-1.17Z"/>
    <path d="M313.43,152.36c-.7,0-1.26-.2-1.68-.61s-.63-.97-.63-1.69v-4.02h-1.53v-1.04h1.53v-2.35h1.17v2.35h2.26v1.04h-2.26v3.99c0,.41.11.73.32.96.21.23.5.34.86.34h1.08v1.04h-1.12Z"/>
    <path d="M319.01,152.48c-.55,0-1.04-.1-1.49-.3-.45-.2-.83-.48-1.15-.83s-.57-.77-.75-1.24c-.17-.47-.26-.96-.26-1.47s.08-1.03.24-1.49.39-.85.7-1.19c.31-.34.68-.6,1.11-.79.43-.19.92-.29,1.47-.29s1.02.09,1.44.26c.42.18.78.42,1.08.73s.52.68.68,1.1c.16.42.23.87.23,1.36,0,.09,0,.18,0,.26,0,.09-.01.17-.02.26h-6.24v-.96h5.05c-.04-.62-.26-1.12-.65-1.48-.39-.36-.92-.54-1.57-.54-.36,0-.69.06-.98.18-.29.12-.54.3-.75.54-.2.24-.36.53-.47.86-.11.34-.16.72-.16,1.16,0,.54.11,1.03.32,1.45s.51.76.88,1,.8.37,1.28.37c.59,0,1.08-.12,1.45-.37.37-.25.61-.61.73-1.07h1.2c-.08.5-.27.93-.58,1.31s-.7.66-1.17.87c-.47.2-1.02.31-1.63.31Z"/>
    <path d="M324.08,152.36v-7.36h1.17v1.42c.2-.51.52-.89.95-1.15.43-.26.93-.39,1.49-.39s1.04.12,1.45.37c.41.25.73.59.96,1.04.22.44.34.97.34,1.57v4.5h-1.18v-4.31c0-.63-.17-1.14-.5-1.53s-.77-.58-1.33-.58c-.43,0-.81.1-1.13.31-.33.21-.58.5-.77.86-.18.37-.28.79-.28,1.26v3.97h-1.17Z"/>
    <path d="M335.58,152.48c-.76,0-1.4-.17-1.92-.5-.52-.34-.92-.79-1.19-1.37-.27-.57-.41-1.22-.41-1.93,0-.54.08-1.03.23-1.49.16-.46.38-.86.68-1.21.3-.35.66-.62,1.1-.81.44-.19.94-.29,1.52-.29.52,0,1,.12,1.45.37.45.24.78.56,1.01.95v-4.22h1.17v10.39h-1.17v-1.21c-.22.4-.56.72-1.01.96-.45.24-.94.37-1.46.37ZM335.71,151.43c.37,0,.7-.07,1-.2s.56-.32.77-.56c.22-.24.38-.53.5-.86.11-.34.17-.71.17-1.13,0-.84-.22-1.5-.67-2s-1.04-.75-1.78-.75c-.37,0-.7.07-1,.2-.3.13-.56.32-.77.55-.22.24-.38.53-.5.86s-.17.71-.17,1.13c0,.83.22,1.49.67,1.99.44.5,1.03.75,1.77.75Z"/>
    <path d="M344.56,152.48c-.55,0-1.04-.1-1.49-.3-.45-.2-.83-.48-1.15-.83s-.57-.77-.75-1.24c-.17-.47-.26-.96-.26-1.47s.08-1.03.24-1.49.39-.85.7-1.19c.31-.34.68-.6,1.11-.79.43-.19.92-.29,1.47-.29s1.02.09,1.44.26c.42.18.78.42,1.08.73s.52.68.68,1.1c.16.42.23.87.23,1.36,0,.09,0,.18,0,.26,0,.09-.01.17-.02.26h-6.24v-.96h5.05c-.04-.62-.26-1.12-.65-1.48-.39-.36-.92-.54-1.57-.54-.36,0-.69.06-.98.18-.29.12-.54.3-.75.54-.2.24-.36.53-.47.86-.11.34-.16.72-.16,1.16,0,.54.11,1.03.32,1.45s.51.76.88,1,.8.37,1.28.37c.59,0,1.08-.12,1.45-.37.37-.25.61-.61.73-1.07h1.2c-.08.5-.27.93-.58,1.31s-.7.66-1.17.87c-.47.2-1.02.31-1.63.31Z"/>
    <path d="M352.65,152.48c-.76,0-1.4-.17-1.92-.5s-.92-.79-1.19-1.37c-.27-.57-.41-1.22-.41-1.93,0-.54.08-1.03.23-1.49.16-.46.38-.86.68-1.21s.67-.62,1.1-.81c.44-.19.95-.29,1.52-.29.52,0,1,.12,1.45.37s.78.56,1.01.95v-4.22h1.17v10.39h-1.17v-1.21c-.22.4-.56.72-1.01.96s-.93.37-1.46.37ZM352.78,151.43c.37,0,.7-.07,1-.2.3-.13.55-.32.77-.56.22-.24.38-.53.5-.86s.17-.71.17-1.13c0-.84-.22-1.5-.66-2-.44-.5-1.04-.75-1.78-.75-.37,0-.7.07-1,.2s-.55.32-.77.55c-.22.24-.38.53-.5.86-.11.34-.17.71-.17,1.13,0,.83.22,1.49.66,1.99.44.5,1.04.75,1.78.75Z"/>
  </g>
  <g>
    <path d="M180.25,280.34v-7.48h-2.69v-.92h6.41v.92h-2.69v7.48h-1.03Z"/>
    <path d="M185.03,280.34v-8.53h.96v3.65c.17-.42.43-.73.78-.94s.76-.32,1.22-.32.85.1,1.19.31c.34.2.6.49.79.85s.28.79.28,1.29v3.7h-.97v-3.54c0-.52-.14-.94-.41-1.25-.27-.32-.64-.47-1.09-.47-.35,0-.66.09-.93.26-.27.17-.48.41-.63.71-.15.3-.23.65-.23,1.04v3.26h-.96Z"/>
    <path d="M194.56,280.43c-.45,0-.86-.08-1.22-.25s-.68-.39-.95-.68c-.26-.29-.47-.63-.61-1.01-.14-.38-.22-.79-.22-1.21s.07-.85.2-1.22c.13-.38.32-.7.58-.98.25-.28.56-.49.91-.65s.76-.23,1.21-.23.83.07,1.18.22c.35.14.64.34.89.6s.43.56.56.9c.13.34.19.72.19,1.12,0,.07,0,.14,0,.22,0,.07-.01.14-.02.22h-5.12v-.79h4.15c-.03-.51-.21-.92-.53-1.21-.32-.3-.75-.44-1.29-.44-.3,0-.56.05-.8.15-.24.1-.44.25-.61.44s-.3.43-.38.71c-.09.28-.13.59-.13.95,0,.45.09.85.26,1.19.18.35.42.62.73.82.31.2.66.3,1.05.3.49,0,.88-.1,1.19-.31s.5-.5.6-.88h.98c-.06.41-.22.77-.47,1.07s-.57.55-.96.71-.83.25-1.34.25Z"/>
    <path d="M205.21,280.43c-.51,0-1.01-.09-1.48-.27-.48-.18-.9-.45-1.27-.8-.37-.36-.67-.8-.89-1.34-.22-.54-.33-1.16-.33-1.88,0-.58.07-1.09.22-1.55s.34-.86.6-1.2c.26-.34.55-.63.89-.86.34-.23.71-.4,1.11-.52.4-.12.82-.17,1.25-.17.65,0,1.23.12,1.75.35.52.23.94.55,1.27.97.33.41.53.89.6,1.43h-1.12c-.07-.37-.22-.69-.45-.96-.23-.27-.52-.48-.87-.64-.35-.15-.75-.23-1.2-.23-.34,0-.65.05-.95.14-.3.1-.58.24-.83.42-.25.18-.47.41-.65.68-.18.27-.32.58-.42.94-.1.35-.15.75-.15,1.19,0,.73.13,1.34.39,1.85.26.5.62.88,1.07,1.14s.97.38,1.54.38c.35,0,.68-.05,1-.14.31-.09.59-.22.83-.4s.43-.37.56-.61c.14-.23.2-.48.2-.76,0-.23-.05-.41-.16-.53-.11-.12-.27-.18-.5-.18h-1.9v-.89h2.16c.29,0,.54.06.75.17.21.12.38.28.49.49s.17.46.17.75v2.9h-.96v-1.27c-.11.19-.26.37-.43.54-.18.17-.38.31-.61.43-.23.12-.49.22-.77.29-.28.07-.59.11-.92.11Z"/>
    <path d="M212.29,280.43c-.42,0-.78-.08-1.1-.23-.32-.15-.56-.37-.73-.64-.17-.28-.26-.59-.26-.95,0-.39.1-.73.29-1.02s.47-.51.83-.67c.36-.16.78-.23,1.27-.23h1.4c.13,0,.22-.02.28-.07.06-.05.08-.12.08-.22,0-.41-.14-.74-.43-1-.28-.26-.68-.39-1.19-.39-.3,0-.56.06-.8.17s-.43.26-.58.44c-.15.18-.23.39-.25.61h-.92c.04-.4.18-.75.41-1.06.24-.3.54-.54.92-.72s.79-.26,1.24-.26c.53,0,.98.09,1.36.28.38.19.68.45.89.79.21.34.32.73.32,1.18v3.9h-.96v-1.04c-.11.22-.27.42-.47.59s-.44.31-.71.4c-.27.1-.57.14-.89.14ZM212.44,279.62c.61,0,1.08-.18,1.42-.53.34-.36.51-.85.51-1.47v-.13h-1.7c-.44,0-.8.1-1.07.29-.27.2-.41.47-.41.82,0,.3.11.55.34.74.23.19.53.28.91.28Z"/>
    <path d="M217.07,282.79v-8.5h.96v.98c.19-.32.47-.58.84-.78.37-.2.76-.3,1.19-.3.62,0,1.15.14,1.58.41.43.28.76.65.98,1.12.22.47.34,1,.34,1.58,0,.44-.06.85-.19,1.22s-.31.71-.56,1c-.24.29-.55.51-.91.67-.36.16-.78.23-1.25.23-.28,0-.55-.05-.82-.14-.26-.09-.5-.22-.71-.38s-.38-.35-.5-.58v3.44h-.96ZM219.95,279.57c.3,0,.58-.05.83-.16.25-.11.46-.26.64-.46.18-.2.31-.43.41-.71.1-.28.14-.59.14-.93,0-.69-.18-1.24-.55-1.64s-.85-.61-1.47-.61c-.3,0-.57.05-.82.16s-.46.26-.64.46-.31.43-.41.71c-.1.28-.14.59-.14.93,0,.68.18,1.23.55,1.64.37.41.85.62,1.45.62Z"/>
  </g>
  <path d="M124.98,405.34c0-41.73,33.83-75.55,75.55-75.55s75.55,33.83,75.55,75.55" fill="none" opacity=".2" stroke="#000" stroke-miterlimit="10" stroke-width=".51"/>
  <path d="M250.42,405.34c0-27.51-22.38-49.88-49.88-49.88s-49.88,22.38-49.88,49.88" fill="none" opacity=".3" stroke="#000" stroke-miterlimit="10" stroke-width=".51"/>
  <path d="M99.31,405.34c0-55.82,45.41-101.23,101.23-101.23s101.23,45.41,101.23,101.23" fill="none" opacity=".05" stroke="#000" stroke-miterlimit="10" stroke-width=".51"/>
  <g>
    <line x1="201.73" y1="404.8" x2="75.15" y2="169.49" fill="none" stroke="#000" stroke-miterlimit="10" stroke-width=".51"/>
    <polygon points="77.8 169.99 77.64 170.48 75.24 169.66 74.6 172.11 74.1 171.98 74.88 169 77.8 169.99"/>
  </g>
  <g>
    <line x1="201.76" y1="404.8" x2="204.61" y2="399.52" fill="none" stroke="#000" stroke-miterlimit="10" stroke-width=".51"/>
    <line x1="210.36" y1="388.82" x2="322.63" y2="180.12" fill="none" stroke="#000" stroke-dasharray="12.15 12.15" stroke-miterlimit="10" stroke-width=".51"/>
    <line x1="325.51" y1="174.77" x2="328.35" y2="169.49" fill="none" stroke="#000" stroke-miterlimit="10" stroke-width=".51"/>
    <polygon points="329.39 171.98 328.89 172.11 328.26 169.66 325.86 170.48 325.69 169.99 328.61 169 329.39 171.98"/>
  </g>
  <g opacity=".1">
    <rect x=".16" y=".16" width="404.77" height="404.77" fill="none" stroke="#000" stroke-miterlimit="10" stroke-width=".32"/>
    <line x1=".16" y1="381.12" x2="404.93" y2="381.12" fill="none" stroke="#000" stroke-miterlimit="10" stroke-width=".32"/>
    <line x1=".16" y1="357.31" x2="404.93" y2="357.31" fill="none" stroke="#000" stroke-miterlimit="10" stroke-width=".32"/>
    <line x1=".16" y1="333.5" x2="404.93" y2="333.5" fill="none" stroke="#000" stroke-miterlimit="10" stroke-width=".32"/>
    <line x1=".16" y1="309.69" x2="404.93" y2="309.69" fill="none" stroke="#000" stroke-miterlimit="10" stroke-width=".32"/>
    <line x1=".16" y1="285.88" x2="404.93" y2="285.88" fill="none" stroke="#000" stroke-miterlimit="10" stroke-width=".32"/>
    <line x1=".16" y1="262.07" x2="404.93" y2="262.07" fill="none" stroke="#000" stroke-miterlimit="10" stroke-width=".32"/>
    <line x1=".16" y1="238.26" x2="404.93" y2="238.26" fill="none" stroke="#000" stroke-miterlimit="10" stroke-width=".32"/>
    <line x1=".16" y1="214.45" x2="404.93" y2="214.45" fill="none" stroke="#000" stroke-miterlimit="10" stroke-width=".32"/>
    <line x1=".16" y1="190.64" x2="404.93" y2="190.64" fill="none" stroke="#000" stroke-miterlimit="10" stroke-width=".32"/>
    <line x1=".16" y1="166.83" x2="404.93" y2="166.83" fill="none" stroke="#000" stroke-miterlimit="10" stroke-width=".32"/>
    <line x1=".16" y1="143.02" x2="404.93" y2="143.02" fill="none" stroke="#000" stroke-miterlimit="10" stroke-width=".32"/>
    <line x1=".16" y1="119.21" x2="404.93" y2="119.21" fill="none" stroke="#000" stroke-miterlimit="10" stroke-width=".32"/>
    <line x1=".16" y1="95.4" x2="404.93" y2="95.4" fill="none" stroke="#000" stroke-miterlimit="10" stroke-width=".32"/>
    <line x1=".16" y1="71.59" x2="404.93" y2="71.59" fill="none" stroke="#000" stroke-miterlimit="10" stroke-width=".32"/>
    <line x1=".16" y1="47.78" x2="404.93" y2="47.78" fill="none" stroke="#000" stroke-miterlimit="10" stroke-width=".32"/>
    <line x1=".16" y1="23.97" x2="404.93" y2="23.97" fill="none" stroke="#000" stroke-miterlimit="10" stroke-width=".32"/>
    <line x1="381.12" y1=".16" x2="381.12" y2="404.93" fill="none" stroke="#000" stroke-miterlimit="10" stroke-width=".32"/>
    <line x1="357.31" y1=".16" x2="357.31" y2="404.93" fill="none" stroke="#000" stroke-miterlimit="10" stroke-width=".32"/>
    <line x1="333.5" y1=".16" x2="333.5" y2="404.93" fill="none" stroke="#000" stroke-miterlimit="10" stroke-width=".32"/>
    <line x1="309.69" y1=".16" x2="309.69" y2="404.93" fill="none" stroke="#000" stroke-miterlimit="10" stroke-width=".32"/>
    <line x1="285.88" y1=".16" x2="285.88" y2="404.93" fill="none" stroke="#000" stroke-miterlimit="10" stroke-width=".32"/>
    <line x1="262.07" y1=".16" x2="262.07" y2="404.93" fill="none" stroke="#000" stroke-miterlimit="10" stroke-width=".32"/>
    <line x1="238.26" y1=".16" x2="238.26" y2="404.93" fill="none" stroke="#000" stroke-miterlimit="10" stroke-width=".32"/>
    <line x1="214.45" y1=".16" x2="214.45" y2="404.93" fill="none" stroke="#000" stroke-miterlimit="10" stroke-width=".32"/>
    <line x1="190.64" y1=".16" x2="190.64" y2="404.93" fill="none" stroke="#000" stroke-miterlimit="10" stroke-width=".32"/>
    <line x1="166.83" y1=".16" x2="166.83" y2="404.93" fill="none" stroke="#000" stroke-miterlimit="10" stroke-width=".32"/>
    <line x1="143.02" y1=".16" x2="143.02" y2="404.93" fill="none" stroke="#000" stroke-miterlimit="10" stroke-width=".32"/>
    <line x1="119.21" y1=".16" x2="119.21" y2="404.93" fill="none" stroke="#000" stroke-miterlimit="10" stroke-width=".32"/>
    <line x1="95.4" y1=".16" x2="95.4" y2="404.93" fill="none" stroke="#000" stroke-miterlimit="10" stroke-width=".32"/>
    <line x1="71.59" y1=".16" x2="71.59" y2="404.93" fill="none" stroke="#000" stroke-miterlimit="10" stroke-width=".32"/>
    <line x1="47.78" y1=".16" x2="47.78" y2="404.93" fill="none" stroke="#000" stroke-miterlimit="10" stroke-width=".32"/>
    <line x1="23.97" y1=".16" x2="23.97" y2="404.93" fill="none" stroke="#000" stroke-miterlimit="10" stroke-width=".32"/>
  </g>
</svg>