<?xml version="1.0" encoding="UTF-8"?>
<svg id="Layer_1" xmlns="http://www.w3.org/2000/svg" version="1.1" viewBox="0 0 463.07 463.07">
  <!-- Generator: Adobe Illustrator 30.2.1, SVG Export Plug-In . SVG Version: 2.1.1 Build 1)  -->
  <g>
    <g>
      <path d="M66.73,61.15l4.19-10.5h1.17l4.17,10.5h-1.33l-3.42-8.92-3.44,8.92h-1.33ZM68.79,58.31l.27-1.14h4.88l.27,1.14h-5.42Z"/>
      <path d="M80.47,61.27c-.79,0-1.46-.19-2.01-.56-.55-.37-.97-.85-1.25-1.44-.28-.59-.42-1.22-.42-1.9,0-.51.08-1,.23-1.46.15-.46.39-.88.71-1.25.31-.37.7-.66,1.15-.87.46-.21.98-.31,1.58-.31s1.1.1,1.6.31c.5.21.91.52,1.24.92.33.4.53.88.6,1.44h-1.18c-.05-.3-.18-.57-.4-.81-.21-.24-.48-.43-.79-.57-.32-.14-.66-.21-1.04-.21-.55,0-1.01.13-1.37.38-.37.25-.64.59-.81,1.02-.17.42-.26.9-.26,1.42s.09.98.27,1.41c.18.43.45.77.82,1.03.37.25.82.38,1.36.38.57,0,1.05-.14,1.45-.41.39-.27.66-.63.79-1.08h1.17c-.08.51-.27.96-.57,1.34-.3.39-.69.69-1.17.9-.48.21-1.04.32-1.68.32Z"/>
      <path d="M88.53,61.15c-.72,0-1.29-.21-1.72-.63-.43-.42-.65-1-.65-1.74v-4.12h-1.58v-1.06h1.58v-2.42h1.2v2.42h2.33v1.06h-2.33v4.1c0,.42.11.75.33.98.22.23.51.35.88.35h1.11v1.06h-1.16Z"/>
      <path d="M93.91,61.27c-.56,0-1.05-.13-1.48-.38-.43-.25-.75-.61-.98-1.07-.23-.46-.34-1-.34-1.6v-4.62h1.2v4.43c0,.64.17,1.16.52,1.56.34.4.8.6,1.37.6.43,0,.81-.11,1.15-.32s.6-.51.79-.89c.19-.38.29-.81.29-1.29v-4.08h1.2v7.56h-1.2v-1.46c-.2.52-.52.91-.96,1.18-.44.27-.96.4-1.54.4Z"/>
      <path d="M102.15,61.27c-.52,0-.98-.1-1.37-.29-.4-.19-.7-.46-.92-.8-.21-.35-.32-.74-.32-1.19,0-.49.12-.92.37-1.27s.59-.64,1.04-.83c.45-.19.98-.29,1.59-.29h1.75c.16,0,.27-.03.34-.09s.11-.15.11-.27c0-.51-.18-.93-.53-1.25-.35-.33-.85-.49-1.49-.49-.37,0-.71.07-1,.21-.3.14-.54.33-.73.56-.19.23-.29.49-.31.77h-1.16c.05-.5.22-.94.52-1.32.29-.38.68-.68,1.15-.9.47-.22.99-.33,1.54-.33.66,0,1.23.12,1.7.35.47.24.84.56,1.11.98.27.42.4.91.4,1.47v4.88h-1.2v-1.31c-.14.28-.34.53-.59.74-.25.22-.55.38-.89.5s-.71.18-1.11.18ZM102.33,60.25c.76,0,1.35-.22,1.78-.67.42-.44.64-1.06.64-1.84v-.17h-2.13c-.55,0-1,.12-1.34.37-.34.25-.51.59-.51,1.03,0,.38.14.69.43.92s.66.35,1.13.35Z"/>
      <path d="M108.12,61.15v-10.67h1.2v10.67h-1.2Z"/>
    </g>
    <g>
      <path d="M336.57,61.15v-10.5h1.29v10.5h-1.29ZM337.86,51.8h-1.29v-1.15h1.29v1.15ZM337.86,61.15h-1.29v-1.15h1.29v1.15Z"/>
      <path d="M340.25,61.15v-7.56h1.2v1.46c.21-.52.54-.91.98-1.18.44-.26.95-.4,1.53-.4s1.07.13,1.49.38c.42.25.75.61.98,1.06.23.46.34.99.34,1.61v4.62h-1.21v-4.42c0-.65-.17-1.17-.51-1.57-.34-.39-.8-.59-1.37-.59-.44,0-.83.11-1.16.32-.33.22-.6.51-.79.89-.19.38-.29.81-.29,1.3v4.08h-1.2Z"/>
      <path d="M351.81,61.15c-.72,0-1.29-.21-1.72-.63-.43-.42-.65-1-.65-1.74v-4.12h-1.58v-1.06h1.58v-2.42h1.2v2.42h2.33v1.06h-2.33v4.1c0,.42.11.75.33.98.22.23.51.35.88.35h1.11v1.06h-1.16Z"/>
      <path d="M357.54,61.27c-.56,0-1.07-.1-1.53-.31s-.86-.49-1.19-.85c-.33-.36-.58-.79-.76-1.27s-.27-.98-.27-1.52.08-1.06.25-1.53c.17-.47.41-.88.72-1.22.32-.34.7-.61,1.14-.81.45-.19.95-.29,1.51-.29s1.04.09,1.48.27c.44.18.8.43,1.11.75.3.32.54.7.7,1.12.16.43.24.9.24,1.4,0,.09,0,.18,0,.27,0,.09-.01.18-.02.27h-6.41v-.99h5.19c-.04-.64-.26-1.15-.67-1.52-.4-.37-.94-.56-1.61-.56-.37,0-.71.06-1,.19-.3.13-.55.31-.76.56s-.37.54-.48.88c-.11.35-.17.74-.17,1.19,0,.56.11,1.06.33,1.49s.52.78.91,1.03.82.38,1.31.38c.61,0,1.11-.13,1.49-.38.38-.25.63-.62.75-1.1h1.23c-.08.51-.28.96-.59,1.34-.32.38-.71.68-1.2.89s-1.04.31-1.67.31Z"/>
      <path d="M362.75,61.15v-7.56h1.2v1.46c.21-.52.54-.91.98-1.18.44-.26.95-.4,1.53-.4s1.07.13,1.49.38c.42.25.75.61.98,1.06.23.46.34.99.34,1.61v4.62h-1.21v-4.42c0-.65-.17-1.17-.51-1.57-.34-.39-.8-.59-1.37-.59-.44,0-.83.11-1.16.32-.33.22-.6.51-.79.89-.19.38-.29.81-.29,1.3v4.08h-1.2Z"/>
      <path d="M374.55,61.27c-.78,0-1.44-.17-1.97-.52-.54-.35-.94-.81-1.22-1.4-.28-.59-.42-1.25-.42-1.98,0-.55.08-1.06.24-1.53.16-.47.39-.88.7-1.25.3-.36.68-.64,1.13-.83.45-.19.97-.29,1.56-.29.53,0,1.03.13,1.49.38.46.25.8.58,1.04.98v-4.33h1.2v10.67h-1.2v-1.25c-.23.41-.58.74-1.04.99s-.96.38-1.5.38ZM374.69,60.19c.38,0,.72-.07,1.03-.2.31-.13.57-.32.79-.57.23-.25.4-.54.51-.89.11-.34.17-.73.17-1.16,0-.86-.23-1.55-.68-2.06-.46-.51-1.06-.77-1.82-.77-.38,0-.72.07-1.03.2-.31.13-.57.33-.79.57-.23.25-.4.54-.51.89-.12.34-.17.73-.17,1.16,0,.85.23,1.53.68,2.05s1.06.77,1.82.77Z"/>
      <path d="M383.78,61.27c-.56,0-1.07-.1-1.53-.31s-.86-.49-1.19-.85c-.33-.36-.58-.79-.76-1.27s-.27-.98-.27-1.52.08-1.06.25-1.53c.17-.47.41-.88.72-1.22.32-.34.7-.61,1.14-.81.45-.19.95-.29,1.51-.29s1.04.09,1.48.27c.44.18.8.43,1.11.75.3.32.54.7.7,1.12.16.43.24.9.24,1.4,0,.09,0,.18,0,.27,0,.09-.01.18-.02.27h-6.41v-.99h5.19c-.04-.64-.26-1.15-.67-1.52-.4-.37-.94-.56-1.61-.56-.37,0-.71.06-1,.19-.3.13-.55.31-.76.56s-.37.54-.48.88c-.11.35-.17.74-.17,1.19,0,.56.11,1.06.33,1.49s.52.78.91,1.03.82.38,1.31.38c.61,0,1.11-.13,1.49-.38.38-.25.63-.62.75-1.1h1.23c-.08.51-.28.96-.59,1.34-.32.38-.71.68-1.2.89s-1.04.31-1.67.31Z"/>
      <path d="M392.09,61.27c-.78,0-1.44-.17-1.97-.52-.54-.35-.94-.81-1.22-1.4-.28-.59-.42-1.25-.42-1.98,0-.55.08-1.06.24-1.53.16-.47.39-.88.7-1.25.3-.36.68-.64,1.13-.83.45-.19.97-.29,1.56-.29.53,0,1.03.13,1.49.38.46.25.8.58,1.04.98v-4.33h1.2v10.67h-1.2v-1.25c-.23.41-.58.74-1.04.99s-.96.38-1.5.38ZM392.22,60.19c.38,0,.72-.07,1.03-.2.31-.13.57-.32.79-.57.23-.25.4-.54.51-.89.11-.34.17-.73.17-1.16,0-.86-.23-1.55-.68-2.06-.46-.51-1.06-.77-1.82-.77-.38,0-.72.07-1.03.2-.31.13-.57.33-.79.57-.23.25-.4.54-.51.89-.12.34-.17.73-.17,1.16,0,.85.23,1.53.68,2.05s1.06.77,1.82.77Z"/>
    </g>
    <g>
      <path d="M214.06,209.09v-9.35h-3.36v-1.15h8.01v1.15h-3.36v9.35h-1.29Z"/>
      <path d="M220.03,209.09v-10.67h1.2v4.56c.21-.52.54-.91.98-1.18.44-.26.95-.4,1.53-.4s1.07.13,1.49.38c.42.25.75.61.98,1.06.23.46.34.99.34,1.61v4.62h-1.21v-4.42c0-.65-.17-1.17-.51-1.57-.34-.39-.8-.59-1.37-.59-.44,0-.83.11-1.16.32-.33.22-.6.51-.79.89-.19.38-.29.81-.29,1.3v4.08h-1.2Z"/>
      <path d="M231.94,209.21c-.56,0-1.07-.1-1.53-.31s-.86-.49-1.19-.85c-.33-.36-.58-.79-.76-1.27s-.27-.98-.27-1.52.08-1.06.25-1.53c.17-.47.41-.88.72-1.22.32-.34.7-.61,1.14-.81.45-.19.95-.29,1.51-.29s1.04.09,1.48.27c.44.18.8.43,1.11.75.3.32.54.7.7,1.12.16.43.24.9.24,1.4,0,.09,0,.18,0,.27,0,.09-.01.18-.02.27h-6.41v-.99h5.19c-.04-.64-.26-1.15-.67-1.52-.4-.37-.94-.56-1.61-.56-.37,0-.71.06-1,.19-.3.13-.55.31-.76.56s-.37.54-.48.88c-.11.35-.17.74-.17,1.19,0,.56.11,1.06.33,1.49s.52.78.91,1.03.82.38,1.31.38c.61,0,1.11-.13,1.49-.38.38-.25.63-.62.75-1.1h1.23c-.08.51-.28.96-.59,1.34-.32.38-.71.68-1.2.89s-1.04.31-1.67.31Z"/>
      <path d="M241.23,212.15v-1.04h3.5c.49,0,.89-.16,1.2-.49.31-.33.46-.74.46-1.25v-1.33c-.18.35-.5.63-.98.85-.47.21-.99.32-1.56.32-.78,0-1.44-.17-1.97-.52-.54-.35-.94-.81-1.22-1.4-.28-.59-.42-1.25-.42-1.98,0-.55.08-1.06.24-1.53.16-.47.39-.88.7-1.25.3-.36.68-.64,1.13-.83.45-.19.97-.29,1.56-.29.33,0,.66.05.98.16s.62.25.89.44c.27.19.49.4.65.64v-1.11h1.2v7.89c0,.54-.12,1.01-.35,1.42-.23.41-.56.73-.98.96s-.91.35-1.46.35h-3.57ZM243.99,208.13c.51,0,.95-.11,1.32-.35.37-.23.66-.56.87-.98.21-.42.31-.92.31-1.49,0-.86-.23-1.55-.68-2.06-.46-.51-1.06-.77-1.82-.77-.38,0-.72.07-1.03.2-.31.13-.57.33-.79.57-.23.25-.4.54-.51.89-.12.34-.17.73-.17,1.16,0,.85.23,1.53.68,2.05s1.06.77,1.82.77Z"/>
      <path d="M252.12,209.21c-.52,0-.98-.1-1.37-.29-.4-.19-.7-.46-.92-.8-.21-.35-.32-.74-.32-1.19,0-.49.12-.92.37-1.27s.59-.64,1.04-.83c.45-.19.98-.29,1.59-.29h1.75c.16,0,.27-.03.34-.09s.11-.15.11-.27c0-.51-.18-.93-.53-1.25-.35-.33-.85-.49-1.49-.49-.37,0-.71.07-1,.21-.3.14-.54.33-.73.56-.19.23-.29.49-.31.77h-1.16c.05-.5.22-.94.52-1.32.29-.38.68-.68,1.15-.9.47-.22.99-.33,1.54-.33.66,0,1.23.12,1.7.35.47.24.84.56,1.11.98.27.42.4.91.4,1.47v4.88h-1.2v-1.31c-.14.28-.34.53-.59.74-.25.22-.55.38-.89.5s-.71.18-1.11.18ZM252.3,208.19c.76,0,1.35-.22,1.78-.67.42-.44.64-1.06.64-1.84v-.17h-2.13c-.55,0-1,.12-1.34.37-.34.25-.51.59-.51,1.03,0,.38.14.69.43.92s.66.35,1.13.35Z"/>
      <path d="M258.09,212.15v-10.62h1.2v1.23c.24-.4.59-.72,1.05-.98.46-.25.96-.38,1.49-.38.78,0,1.44.17,1.98.52.54.35.95.81,1.23,1.4.28.59.42,1.25.42,1.98,0,.55-.08,1.06-.24,1.53-.16.47-.39.88-.7,1.25-.3.36-.68.64-1.13.83-.45.19-.97.29-1.56.29-.35,0-.69-.06-1.02-.17-.33-.11-.63-.27-.89-.47s-.47-.44-.63-.72v4.31h-1.2ZM261.69,208.13c.38,0,.72-.07,1.04-.2.31-.13.57-.32.79-.57.22-.25.39-.54.51-.89.12-.34.18-.73.18-1.16,0-.86-.23-1.55-.68-2.06-.46-.51-1.07-.77-1.84-.77-.37,0-.71.07-1.02.2-.31.13-.58.33-.79.57-.22.25-.39.54-.51.89-.12.34-.18.73-.18,1.16,0,.85.23,1.53.69,2.05s1.07.77,1.82.77Z"/>
    </g>
    <path d="M115.31,462.93c0-66.27,53.72-119.99,119.99-119.99s119.99,53.72,119.99,119.99" fill="none" opacity=".2" stroke="#000" stroke-miterlimit="10" stroke-width=".82"/>
    <path d="M314.52,462.93c0-43.68-35.54-79.22-79.22-79.22s-79.22,35.54-79.22,79.22" fill="none" opacity=".3" stroke="#000" stroke-miterlimit="10" stroke-width=".82"/>
    <path d="M74.54,462.93c0-88.65,72.12-160.77,160.77-160.77s160.77,72.12,160.77,160.77" fill="none" opacity=".05" stroke="#000" stroke-miterlimit="10" stroke-width=".82"/>
    <g>
      <line x1="237.2" y1="462.07" x2="106.04" y2="88.4" fill="none" stroke="#000" stroke-miterlimit="10" stroke-width=".82"/>
      <polygon points="110.08 89.85 109.7 90.57 106.14 88.7 104.54 92.38 103.79 92.06 105.75 87.57 110.08 89.85"/>
    </g>
    <g opacity=".3">
      <g>
        <line x1="237.26" y1="462.07" x2="238.58" y2="458.3" fill="none" stroke="#000" stroke-miterlimit="10" stroke-width=".82"/>
        <line x1="241.21" y1="450.83" x2="365.79" y2="95.91" fill="none" stroke="#000" stroke-dasharray="7.92 7.92" stroke-miterlimit="10" stroke-width=".82"/>
        <line x1="367.1" y1="92.18" x2="368.42" y2="88.4" fill="none" stroke="#000" stroke-miterlimit="10" stroke-width=".82"/>
        <polygon points="370.67 92.06 369.93 92.38 368.32 88.7 364.76 90.57 364.38 89.85 368.72 87.57 370.67 92.06"/>
      </g>
    </g>
    <g>
      <path d="M171.48,178.47c23.53-3.79,49.13-5.7,75.88-5.35,20.69.27,40.65,1.88,59.46,4.62" fill="none" stroke="#000" stroke-miterlimit="10" stroke-width=".8"/>
      <polygon points="174.56 181.36 175.01 180.7 171.79 178.45 174.27 175.4 173.65 174.9 170.63 178.61 174.56 181.36"/>
      <polygon points="303.78 180.66 303.32 180.01 306.52 177.72 304.01 174.69 304.63 174.19 307.69 177.88 303.78 180.66"/>
    </g>
  </g>
  <g opacity=".05">
    <path d="M462.3.77v461.53H.77V.77h461.53M463.07,0H0v463.07h463.07V0h0Z"/>
    <line y1="435.83" x2="463.07" y2="435.83" fill="none" stroke="#000" stroke-miterlimit="10" stroke-width=".77"/>
    <line y1="408.59" x2="463.07" y2="408.59" fill="none" stroke="#000" stroke-miterlimit="10" stroke-width=".77"/>
    <line y1="381.35" x2="463.07" y2="381.35" fill="none" stroke="#000" stroke-miterlimit="10" stroke-width=".77"/>
    <line y1="354.11" x2="463.07" y2="354.11" fill="none" stroke="#000" stroke-miterlimit="10" stroke-width=".77"/>
    <line y1="326.87" x2="463.07" y2="326.87" fill="none" stroke="#000" stroke-miterlimit="10" stroke-width=".77"/>
    <line y1="299.63" x2="463.07" y2="299.63" fill="none" stroke="#000" stroke-miterlimit="10" stroke-width=".77"/>
    <line y1="272.39" x2="463.07" y2="272.39" fill="none" stroke="#000" stroke-miterlimit="10" stroke-width=".77"/>
    <line y1="245.15" x2="463.07" y2="245.15" fill="none" stroke="#000" stroke-miterlimit="10" stroke-width=".77"/>
    <line y1="217.91" x2="463.07" y2="217.91" fill="none" stroke="#000" stroke-miterlimit="10" stroke-width=".77"/>
    <line y1="190.67" x2="463.07" y2="190.67" fill="none" stroke="#000" stroke-miterlimit="10" stroke-width=".77"/>
    <line y1="163.43" x2="463.07" y2="163.43" fill="none" stroke="#000" stroke-miterlimit="10" stroke-width=".77"/>
    <line y1="136.2" x2="463.07" y2="136.2" fill="none" stroke="#000" stroke-miterlimit="10" stroke-width=".77"/>
    <line y1="108.96" x2="463.07" y2="108.96" fill="none" stroke="#000" stroke-miterlimit="10" stroke-width=".77"/>
    <line y1="81.72" x2="463.07" y2="81.72" fill="none" stroke="#000" stroke-miterlimit="10" stroke-width=".77"/>
    <line y1="54.48" x2="463.07" y2="54.48" fill="none" stroke="#000" stroke-miterlimit="10" stroke-width=".77"/>
    <line y1="27.24" x2="463.07" y2="27.24" fill="none" stroke="#000" stroke-miterlimit="10" stroke-width=".77"/>
    <line x1="435.83" y1="0" x2="435.83" y2="463.07" fill="none" stroke="#000" stroke-miterlimit="10" stroke-width=".77"/>
    <line x1="408.59" y1="0" x2="408.59" y2="463.07" fill="none" stroke="#000" stroke-miterlimit="10" stroke-width=".77"/>
    <line x1="381.35" y1="0" x2="381.35" y2="463.07" fill="none" stroke="#000" stroke-miterlimit="10" stroke-width=".77"/>
    <line x1="354.11" y1="0" x2="354.11" y2="463.07" fill="none" stroke="#000" stroke-miterlimit="10" stroke-width=".77"/>
    <line x1="326.87" y1="0" x2="326.87" y2="463.07" fill="none" stroke="#000" stroke-miterlimit="10" stroke-width=".77"/>
    <line x1="299.63" y1="0" x2="299.63" y2="463.07" fill="none" stroke="#000" stroke-miterlimit="10" stroke-width=".77"/>
    <line x1="272.39" y1="0" x2="272.39" y2="463.07" fill="none" stroke="#000" stroke-miterlimit="10" stroke-width=".77"/>
    <line x1="245.15" y1="0" x2="245.15" y2="463.07" fill="none" stroke="#000" stroke-miterlimit="10" stroke-width=".77"/>
    <line x1="217.91" y1="0" x2="217.91" y2="463.07" fill="none" stroke="#000" stroke-miterlimit="10" stroke-width=".77"/>
    <line x1="190.67" y1="0" x2="190.67" y2="463.07" fill="none" stroke="#000" stroke-miterlimit="10" stroke-width=".77"/>
    <line x1="163.43" y1="0" x2="163.43" y2="463.07" fill="none" stroke="#000" stroke-miterlimit="10" stroke-width=".77"/>
    <line x1="136.2" y1="0" x2="136.2" y2="463.07" fill="none" stroke="#000" stroke-miterlimit="10" stroke-width=".77"/>
    <line x1="108.96" y1="0" x2="108.96" y2="463.07" fill="none" stroke="#000" stroke-miterlimit="10" stroke-width=".77"/>
    <line x1="81.72" y1="0" x2="81.72" y2="463.07" fill="none" stroke="#000" stroke-miterlimit="10" stroke-width=".77"/>
    <line x1="54.48" y1="0" x2="54.48" y2="463.07" fill="none" stroke="#000" stroke-miterlimit="10" stroke-width=".77"/>
    <line x1="27.24" y1="0" x2="27.24" y2="463.07" fill="none" stroke="#000" stroke-miterlimit="10" stroke-width=".77"/>
  </g>
</svg>