<svg width="143" height="40" viewBox="0 0 143 40" fill="none" xmlns="http://www.w3.org/2000/svg">
<mask id="mask0_21_711" style="mask-type:alpha" maskUnits="userSpaceOnUse" x="0" y="0" width="142" height="40">
<rect width="140.566" height="40" transform="translate(0.81131)" fill="white"/>
</mask>
<g mask="url(#mask0_21_711)">
<rect width="143" height="40" fill="#3A7F59"/>
</g>
<rect width="143" height="40" fill="#353535"/>
<path d="M50.7635 25V21.124H46.7555V25H45.7355V16.6H46.7555V20.2H50.7635V16.6H51.7955V25H50.7635ZM54.8685 25V16.6H60.1725V17.524H55.9005V20.2H59.3925V21.124H55.9005V24.076H60.3045V25H54.8685ZM62.2416 25L65.3256 16.6H66.2976L69.3696 25H68.3136L67.5216 22.732H64.0896L63.2856 25H62.2416ZM64.4136 21.82H67.1976L65.8176 17.872L64.4136 21.82ZM71.9328 25V16.6H72.9648V24.076H77.1528V25H71.9328ZM81.1724 25V17.524H78.5084V16.6H84.8684V17.524H82.2044V25H81.1724ZM92.2315 25V21.124H88.2235V25H87.2035V16.6H88.2235V20.2H92.2315V16.6H93.2635V25H92.2315Z" fill="white"/>
</svg>
