<?xml version="1.0" encoding="UTF-8"?>
<svg id="Layer_1" xmlns="http://www.w3.org/2000/svg" version="1.1" viewBox="0 0 423.48 107.14">
  <!-- Generator: Adobe Illustrator 30.2.1, SVG Export Plug-In . SVG Version: 2.1.1 Build 1)  -->
  <path d="M121.97,64.52c4.19,0,7.05-2.2,8.53-6.49l2.1.66c-1.33,5.31-5.47,8.79-11.29,8.79-7.51,0-12.62-5.93-12.62-13.8s4.8-13.75,12.32-13.75c8.64,0,11.75,6.75,11.34,13.08h-19.73v.36c0,6.95,4.14,11.14,9.35,11.14ZM128.4,50.88c-.2-4.8-2.91-8.74-7.41-8.74s-7.46,3.83-8.18,8.74h15.59Z" fill="#fff"/>
  <path d="M149.41,66.57l.72-2.25-5.57-8.43-5.62,8.43.72,2.25-.05.41h-6.95v-.41l2.96-2.3,7.56-10.53-6.9-10.42-2.81-2.45v-.41h7.67l.1.41-.77,2.35,4.85,7.36,4.96-7.36-.72-2.35.05-.41h6.95v.41l-2.96,2.45-6.85,9.4,7.61,11.55,2.86,2.3v.41h-7.72l-.1-.41Z" fill="#fff"/>
  <path d="M166.32,66.57v.41h-7.21v-.41l1.79-2.3v-20.24l-1.79-2.5v-.36l5.42-.97v24.07l1.79,2.3ZM159.99,33.1c0-1.48,1.12-2.66,2.61-2.66,1.58,0,2.76,1.18,2.76,2.66s-1.18,2.66-2.76,2.66c-1.48,0-2.61-1.18-2.61-2.66Z" fill="#fff"/>
  <path d="M169.49,61.1l2.55-2.91.41.05c.77,4.09,3.53,7,7.61,7,3.37,0,5.83-2.1,5.83-5.11,0-2.56-1.64-4.14-4.55-4.96l-4.6-1.28c-3.53-.97-6.29-2.76-6.29-6.85s3.78-7.1,8.94-7.1c4.45,0,7.67,2.04,9.15,5.21l-2.3,2.66h-.41c-.72-3.53-3.32-5.67-6.49-5.67s-5.31,1.89-5.31,4.34c0,2.15,1.43,3.37,4.04,4.09l4.55,1.23c3.99,1.12,6.95,3.12,6.95,7.77s-3.99,7.92-9.56,7.92-9.3-2.91-10.53-6.39Z" fill="#fff"/>
  <path d="M195.81,60.64v-17.83h-4.96v-1.89c4.45-.31,6.08-1.33,6.54-6.69h2.04v6.23l7.05-.31.15,2.66h-7.21v17.99c0,3.01,1.69,4.14,3.73,4.14,1.02,0,2.15-.15,3.01-.82l.2,1.89c-.77.77-2.2,1.48-4.09,1.48-3.78,0-6.49-2.1-6.49-6.85Z" fill="#fff"/>
  <path d="M221,64.52c4.19,0,7.05-2.2,8.53-6.49l2.1.66c-1.33,5.31-5.47,8.79-11.29,8.79-7.51,0-12.62-5.93-12.62-13.8s4.8-13.75,12.32-13.75c8.64,0,11.75,6.75,11.34,13.08h-19.73v.36c0,6.95,4.14,11.14,9.35,11.14ZM227.44,50.88c-.2-4.8-2.91-8.74-7.41-8.74s-7.46,3.83-8.18,8.74h15.59Z" fill="#fff"/>
  <path d="M235.26,66.57l1.79-2.3v-20.24l-1.79-2.5v-.36l5.42-.97v5.67c1.58-3.58,4.8-5.93,8.74-5.93,5.21,0,8.89,3.22,8.89,8.99v15.33l1.79,2.3v.41h-7.2v-.41l1.79-2.3v-14.87c0-4.39-2.5-6.59-6.03-6.59-3.78,0-7,2.91-7.97,7.61v13.85l1.79,2.3v.41h-7.21v-.41Z" fill="#fff"/>
  <path d="M263.47,53.69c0-8.23,5.42-13.75,12.88-13.75,5.26,0,9.15,2.86,10.37,6.39l-2.4,2.56-.36-.05c-1.07-3.99-3.73-6.59-7.61-6.59-5.37,0-8.94,4.45-8.94,11.19s4.39,11.04,9.35,11.04c3.93,0,7-2.25,8.33-6.85l2.1.46c-1.18,5.77-5.31,9.4-11.09,9.4-7.46,0-12.62-5.67-12.62-13.8Z" fill="#fff"/>
  <path d="M303.28,64.52c4.19,0,7.05-2.2,8.53-6.49l2.1.66c-1.33,5.31-5.47,8.79-11.29,8.79-7.51,0-12.62-5.93-12.62-13.8s4.8-13.75,12.32-13.75c8.64,0,11.75,6.75,11.34,13.08h-19.73v.36c0,6.95,4.14,11.14,9.35,11.14ZM309.72,50.88c-.2-4.8-2.91-8.74-7.41-8.74s-7.46,3.83-8.18,8.74h15.59Z" fill="#fff"/>
  <path d="M121.97,64.52c4.19,0,7.05-2.2,8.53-6.49l2.1.66c-1.33,5.31-5.47,8.79-11.29,8.79-7.51,0-12.62-5.93-12.62-13.8s4.8-13.75,12.32-13.75c8.64,0,11.75,6.75,11.34,13.08h-19.73v.36c0,6.95,4.14,11.14,9.35,11.14ZM128.4,50.88c-.2-4.8-2.91-8.74-7.41-8.74s-7.46,3.83-8.18,8.74h15.59Z" fill="#fff"/>
  <path d="M149.41,66.57l.72-2.25-5.57-8.43-5.62,8.43.72,2.25-.05.41h-6.95v-.41l2.96-2.3,7.56-10.53-6.9-10.42-2.81-2.45v-.41h7.67l.1.41-.77,2.35,4.85,7.36,4.96-7.36-.72-2.35.05-.41h6.95v.41l-2.96,2.45-6.85,9.4,7.61,11.55,2.86,2.3v.41h-7.72l-.1-.41Z" fill="#fff"/>
  <path d="M166.32,66.57v.41h-7.21v-.41l1.79-2.3v-20.24l-1.79-2.5v-.36l5.42-.97v24.07l1.79,2.3ZM159.99,33.1c0-1.48,1.12-2.66,2.61-2.66,1.58,0,2.76,1.18,2.76,2.66s-1.18,2.66-2.76,2.66c-1.48,0-2.61-1.18-2.61-2.66Z" fill="#fff"/>
  <path d="M169.49,61.1l2.55-2.91.41.05c.77,4.09,3.53,7,7.61,7,3.37,0,5.83-2.1,5.83-5.11,0-2.56-1.64-4.14-4.55-4.96l-4.6-1.28c-3.53-.97-6.29-2.76-6.29-6.85s3.78-7.1,8.94-7.1c4.45,0,7.67,2.04,9.15,5.21l-2.3,2.66h-.41c-.72-3.53-3.32-5.67-6.49-5.67s-5.31,1.89-5.31,4.34c0,2.15,1.43,3.37,4.04,4.09l4.55,1.23c3.99,1.12,6.95,3.12,6.95,7.77s-3.99,7.92-9.56,7.92-9.3-2.91-10.53-6.39Z" fill="#fff"/>
  <path d="M195.81,60.64v-17.83h-4.96v-1.89c4.45-.31,6.08-1.33,6.54-6.69h2.04v6.23l7.05-.31.15,2.66h-7.21v17.99c0,3.01,1.69,4.14,3.73,4.14,1.02,0,2.15-.15,3.01-.82l.2,1.89c-.77.77-2.2,1.48-4.09,1.48-3.78,0-6.49-2.1-6.49-6.85Z" fill="#fff"/>
  <path d="M221,64.52c4.19,0,7.05-2.2,8.53-6.49l2.1.66c-1.33,5.31-5.47,8.79-11.29,8.79-7.51,0-12.62-5.93-12.62-13.8s4.8-13.75,12.32-13.75c8.64,0,11.75,6.75,11.34,13.08h-19.73v.36c0,6.95,4.14,11.14,9.35,11.14ZM227.44,50.88c-.2-4.8-2.91-8.74-7.41-8.74s-7.46,3.83-8.18,8.74h15.59Z" fill="#fff"/>
  <path d="M235.26,66.57l1.79-2.3v-20.24l-1.79-2.5v-.36l5.42-.97v5.67c1.58-3.58,4.8-5.93,8.74-5.93,5.21,0,8.89,3.22,8.89,8.99v15.33l1.79,2.3v.41h-7.2v-.41l1.79-2.3v-14.87c0-4.39-2.5-6.59-6.03-6.59-3.78,0-7,2.91-7.97,7.61v13.85l1.79,2.3v.41h-7.21v-.41Z" fill="#fff"/>
  <path d="M263.47,53.69c0-8.23,5.42-13.75,12.88-13.75,5.26,0,9.15,2.86,10.37,6.39l-2.4,2.56-.36-.05c-1.07-3.99-3.73-6.59-7.61-6.59-5.37,0-8.94,4.45-8.94,11.19s4.39,11.04,9.35,11.04c3.93,0,7-2.25,8.33-6.85l2.1.46c-1.18,5.77-5.31,9.4-11.09,9.4-7.46,0-12.62-5.67-12.62-13.8Z" fill="#fff"/>
  <path d="M303.28,64.52c4.19,0,7.05-2.2,8.53-6.49l2.1.66c-1.33,5.31-5.47,8.79-11.29,8.79-7.51,0-12.62-5.93-12.62-13.8s4.8-13.75,12.32-13.75c8.64,0,11.75,6.75,11.34,13.08h-19.73v.36c0,6.95,4.14,11.14,9.35,11.14ZM309.72,50.88c-.2-4.8-2.91-8.74-7.41-8.74s-7.46,3.83-8.18,8.74h15.59Z" fill="#fff"/>
</svg>