<svg width="15" height="14" viewBox="0 0 15 14" fill="none" xmlns="http://www.w3.org/2000/svg">
<path d="M7.5 10.609C8.37069 10.609 9.10653 10.3085 9.7075 9.7075C10.3085 9.10653 10.609 8.37069 10.609 7.5C10.609 6.62931 10.3085 5.89347 9.7075 5.2925C9.10653 4.69153 8.37069 4.39104 7.5 4.39104C6.62931 4.39104 5.89347 4.69153 5.2925 5.2925C4.69153 5.89347 4.39104 6.62931 4.39104 7.5C4.39104 8.37069 4.69153 9.10653 5.2925 9.7075C5.89347 10.3085 6.62931 10.609 7.5 10.609ZM7.5 9.77563C6.8525 9.77563 6.31139 9.5582 5.87667 9.12333C5.4418 8.68861 5.22437 8.1475 5.22437 7.5C5.22437 6.8525 5.4418 6.31139 5.87667 5.87667C6.31139 5.44181 6.8525 5.22438 7.5 5.22438C8.1475 5.22438 8.68861 5.44181 9.12333 5.87667C9.55819 6.31139 9.77563 6.8525 9.77563 7.5C9.77563 8.1475 9.55819 8.68861 9.12333 9.12333C8.68861 9.5582 8.1475 9.77563 7.5 9.77563ZM0 13.3333V1.66667H3.81083L5.3525 0H9.6475L11.1892 1.66667H15V13.3333H0ZM0.833333 12.5H14.1667V2.5H10.8237L9.28688 0.833333H5.71313L4.17625 2.5H0.833333V12.5Z" fill="white"/>
</svg>
