<?xml version="1.0" encoding="UTF-8"?>
<svg id="Layer_1" xmlns="http://www.w3.org/2000/svg" xmlns:xlink="http://www.w3.org/1999/xlink" version="1.1" viewBox="0 0 136 136">
  <!-- Generator: Adobe Illustrator 30.2.1, SVG Export Plug-In . SVG Version: 2.1.1 Build 1)  -->
  <defs>
    <mask id="mask" x="3.13" y="37.3" width="116.46" height="18.85" maskUnits="userSpaceOnUse">
      <g id="path-8-inside-2_93_3551">
        <path d="M3.13,37.3h116.46v18.65H3.13v-18.65Z" fill="#fff"/>
      </g>
    </mask>
    <clipPath id="clippath">
      <rect x="3.13" y="45.07" width="107.86" height="7.77" fill="none"/>
    </clipPath>
    <mask id="mask-1" x="3.13" y="69.94" width="116.46" height="13.79" maskUnits="userSpaceOnUse">
      <g id="path-30-inside-3_93_3551">
        <path d="M3.13,69.94h116.46v13.6H3.13v-13.6Z" fill="#fff"/>
      </g>
    </mask>
    <clipPath id="clippath-1">
      <rect x="8.6" y="85.87" width="102.39" height="7.77" fill="none"/>
    </clipPath>
    <clipPath id="clippath-2">
      <ellipse cx="115.68" cy="89.76" rx="3.91" ry="3.89" fill="none"/>
    </clipPath>
    <mask id="mask-2" x="3.13" y="95.98" width="116.46" height="12.63" maskUnits="userSpaceOnUse">
      <g id="path-45-inside-4_93_3551">
        <path d="M3.13,95.98h116.46v12.43H3.13v-12.43Z" fill="#fff"/>
      </g>
    </mask>
    <clipPath id="clippath-5">
      <rect x="8.6" y="98.31" width="102.39" height="7.77" fill="none"/>
    </clipPath>
    <clipPath id="clippath-6">
      <ellipse cx="115.68" cy="102.19" rx="3.91" ry="3.89" fill="none"/>
    </clipPath>
    <clipPath id="clippath-9">
      <ellipse cx="115.68" cy="113.85" rx="3.91" ry="3.89" fill="none"/>
    </clipPath>
    <clipPath id="clippath-12">
      <rect y="120.26" width="122.32" height="15.54" fill="none"/>
    </clipPath>
    <mask id="mask-3" x="0" y="120.07" width="122.32" height="15.74" maskUnits="userSpaceOnUse">
      <g id="path-59-inside-5_93_3551">
        <path d="M0,120.26h122.32v15.54H0v-15.54Z" fill="#fff"/>
      </g>
    </mask>
    <linearGradient id="linear-gradient" x1="61.16" y1="17.74" x2="61.16" y2="2.19" gradientTransform="translate(0 138) scale(1 -1)" gradientUnits="userSpaceOnUse">
      <stop offset="0" stop-color="#0a0a0a" stop-opacity="0"/>
      <stop offset=".49" stop-color="#000"/>
    </linearGradient>
    <clipPath id="clippath-15">
      <rect x="125.25" y="52.26" width="7.82" height="7.77" fill="none"/>
    </clipPath>
    <clipPath id="clippath-16">
      <rect x="125.25" y="75.97" width="7.82" height="7.77" fill="none"/>
    </clipPath>
  </defs>
  <rect width="136" height="136" fill="none"/>
  <rect width="136" height="136"/>
  <rect width="122.32" height="136" fill="none"/>
  <rect y="4.66" width="122.32" height="73.83" fill="none"/>
  <rect y="4.66" width="122.32" height="73.83" fill="none"/>
  <rect y="4.66" width="122.32" height="73.83" fill="none"/>
  <path d="M6.05,8.84v-.88h-.91v.88h-.23v-1.9h.23v.82h.91v-.82h.24v1.9h-.24Z" fill="#fff"/>
  <path d="M7.25,8.84l.86-1.9h.19l-.86,1.9h-.19ZM8.79,8.84l.86-1.9h.19l-.86,1.9h-.19ZM10.33,8.84l.86-1.9h.19l-.86,1.9h-.19Z" fill="#fff"/>
  <path d="M12.95,8.86c-.38,0-.68-.25-.68-.62h.23c0,.25.2.41.46.41s.43-.13.43-.35-.17-.34-.43-.34h-.15v-.2h.15c.23,0,.36-.14.36-.33s-.15-.3-.38-.3-.36.13-.37.35h-.23c.01-.34.25-.56.6-.56s.61.21.61.5c0,.19-.12.36-.28.42.2.07.35.23.35.46,0,.36-.31.56-.68.56ZM14.85,8.86c-.38,0-.68-.25-.68-.62h.23c0,.25.2.41.46.41s.43-.13.43-.35-.17-.34-.43-.34h-.15v-.2h.15c.23,0,.36-.14.36-.33s-.15-.3-.38-.3-.36.13-.37.35h-.23c.01-.34.25-.56.6-.56s.61.21.61.5c0,.19-.12.36-.28.42.2.07.35.23.35.46,0,.36-.31.56-.68.56ZM16.11,7.55c-.02-.39.24-.64.63-.64.36,0,.62.22.62.57,0,.26-.16.46-.45.6l-.27.14c-.16.08-.33.23-.33.41h1.06v.21h-1.29v-.16c0-.34.25-.55.46-.65l.29-.15c.21-.1.28-.23.28-.4,0-.21-.16-.36-.38-.36-.25,0-.4.17-.39.44h-.24ZM18.62,6.91c.44,0,.71.34.71.88,0,.71-.32,1.07-.77,1.07-.33,0-.59-.21-.64-.51h.23c.04.19.21.3.41.3.33,0,.53-.32.55-.74-.09.17-.29.3-.53.3-.39,0-.65-.27-.65-.64s.29-.65.68-.65ZM18.62,7.12c-.26,0-.44.19-.44.44s.17.43.43.43.46-.18.46-.44-.18-.44-.44-.44ZM20.52,8.86c-.47,0-.65-.32-.65-.9v-.15c0-.58.19-.9.65-.9h.09c.47,0,.65.32.65.9v.15c0,.58-.18.9-.65.9h-.09ZM20.61,8.65c.3,0,.42-.22.42-.66v-.21c0-.44-.12-.66-.42-.66h-.08c-.3,0-.42.22-.42.66v.21c0,.44.13.66.42.66h.08ZM22.76,8.84v-.48h-1.02v-.21l.98-1.22h.28v1.22h.3v.21h-.3v.48h-.24ZM21.99,8.15h.77v-.96l-.77.96Z" fill="#fff"/>
  <rect y="4.66" width="122.71" height="114.05" fill="none"/>
  <g mask="url(#mask)">
    <path d="M119.59,55.95v-.19H3.13v.39h116.46v-.19Z" fill="#fff" fill-opacity=".15"/>
  </g>
  <path d="M3.53,38.7h1.25c.32,0,.58.08.76.24.19.16.28.38.28.65,0,.2-.05.37-.14.51-.09.14-.22.24-.38.32.13.07.23.17.3.3.08.13.12.27.13.44l.06.81h-.39l-.06-.79c0-.16-.06-.29-.16-.39-.09-.1-.22-.15-.37-.15h-.89v1.33h-.4v-3.26ZM4.77,40.28c.22,0,.38-.06.48-.18.11-.12.16-.27.16-.44s-.05-.32-.15-.43-.26-.17-.48-.17h-.84v1.22h.84ZM7.29,42c-.27,0-.48-.09-.64-.26-.16-.17-.24-.4-.24-.69v-1.44h.38v1.38c0,.2.05.37.16.49.11.12.25.18.43.18.2,0,.37-.07.5-.22.13-.15.2-.33.2-.56v-1.27h.38v2.35h-.38v-.45c-.06.16-.16.28-.3.36-.13.08-.29.13-.48.13ZM9.15,39.62h.38v.45c.06-.16.16-.28.3-.36.14-.08.3-.13.49-.13.27,0,.48.09.64.26.16.17.24.4.24.69v1.44h-.38v-1.38c0-.2-.05-.36-.16-.48-.11-.12-.25-.19-.43-.19-.2,0-.37.07-.5.22s-.2.33-.2.56v1.27h-.38v-2.35ZM11.87,39.62h.38v.45c.06-.16.16-.28.3-.36.14-.08.3-.13.49-.13.27,0,.48.09.64.26.16.17.24.4.24.69v1.44h-.38v-1.38c0-.2-.05-.36-.16-.48-.11-.12-.25-.19-.43-.19-.2,0-.37.07-.5.22-.13.15-.2.33-.2.56v1.27h-.38v-2.35ZM14.59,39.62h.38v2.35h-.38v-2.35ZM15,38.65v.52h-.43v-.52h.43ZM15.69,39.62h.38v.45c.06-.16.16-.28.3-.36.14-.08.3-.13.49-.13.27,0,.48.09.64.26.16.17.24.4.24.69v1.44h-.38v-1.38c0-.2-.05-.36-.16-.48-.11-.12-.25-.19-.43-.19-.2,0-.37.07-.5.22-.13.15-.2.33-.2.56v1.27h-.38v-2.35ZM18.56,42.6h1.09c.15,0,.28-.05.38-.15.1-.1.15-.23.15-.39v-.41c-.06.11-.16.2-.3.27-.14.07-.31.1-.49.1-.23,0-.44-.05-.61-.16-.17-.11-.3-.25-.39-.43-.09-.18-.13-.39-.13-.62s.04-.44.13-.62c.09-.18.22-.33.39-.43.17-.11.38-.16.61-.16.16,0,.31.04.45.11.15.07.26.16.33.28v-.35h.38v2.45c0,.25-.08.46-.24.61-.16.16-.37.24-.63.24h-1.12v-.32ZM19.42,41.67c.24,0,.43-.08.57-.24.14-.16.22-.37.22-.64s-.07-.48-.22-.63c-.14-.16-.33-.24-.57-.24s-.43.08-.57.24c-.14.16-.21.37-.21.63s.07.48.21.64c.14.16.33.24.57.24ZM22.43,38.7h.4v3.26h-.4v-3.26ZM23.58,39.62h.38v.45c.06-.16.16-.28.3-.36.14-.08.3-.13.49-.13.27,0,.48.09.64.26.16.17.24.4.24.69v1.44h-.38v-1.38c0-.2-.05-.36-.16-.48-.11-.12-.25-.19-.43-.19-.2,0-.37.07-.5.22s-.2.33-.2.56v1.27h-.38v-2.35ZM28.18,39.06h-1.06v-.36h2.5v.36h-1.05v2.9h-.4v-2.9ZM30.04,38.65h.38v1.42c.06-.16.16-.28.3-.36.14-.08.3-.13.49-.13.27,0,.48.09.64.26.16.17.24.4.24.69v1.44h-.38v-1.38c0-.2-.05-.36-.16-.48-.11-.12-.25-.19-.43-.19-.2,0-.37.07-.5.22-.13.15-.2.33-.2.56v1.27h-.38v-3.32ZM33.76,42c-.23,0-.43-.05-.61-.16-.18-.11-.31-.26-.41-.45-.1-.19-.15-.4-.15-.62s.05-.43.14-.61c.09-.18.23-.33.39-.43s.37-.15.6-.15.42.05.59.14c.17.09.29.22.38.39.09.17.14.36.14.56,0,.04,0,.09,0,.16h-1.85c.02.24.1.44.24.6.15.16.33.23.55.23.19,0,.35-.04.46-.12.12-.08.2-.2.23-.35h.38c-.04.24-.16.44-.36.58-.19.14-.44.21-.73.21ZM34.44,40.54c-.02-.2-.09-.36-.22-.47-.13-.12-.29-.17-.5-.17s-.36.06-.49.17c-.13.11-.21.27-.24.48h1.45ZM36.55,38.7h1.24c.21,0,.4.04.56.12s.28.19.37.34c.08.15.13.31.13.5s-.04.36-.13.5c-.08.15-.21.26-.37.34s-.35.12-.56.12h-.83v1.33h-.4v-3.26ZM37.79,40.28c.22,0,.38-.06.48-.17.1-.12.15-.26.15-.44s-.05-.32-.15-.44-.26-.17-.48-.17h-.83v1.22h.83ZM39.97,42c-.25,0-.45-.07-.6-.2-.15-.13-.23-.3-.23-.51,0-.23.08-.41.25-.54.17-.14.4-.21.69-.21h.54c.05,0,.09,0,.11-.03.02-.02.03-.05.03-.08,0-.16-.06-.3-.17-.39-.11-.1-.27-.15-.46-.15-.17,0-.32.05-.44.14-.12.09-.19.2-.2.33h-.36c.01-.15.06-.28.15-.4.09-.12.21-.22.36-.28.15-.07.31-.1.49-.1.31,0,.55.08.73.24.18.16.27.37.27.63v1.52h-.38v-.41c-.06.14-.17.25-.31.33s-.31.12-.49.12ZM40.02,41.69c.24,0,.42-.07.55-.21.13-.14.2-.33.2-.57v-.06h-.66c-.18,0-.32.04-.43.12-.1.08-.15.18-.15.32,0,.12.04.21.13.29.09.07.21.11.36.11ZM41.83,39.62h.38v.48c.05-.16.13-.28.23-.36.1-.08.24-.12.41-.12h.3v.33h-.32c-.23,0-.38.09-.48.27-.09.17-.14.41-.14.72v1.04h-.38v-2.35ZM43.57,38.65h.38v1.97l1.12-1h.5l-1.02.92,1.11,1.43h-.47l-.91-1.18-.32.29v.9h-.38v-3.32ZM46.87,39.62h.38l.52,1.87.58-1.87h.37l.58,1.87.52-1.87h.38l-.72,2.35h-.36l-.58-1.87-.58,1.87h-.36l-.72-2.35ZM50.65,39.62h.38v2.35h-.38v-2.35ZM51.06,38.65v.52h-.43v-.52h.43ZM52.68,41.97c-.23,0-.41-.07-.54-.2-.13-.13-.2-.31-.2-.54v-1.28h-.49v-.33h.49v-.75h.38v.75h.73v.33h-.73v1.27c0,.13.03.23.1.31.07.07.16.11.28.11h.35v.33h-.36ZM53.52,38.65h.38v1.42c.06-.16.16-.28.3-.36.14-.08.3-.13.49-.13.27,0,.48.09.64.26.16.17.24.4.24.69v1.44h-.38v-1.38c0-.2-.05-.36-.16-.48-.11-.12-.25-.19-.43-.19-.2,0-.37.07-.5.22s-.2.33-.2.56v1.27h-.38v-3.32ZM58.11,39.06h-1.06v-.36h2.5v.36h-1.05v2.9h-.4v-2.9ZM60.54,42c-.23,0-.44-.05-.62-.15-.18-.11-.32-.25-.43-.43-.1-.18-.15-.39-.15-.62s.05-.44.15-.62c.1-.18.25-.33.43-.43.18-.11.39-.16.62-.16s.44.05.62.16c.18.1.33.25.43.43.1.18.15.39.15.62s-.05.44-.15.62c-.1.18-.25.33-.43.43-.18.1-.39.15-.62.15ZM60.54,41.67c.16,0,.3-.04.43-.11s.22-.18.29-.31c.07-.13.1-.28.1-.45s-.03-.32-.1-.45c-.07-.13-.17-.24-.29-.31-.13-.07-.27-.11-.43-.11s-.3.04-.43.11c-.12.07-.22.18-.29.31-.07.13-.1.28-.1.45s.03.32.1.45.16.24.29.31c.13.07.27.11.43.11ZM62.3,39.62h.38v.45c.05-.15.13-.27.26-.35.13-.09.28-.14.46-.14.19,0,.36.05.5.14.14.09.24.21.28.37.04-.15.14-.27.28-.36.15-.1.31-.14.48-.14.26,0,.46.08.6.24.15.16.22.38.22.67v1.48h-.38v-1.38c0-.2-.05-.37-.15-.49-.09-.12-.22-.19-.39-.19-.13,0-.24.04-.34.11-.09.07-.17.17-.22.29-.05.12-.08.25-.08.38v1.27h-.38v-1.38c0-.2-.05-.37-.14-.49-.09-.12-.22-.19-.39-.19-.13,0-.24.04-.33.11-.09.07-.17.17-.22.29-.05.12-.08.25-.08.38v1.27h-.38v-2.35ZM68.45,42c-.32,0-.57-.08-.75-.24-.18-.16-.27-.39-.27-.67,0-.21.06-.38.18-.52.12-.14.29-.26.51-.37-.27-.3-.4-.55-.4-.77,0-.15.03-.28.1-.39.07-.12.17-.21.3-.28.13-.07.27-.1.43-.1s.3.03.43.09c.13.06.22.15.29.26.07.11.11.24.11.38,0,.22-.06.4-.19.54-.12.14-.29.26-.51.37l.68.74.12-.18c.1-.17.2-.28.31-.33s.23-.08.38-.08v.36c-.1,0-.19.02-.27.07-.08.05-.14.11-.19.19l-.13.22.62.67h-.43l-.37-.39c-.12.15-.27.26-.43.33-.17.07-.34.1-.51.1ZM67.79,41.09c0,.18.06.32.17.42.12.1.28.15.48.15.13,0,.25-.03.38-.08.13-.06.24-.14.33-.27l-.81-.86c-.18.09-.32.18-.42.28-.09.09-.14.21-.14.35ZM68.07,39.44c0,.09.03.19.09.29.07.1.15.2.26.32.19-.1.34-.2.44-.29.1-.09.15-.21.15-.35,0-.13-.04-.23-.13-.31-.09-.08-.2-.13-.34-.13s-.25.05-.34.14c-.09.09-.13.2-.13.34ZM72.86,42c-.38,0-.68-.1-.9-.29-.22-.2-.33-.47-.36-.81h.39c.02.24.1.42.24.55.14.13.35.2.62.2.24,0,.43-.05.56-.14.14-.1.21-.24.21-.43,0-.12-.04-.23-.11-.3-.08-.08-.17-.14-.28-.18-.11-.04-.26-.09-.45-.14-.23-.06-.42-.12-.57-.17-.14-.06-.26-.15-.36-.27-.1-.12-.15-.28-.15-.48,0-.17.05-.32.14-.45s.23-.23.39-.3c.17-.07.37-.11.58-.11.33,0,.6.09.81.27.21.17.33.41.35.7h-.39c-.02-.19-.1-.33-.23-.44-.13-.11-.31-.16-.53-.16s-.4.05-.52.14c-.13.09-.19.21-.19.37,0,.12.04.22.11.3.08.07.17.13.28.17.11.04.26.08.45.12.24.06.43.11.57.17.14.06.27.15.37.27.1.12.15.29.15.51,0,.29-.11.52-.33.68-.22.16-.5.25-.86.25ZM75.31,42c-.25,0-.45-.07-.6-.2-.15-.13-.23-.3-.23-.51,0-.23.08-.41.25-.54.17-.14.4-.21.69-.21h.54c.05,0,.09,0,.11-.03.02-.02.03-.05.03-.08,0-.16-.06-.3-.17-.39-.11-.1-.27-.15-.46-.15-.17,0-.32.05-.44.14-.12.09-.19.2-.2.33h-.36c.01-.15.06-.28.15-.4.09-.12.21-.22.36-.28.15-.07.31-.1.49-.1.31,0,.55.08.73.24.18.16.27.37.27.63v1.52h-.38v-.41c-.06.14-.17.25-.31.33-.15.08-.31.12-.49.12ZM75.36,41.69c.24,0,.42-.07.55-.21.13-.14.2-.33.2-.57v-.06h-.66c-.18,0-.32.04-.43.12-.1.08-.15.18-.15.32,0,.12.04.21.13.29.09.07.21.11.36.11ZM77.17,39.62h.38v.48c.05-.16.13-.28.23-.36.1-.08.24-.12.41-.12h.3v.33h-.32c-.23,0-.38.09-.48.27-.09.17-.14.41-.14.72v1.04h-.38v-2.35ZM79.51,42c-.25,0-.45-.07-.6-.2-.15-.13-.23-.3-.23-.51,0-.23.08-.41.25-.54.17-.14.4-.21.69-.21h.54c.05,0,.09,0,.11-.03.02-.02.03-.05.03-.08,0-.16-.06-.3-.17-.39-.11-.1-.27-.15-.46-.15-.17,0-.32.05-.44.14-.12.09-.19.2-.2.33h-.36c.01-.15.06-.28.15-.4.09-.12.21-.22.36-.28.15-.07.31-.1.49-.1.31,0,.55.08.73.24.18.16.27.37.27.63v1.52h-.38v-.41c-.06.14-.17.25-.31.33-.15.08-.31.12-.49.12ZM79.57,41.69c.24,0,.42-.07.55-.21.13-.14.2-.33.2-.57v-.06h-.66c-.18,0-.32.04-.43.12-.1.08-.15.18-.15.32,0,.12.04.21.13.29.09.07.21.11.36.11ZM81.37,38.65h.38v1.42c.06-.16.16-.28.3-.36.14-.08.3-.13.49-.13.27,0,.48.09.64.26.16.17.24.4.24.69v1.44h-.38v-1.38c0-.2-.05-.36-.16-.48-.11-.12-.25-.19-.43-.19-.2,0-.37.07-.5.22s-.2.33-.2.56v1.27h-.38v-3.32Z" fill="#fff"/>
  <g clip-path="url(#clippath)">
    <path d="M3.91,45.46h16.41c.38,0,.68.3.68.68v5.63c0,.38-.31.68-.68.68H3.91c-.38,0-.68-.3-.68-.68v-5.63c0-.38.31-.68.68-.68Z" fill="none" stroke="#fff" stroke-opacity=".3" stroke-width=".19"/>
    <path d="M4.96,50.03v-1.9h1.21v.21h-.97v.61h.8v.21h-.8v.67h1v.21h-1.24ZM6.65,50.03l.62-.97-.6-.94h.25l.47.74.47-.74h.25l-.6.94.62.97h-.25l-.49-.77-.49.77h-.25ZM8.71,50.03v-1.9h1.21v.21h-.97v.61h.8v.21h-.8v.67h1v.21h-1.24ZM10.56,50.03v-1.9h.7c.38,0,.61.2.61.53,0,.22-.12.38-.3.47.15.08.25.24.26.43l.03.47h-.23l-.03-.46c-.01-.18-.13-.32-.31-.32h-.5v.78h-.23ZM11.27,49.04c.27,0,.37-.17.37-.36s-.1-.35-.37-.35h-.47v.71h.47ZM13.24,50.05c-.49,0-.84-.35-.84-.97s.35-.97.84-.97c.4,0,.67.24.73.61h-.25c-.03-.24-.21-.41-.48-.41-.37,0-.6.28-.6.76s.23.76.6.76c.27,0,.46-.16.49-.41h.24c-.04.37-.33.61-.72.61ZM14.54,50.03v-.21h.34v-1.49h-.34v-.21h.91v.21h-.34v1.49h.34v.21h-.91ZM16.77,50.05c-.46,0-.71-.26-.74-.64h.23c.02.26.18.44.5.44.27,0,.45-.1.45-.33,0-.51-1.12-.2-1.12-.9,0-.3.27-.51.65-.51s.65.22.68.56h-.23c-.02-.21-.19-.35-.45-.35s-.42.11-.42.3c0,.51,1.13.16,1.13.9,0,.35-.3.54-.69.54ZM18.08,50.03v-1.9h1.21v.21h-.97v.61h.8v.21h-.8v.67h1v.21h-1.24Z" fill="#fff"/>
    <path d="M23.45,45.46h15.24c.38,0,.68.3.68.68v5.63c0,.38-.31.68-.68.68h-15.24c-.38,0-.68-.3-.68-.68v-5.63c0-.38.31-.68.68-.68Z" fill="none" stroke="#fff" stroke-opacity=".3" stroke-width=".19"/>
    <path d="M24.47,50.03v-1.9h.7c.38,0,.61.2.61.53,0,.22-.12.38-.3.47.15.08.25.24.26.43l.03.47h-.23l-.03-.46c-.01-.18-.13-.32-.31-.32h-.5v.78h-.23ZM25.17,49.04c.27,0,.37-.17.37-.36s-.1-.35-.37-.35h-.47v.71h.47ZM27.06,50.05c-.42,0-.69-.26-.69-.67v-1.25h.23v1.26c0,.28.18.45.46.45s.46-.17.46-.45v-1.26h.23v1.25c0,.42-.27.67-.69.67ZM28.39,50.03v-1.9h.27l.89,1.53v-1.53h.23v1.9h-.27l-.88-1.52v1.52h-.23ZM30.43,50.03v-1.9h.27l.89,1.53v-1.53h.23v1.9h-.27l-.88-1.52v1.52h-.23ZM32.48,50.03v-.21h.34v-1.49h-.34v-.21h.91v.21h-.34v1.49h.34v.21h-.91ZM34.05,50.03v-1.9h.27l.89,1.53v-1.53h.23v1.9h-.27l-.88-1.52v1.52h-.23ZM36.8,50.05c-.45,0-.8-.36-.8-.98s.35-.97.84-.97c.41,0,.69.24.74.61h-.24c-.04-.24-.22-.4-.49-.4-.36,0-.6.28-.6.77s.23.76.59.76c.3,0,.51-.19.51-.43,0-.11-.05-.16-.15-.16h-.35v-.2h.4c.21,0,.33.12.33.33v.65h-.22v-.28c-.06.13-.25.3-.56.3Z" fill="#fff"/>
    <path d="M41.64,49.87c-.06,0-.11-.02-.15-.06-.04-.04-.06-.09-.06-.15v-1.39c0-.06.02-.11.06-.15s.09-.06.15-.06h1.33s.06,0,.09.02c.03.01.05.03.07.06l.64.83-.64.83s-.04.05-.07.06c-.03.01-.06.02-.09.02h-1.33ZM41.64,49.74h1.33s.03,0,.04,0c.01,0,.02-.01.03-.02l.58-.75-.58-.75s-.02-.02-.03-.02c-.01,0-.02,0-.04,0h-1.33s-.04,0-.06.02c-.02.01-.02.03-.02.06v1.39s0,.04.02.06c.02.01.03.02.06.02Z" fill="#fff" fill-opacity=".5"/>
    <path d="M45.43,50.03l-.4-1.9h.22l.31,1.5.35-1.5h.18l.34,1.5.32-1.5h.22l-.4,1.9h-.24l-.33-1.45-.33,1.45h-.24ZM48.21,50.05c-.49,0-.82-.39-.82-.97s.33-.97.82-.97.81.39.81.97-.33.97-.81.97ZM48.21,49.84c.34,0,.57-.31.57-.76s-.23-.76-.57-.76-.58.31-.58.76.24.76.58.76ZM49.6,50.03v-1.9h.7c.38,0,.61.2.61.53,0,.22-.12.38-.3.47.15.08.25.24.26.43l.03.47h-.23l-.03-.46c-.01-.18-.13-.32-.31-.32h-.5v.78h-.23ZM50.3,49.04c.27,0,.37-.17.37-.36s-.1-.35-.37-.35h-.47v.71h.47ZM51.78,50.03h-.24v-1.9h.24v.91l.83-.91h.3l-.7.76.75,1.15h-.27l-.64-.97-.27.29v.68ZM54.15,50.05c-.49,0-.82-.39-.82-.97s.33-.97.82-.97.81.39.81.97-.33.97-.81.97ZM54.14,49.84c.34,0,.57-.31.57-.76s-.23-.76-.57-.76-.58.31-.58.76.24.76.58.76ZM56.19,50.05c-.42,0-.69-.26-.69-.67v-1.25h.23v1.26c0,.28.18.45.46.45s.46-.17.46-.45v-1.26h.23v1.25c0,.42-.27.67-.69.67ZM58.01,50.03v-1.69h-.61v-.21h1.45v.21h-.61v1.69h-.24Z" fill="#fff" fill-opacity=".5"/>
    <path d="M62.74,49.87c-.06,0-.11-.02-.15-.06-.04-.04-.06-.09-.06-.15v-1.39c0-.06.02-.11.06-.15s.09-.06.15-.06h1.33s.06,0,.09.02c.03.01.05.03.07.06l.64.83-.64.83s-.04.05-.07.06c-.03.01-.06.02-.09.02h-1.33ZM62.74,49.74h1.33s.03,0,.04,0c.01,0,.02-.01.03-.02l.58-.75-.58-.75s-.02-.02-.03-.02c-.01,0-.02,0-.04,0h-1.33s-.04,0-.06.02c-.02.01-.02.03-.02.06v1.39s0,.04.02.06c.02.01.03.02.06.02Z" fill="#fff" fill-opacity=".5"/>
    <path d="M66.32,50.03v-1.9h1.21v.21h-.98v.63h.8v.21h-.8v.86h-.24ZM68.12,50.03v-.21h.34v-1.49h-.34v-.21h.91v.21h-.34v1.49h.34v.21h-.91ZM70.19,50.03v-1.69h-.61v-.21h1.45v.21h-.61v1.69h-.24ZM71.56,50.03v-1.9h.27l.89,1.53v-1.53h.23v1.9h-.27l-.88-1.52v1.52h-.23ZM73.65,50.03v-1.9h1.21v.21h-.97v.61h.8v.21h-.8v.67h1v.21h-1.24ZM76.13,50.05c-.46,0-.71-.26-.74-.64h.23c.02.26.18.44.5.44.27,0,.45-.1.45-.33,0-.51-1.12-.2-1.12-.9,0-.3.27-.51.65-.51s.65.22.68.56h-.23c-.02-.21-.19-.35-.45-.35s-.42.11-.42.3c0,.51,1.13.16,1.13.9,0,.35-.3.54-.69.54ZM78.04,50.05c-.46,0-.71-.26-.74-.64h.23c.02.26.18.44.5.44.27,0,.45-.1.45-.33,0-.51-1.12-.2-1.12-.9,0-.3.27-.51.65-.51s.65.22.68.56h-.23c-.02-.21-.19-.35-.45-.35s-.42.11-.42.3c0,.51,1.13.16,1.13.9,0,.35-.3.54-.69.54Z" fill="#fff" fill-opacity=".5"/>
    <path d="M82.67,49.87c-.06,0-.11-.02-.15-.06-.04-.04-.06-.09-.06-.15v-1.39c0-.06.02-.11.06-.15s.09-.06.15-.06h1.33s.06,0,.09.02c.03.01.05.03.07.06l.64.83-.64.83s-.04.05-.07.06c-.03.01-.06.02-.09.02h-1.33ZM82.67,49.74h1.33s.03,0,.04,0c.01,0,.02-.01.03-.02l.58-.75-.58-.75s-.02-.02-.03-.02c-.01,0-.02,0-.04,0h-1.33s-.04,0-.06.02c-.02.01-.02.03-.02.06v1.39s0,.04.02.06c.02.01.03.02.06.02Z" fill="#fff" fill-opacity=".5"/>
    <path d="M86.68,50.03v-1.69h-.61v-.21h1.45v.21h-.61v1.69h-.24ZM88.07,50.03v-1.9h.7c.38,0,.61.2.61.53,0,.22-.12.38-.3.47.15.08.25.24.26.43l.03.47h-.23l-.03-.46c-.01-.18-.13-.32-.31-.32h-.5v.78h-.23ZM88.78,49.04c.27,0,.37-.17.37-.36s-.1-.35-.37-.35h-.47v.71h.47ZM89.85,50.03l.7-1.9h.22l.7,1.9h-.24l-.18-.51h-.78l-.18.51h-.24ZM90.34,49.31h.63l-.31-.89-.32.89ZM91.99,50.03v-.21h.34v-1.49h-.34v-.21h.91v.21h-.34v1.49h.34v.21h-.91ZM93.57,50.03v-1.9h.27l.89,1.53v-1.53h.23v1.9h-.27l-.88-1.52v1.52h-.23ZM95.61,50.03v-.21h.34v-1.49h-.34v-.21h.91v.21h-.34v1.49h.34v.21h-.91ZM97.19,50.03v-1.9h.27l.89,1.53v-1.53h.23v1.9h-.27l-.88-1.52v1.52h-.23ZM99.94,50.05c-.45,0-.8-.36-.8-.98s.35-.97.84-.97c.41,0,.69.24.74.61h-.24c-.04-.24-.22-.4-.49-.4-.36,0-.6.28-.6.77s.23.76.59.76c.3,0,.51-.19.51-.43,0-.11-.05-.16-.15-.16h-.35v-.2h.4c.21,0,.33.12.33.33v.65h-.22v-.28c-.06.13-.25.3-.56.3Z" fill="#fff" fill-opacity=".5"/>
  </g>
  <path d="M111.77,48.96c0-2.15,1.75-3.89,3.91-3.89s3.91,1.74,3.91,3.89-1.75,3.89-3.91,3.89-3.91-1.74-3.91-3.89Z" fill="#fff" fill-opacity=".1"/>
  <path d="M115.6,49.04h-.9v-.16h.9v-.89h.16v.89h.9v.16h-.9v.89h-.16v-.89Z" fill="#fff"/>
  <rect x="3.13" y="59.06" width="27.94" height="7.77" fill="#fff" fill-opacity=".1"/>
  <rect x="32.63" y="59.06" width="27.94" height="7.77" fill="#fff" fill-opacity=".1"/>
  <rect x="62.14" y="59.06" width="27.94" height="7.77" fill="#fff" fill-opacity=".1"/>
  <rect x="91.64" y="59.06" width="27.94" height="7.77" fill="#fff" fill-opacity=".1"/>
  <rect x="32.63" y="59.06" width="27.94" height="7.77" fill="#3a7f59"/>
  <path d="M13.99,63.92v-1.63h.2v1.45h.82v.18h-1.02ZM15.51,63.92v-.18h.29v-1.27h-.29v-.18h.78v.18h-.29v1.27h.29v.18h-.78ZM16.91,63.92v-1.63h1.04v.18h-.84v.54h.68v.18h-.68v.73h-.2ZM18.48,63.92v-1.63h1.04v.18h-.83v.52h.68v.18h-.68v.57h.86v.18h-1.06Z" fill="#fff"/>
  <path d="M42.55,63.92v-.75h-.78v.75h-.2v-1.63h.2v.7h.78v-.7h.2v1.63h-.2ZM43.35,63.92v-1.63h1.04v.18h-.83v.52h.68v.18h-.68v.57h.86v.18h-1.06ZM44.79,63.92l.6-1.63h.19l.6,1.63h-.21l-.15-.44h-.67l-.16.44h-.2ZM45.22,63.3h.54l-.27-.77-.27.77ZM46.69,63.92v-1.63h.2v1.45h.82v.18h-1.02ZM48.49,63.92v-1.45h-.52v-.18h1.24v.18h-.52v1.45h-.2ZM50.65,63.92v-.75h-.78v.75h-.2v-1.63h.2v.7h.78v-.7h.2v1.63h-.2Z" fill="#fff"/>
  <path d="M72.67,63.92l-.35-1.63h.19l.27,1.29.3-1.29h.16l.3,1.29.27-1.29h.19l-.34,1.63h-.2l-.29-1.24-.28,1.24h-.2ZM75.05,63.94c-.42,0-.71-.34-.71-.83s.29-.83.71-.83.69.34.69.83-.28.83-.69.83ZM75.05,63.76c.29,0,.49-.26.49-.66s-.2-.66-.49-.66-.5.26-.5.66.2.66.5.66ZM76.25,63.92v-1.63h.6c.33,0,.52.17.52.45,0,.19-.1.33-.26.4.13.07.21.21.22.37l.03.41h-.19l-.03-.39c0-.16-.11-.27-.26-.27h-.43v.66h-.2ZM76.85,63.08c.23,0,.32-.15.32-.31s-.09-.3-.32-.3h-.4v.61h.4ZM78.11,63.92h-.2v-1.63h.2v.78l.72-.78h.26l-.6.65.64.98h-.23l-.55-.83-.23.25v.59Z" fill="#fff"/>
  <path d="M102.02,63.94c-.39,0-.61-.22-.63-.55h.2c.02.23.15.37.43.37.23,0,.39-.09.39-.28,0-.44-.96-.17-.96-.77,0-.26.23-.43.56-.43s.55.19.58.48h-.2c-.02-.18-.16-.3-.38-.3s-.36.1-.36.25c0,.44.97.14.97.77,0,.3-.25.46-.6.46ZM103.18,63.92v-1.63h.2v1.45h.82v.18h-1.02ZM104.72,63.92v-1.63h1.04v.18h-.83v.52h.68v.18h-.68v.57h.86v.18h-1.06ZM106.34,63.92v-1.63h1.04v.18h-.83v.52h.68v.18h-.68v.57h.86v.18h-1.06ZM107.92,63.92v-1.63h.62c.32,0,.52.2.52.48s-.2.48-.52.48h-.42v.67h-.2ZM108.54,63.08c.23,0,.32-.14.32-.31s-.09-.31-.32-.31h-.42v.61h.42Z" fill="#fff"/>
  <g mask="url(#mask-1)">
    <path d="M119.59,83.54v-.19H3.13v.39h116.46v-.19Z" fill="#fff" fill-opacity=".15"/>
  </g>
  <path d="M5.67,74.92l.12-.11-.63-.62v-.78h-.16v.84l.68.67ZM5.08,75.67c-.2,0-.39-.04-.57-.11-.18-.08-.33-.18-.47-.31-.13-.13-.24-.29-.31-.46-.08-.18-.12-.37-.12-.57s.04-.39.12-.57c.08-.18.18-.33.31-.46.13-.13.29-.24.47-.31.18-.08.37-.11.57-.11s.39.04.57.11c.18.08.33.18.47.31.13.13.24.29.31.46.08.18.12.37.12.57s-.04.39-.12.57-.18.33-.31.46c-.13.13-.29.24-.47.31-.18.08-.37.11-.57.11ZM5.08,75.51c.36,0,.67-.13.92-.38.25-.25.38-.56.38-.92s-.13-.66-.38-.92c-.25-.25-.56-.38-.92-.38s-.67.13-.92.38c-.25.25-.38.56-.38.92s.13.66.38.92c.25.25.56.38.92.38Z" fill="#fff"/>
  <path d="M8.83,75.38v-1.9h1.2v.21h-.96v.63h.79v.21h-.79v.86h-.24ZM10.17,75.38v-1.37h.22v.28c.06-.19.17-.28.37-.28h.18v.19h-.19c-.28,0-.36.25-.36.57v.6h-.22ZM11.19,75.38v-1.37h.22v1.37h-.22ZM11.17,73.45h.25v.3h-.25v-.3ZM12.39,75.4c-.42,0-.66-.31-.66-.71s.24-.71.66-.71c.19,0,.37.1.46.24v-.79h.22v1.93h-.22v-.23c-.08.15-.27.25-.46.25ZM12.42,75.21c.28,0,.46-.2.46-.51s-.18-.51-.46-.51-.46.2-.46.51.18.51.46.51ZM13.9,75.4c-.29,0-.48-.17-.48-.41,0-.27.22-.44.55-.44h.32c.06,0,.08-.02.08-.07,0-.19-.13-.32-.37-.32-.2,0-.36.13-.37.27h-.21c.02-.27.28-.46.59-.46.36,0,.58.2.58.51v.88h-.22v-.24c-.07.16-.26.26-.47.26ZM13.93,75.22c.28,0,.44-.17.44-.45v-.03h-.39c-.21,0-.34.1-.34.26,0,.14.11.23.29.23ZM15.13,75.94l.19-.52-.5-1.41h.23l.39,1.11.38-1.11h.23l-.69,1.93h-.22ZM15.97,75.56c.08,0,.13-.06.13-.14v-.29h.22v.3c0,.19-.12.32-.31.32h-.09v-.19h.04ZM17.37,75.38v-1.9h.27l.98,1.55v-1.55h.24v1.9h-.27l-.98-1.54v1.54h-.24ZM19.88,75.4c-.41,0-.7-.3-.7-.71s.29-.71.7-.71.7.29.7.71-.29.71-.7.71ZM19.88,75.21c.28,0,.48-.21.48-.51s-.19-.51-.48-.51-.48.21-.48.51.19.51.48.51ZM21.23,75.38l-.51-1.37h.23l.39,1.1.39-1.1h.22l-.5,1.37h-.23ZM23.32,73.48v1.9h-.23v-1.51s-.1.07-.17.07h-.18v-.21h.15c.12,0,.19-.05.21-.25h.23ZM24.68,75.38v-.48h-1.03v-.21l.99-1.22h.27v1.22h.3v.21h-.3v.48h-.23ZM23.9,74.7h.78v-.96l-.78.96ZM28.56,73.48v1.9h-.23v-1.51s-.1.07-.17.07h-.18v-.21h.15c.12,0,.19-.05.21-.25h.23ZM29.45,73.48v1.9h-.23v-1.51s-.1.07-.17.07h-.18v-.21h.15c.12,0,.19-.05.21-.25h.23ZM29.86,75.13h.25v.25h-.25v-.25ZM29.86,74.13h.25v.25h-.25v-.25ZM31.09,75.4c-.46,0-.65-.32-.65-.9v-.15c0-.58.19-.9.65-.9h.1c.47,0,.65.32.65.9v.15c0,.58-.19.9-.65.9h-.1ZM31.19,75.2c.3,0,.42-.22.42-.66v-.21c0-.44-.13-.66-.42-.66h-.08c-.3,0-.42.22-.42.66v.21c0,.44.13.66.42.66h.08ZM32.82,75.4c-.46,0-.65-.32-.65-.9v-.15c0-.58.19-.9.65-.9h.1c.47,0,.65.32.65.9v.15c0,.58-.19.9-.65.9h-.1ZM32.91,75.2c.3,0,.42-.22.42-.66v-.21c0-.44-.13-.66-.42-.66h-.08c-.3,0-.42.22-.42.66v.21c0,.44.13.66.42.66h.08ZM34.62,75.38v-1.9h.72c.38,0,.61.23.61.56s-.23.56-.61.56h-.49v.78h-.24ZM34.86,74.4h.49c.27,0,.37-.17.37-.36s-.1-.36-.37-.36h-.49v.71ZM36.26,75.38v-1.9h.31l.63,1.59.63-1.59h.3v1.9h-.23v-1.52l-.61,1.52h-.2l-.61-1.52v1.52h-.23ZM39.15,74.74v-.19h.84v.19h-.84ZM41.43,73.48v1.9h-.23v-1.51s-.1.07-.17.07h-.18v-.21h.15c.12,0,.19-.05.21-.25h.23ZM41.83,74.1c-.01-.39.24-.64.63-.64.36,0,.62.22.62.57,0,.25-.15.46-.45.6l-.27.14c-.16.08-.33.23-.33.41h1.06v.21h-1.29v-.16c0-.34.25-.55.47-.65l.29-.15c.21-.1.28-.23.28-.4,0-.21-.16-.36-.38-.36-.25,0-.4.17-.39.44h-.24ZM43.4,75.13h.25v.25h-.25v-.25ZM43.4,74.13h.25v.25h-.25v-.25ZM44.63,75.4c-.46,0-.65-.32-.65-.9v-.15c0-.58.19-.9.65-.9h.1c.47,0,.65.32.65.9v.15c0,.58-.19.9-.65.9h-.1ZM44.73,75.2c.3,0,.42-.22.42-.66v-.21c0-.44-.13-.66-.42-.66h-.08c-.3,0-.42.22-.42.66v.21c0,.44.13.66.42.66h.08ZM46.36,75.4c-.46,0-.65-.32-.65-.9v-.15c0-.58.19-.9.65-.9h.1c.47,0,.65.32.65.9v.15c0,.58-.19.9-.65.9h-.1ZM46.46,75.2c.3,0,.42-.22.42-.66v-.21c0-.44-.13-.66-.42-.66h-.08c-.3,0-.42.22-.42.66v.21c0,.44.13.66.42.66h.08ZM47.97,75.38l.76-1.9h.21l.76,1.9h-.24l-.2-.51h-.85l-.2.51h-.24ZM48.49,74.66h.69l-.34-.9-.35.9ZM49.97,75.38v-1.9h.31l.63,1.59.63-1.59h.3v1.9h-.23v-1.52l-.61,1.52h-.2l-.61-1.52v1.52h-.23ZM52.13,75.56c.08,0,.13-.06.13-.14v-.29h.22v.3c0,.19-.12.32-.31.32h-.09v-.19h.04ZM53.94,73.48v1.9h-.23v-1.51s-.1.07-.17.07h-.18v-.21h.15c.12,0,.19-.05.21-.25h.23ZM54.39,75.38v-1.93h.22v.83c.07-.19.24-.29.46-.29.31,0,.51.22.51.55v.84h-.22v-.8c0-.23-.14-.39-.34-.39-.24,0-.41.19-.41.45v.74h-.22ZM55.97,75.38v-1.37h.22v.28c.06-.19.17-.28.37-.28h.18v.19h-.19c-.28,0-.36.25-.36.57v.6h-.22Z" fill="#fff"/>
  <path d="M8.83,80.24v-1.9h.73c.38,0,.61.2.61.52,0,.24-.12.4-.3.48.15.08.24.24.25.43l.03.47h-.23l-.03-.46c-.01-.18-.13-.32-.31-.32h-.52v.78h-.24ZM9.07,79.26h.49c.27,0,.37-.17.37-.36s-.1-.35-.37-.35h-.49v.71ZM11.11,80.26c-.41,0-.68-.32-.68-.72s.25-.7.66-.7.64.28.64.64c0,.03,0,.07,0,.1h-1.08c.02.28.21.48.47.48.22,0,.37-.1.41-.27h.22c-.05.28-.29.46-.63.46ZM10.65,79.41h.85c-.02-.23-.17-.38-.42-.38-.23,0-.39.13-.43.38ZM12.06,80.79v-1.93h.22v.22c.09-.15.27-.24.46-.24.43,0,.66.31.66.71s-.24.71-.66.71c-.19,0-.38-.1-.46-.25v.78h-.22ZM12.72,80.07c.28,0,.46-.2.46-.51s-.18-.51-.46-.51-.46.2-.46.51.18.51.46.51ZM14.31,80.26c-.41,0-.68-.32-.68-.72s.25-.7.66-.7.64.28.64.64c0,.03,0,.07,0,.1h-1.08c.02.28.21.48.47.48.22,0,.37-.1.41-.27h.22c-.05.28-.29.46-.63.46ZM13.85,79.41h.85c-.02-.23-.17-.38-.42-.38-.23,0-.39.13-.43.38ZM15.67,80.26c-.29,0-.48-.17-.48-.41,0-.27.22-.44.55-.44h.32c.06,0,.08-.02.08-.07,0-.19-.13-.32-.37-.32-.2,0-.36.13-.37.27h-.21c.02-.27.28-.46.59-.46.36,0,.58.2.58.51v.88h-.22v-.24c-.07.16-.26.26-.47.26ZM15.7,80.08c.28,0,.44-.17.44-.45v-.03h-.39c-.21,0-.34.1-.34.26,0,.14.11.23.29.23ZM17.28,80.24c-.27,0-.43-.16-.43-.43v-.75h-.29v-.19h.29v-.44h.22v.44h.42v.19h-.42v.74c0,.15.09.24.22.24h.2v.19h-.21ZM18.2,80.26c-.32,0-.52-.17-.54-.46h.21c.02.17.14.27.34.27.18,0,.3-.09.3-.23,0-.36-.81-.05-.81-.6,0-.24.2-.41.49-.41.31,0,.5.16.53.42h-.21c-.02-.14-.14-.24-.31-.24-.15,0-.28.08-.28.21,0,.35.81.03.81.6,0,.26-.19.42-.51.42ZM20.28,80.26c-.41,0-.68-.32-.68-.72s.25-.7.66-.7.64.28.64.64c0,.03,0,.07,0,.1h-1.08c.02.28.21.48.47.48.22,0,.37-.1.41-.27h.22c-.05.28-.29.46-.63.46ZM19.83,79.41h.85c-.02-.23-.17-.38-.42-.38-.23,0-.39.13-.43.38ZM21.56,80.24l-.51-1.37h.23l.39,1.1.39-1.1h.22l-.5,1.37h-.23ZM23.11,80.26c-.41,0-.68-.32-.68-.72s.25-.7.66-.7.64.28.64.64c0,.03,0,.07,0,.1h-1.08c.02.28.21.48.47.48.22,0,.37-.1.41-.27h.22c-.05.28-.29.46-.63.46ZM22.66,79.41h.85c-.02-.23-.17-.38-.42-.38-.23,0-.39.13-.43.38ZM24.06,80.24v-1.37h.22v.28c.06-.19.17-.28.37-.28h.18v.19h-.19c-.28,0-.36.25-.36.57v.6h-.22ZM25.24,80.79l.19-.52-.5-1.41h.23l.39,1.11.38-1.11h.23l-.69,1.93h-.22ZM27.51,80.26c-.32,0-.52-.17-.54-.46h.21c.02.17.14.27.34.27.18,0,.3-.09.3-.23,0-.36-.81-.05-.81-.6,0-.24.2-.41.49-.41.31,0,.5.16.53.42h-.21c-.02-.14-.14-.24-.31-.24-.15,0-.28.08-.28.21,0,.35.81.03.81.6,0,.26-.19.42-.51.42ZM28.93,80.26c-.41,0-.68-.32-.68-.72s.25-.7.66-.7.64.28.64.64c0,.03,0,.07,0,.1h-1.08c.02.28.21.48.47.48.22,0,.37-.1.41-.27h.22c-.05.28-.29.46-.63.46ZM28.48,79.41h.85c-.02-.23-.17-.38-.42-.38-.23,0-.39.13-.43.38ZM30.45,80.26c-.43,0-.67-.34-.67-.71s.24-.71.67-.71c.31,0,.59.18.63.48h-.22c-.03-.17-.2-.29-.41-.29-.3,0-.45.23-.45.51s.15.51.45.51c.21,0,.36-.1.41-.27h.21c-.05.28-.27.47-.62.47ZM32,80.26c-.41,0-.7-.3-.7-.71s.29-.71.7-.71.7.29.7.71-.29.71-.7.71ZM32,80.07c.28,0,.48-.21.48-.51s-.19-.51-.48-.51-.48.21-.48.51.19.51.48.51ZM33.02,80.24v-1.37h.22v.26c.07-.19.24-.29.46-.29.31,0,.51.22.51.55v.84h-.22v-.8c0-.23-.14-.39-.34-.39-.24,0-.41.19-.41.45v.74h-.22ZM35.17,80.26c-.42,0-.66-.31-.66-.71s.24-.71.66-.71c.19,0,.37.1.46.24v-.79h.22v1.93h-.22v-.23c-.08.15-.27.25-.46.25ZM35.2,80.07c.28,0,.46-.2.46-.51s-.18-.51-.46-.51-.46.2-.46.51.18.51.46.51ZM36.95,80.24v-1.9h1.2v.21h-.96v.63h.79v.21h-.79v.86h-.24ZM38.29,80.24v-1.37h.22v.28c.06-.19.17-.28.37-.28h.18v.19h-.19c-.28,0-.36.25-.36.57v.6h-.22ZM39.31,80.24v-1.37h.22v1.37h-.22ZM39.29,78.31h.25v.3h-.25v-.3ZM40.51,80.26c-.42,0-.66-.31-.66-.71s.24-.71.66-.71c.19,0,.37.1.46.24v-.79h.22v1.93h-.22v-.23c-.08.15-.27.25-.46.25ZM40.54,80.07c.28,0,.46-.2.46-.51s-.18-.51-.46-.51-.46.2-.46.51.18.51.46.51ZM42.02,80.26c-.29,0-.48-.17-.48-.41,0-.27.22-.44.55-.44h.32c.06,0,.08-.02.08-.07,0-.19-.13-.32-.37-.32-.2,0-.36.13-.37.27h-.21c.02-.27.28-.46.59-.46.36,0,.58.2.58.51v.88h-.22v-.24c-.07.16-.26.26-.47.26ZM42.06,80.08c.28,0,.44-.17.44-.45v-.03h-.39c-.21,0-.34.1-.34.26,0,.14.11.23.29.23ZM43.25,80.79l.19-.52-.5-1.41h.23l.39,1.11.38-1.11h.23l-.69,1.93h-.22Z" fill="#a4a7ae"/>
  <path d="M5.08,89.66c-.13,0-.25-.05-.35-.14-.1-.1-.14-.21-.14-.34s.05-.25.14-.34c.1-.1.21-.14.35-.14s.25.05.35.14c.1.1.14.21.14.34s-.05.25-.14.34c-.1.1-.21.14-.35.14ZM3.94,90.83v-.27c0-.07.02-.13.06-.19.04-.06.09-.1.16-.14.15-.07.31-.13.46-.16.15-.04.31-.05.46-.05s.31.02.46.05c.15.04.31.09.46.16.07.03.12.08.16.14.04.06.06.12.06.19v.27h-2.28ZM4.1,90.67h1.95v-.1s-.01-.07-.03-.1c-.02-.03-.06-.06-.1-.08-.13-.06-.27-.11-.41-.15-.14-.03-.29-.05-.43-.05s-.29.02-.43.05c-.14.03-.28.08-.41.15-.04.02-.07.05-.1.08-.02.03-.03.07-.03.1v.1ZM5.08,89.5c.09,0,.17-.03.23-.1.06-.06.1-.14.1-.23s-.03-.17-.1-.23c-.06-.06-.14-.1-.23-.1s-.17.03-.23.1c-.06.06-.1.14-.1.23s.03.17.1.23c.06.06.14.1.23.1Z" fill="#fff"/>
  <g clip-path="url(#clippath-1)">
    <path d="M9.38,86.26h20.71c.38,0,.68.3.68.68v5.63c0,.38-.31.68-.68.68H9.38c-.38,0-.68-.3-.68-.68v-5.63c0-.38.31-.68.68-.68Z" fill="none" stroke="#fff" stroke-opacity=".3" stroke-width=".19"/>
    <path d="M10.86,90.83v-1.69h-.61v-.21h1.45v.21h-.61v1.69h-.24ZM12.93,90.85c-.49,0-.82-.39-.82-.97s.33-.97.82-.97.81.39.81.97-.33.97-.81.97ZM12.93,90.64c.34,0,.57-.31.57-.76s-.23-.76-.57-.76-.58.31-.58.76.24.76.58.76ZM14.29,90.83v-1.9h.3l.49,1.54.49-1.54h.3v1.9h-.22v-1.49l-.47,1.49h-.19l-.47-1.49v1.49h-.22ZM19.15,90.83v-.88h-.91v.88h-.23v-1.9h.23v.82h.91v-.82h.24v1.9h-.24ZM19.89,90.83l.7-1.9h.22l.7,1.9h-.24l-.18-.51h-.78l-.18.51h-.24ZM20.38,90.11h.63l-.31-.89-.32.89ZM22.03,90.83v-1.9h.7c.38,0,.61.2.61.53,0,.22-.12.38-.3.47.15.08.25.24.26.43l.03.47h-.23l-.03-.46c-.01-.18-.13-.32-.31-.32h-.5v.78h-.23ZM22.74,89.84c.27,0,.37-.17.37-.36s-.1-.35-.37-.35h-.47v.71h.47ZM23.98,90.83v-1.9h.72c.38,0,.61.23.61.56s-.23.56-.61.56h-.49v.78h-.23ZM24.69,89.84c.27,0,.37-.17.37-.36s-.1-.36-.37-.36h-.48v.71h.48ZM25.91,90.83v-1.9h1.21v.21h-.97v.61h.8v.21h-.8v.67h1v.21h-1.24ZM27.76,90.83v-1.9h.7c.38,0,.61.2.61.53,0,.22-.12.38-.3.47.15.08.25.24.26.43l.03.47h-.23l-.03-.46c-.01-.18-.13-.32-.31-.32h-.5v.78h-.23ZM28.46,89.84c.27,0,.37-.17.37-.36s-.1-.35-.37-.35h-.47v.71h.47Z" fill="#fff"/>
    <path d="M33.22,86.26h11.33c.38,0,.68.3.68.68v5.63c0,.38-.31.68-.68.68h-11.33c-.38,0-.68-.3-.68-.68v-5.63c0-.38.31-.68.68-.68Z" fill="none" stroke="#fff" stroke-opacity=".3" stroke-width=".19"/>
    <path d="M34.87,90.85c-.46,0-.71-.26-.74-.64h.23c.02.26.18.44.5.44.27,0,.45-.1.45-.33,0-.51-1.12-.2-1.12-.9,0-.3.27-.51.65-.51s.65.22.68.56h-.23c-.02-.21-.19-.35-.45-.35s-.42.11-.42.3c0,.51,1.13.16,1.13.9,0,.35-.3.54-.69.54ZM35.95,90.83l.7-1.9h.22l.7,1.9h-.24l-.18-.51h-.78l-.18.51h-.24ZM36.45,90.11h.63l-.31-.89-.32.89ZM38.1,90.83v-1.9h.7c.38,0,.61.2.61.53,0,.22-.12.38-.3.47.15.08.25.24.26.43l.03.47h-.23l-.03-.46c-.01-.18-.13-.32-.31-.32h-.5v.78h-.23ZM38.8,89.84c.27,0,.37-.17.37-.36s-.1-.35-.37-.35h-.47v.71h.47ZM39.87,90.83l.7-1.9h.22l.7,1.9h-.24l-.18-.51h-.78l-.18.51h-.24ZM40.37,90.11h.63l-.31-.89-.32.89ZM43.14,90.83v-.88h-.91v.88h-.23v-1.9h.23v.82h.91v-.82h.24v1.9h-.24Z" fill="#fff"/>
  </g>
  <path d="M115.89,89.76l-.75-.74.12-.11.86.86-.86.86-.12-.11.75-.74Z" fill="#fff"/>
  <g mask="url(#mask-2)">
    <path d="M119.59,108.41v-.19H3.13v.39h116.46v-.19Z" fill="#fff" fill-opacity=".15"/>
  </g>
  <path d="M5.08,102.15c.07,0,.13-.03.19-.08.05-.05.08-.11.08-.18s-.03-.13-.08-.18c-.05-.05-.11-.08-.19-.08s-.13.03-.19.08c-.05.05-.08.11-.08.18s.03.13.08.18c.05.05.11.08.19.08ZM5.08,103.44c.31-.27.55-.53.73-.81.18-.27.27-.51.27-.71,0-.3-.09-.54-.28-.73-.19-.19-.43-.29-.71-.29s-.52.1-.71.29c-.19.19-.28.44-.28.73,0,.2.09.44.27.71.18.27.42.54.73.81ZM5.08,103.65c-.38-.34-.67-.65-.86-.94-.19-.29-.29-.56-.29-.79,0-.34.11-.63.34-.85.22-.22.5-.33.82-.33s.59.11.82.33c.22.22.34.5.34.85,0,.24-.1.5-.29.79-.19.29-.48.6-.86.94Z" fill="#fff"/>
  <g clip-path="url(#clippath-5)">
    <path d="M9.38,98.7h25.01c.38,0,.68.3.68.68v5.63c0,.38-.31.68-.68.68H9.38c-.38,0-.68-.3-.68-.68v-5.63c0-.38.31-.68.68-.68Z" fill="none" stroke="#fff" stroke-opacity=".3" stroke-width=".19"/>
    <path d="M10.4,103.26v-1.9h.7c.38,0,.61.2.61.53,0,.22-.12.38-.3.47.15.08.25.24.26.43l.03.47h-.23l-.03-.46c-.01-.18-.13-.32-.31-.32h-.5v.78h-.23ZM11.1,102.28c.27,0,.37-.17.37-.36s-.1-.35-.37-.35h-.47v.71h.47ZM12.37,103.26v-1.9h1.21v.21h-.97v.61h.8v.21h-.8v.67h1v.21h-1.24ZM14.19,103.26v-1.9h.55c.51,0,.89.35.89.95s-.39.95-.89.95h-.55ZM14.74,103.05c.34,0,.66-.22.66-.74s-.31-.74-.66-.74h-.31v1.49h.31ZM16.46,103.26l-.4-1.9h.22l.31,1.5.35-1.5h.18l.34,1.5.32-1.5h.22l-.4,1.9h-.24l-.33-1.45-.33,1.45h-.24ZM19.24,103.28c-.49,0-.82-.39-.82-.97s.33-.97.82-.97.81.39.81.97-.33.97-.81.97ZM19.24,103.08c.34,0,.57-.31.57-.76s-.23-.76-.57-.76-.58.31-.58.76.24.76.58.76ZM21.34,103.28c-.49,0-.82-.39-.82-.97s.33-.97.82-.97.81.39.81.97-.33.97-.81.97ZM21.34,103.08c.34,0,.57-.31.57-.76s-.23-.76-.57-.76-.58.31-.58.76.24.76.58.76ZM22.7,103.26v-1.9h.55c.51,0,.89.35.89.95s-.39.95-.89.95h-.55ZM23.25,103.05c.34,0,.66-.22.66-.74s-.31-.74-.66-.74h-.31v1.49h.31ZM26.26,103.26v-1.9h.72c.38,0,.61.23.61.56s-.23.56-.61.56h-.49v.78h-.23ZM26.97,102.28c.27,0,.37-.17.37-.36s-.1-.36-.37-.36h-.48v.71h.48ZM27.93,103.26l.7-1.9h.22l.7,1.9h-.24l-.18-.51h-.78l-.18.51h-.24ZM28.42,102.54h.63l-.31-.89-.32.89ZM30.07,103.26v-1.9h.7c.38,0,.61.2.61.53,0,.22-.12.38-.3.47.15.08.25.24.26.43l.03.47h-.23l-.03-.46c-.01-.18-.13-.32-.31-.32h-.5v.78h-.23ZM30.77,102.28c.27,0,.37-.17.37-.36s-.1-.35-.37-.35h-.47v.71h.47ZM32.25,103.26h-.24v-1.9h.24v.91l.83-.91h.3l-.7.76.75,1.15h-.27l-.64-.97-.27.29v.68Z" fill="#fff"/>
  </g>
  <path d="M115.89,102.19l-.75-.74.12-.11.86.86-.86.86-.12-.11.75-.74Z" fill="#fff"/>
  <path d="M3.13,111.91c0-.43.35-.78.78-.78h3.91c.43,0,.78.35.78.78v3.89c0,.43-.35.78-.78.78h-3.91c-.43,0-.78-.35-.78-.78v-3.89Z" fill="none"/>
  <path d="M3.91,111.23h3.91c.38,0,.68.3.68.68v3.89c0,.38-.31.68-.68.68h-3.91c-.38,0-.68-.3-.68-.68v-3.89c0-.38.31-.68.68-.68Z" fill="none" stroke="#fff" stroke-opacity=".3" stroke-width=".19"/>
  <path d="M10.07,115.47v-.19h.11c.12,0,.19-.09.19-.25v-1.49h.22v1.5c0,.28-.14.43-.39.43h-.13ZM10.35,112.99h.25v.3h-.25v-.3ZM11.61,114.94c-.41,0-.7-.3-.7-.71s.29-.71.7-.71.7.29.7.71-.29.71-.7.71ZM11.61,114.75c.28,0,.48-.21.48-.51s-.19-.51-.48-.51-.48.21-.48.51.19.51.48.51ZM12.63,114.92v-1.93h.22v.83c.07-.19.24-.29.46-.29.31,0,.51.22.51.55v.84h-.22v-.8c0-.23-.14-.39-.34-.39-.24,0-.41.19-.41.45v.74h-.22ZM14.22,114.92v-1.37h.22v.26c.07-.19.24-.29.46-.29.31,0,.51.22.51.55v.84h-.22v-.8c0-.23-.14-.39-.34-.39-.24,0-.41.19-.41.45v.74h-.22ZM15.77,114.67h.25v.25h-.25v-.25ZM16.84,114.94c-.32,0-.52-.17-.54-.46h.21c.02.17.14.27.34.27.18,0,.3-.09.3-.23,0-.36-.81-.05-.81-.6,0-.24.2-.41.49-.41.31,0,.5.16.53.42h-.21c-.02-.14-.14-.24-.31-.24-.15,0-.28.08-.28.21,0,.35.81.03.81.6,0,.26-.19.42-.51.42ZM17.68,114.92v-1.37h.22v.26c.05-.17.21-.29.42-.29s.4.11.45.29c.05-.17.24-.29.44-.29.3,0,.48.2.48.53v.86h-.22v-.81c0-.23-.12-.39-.31-.39-.23,0-.37.22-.37.46v.74h-.22v-.81c0-.23-.11-.39-.31-.39-.23,0-.37.22-.37.46v.74h-.22ZM20.09,114.92v-1.37h.22v1.37h-.22ZM20.07,112.99h.25v.3h-.25v-.3ZM21.27,114.92c-.27,0-.43-.16-.43-.43v-.75h-.29v-.19h.29v-.44h.22v.44h.42v.19h-.42v.74c0,.15.09.24.22.24h.2v.19h-.21ZM21.75,114.92v-1.93h.22v.83c.07-.19.24-.29.46-.29.31,0,.51.22.51.55v.84h-.22v-.8c0-.23-.14-.39-.34-.39-.24,0-.41.19-.41.45v.74h-.22ZM24.22,115.22c-.57,0-.95-.38-.95-.98v-.33c0-.57.4-.95,1-.95h.23c.59,0,.96.38.96.92v.24c0,.32-.15.52-.4.52-.16,0-.3-.08-.33-.19-.06.1-.2.2-.41.2-.34,0-.53-.24-.53-.57s.19-.56.53-.56c.15,0,.3.07.37.18v-.16h.2v.74c0,.1.07.17.18.17.13,0,.2-.13.2-.33v-.24c0-.43-.3-.73-.76-.73h-.23c-.48,0-.8.31-.8.76v.33c0,.48.3.79.75.79h.51v.19h-.51ZM24.33,114.49c.22,0,.36-.16.36-.4s-.14-.4-.36-.4-.36.16-.36.4.14.4.36.4ZM25.89,115.47v-.19h.64c.18,0,.3-.13.3-.32v-.24c-.07.13-.25.21-.46.21-.42,0-.66-.31-.66-.71s.24-.71.66-.71c.18,0,.37.09.46.22v-.2h.22v1.43c0,.29-.21.5-.51.5h-.65ZM26.39,114.75c.28,0,.46-.2.46-.51s-.18-.51-.46-.51-.46.2-.46.51.18.51.46.51ZM27.47,114.92v-1.37h.22v.26c.05-.17.21-.29.42-.29s.4.11.45.29c.05-.17.24-.29.44-.29.3,0,.48.2.48.53v.86h-.22v-.81c0-.23-.12-.39-.31-.39-.23,0-.37.22-.37.46v.74h-.22v-.81c0-.23-.11-.39-.31-.39-.23,0-.37.22-.37.46v.74h-.22ZM30.29,114.94c-.29,0-.48-.17-.48-.41,0-.27.22-.44.55-.44h.32c.06,0,.08-.02.08-.07,0-.19-.13-.32-.37-.32-.2,0-.36.13-.37.27h-.21c.02-.27.28-.46.59-.46.36,0,.58.2.58.51v.88h-.22v-.24c-.07.16-.26.26-.47.26ZM30.32,114.76c.28,0,.44-.17.44-.45v-.03h-.39c-.21,0-.34.1-.34.26,0,.14.11.23.29.23ZM31.37,114.92v-1.37h.22v1.37h-.22ZM31.36,112.99h.25v.3h-.25v-.3ZM32.01,114.92v-1.93h.22v1.93h-.22ZM32.61,114.67h.25v.25h-.25v-.25ZM33.78,114.94c-.43,0-.67-.34-.67-.71s.24-.71.67-.71c.31,0,.59.18.63.48h-.22c-.03-.17-.2-.29-.41-.29-.3,0-.45.23-.45.51s.15.51.45.51c.21,0,.36-.1.41-.27h.21c-.05.28-.27.47-.62.47ZM35.32,114.94c-.41,0-.7-.3-.7-.71s.29-.71.7-.71.7.29.7.71-.29.71-.7.71ZM35.32,114.75c.28,0,.48-.21.48-.51s-.19-.51-.48-.51-.48.21-.48.51.19.51.48.51ZM36.35,114.92v-1.37h.22v.26c.05-.17.21-.29.42-.29s.4.11.45.29c.05-.17.24-.29.44-.29.3,0,.48.2.48.53v.86h-.22v-.81c0-.23-.12-.39-.31-.39-.23,0-.37.22-.37.46v.74h-.22v-.81c0-.23-.11-.39-.31-.39-.23,0-.37.22-.37.46v.74h-.22Z" fill="#a4a7ae"/>
  <path d="M115.68,115.36l-.86-.86.12-.12.75.74.75-.74.12.12-.86.86ZM114.93,113.32l-.12-.11.86-.86.86.86-.12.11-.75-.74-.75.74Z" fill="#fff"/>
  <path d="M0,120.26h122.32v15.54H0v-15.54Z" shape-rendering="crispEdges" fill-opacity=".25"/>
  <g mask="url(#mask-3)">
    <path d="M0,120.26v.19h122.32v-.39H0v.19Z" fill="#fff" fill-opacity=".15"/>
  </g>
  <rect y="120.26" width="122.32" height="15.54" fill="url(#linear-gradient)"/>
  <path d="M5.68,129.01v-1.9h.55c.51,0,.89.35.89.95s-.39.95-.89.95h-.55ZM6.23,128.8c.34,0,.66-.22.66-.74s-.31-.74-.66-.74h-.31v1.49h.31ZM7.75,129.01v-1.9h1.21v.21h-.97v.61h.8v.21h-.8v.67h1v.21h-1.24ZM9.66,129.01v-1.9h.24v1.69h.95v.21h-1.19ZM11.46,129.01v-1.9h1.21v.21h-.97v.61h.8v.21h-.8v.67h1v.21h-1.24ZM13.78,129.01v-1.69h-.61v-.21h1.45v.21h-.61v1.69h-.24ZM15.21,129.01v-1.9h1.21v.21h-.97v.61h.8v.21h-.8v.67h1v.21h-1.24Z" fill="#e22b21"/>
  <path d="M89.37,129.03c-.49,0-.84-.35-.84-.97s.35-.97.84-.97c.4,0,.67.24.73.61h-.25c-.03-.24-.21-.41-.48-.41-.37,0-.6.28-.6.76s.23.76.6.76c.27,0,.46-.16.49-.41h.24c-.04.37-.33.61-.72.61ZM90.49,129.01l.7-1.9h.22l.7,1.9h-.24l-.18-.51h-.78l-.18.51h-.24ZM90.98,128.28h.63l-.31-.89-.32.89ZM92.61,129.01v-1.9h.27l.89,1.53v-1.53h.23v1.9h-.27l-.88-1.52v1.52h-.23ZM95.39,129.03c-.49,0-.84-.35-.84-.97s.35-.97.84-.97c.4,0,.67.24.73.61h-.25c-.03-.24-.21-.41-.48-.41-.37,0-.6.28-.6.76s.23.76.6.76c.27,0,.46-.16.49-.41h.24c-.04.37-.33.61-.72.61ZM96.73,129.01v-1.9h1.21v.21h-.97v.61h.8v.21h-.8v.67h1v.21h-1.24ZM98.65,129.01v-1.9h.24v1.69h.95v.21h-1.19Z" fill="#fff"/>
  <rect x="106.3" y="124.15" width="12.9" height="7.77" fill="#fff"/>
  <path d="M109.52,129.03c-.46,0-.71-.26-.74-.64h.23c.02.26.18.44.5.44.27,0,.45-.1.45-.33,0-.51-1.12-.2-1.12-.9,0-.3.27-.51.65-.51s.65.22.68.56h-.23c-.02-.21-.19-.35-.45-.35s-.42.11-.42.3c0,.51,1.13.16,1.13.9,0,.35-.3.54-.69.54ZM110.6,129.01l.7-1.9h.22l.7,1.9h-.24l-.18-.51h-.78l-.18.51h-.24ZM111.1,128.28h.63l-.31-.89-.32.89ZM113.19,129.01l-.67-1.9h.24l.55,1.61.55-1.61h.24l-.67,1.9h-.24ZM114.67,129.01v-1.9h1.21v.21h-.97v.61h.8v.21h-.8v.67h1v.21h-1.24Z"/>
  <rect x="122.32" width="13.68" height="136" fill="#fff" fill-opacity=".1"/>
  <g clip-path="url(#clippath-15)">
    <path d="M129.16,56.91c.17,0,.31-.06.43-.18.12-.12.18-.26.18-.43s-.06-.31-.18-.43c-.12-.12-.26-.18-.43-.18s-.31.06-.43.18c-.12.12-.18.26-.18.43s.06.31.18.43c.12.12.26.18.43.18ZM129.16,56.75c-.13,0-.23-.04-.32-.13-.08-.08-.13-.19-.13-.32s.04-.23.13-.32c.08-.08.19-.13.32-.13s.23.04.32.13c.08.08.13.19.13.32s-.04.23-.13.32c-.08.08-.19.13-.32.13ZM127.7,57.44v-2.27h.74l.3-.32h.84l.3.32h.74v2.27h-2.93ZM127.86,57.28h2.61v-1.94h-.65l-.3-.32h-.7l-.3.32h-.65v1.94Z" fill="#fff"/>
  </g>
  <path d="M124.28,68c0-2.68,2.19-4.86,4.89-4.86h0c2.7,0,4.89,2.17,4.89,4.86h0c0,2.68-2.19,4.86-4.89,4.86h0c-2.7,0-4.89-2.17-4.89-4.86h0Z" fill="none" stroke="#fff" stroke-linejoin="bevel" stroke-width=".19"/>
  <path d="M129.24,67.89h.95l-1.33,1.7.17-1.51h-.95l1.33-1.7-.17,1.51ZM129.12,68.94l.68-.87h-.58l-.1.87ZM128.47,67.89h.58l.1-.87-.68.87Z" fill="#fff" fill-rule="evenodd"/>
  <g clip-path="url(#clippath-16)">
    <path d="M129.83,81.15c-.2.1-.43.16-.67.16s-.47-.06-.67-.16h1.34Z" fill="#fff"/>
    <path d="M130.25,80.82c-.05.06-.11.11-.17.16h-1.84c-.06-.05-.12-.1-.17-.16h2.18Z" fill="#fff"/>
    <path d="M130.47,80.5c-.03.06-.06.11-.09.16h-2.44c-.03-.05-.07-.11-.09-.16h2.63Z" fill="#fff"/>
    <path d="M130.59,80.18c-.01.06-.03.11-.05.16h-2.76c-.02-.05-.03-.11-.05-.16h2.86Z" fill="#fff"/>
    <path d="M129.16,78.39c.81,0,1.47.65,1.47,1.46,0,.05,0,.11,0,.16h-2.91c0-.05,0-.11,0-.16,0-.8.66-1.46,1.47-1.46ZM129.16,78.56c-.72,0-1.3.58-1.3,1.3h2.61c0-.72-.58-1.3-1.3-1.3Z" fill="#fff" fill-rule="evenodd"/>
  </g>
</svg>