<?xml version="1.0" encoding="UTF-8"?>
<svg id="Layer_1" xmlns="http://www.w3.org/2000/svg" version="1.1" viewBox="0 0 434.03 23.41">
  <!-- Generator: Adobe Illustrator 30.2.1, SVG Export Plug-In . SVG Version: 2.1.1 Build 1)  -->
  <g>
    <path d="M1.82,18.15V3.2h5.68c.98,0,1.83.17,2.54.5.71.33,1.26.8,1.63,1.4.38.6.57,1.32.57,2.18,0,1.03-.24,1.86-.73,2.51-.48.65-1.14,1.12-1.95,1.43-.82.31-1.72.46-2.7.46h-3.2v6.47h-1.84ZM10.36,18.15l-.26-3.61c-.06-.73-.3-1.32-.73-1.78-.43-.46-.99-.69-1.69-.69H3.31v-1.5h4.55c.78,0,1.47.16,2.05.49.58.33,1.05.78,1.39,1.37.34.58.54,1.25.6,2.01l.26,3.72h-1.79ZM3.65,10.42h3.82c.71,0,1.28-.14,1.7-.41.42-.27.73-.62.92-1.05.19-.43.29-.89.29-1.39s-.1-.94-.29-1.36c-.19-.42-.5-.76-.92-1.01-.42-.26-.99-.38-1.7-.38h-3.82v5.6Z"/>
    <path d="M19.6,18.32c-.8,0-1.52-.15-2.18-.44-.66-.29-1.22-.7-1.69-1.22-.47-.52-.83-1.12-1.09-1.8-.26-.68-.38-1.4-.38-2.16s.12-1.51.35-2.18c.23-.67.58-1.25,1.02-1.74s.99-.88,1.62-1.15,1.35-.42,2.15-.42,1.48.13,2.1.38c.62.26,1.15.61,1.58,1.07.43.46.77.99.99,1.6s.34,1.27.34,1.99c0,.13,0,.26-.01.39,0,.13-.02.26-.03.38h-9.12v-1.41h7.39c-.06-.91-.37-1.63-.95-2.16-.58-.53-1.34-.79-2.3-.79-.53,0-1,.09-1.43.27-.43.18-.79.44-1.09.79-.3.35-.53.77-.68,1.26-.16.49-.24,1.06-.24,1.7,0,.8.16,1.51.47,2.12s.74,1.11,1.29,1.46c.55.36,1.17.53,1.87.53.87,0,1.57-.18,2.11-.54.54-.36.9-.89,1.07-1.57h1.75c-.11.73-.39,1.36-.84,1.91-.45.55-1.02.97-1.71,1.27s-1.48.45-2.38.45Z"/>
    <path d="M30.22,18.32c-.74,0-1.39-.14-1.95-.41-.56-.27-1-.65-1.3-1.14-.31-.49-.46-1.06-.46-1.7,0-.7.17-1.3.52-1.82.35-.51.84-.91,1.48-1.19.64-.28,1.39-.42,2.26-.42h2.5c.23,0,.39-.04.49-.13.1-.09.15-.21.15-.38,0-.73-.25-1.32-.76-1.78-.51-.46-1.21-.69-2.12-.69-.53,0-1,.1-1.43.3s-.77.46-1.04.79-.41.69-.44,1.09h-1.64c.07-.71.32-1.34.74-1.88s.96-.97,1.63-1.28c.67-.31,1.4-.47,2.2-.47.94,0,1.75.17,2.42.5.68.33,1.2.8,1.58,1.4s.57,1.3.57,2.09v6.94h-1.71v-1.86c-.2.4-.48.75-.84,1.06-.36.31-.79.54-1.27.72-.48.17-1.01.26-1.58.26ZM30.47,16.87c1.08,0,1.92-.32,2.53-.95.6-.63.91-1.51.91-2.62v-.24h-3.03c-.78,0-1.42.17-1.9.52-.48.35-.73.84-.73,1.46,0,.54.2.98.61,1.31.41.33.94.5,1.61.5Z"/>
    <path d="M38.72,18.15V2.97h1.71v15.18h-1.71Z"/>
    <path d="M43.56,2.97h1.96v2.39h-1.96v-2.39ZM43.69,18.15V7.39h1.71v10.76h-1.71Z"/>
    <path d="M52.92,18.15c-1.03,0-1.84-.3-2.46-.9-.61-.6-.92-1.42-.92-2.48v-5.87h-2.24v-1.52h2.24v-3.44h1.71v3.44h3.31v1.52h-3.31v5.83c0,.6.16,1.06.47,1.4.31.33.73.5,1.26.5h1.58v1.52h-1.64Z"/>
    <path d="M58,22.51l1.47-4.1-3.93-11.02h1.77l3.01,8.73,2.99-8.73h1.77l-5.38,15.12h-1.71Z"/>
  </g>
  <g>
    <path d="M348.06,18.15V3.2h1.84v14.95h-1.84ZM349.89,4.85h-1.84v-1.64h1.84v1.64ZM349.89,18.15h-1.84v-1.64h1.84v1.64Z"/>
    <path d="M353.29,18.15V7.39h1.71v2.07c.3-.74.76-1.3,1.39-1.68.63-.38,1.35-.57,2.18-.57s1.52.18,2.12.54c.61.36,1.07.87,1.4,1.52.33.65.49,1.41.49,2.3v6.58h-1.73v-6.3c0-.93-.24-1.67-.73-2.23-.48-.56-1.13-.84-1.94-.84-.63,0-1.18.15-1.66.46-.48.31-.85.73-1.12,1.26-.27.53-.41,1.15-.41,1.85v5.81h-1.71Z"/>
    <path d="M369.76,18.15c-1.03,0-1.84-.3-2.46-.9-.61-.6-.92-1.42-.92-2.48v-5.87h-2.24v-1.52h2.24v-3.44h1.71v3.44h3.31v1.52h-3.31v5.83c0,.6.16,1.06.47,1.4.31.33.73.5,1.26.5h1.58v1.52h-1.64Z"/>
    <path d="M377.91,18.32c-.8,0-1.52-.15-2.18-.44-.66-.29-1.22-.7-1.69-1.22-.47-.52-.83-1.12-1.09-1.8-.26-.68-.38-1.4-.38-2.16s.12-1.51.35-2.18c.23-.67.58-1.25,1.02-1.74s.99-.88,1.62-1.15,1.35-.42,2.15-.42,1.48.13,2.1.38c.62.26,1.15.61,1.58,1.07.43.46.77.99.99,1.6s.34,1.27.34,1.99c0,.13,0,.26-.01.39,0,.13-.02.26-.03.38h-9.12v-1.41h7.39c-.06-.91-.37-1.63-.95-2.16-.58-.53-1.34-.79-2.3-.79-.53,0-1,.09-1.43.27-.43.18-.79.44-1.09.79-.3.35-.53.77-.68,1.26-.16.49-.24,1.06-.24,1.7,0,.8.16,1.51.47,2.12s.74,1.11,1.29,1.46c.55.36,1.17.53,1.87.53.87,0,1.57-.18,2.11-.54.54-.36.9-.89,1.07-1.57h1.75c-.11.73-.39,1.36-.84,1.91-.45.55-1.02.97-1.71,1.27s-1.48.45-2.38.45Z"/>
    <path d="M385.32,18.15V7.39h1.71v2.07c.3-.74.76-1.3,1.39-1.68.63-.38,1.35-.57,2.18-.57s1.52.18,2.12.54c.61.36,1.07.87,1.4,1.52.33.65.49,1.41.49,2.3v6.58h-1.73v-6.3c0-.93-.24-1.67-.73-2.23-.48-.56-1.13-.84-1.94-.84-.63,0-1.18.15-1.66.46-.48.31-.85.73-1.12,1.26-.27.53-.41,1.15-.41,1.85v5.81h-1.71Z"/>
    <path d="M401.79,18.15c-1.03,0-1.84-.3-2.46-.9-.61-.6-.92-1.42-.92-2.48v-5.87h-2.24v-1.52h2.24v-3.44h1.71v3.44h3.31v1.52h-3.31v5.83c0,.6.16,1.06.47,1.4.31.33.73.5,1.26.5h1.58v1.52h-1.64Z"/>
    <path d="M405.46,2.97h1.96v2.39h-1.96v-2.39ZM405.59,18.15V7.39h1.71v10.76h-1.71Z"/>
    <path d="M415.28,18.32c-1.07,0-2.01-.24-2.84-.72-.83-.48-1.47-1.13-1.93-1.96-.46-.83-.69-1.79-.69-2.87s.23-2.04.69-2.87,1.11-1.49,1.93-1.96c.83-.48,1.77-.71,2.84-.71s2.01.24,2.84.71c.83.48,1.47,1.13,1.94,1.96s.71,1.79.71,2.87-.24,2.04-.71,2.87c-.47.83-1.12,1.49-1.94,1.96-.83.48-1.77.72-2.84.72ZM415.28,16.78c.74,0,1.39-.17,1.95-.51.56-.34,1-.82,1.3-1.42.31-.6.46-1.3.46-2.08s-.15-1.48-.46-2.08c-.31-.6-.74-1.08-1.3-1.42-.56-.34-1.21-.51-1.93-.51s-1.39.17-1.95.51c-.56.34-1,.82-1.31,1.42-.31.61-.47,1.3-.47,2.08s.16,1.48.47,2.08c.31.61.75,1.08,1.31,1.42.56.34,1.21.51,1.93.51Z"/>
    <path d="M423.27,18.15V7.39h1.71v2.07c.3-.74.76-1.3,1.39-1.68.63-.38,1.35-.57,2.18-.57s1.52.18,2.12.54c.61.36,1.07.87,1.4,1.52.33.65.49,1.41.49,2.3v6.58h-1.73v-6.3c0-.93-.24-1.67-.73-2.23-.48-.56-1.13-.84-1.94-.84-.63,0-1.18.15-1.66.46-.48.31-.85.73-1.12,1.26-.27.53-.41,1.15-.41,1.85v5.81h-1.71Z"/>
  </g>
  <g>
    <line x1="108.25" y1="10.41" x2="304.53" y2="10.41" fill="#fff"/>
    <g>
      <line x1="109.19" y1="10.41" x2="303.6" y2="10.41" fill="none" stroke="#000" stroke-miterlimit="10" stroke-width=".86"/>
      <polygon points="112.05 13.93 112.63 13.3 109.52 10.41 112.63 7.51 112.05 6.88 108.25 10.41 112.05 13.93"/>
      <polygon points="300.74 13.93 300.15 13.3 303.27 10.41 300.15 7.51 300.74 6.88 304.53 10.41 300.74 13.93"/>
    </g>
  </g>
</svg>