<svg width="15" height="15" viewBox="0 0 15 15" fill="none" xmlns="http://www.w3.org/2000/svg">
<path d="M10.9351 14.1667C9.90568 14.6981 8.73834 15 7.5 15C6.26166 15 5.09432 14.6981 4.06494 14.1667H10.9351Z" fill="white"/>
<path d="M13.0892 12.5C12.82 12.8007 12.5268 13.0793 12.2127 13.3333H2.78727C2.47323 13.0793 2.18002 12.8007 1.91081 12.5H13.0892Z" fill="white"/>
<path d="M14.2188 10.8333C14.0752 11.1221 13.9143 11.4005 13.7362 11.6667H1.26383C1.08566 11.4005 0.924781 11.1221 0.78125 10.8333H14.2188Z" fill="white"/>
<path d="M14.812 9.16667C14.7475 9.4509 14.6677 9.72905 14.5719 10H0.42806C0.332275 9.72905 0.252502 9.4509 0.187988 9.16667H14.812Z" fill="white"/>
<path fill-rule="evenodd" clip-rule="evenodd" d="M7.5 0C11.6421 0 15 3.35786 15 7.5C15 7.78173 14.9831 8.05967 14.9528 8.33333H0.0472005C0.016943 8.05967 0 7.78173 0 7.5C0 3.35786 3.35786 0 7.5 0ZM7.5 0.833333C3.8181 0.833333 0.833333 3.8181 0.833333 7.5H14.1667C14.1667 3.8181 11.1819 0.833333 7.5 0.833333Z" fill="white"/>
</svg>
