<?xml version="1.0" encoding="UTF-8"?>
<svg xmlns="http://www.w3.org/2000/svg" xmlns:xlink="http://www.w3.org/1999/xlink" version="1.1" viewBox="0 0 659.66 371.05">
  <!-- Generator: Adobe Illustrator 30.2.1, SVG Export Plug-In . SVG Version: 2.1.1 Build 1)  -->
  <defs>
    <clipPath id="clippath">
      <rect x="302.74" y="29.15" width="356.92" height="310.71" rx="13.86" ry="13.86" fill="none"/>
    </clipPath>
    <mask id="mask" x="352.26" y="55.57" width="257.87" height="257.87" maskUnits="userSpaceOnUse">
      <g id="mask0_64_1405">
        <path d="M367.86,220.75l-10.4,4.33-2.31-10.68-2.89-28.01,2.89-30.03,16.46-39.27,21.08-27.43,7.51,7.22,28.3-17.9-6.06-10.97,39.56-9.82,32.63-2.6,37.25,8.95-3.47,12.13,35.23,22.52,6.93-6.93,12.42,12.42,19.64,32.63,7.51,36.96-1.73,35.23-9.82-2.31-8.37,27.72,8.37,3.75-25.7,40.43-41.01,27.14-34.07,7.22v-10.97h-33.79v10.97l-21.08-4.33-44.47-18.77-32.92-46.2,10.68-5.49-8.37-17.9Z" fill="#d9d9d9"/>
      </g>
    </mask>
    <linearGradient id="linear-gradient" x1="484.06" y1="106.54" x2="474.99" y2="180.67" gradientTransform="translate(0 372.49) scale(1 -1)" gradientUnits="userSpaceOnUse">
      <stop offset="0" stop-color="#3c5999"/>
      <stop offset=".35" stop-color="#26337e"/>
      <stop offset=".9" stop-color="#0f1e3d"/>
    </linearGradient>
    <linearGradient id="linear-gradient1" x1="527.2" y1="136.09" x2="513.93" y2="205.05" gradientTransform="translate(0 372.49) scale(1 -1)" gradientUnits="userSpaceOnUse">
      <stop offset="0" stop-color="#a38523"/>
      <stop offset=".35" stop-color="#7a541a"/>
      <stop offset=".9" stop-color="#413610"/>
    </linearGradient>
    <linearGradient id="linear-gradient2" x1="441.73" y1="188.92" x2="426.44" y2="289.18" gradientTransform="translate(0 372.49) scale(1 -1)" gradientUnits="userSpaceOnUse">
      <stop offset="0" stop-color="#838c9f"/>
      <stop offset=".35" stop-color="#4f596d"/>
      <stop offset=".9" stop-color="#21252b"/>
    </linearGradient>
    <linearGradient id="linear-gradient3" x1="455.75" y1="137.61" x2="443.33" y2="202.62" gradientTransform="translate(0 372.49) scale(1 -1)" gradientUnits="userSpaceOnUse">
      <stop offset="0" stop-color="#363636"/>
      <stop offset=".9" stop-color="#161212"/>
    </linearGradient>
    <linearGradient id="linear-gradient4" x1="513.48" y1="189.51" x2="502.2" y2="248.59" gradientTransform="translate(0 372.49) scale(1 -1)" gradientUnits="userSpaceOnUse">
      <stop offset="0" stop-color="#6baa83"/>
      <stop offset=".35" stop-color="#37775a"/>
      <stop offset=".9" stop-color="#173623"/>
    </linearGradient>
    <clipPath id="clippath-1">
      <rect width="302.53" height="371.05" fill="none"/>
    </clipPath>
    <mask id="mask-1" x="23.95" y="172.73" width="252.5" height="159.35" maskUnits="userSpaceOnUse">
      <g id="path-26-outside-1_64_2712">
        <rect x="23.95" y="172.73" width="252.5" height="159.35" fill="#fff"/>
        <path d="M23.95,172.73h252.27v158.48H23.95v-158.48Z"/>
      </g>
    </mask>
    <linearGradient id="linear-gradient5" x1="-8.56" y1="371.8" x2="-8.56" y2="424.14" gradientTransform="translate(61.33 596.87) scale(1 -1)" gradientUnits="userSpaceOnUse">
      <stop offset="0" stop-color="#363636"/>
      <stop offset=".9" stop-color="#141414"/>
    </linearGradient>
    <linearGradient id="linear-gradient6" x1="-8.56" y1="439.79" x2="-8.56" y2="424.53" gradientTransform="translate(61.33 664.87) scale(1 -1)" gradientUnits="userSpaceOnUse">
      <stop offset="0" stop-color="#042511"/>
      <stop offset=".65" stop-color="#37774f"/>
      <stop offset="1" stop-color="#6baa83"/>
    </linearGradient>
    <linearGradient id="linear-gradient7" x1="1.23" y1="408.29" x2="-17.04" y2="438.3" gradientTransform="translate(61.33 684.7) scale(1 -1)" xlink:href="#linear-gradient1"/>
    <linearGradient id="linear-gradient8" x1="-8.56" y1="405.42" x2="-8.56" y2="456.31" gradientTransform="translate(61.33 736.64) scale(1 -1)" xlink:href="#linear-gradient2"/>
    <linearGradient id="linear-gradient9" x1="-18.84" y1="411.06" x2="-18.84" gradientTransform="translate(105.99 596.87) scale(1 -1)" xlink:href="#linear-gradient5"/>
    <linearGradient id="linear-gradient10" x1="-18.84" y1="428.05" x2="-18.84" y2="422.81" gradientTransform="translate(105.99 613.87) scale(1 -1)" xlink:href="#linear-gradient6"/>
    <linearGradient id="linear-gradient11" x1="-14.81" y1="406.6" x2="-22.34" y2="427.86" gradientTransform="translate(105.99 620.68) scale(1 -1)" xlink:href="#linear-gradient1"/>
    <linearGradient id="linear-gradient12" x1="-18.84" y1="357.87" x2="-18.84" y2="436.58" gradientTransform="translate(105.99 650.9) scale(1 -1)" xlink:href="#linear-gradient"/>
    <linearGradient id="linear-gradient13" x1="-18.84" y1="421.93" x2="-18.84" y2="460.11" gradientTransform="translate(105.99 753.15) scale(1 -1)" xlink:href="#linear-gradient2"/>
    <linearGradient id="linear-gradient14" x1="-29.12" y1="411.06" x2="-29.12" gradientTransform="translate(150.64 596.87) scale(1 -1)" xlink:href="#linear-gradient5"/>
    <linearGradient id="linear-gradient15" x1="-29.12" y1="428.05" x2="-29.12" y2="423.19" gradientTransform="translate(150.64 613.87) scale(1 -1)" xlink:href="#linear-gradient6"/>
    <linearGradient id="linear-gradient16" x1="-25.09" y1="406.49" x2="-32.62" y2="427.75" gradientTransform="translate(150.64 620.19) scale(1 -1)" xlink:href="#linear-gradient1"/>
    <linearGradient id="linear-gradient17" x1="-29.12" y1="358.13" x2="-29.12" y2="436.47" gradientTransform="translate(150.64 650.41) scale(1 -1)" xlink:href="#linear-gradient"/>
    <linearGradient id="linear-gradient18" x1="-29.12" y1="420.96" x2="-29.12" y2="459.89" gradientTransform="translate(150.64 752.17) scale(1 -1)" xlink:href="#linear-gradient2"/>
    <linearGradient id="linear-gradient19" x1="-39.4" y1="408.87" x2="-39.4" gradientTransform="translate(195.3 596.87) scale(1 -1)" xlink:href="#linear-gradient5"/>
    <linearGradient id="linear-gradient20" x1="-39.4" y1="428.71" x2="-39.4" y2="423.84" gradientTransform="translate(195.3 616.7) scale(1 -1)" xlink:href="#linear-gradient6"/>
    <linearGradient id="linear-gradient21" x1="-33.96" y1="403.41" x2="-44.12" y2="427.56" gradientTransform="translate(195.3 623.03) scale(1 -1)" xlink:href="#linear-gradient1"/>
    <linearGradient id="linear-gradient22" x1="-39.4" y1="354.65" x2="-39.4" y2="438.42" gradientTransform="translate(195.3 658.91) scale(1 -1)" xlink:href="#linear-gradient"/>
    <linearGradient id="linear-gradient23" x1="-39.4" y1="436.52" x2="-39.4" y2="463.47" gradientTransform="translate(195.3 767.73) scale(1 -1)" xlink:href="#linear-gradient2"/>
    <linearGradient id="linear-gradient24" x1="-49.68" y1="413.24" x2="-49.68" gradientTransform="translate(239.95 596.87) scale(1 -1)" xlink:href="#linear-gradient5"/>
    <linearGradient id="linear-gradient25" x1="-49.68" y1="427.4" x2="-49.68" y2="419.91" gradientTransform="translate(239.95 611.04) scale(1 -1)" xlink:href="#linear-gradient6"/>
    <linearGradient id="linear-gradient26" x1="-44.96" y1="404.73" x2="-53.77" y2="427.48" gradientTransform="translate(239.95 620.76) scale(1 -1)" xlink:href="#linear-gradient1"/>
    <linearGradient id="linear-gradient27" x1="-49.68" y1="361.91" x2="-49.68" y2="437.25" gradientTransform="translate(239.95 653.82) scale(1 -1)" xlink:href="#linear-gradient"/>
    <linearGradient id="linear-gradient28" x1="-49.68" y1="420.47" x2="-49.68" y2="459.78" gradientTransform="translate(239.95 751.69) scale(1 -1)" xlink:href="#linear-gradient2"/>
    <linearGradient id="linear-gradient29" x1="-59.96" y1="411.06" x2="-59.96" gradientTransform="translate(284.61 596.87) scale(1 -1)" xlink:href="#linear-gradient5"/>
    <linearGradient id="linear-gradient30" x1="-55.23" y1="403.14" x2="-64.05" y2="425.9" gradientTransform="translate(284.61 613.87) scale(1 -1)" xlink:href="#linear-gradient1"/>
    <linearGradient id="linear-gradient31" x1="-59.96" y1="357.64" x2="-59.96" y2="435.66" gradientTransform="translate(284.61 646.92) scale(1 -1)" xlink:href="#linear-gradient"/>
    <linearGradient id="linear-gradient32" x1="-59.96" y1="417.07" x2="-59.96" y2="458.99" gradientTransform="translate(284.61 748.28) scale(1 -1)" xlink:href="#linear-gradient2"/>
    <linearGradient id="linear-gradient33" x1="-70.24" y1="368.23" x2="-70.24" gradientTransform="translate(329.27 596.87) scale(1 -1)" xlink:href="#linear-gradient5"/>
    <linearGradient id="linear-gradient34" x1="-70.24" y1="440.86" x2="-70.24" y2="436.37" gradientTransform="translate(329.27 669.5) scale(1 -1)" xlink:href="#linear-gradient6"/>
    <linearGradient id="linear-gradient35" x1="-55.07" y1="396.46" x2="-83.38" y2="429.79" gradientTransform="translate(329.27 675.34) scale(1 -1)" xlink:href="#linear-gradient1"/>
    <linearGradient id="linear-gradient36" x1="-70.24" y1="416.58" x2="-70.24" y2="458.88" gradientTransform="translate(329.27 747.8) scale(1 -1)" xlink:href="#linear-gradient2"/>
  </defs>
  <g isolation="isolate">
    <g id="Layer_1">
      <g clip-path="url(#clippath)">
        <g>
          <g mask="url(#mask)">
            <circle cx="481.06" cy="184.94" r="124.68" fill="none" stroke="#fff" stroke-width=".58"/>
          </g>
          <path d="M468.94,312.06l-.85-6.55.89.07.6,5,1.47-4.84.71.05.71,5,1.37-4.84.89.07-1.85,6.34-.95-.07-.67-4.7-1.39,4.54-.94-.07ZM478.55,312.68c-1.67-.03-2.79-1.38-2.75-3.36.03-1.98,1.19-3.29,2.87-3.26,1.64.03,2.74,1.38,2.7,3.36-.03,1.98-1.18,3.29-2.82,3.26ZM478.57,311.83c1.06.02,1.8-.96,1.83-2.43.03-1.47-.68-2.47-1.74-2.49-1.09-.02-1.85.96-1.87,2.43-.03,1.47.7,2.47,1.79,2.49ZM483.37,312.65l-.23-6.46,2.44-.09c1.31-.05,2.11.62,2.15,1.75.03.74-.33,1.27-.91,1.6.49.26.83.76.9,1.39l.18,1.65-.94.03-.18-1.57c-.06-.57-.46-.96-1.01-.94l-1.51.05.09,2.55-.96.03ZM485.66,309.16c.83-.03,1.13-.59,1.12-1.17-.02-.59-.36-1.1-1.19-1.07l-1.45.05.08,2.24,1.45-.05ZM491.07,312.28l-.96.08-.55-6.45.96-.08.25,2.97,2.34-3.19,1.21-.1-2.05,2.75,2.75,3.68-1.13.1-2.22-2.98-.8,1.07.18,2.15Z" fill="#a4a7ae"/>
          <path d="M420.72,310.99c.59-1.42,1.88-1.9,3.29-1.25,1.29.59,1.85,1.78,1.3,3-.4.89-1.27,1.36-2.52,1.41l-1.19.04c-.59.02-1.33.22-1.58.76l3.57,1.62-.4.87-4.53-2.06.31-.68c.5-1.13,1.64-1.47,2.58-1.51l1.26-.04c.8-.03,1.25-.33,1.5-.88.31-.68.03-1.37-.67-1.69-.8-.37-1.55-.02-1.91.87l-1-.46ZM428.48,319.62l.63-1.59-3.53-1.39.35-.89,5.09-2.95,1.14.45-1.69,4.29.98.39-.35.89-.98-.39-.63,1.59-1.01-.4ZM426.97,316.16l2.49.98,1.24-3.14-3.73,2.16ZM432.6,321.18l6.13-5.62.78.26-6.13,5.62-.78-.26ZM434.61,317.6c-.83-.28-1.16-1.11-.85-2.04.31-.93,1.08-1.39,1.91-1.12.82.27,1.15,1.11.84,2.04-.31.93-1.08,1.39-1.9,1.12ZM434.82,316.97c.41.14.81-.16,1-.72.19-.56.05-1.04-.36-1.17-.42-.14-.81.16-1,.72-.19.56-.06,1.03.36,1.17ZM436.46,322.56c-.82-.27-1.16-1.11-.85-2.04s1.09-1.39,1.91-1.12c.82.27,1.15,1.11.84,2.04s-1.08,1.39-1.9,1.12ZM436.67,321.93c.41.14.81-.16,1-.72.19-.56.05-1.04-.36-1.17-.41-.14-.81.16-1,.72-.19.56-.05,1.04.36,1.17ZM447.84,323.85c-.57-.13-.91-.7-.78-1.26.13-.57.7-.91,1.26-.78.56.13.91.7.78,1.26-.13.57-.71.91-1.26.78ZM458.58,327.79c.17-1.15.49-2.18,1.62-3.51l1.98-2.34-4.03-.59.14-.95,5.24.77-.13.85-2.4,2.87c-.94,1.13-1.2,2.02-1.35,3.06l-1.07-.16ZM465.43,327.59l1.12.12-.12,1.11-1.12-.12.12-1.11ZM472.9,321.95c1.71.1,2.68,1.52,2.57,3.55-.15,2.64-1.46,3.97-3.19,3.87-1.33-.08-2.27-.98-2.38-2.13l1.05.06c.11.66.65,1.09,1.38,1.13,1.15.07,1.93-1.01,2.09-2.48-.39.57-1.14.98-1.99.93-1.44-.08-2.38-1.16-2.3-2.59.08-1.44,1.24-2.43,2.77-2.34ZM472.84,322.9c-.88-.05-1.56.56-1.61,1.45-.05.87.51,1.53,1.4,1.58.88.05,1.6-.53,1.65-1.41.05-.89-.55-1.56-1.44-1.61ZM481.85,329.56v-3.26s-3.19-.01-3.19-.01v3.26s-1.1,0-1.1,0l.03-7.28h1.08s-.01,3.06-.01,3.06h3.2s.01-3.04.01-3.04h1.08s-.03,7.28-.03,7.28h-1.08ZM485.48,329.53l2.93-7.42.9-.04-2.94,7.42-.89.04ZM493.25,329.08l-2.24-7.09,1-.1,1.65,5.42.68-5.64.8-.08,1.77,5.4.57-5.63,1-.1-.8,7.39-1.06.1-1.67-5.07-.65,5.3-1.05.1ZM504.02,327.88c-1.86.3-3.36-.98-3.71-3.18-.35-2.2.67-3.88,2.53-4.17,1.83-.29,3.3.99,3.66,3.18.35,2.2-.65,3.87-2.48,4.17ZM503.87,326.93c1.18-.19,1.8-1.42,1.54-3.05-.26-1.63-1.24-2.6-2.42-2.41-1.21.19-1.85,1.42-1.59,3.06.26,1.63,1.26,2.6,2.47,2.41ZM509.35,326.89l-1.54-7.11,2.68-.58c1.44-.31,2.47.27,2.73,1.52.18.81-.12,1.47-.69,1.95.59.19,1.06.68,1.26,1.37l.54,1.79-1.03.22-.52-1.7c-.17-.62-.7-.98-1.31-.84l-1.67.36.61,2.8-1.06.23ZM511.2,322.58c.92-.2,1.14-.87,1-1.51-.14-.65-.62-1.14-1.54-.94l-1.59.34.53,2.46,1.59-.34ZM517.82,324.95l-1.05.28-1.91-7.02,1.04-.28.88,3.24,1.95-4.01,1.32-.36-1.71,3.46,3.79,3.52-1.22.33-3.06-2.85-.66,1.35.64,2.35ZM524.02,323.22l-2.28-6.91,2.03-.67c1.85-.61,3.68.12,4.42,2.37.75,2.25-.3,3.93-2.15,4.54l-2.03.67ZM525.7,321.66c1.21-.4,2.06-1.48,1.45-3.3-.6-1.83-1.92-2.19-3.13-1.79l-.95.31,1.68,5.09.95-.31ZM530.86,320.95l-.2-7.73.96-.37,5.07,5.84-1.04.4-1.25-1.5-2.59,1.01.08,1.95-1.03.4ZM531.76,317.6l1.99-.77-2.13-2.54.14,3.31ZM539.96,317.26l-1.24-2.77-3.94-2.88,1.06-.47,2.95,2.2.35-3.67,1.06-.47-.49,4.86,1.24,2.77-.99.44Z" fill="#fff"/>
          <path d="M536.1,75.26l1.28-2.6-2.55-1.25-1.28,2.6-.86-.42,2.85-5.81.87.42-1.2,2.44,2.56,1.25,1.2-2.44.86.42-2.85,5.81-.86-.42ZM538.83,76.65l3.15-5.65,3.64,2.03-.41.74-2.8-1.56-.91,1.62,2.28,1.27-.41.74-2.28-1.27-1,1.8,2.89,1.61-.41.74-3.73-2.08ZM543.68,79.35l5.4-4.25.77.49-1.47,6.71-.84-.53.4-1.69-2.09-1.31-1.35,1.09-.83-.52ZM546.55,78.22l1.61,1.01.68-2.87-2.29,1.86ZM549.84,83.27l3.7-5.31.79.55-3.21,4.61,2.59,1.8-.49.7-3.38-2.35ZM555.49,87.33l3.43-4.45-1.58-1.22.52-.67,3.92,3.02-.52.67-1.57-1.21-3.43,4.45-.76-.59ZM561.96,92.58l1.88-2.21-2.17-1.85-1.88,2.21-.73-.62,4.2-4.92.73.62-1.76,2.07,2.17,1.85,1.76-2.07.73.62-4.19,4.92-.73-.62Z" fill="#a4a7ae"/>
          <path d="M553.72,60.68c-.18.09-.52,0-.77-.15l-.74-.43.49-.83.66.39c.44.26.79.22,1.24-.42l.9.53-3.19,5.45,1.14.67-.49.83-3.33-1.95.48-.83,1.26.74,2.34-4ZM557.4,63.74c.8-1.32,2.14-1.59,3.44-.75,1.18.77,1.57,2.04.83,3.16-.53.82-1.46,1.16-2.7,1.02l-1.19-.14c-.58-.07-1.35.01-1.67.52l3.28,2.14-.52.8-4.18-2.72.41-.63c.67-1.04,1.84-1.21,2.78-1.1l1.26.15c.8.09,1.28-.14,1.61-.65.41-.63.24-1.35-.41-1.77-.74-.48-1.53-.25-2.02.57l-.92-.6ZM560.79,71.8l7.54-3.53.66.48-7.54,3.53-.66-.48ZM563.78,68.98c-.7-.51-.77-1.41-.2-2.2.57-.79,1.45-1.01,2.15-.49.7.51.77,1.4.2,2.19-.57.79-1.45,1.01-2.15.5ZM564.17,68.44c.35.26.82.09,1.17-.39.35-.48.36-.97,0-1.23-.36-.26-.82-.09-1.17.39-.35.48-.37.97,0,1.23ZM564.06,74.27c-.7-.51-.77-1.41-.2-2.2.57-.79,1.46-1,2.15-.49.7.51.77,1.4.2,2.19-.57.79-1.45,1.01-2.15.5ZM564.45,73.73c.35.26.82.09,1.17-.39.35-.48.36-.97,0-1.23-.35-.26-.81-.09-1.17.39-.35.48-.35.97,0,1.23Z" fill="#fff"/>
          <path d="M610.47,237.28c.11.17.08.51-.03.78l-.32.79-.89-.36.29-.71c.19-.47.1-.81-.59-1.17l.39-.96,5.86,2.37.49-1.22.89.36-1.44,3.58-.89-.36.54-1.35-4.3-1.73ZM618.29,232.66c-.46,1.32-1.63,1.98-2.88,1.68l.34-.98c.78.16,1.36-.21,1.63-.99.31-.89-.02-1.69-.93-2.01-.9-.32-1.68.08-2,1.02-.23.66-.14,1.24.25,1.61l-.3.85-3.66-1.88,1.31-3.75.9.32-1.04,2.98,1.76.92c-.19-.46-.21-1.02,0-1.62.45-1.29,1.76-1.97,3.14-1.49,1.4.49,1.98,1.91,1.47,3.34ZM619.89,227.66l-5.84-5.93.24-.79,5.84,5.93-.24.79ZM616.24,225.78c-.25.84-1.07,1.2-2,.93-.94-.28-1.43-1.03-1.18-1.87.24-.83,1.06-1.19,2-.92.94.28,1.43,1.03,1.18,1.86ZM615.6,225.59c.12-.42-.19-.8-.76-.97-.57-.17-1.03-.01-1.16.41-.13.43.18.8.76.97.57.17,1.03.02,1.16-.41ZM621.13,223.76c-.25.83-1.07,1.2-2.01.93-.94-.28-1.43-1.04-1.18-1.87.25-.83,1.07-1.19,2-.92.94.28,1.43,1.03,1.19,1.86ZM620.49,223.57c.13-.42-.18-.8-.75-.97-.57-.17-1.04-.01-1.16.41-.13.42.18.8.75.97.57.17,1.04.01,1.16-.41Z" fill="#fff"/>
          <path d="M600.29,233.3l-6.03-2.35.35-.9,5.24,2.04,1.14-2.94.79.31-1.49,3.83ZM602.48,227.56l-.8-.27.35-1.04-4.52-1.53-.35,1.04-.81-.27,1.02-2.99.8.27-.35,1.03,4.52,1.53.35-1.03.81.27-1.02,2.99ZM604.27,222.16l-6.22-1.78,1.16-4.02.81.23-.89,3.1,1.86.53.72-2.52.81.23-.72,2.52,2.73.78-.27.92ZM605.98,216.01l-6.3-1.48.96-4.06.83.19-.73,3.12,1.81.43.59-2.54.83.2-.6,2.54,2,.47.76-3.22.83.19-.98,4.16Z" fill="#a4a7ae"/>
          <path d="M402.51,92.25c-1.18.99-2.41.88-3.34-.09l.72-.61c.59.59,1.3.69,2.07.05.62-.52.85-1.13.4-1.66-1.04-1.24-3.16,1.94-4.73.08-.68-.81-.44-1.94.56-2.78,1.01-.85,2.2-.85,3.02,0l-.71.6c-.48-.47-1.15-.47-1.76.05-.6.51-.74,1.08-.38,1.5,1.05,1.24,3.12-2.03,4.75-.1.76.91.45,2.07-.6,2.96ZM405.81,89.42l-3.91-5.15.77-.58,3.4,4.47,2.51-1.91.51.68-3.27,2.49ZM410.55,85.87l-3.65-5.34,3.44-2.35.48.7-2.65,1.81,1.05,1.53,2.15-1.47.48.7-2.15,1.47,1.16,1.7,2.73-1.87.48.7-3.52,2.41ZM415.7,82.39l-3.38-5.51,3.55-2.18.44.72-2.73,1.68.97,1.58,2.22-1.36.44.72-2.22,1.36,1.08,1.76,2.82-1.73.44.72-3.64,2.23ZM420.95,79.21l-3.11-5.67,2.15-1.18c1.15-.63,2.23-.31,2.79.7.55,1,.24,2.09-.91,2.72l-1.31.72,1.24,2.25-.84.46ZM421.44,75.06c.74-.4.77-1.02.48-1.54-.28-.52-.82-.82-1.56-.42l-1.29.71,1.08,1.96,1.29-.71Z" fill="#a4a7ae"/>
          <path d="M371.81,100.78c-.89,1.16-2.34,1.52-3.48.64l.64-.83c.69.53,1.55.31,2.09-.4.57-.74.57-1.49-.05-1.97-.62-.48-1.31-.25-1.87.49l-.37.49-.73-.56.37-.48c.48-.62.39-1.29-.13-1.69-.52-.4-1.15-.23-1.63.4-.48.63-.42,1.29.17,1.8l-.63.82c-1.02-.84-1.13-2.12-.29-3.22.84-1.1,2.08-1.39,2.97-.7.57.44.8,1.16.67,1.77.64-.44,1.46-.52,2.16.02,1.1.84,1.01,2.27.12,3.42ZM376.76,94.56l-1.3-1.11-2.47,2.88-.73-.62-1.13-5.77.8-.93,3.51,3,.68-.8.73.62-.68.8,1.29,1.11-.7.82ZM373,94.87l1.74-2.04-2.57-2.2.82,4.24ZM379.41,91.54l-2.49-7.94.57-.59,2.49,7.94-.57.59ZM377.02,88.2c-.6.63-1.5.58-2.21-.09-.71-.67-.8-1.57-.2-2.2.6-.62,1.49-.57,2.2.1.71.67.8,1.57.21,2.19ZM376.54,87.75c.3-.32.2-.8-.23-1.21-.43-.41-.92-.49-1.22-.17-.31.32-.2.8.23,1.21.43.41.91.49,1.22.17ZM382.3,88.63c-.6.62-1.5.58-2.21-.09-.71-.67-.8-1.58-.2-2.2.59-.62,1.49-.57,2.2.1.71.67.8,1.57.21,2.19ZM381.81,88.18c.3-.32.2-.8-.23-1.21-.43-.41-.92-.49-1.22-.17-.3.32-.2.8.23,1.21.43.41.92.49,1.22.17ZM388.82,79.85c-.44.38-1.1.34-1.48-.1-.38-.44-.34-1.1.1-1.48.43-.38,1.1-.34,1.48.1.38.44.33,1.1-.1,1.48ZM399.51,73.63c-1.17.85-2.59.91-3.41-.2-.52-.7-.47-1.59-.03-2.24-.62.1-1.29-.07-1.7-.64-.66-.91-.37-2.11.74-2.93s2.36-.74,3.02.17c.41.56.37,1.25.08,1.82.77-.23,1.62,0,2.14.7.81,1.11.33,2.45-.85,3.31ZM398.94,72.85c.76-.56.98-1.28.52-1.91-.46-.63-1.23-.66-1.99-.1-.75.55-.97,1.3-.51,1.93.46.63,1.23.64,1.98.08ZM396.89,70.05c.64-.47.81-1.09.42-1.62-.38-.52-1.03-.54-1.66-.07-.64.47-.81,1.08-.43,1.6.39.53,1.03.56,1.67.09ZM403.52,69.31l.94-.62.62.93-.94.62-.62-.93ZM409.97,66.63c-1.26.76-2.73.56-3.48-.67l.9-.54c.45.75,1.33.85,2.09.39.8-.48,1.07-1.18.67-1.85-.4-.67-1.13-.7-1.92-.23l-.53.32-.48-.79.52-.31c.67-.4.83-1.06.49-1.62-.34-.56-.99-.63-1.66-.22-.68.41-.86,1.05-.49,1.74l-.89.54c-.65-1.15-.29-2.39.9-3.1,1.18-.71,2.44-.54,3.02.43.37.61.32,1.37-.02,1.9.76-.18,1.55.05,2,.81.71,1.18.11,2.48-1.13,3.23ZM417.65,62.21l-1.53-2.88-2.83,1.51,1.53,2.88-.95.51-3.42-6.42.95-.51,1.44,2.7,2.83-1.51-1.44-2.7.95-.51,3.42,6.42-.95.51ZM420.55,60.71l-.14-7.97.82-.38.13,7.98-.81.38ZM426.29,58.05l-2.76-6.73,1.98-.81c1.8-.74,3.68-.14,4.58,2.05.9,2.19-.02,3.94-1.82,4.68l-1.98.81ZM427.85,56.37c1.17-.48,1.94-1.62,1.21-3.4-.73-1.78-2.08-2.05-3.25-1.57l-.92.38,2.03,4.96.92-.38ZM432.6,55.47l.06-7.73.97-.34,4.87,6.01-1.05.37-1.2-1.54-2.62.92v1.96s-1.03.36-1.03.36ZM433.62,52.15l2.01-.7-2.04-2.61.03,3.32ZM441.57,52.46l-.86-2.91-3.53-3.38,1.12-.33,2.64,2.57.82-3.59,1.12-.33-1.13,4.76.86,2.91-1.04.31Z" fill="#fff"/>
          <path d="M348.22,226.78c-.19-.06-.38-.35-.47-.62l-.26-.81.91-.29.24.73c.16.48.44.69,1.21.52l.32.99-6.01,1.95.41,1.26-.91.29-1.19-3.67.91-.29.45,1.38,4.41-1.43ZM345.19,235.35c-.5-1.31-.02-2.57,1.14-3.14l.37.97c-.7.38-.91,1.03-.62,1.81.33.89,1.11,1.28,2,.95.9-.34,1.24-1.14.89-2.07-.25-.65-.69-1.04-1.23-1.07l-.32-.85,4.01-.9,1.4,3.72-.9.34-1.12-2.96-1.94.42c.44.23.81.65,1.04,1.24.48,1.27-.08,2.64-1.45,3.16-1.39.52-2.74-.2-3.28-1.62ZM347.17,240.2l8.28.8.33.75-8.28-.8-.33-.75ZM351.18,239.3c-.35-.8.05-1.61.95-2,.9-.39,1.76-.13,2.11.67.34.79-.05,1.6-.95,1.99-.9.39-1.76.13-2.1-.66ZM351.79,239.04c.17.4.66.5,1.2.26.54-.24.8-.65.63-1.06-.18-.41-.66-.5-1.2-.26-.54.24-.81.65-.63,1.06ZM348.72,243.99c-.34-.79.05-1.61.95-2,.9-.39,1.76-.12,2.11.67.34.79-.05,1.6-.95,1.99-.9.39-1.76.13-2.1-.66ZM349.34,243.73c.17.4.66.5,1.2.26s.8-.65.63-1.06c-.17-.4-.66-.5-1.2-.26-.54.24-.8.66-.63,1.06Z" fill="#fff"/>
          <path d="M359.88,224.71l6.1-2.16.35.99-3.69,4.23,4.61-1.63.31.89-6.1,2.16-.35-.99,3.68-4.23-4.6,1.63-.31-.89ZM362.08,230.89l6.87-.31.35.85-5.11,4.6-.37-.91,1.31-1.14-.94-2.28-1.74.1-.37-.91ZM365.07,231.64l.72,1.75,2.23-1.93-2.94.18Z" fill="#a4a7ae"/>
          <g opacity=".2">
            <circle cx="481.06" cy="184.36" r="107.26" fill="none" stroke="#a4a7ae" stroke-width=".58"/>
            <circle cx="481.05" cy="184.36" r="89.84" fill="none" stroke="#a4a7ae" stroke-width=".58"/>
            <circle cx="481.06" cy="184.36" r="72.42" fill="none" stroke="#a4a7ae" stroke-width=".58"/>
            <circle cx="481.06" cy="184.36" r="55" fill="none" stroke="#a4a7ae" stroke-width=".58"/>
            <circle cx="481.06" cy="184.36" r="37.58" fill="none" stroke="#a4a7ae" stroke-width=".58"/>
          </g>
          <g opacity=".9">
            <path d="M479.5,191.06c.79-1.12,2.45-1.14,3.27-.05l41.7,55.76c.69.92.44,2.1-.36,2.64-12.43,8.24-27.01,12.75-41.99,12.96-14.98.21-29.67-3.9-42.33-11.79-.82-.51-1.1-1.68-.44-2.62l40.14-56.89Z" fill="url(#linear-gradient)"/>
            <path d="M479.5,191.06c.79-1.12,2.45-1.14,3.27-.05l41.7,55.76c.69.92.44,2.1-.36,2.64-12.43,8.24-27.01,12.75-41.99,12.96-14.98.21-29.67-3.9-42.33-11.79-.82-.51-1.1-1.68-.44-2.62l40.14-56.89Z" fill="none"/>
            <path d="M479.5,191.06c.79-1.12,2.45-1.14,3.27-.05l41.7,55.76c.69.92.44,2.1-.36,2.64-12.43,8.24-27.01,12.75-41.99,12.96-14.98.21-29.67-3.9-42.33-11.79-.82-.51-1.1-1.68-.44-2.62l40.14-56.89Z" fill="none"/>
            <path d="M479.5,191.06c.79-1.12,2.45-1.14,3.27-.05l41.7,55.76c.69.92.44,2.1-.36,2.64-12.43,8.24-27.01,12.75-41.99,12.96-14.98.21-29.67-3.9-42.33-11.79-.82-.51-1.1-1.68-.44-2.62l40.14-56.89Z" fill="none" isolation="isolate" mix-blend-mode="soft-light" stroke="#fff" stroke-width=".58"/>
          </g>
          <g opacity=".9">
            <path d="M542.36,165.73c1.09-.38,2.13.22,2.37,1.12,3.29,11.96,3.15,24.64-.45,36.57-3.59,11.93-10.48,22.58-19.83,30.73-.7.62-1.9.55-2.6-.37l-34.89-45.92c-.83-1.09-.35-2.68.94-3.13l54.46-18.99Z" fill="url(#linear-gradient1)"/>
            <path d="M542.36,165.73c1.09-.38,2.13.22,2.37,1.12,3.29,11.96,3.15,24.64-.45,36.57-3.59,11.93-10.48,22.58-19.83,30.73-.7.62-1.9.55-2.6-.37l-34.89-45.92c-.83-1.09-.35-2.68.94-3.13l54.46-18.99Z" fill="none"/>
            <path d="M542.36,165.73c1.09-.38,2.13.22,2.37,1.12,3.29,11.96,3.15,24.64-.45,36.57-3.59,11.93-10.48,22.58-19.83,30.73-.7.62-1.9.55-2.6-.37l-34.89-45.92c-.83-1.09-.35-2.68.94-3.13l54.46-18.99Z" fill="none"/>
            <path d="M542.36,165.73c1.09-.38,2.13.22,2.37,1.12,3.29,11.96,3.15,24.64-.45,36.57-3.59,11.93-10.48,22.58-19.83,30.73-.7.62-1.9.55-2.6-.37l-34.89-45.92c-.83-1.09-.35-2.68.94-3.13l54.46-18.99Z" fill="none" isolation="isolate" mix-blend-mode="soft-light" stroke="#fff" stroke-width=".58"/>
          </g>
          <g opacity=".9">
            <path d="M476.55,81.4c1-.04,1.91.78,1.91,1.92v94.67c0,1.37-1.34,2.35-2.65,1.92l-90.04-29.26c-1.09-.35-1.59-1.47-1.24-2.41,7.07-18.91,19.56-35.36,35.95-47.27,16.39-11.91,35.9-18.7,56.07-19.58Z" fill="url(#linear-gradient2)"/>
            <path d="M476.55,81.4c1-.04,1.91.78,1.91,1.92v94.67c0,1.37-1.34,2.35-2.65,1.92l-90.04-29.26c-1.09-.35-1.59-1.47-1.24-2.41,7.07-18.91,19.56-35.36,35.95-47.27,16.39-11.91,35.9-18.7,56.07-19.58Z" fill="none"/>
            <path d="M476.55,81.4c1-.04,1.91.78,1.91,1.92v94.67c0,1.37-1.34,2.35-2.65,1.92l-90.04-29.26c-1.09-.35-1.59-1.47-1.24-2.41,7.07-18.91,19.56-35.36,35.95-47.27,16.39-11.91,35.9-18.7,56.07-19.58Z" fill="none"/>
            <path d="M476.55,81.4c1-.04,1.91.78,1.91,1.92v94.67c0,1.37-1.34,2.35-2.65,1.92l-90.04-29.26c-1.09-.35-1.59-1.47-1.24-2.41,7.07-18.91,19.56-35.36,35.95-47.27,16.39-11.91,35.9-18.7,56.07-19.58Z" fill="none" isolation="isolate" mix-blend-mode="soft-light" stroke="#fff" stroke-width=".58"/>
          </g>
          <g opacity=".9">
            <path d="M420,169.28c.22-.9,1.23-1.53,2.34-1.17l51.86,16.77c1.31.42,1.82,2,1.02,3.11l-31.98,44.14c-.68.94-1.87,1.03-2.58.43-9-7.54-15.73-17.47-19.39-28.68-3.66-11.21-4.09-23.2-1.27-34.6Z" fill="url(#linear-gradient3)"/>
            <path d="M420,169.28c.22-.9,1.23-1.53,2.34-1.17l51.86,16.77c1.31.42,1.82,2,1.02,3.11l-31.98,44.14c-.68.94-1.87,1.03-2.58.43-9-7.54-15.73-17.47-19.39-28.68-3.66-11.21-4.09-23.2-1.27-34.6Z" fill="none"/>
            <path d="M420,169.28c.22-.9,1.23-1.53,2.34-1.17l51.86,16.77c1.31.42,1.82,2,1.02,3.11l-31.98,44.14c-.68.94-1.87,1.03-2.58.43-9-7.54-15.73-17.47-19.39-28.68-3.66-11.21-4.09-23.2-1.27-34.6Z" fill="none"/>
            <path d="M420,169.28c.22-.9,1.23-1.53,2.34-1.17l51.86,16.77c1.31.42,1.82,2,1.02,3.11l-31.98,44.14c-.68.94-1.87,1.03-2.58.43-9-7.54-15.73-17.47-19.39-28.68-3.66-11.21-4.09-23.2-1.27-34.6Z" fill="none" isolation="isolate" mix-blend-mode="soft-light" stroke="#fff" stroke-width=".58"/>
          </g>
          <g opacity=".9">
            <path d="M485.39,121.18c11.24.95,21.85,5.97,31.47,12.8,9.43,6.7,16.77,15.9,21.21,26.53.35.85-.08,1.96-1.18,2.33l-50.58,17.02c-1.31.44-2.67-.53-2.67-1.92v-54.95c0-1.17.9-1.88,1.75-1.81Z" fill="url(#linear-gradient4)"/>
            <path d="M485.39,121.18c11.24.95,21.85,5.97,31.47,12.8,9.43,6.7,16.77,15.9,21.21,26.53.35.85-.08,1.96-1.18,2.33l-50.58,17.02c-1.31.44-2.67-.53-2.67-1.92v-54.95c0-1.17.9-1.88,1.75-1.81Z" fill="none"/>
            <path d="M485.39,121.18c11.24.95,21.85,5.97,31.47,12.8,9.43,6.7,16.77,15.9,21.21,26.53.35.85-.08,1.96-1.18,2.33l-50.58,17.02c-1.31.44-2.67-.53-2.67-1.92v-54.95c0-1.17.9-1.88,1.75-1.81Z" fill="none"/>
            <path d="M485.39,121.18c11.24.95,21.85,5.97,31.47,12.8,9.43,6.7,16.77,15.9,21.21,26.53.35.85-.08,1.96-1.18,2.33l-50.58,17.02c-1.31.44-2.67-.53-2.67-1.92v-54.95c0-1.17.9-1.88,1.75-1.81Z" fill="none" isolation="isolate" mix-blend-mode="soft-light" stroke="#fff" stroke-width=".58"/>
          </g>
        </g>
      </g>
      <g clip-path="url(#clippath-1)">
        <g>
          <path d="M13.25,26.94v-7.54h2.18c2,0,3.52,1.37,3.52,3.77s-1.52,3.77-3.52,3.77h-2.18ZM14.17,26.11h1.23c1.36,0,2.59-.86,2.59-2.94s-1.23-2.94-2.59-2.94h-1.23v5.88ZM21.39,26.94v-7.54h4.76v.83h-3.84v2.4h3.14v.83h-3.14v2.65h3.96v.83h-4.88ZM31.46,27.03c-1.94,0-3.32-1.38-3.32-3.86s1.38-3.86,3.32-3.86c1.57,0,2.65.96,2.87,2.44h-.97c-.13-.96-.84-1.61-1.91-1.61-1.44,0-2.36,1.12-2.36,3.03s.92,3.03,2.36,3.03c1.06,0,1.81-.65,1.92-1.61h.95c-.17,1.48-1.29,2.44-2.86,2.44ZM36.74,26.94v-7.54h4.76v.83h-3.84v2.4h3.14v.83h-3.14v2.65h3.96v.83h-4.88ZM43.89,26.94v-7.54h1.17l1.92,6.1,1.92-6.1h1.17v7.54h-.87v-5.88l-1.84,5.88h-.75l-1.84-5.88v5.88h-.87ZM52.63,26.94v-7.54h2.68c1.42,0,2.3.72,2.3,1.83,0,.81-.42,1.33-1,1.58.79.26,1.35.87,1.35,1.93,0,1.35-.92,2.2-2.47,2.2h-2.86ZM53.54,26.11h1.78c1.11,0,1.7-.48,1.7-1.38s-.59-1.39-1.7-1.39h-1.78v2.77ZM53.54,22.52h1.74c.92,0,1.41-.39,1.41-1.16s-.5-1.15-1.4-1.15h-1.75v2.32ZM60.4,26.94v-7.54h4.76v.83h-3.84v2.4h3.14v.83h-3.14v2.65h3.96v.83h-4.88ZM67.69,26.94v-7.54h2.77c1.5,0,2.4.8,2.4,2.1,0,.88-.47,1.51-1.2,1.85.59.32.97.95,1.01,1.71l.13,1.88h-.89l-.13-1.82c-.04-.73-.52-1.25-1.22-1.25h-1.96v3.07h-.92ZM68.6,23.04h1.85c1.07,0,1.47-.69,1.47-1.43s-.4-1.39-1.47-1.39h-1.85v2.82ZM81.31,26.94v-.83h1.56v-5.14c-.12.17-.39.26-.68.26h-.96v-.83h.85c.48,0,.74-.2.81-1h.89v6.71h1.43v.83h-3.91ZM90.13,27.03c-1.51,0-2.69-.98-2.69-2.46h.91c0,.98.78,1.63,1.8,1.63s1.71-.51,1.71-1.4-.67-1.36-1.71-1.36h-.6v-.81h.59c.89,0,1.43-.55,1.43-1.3s-.58-1.19-1.49-1.19-1.42.52-1.48,1.4h-.89c.05-1.35,1-2.23,2.38-2.23s2.41.82,2.41,1.98c0,.75-.48,1.41-1.09,1.68.79.26,1.39.89,1.39,1.82,0,1.44-1.23,2.23-2.67,2.23ZM95.54,24.39v-.75h3.3v.75h-3.3ZM101.68,26.94v-.83h1.56v-5.14c-.12.17-.39.26-.68.26h-.96v-.83h.85c.48,0,.74-.2.81-1h.89v6.71h1.43v.83h-3.91ZM110.51,19.31c1.72,0,2.8,1.36,2.8,3.47,0,2.82-1.25,4.25-3.02,4.25-1.29,0-2.33-.82-2.52-2h.92c.17.74.81,1.19,1.61,1.19,1.29,0,2.08-1.28,2.16-2.94-.37.67-1.14,1.17-2.08,1.17-1.53,0-2.55-1.07-2.55-2.54s1.13-2.59,2.69-2.59ZM110.51,20.14c-1.01,0-1.75.74-1.75,1.76s.67,1.71,1.68,1.71,1.81-.72,1.81-1.72-.72-1.75-1.75-1.75ZM116.18,27.64c.3,0,.51-.23.51-.56v-1.14h.88v1.17c0,.75-.48,1.27-1.21,1.27h-.34v-.74h.16ZM127.21,21.85c-.06-1.54.93-2.53,2.49-2.53,1.42,0,2.45.87,2.45,2.24,0,1.01-.63,1.83-1.76,2.39l-1.08.54c-.61.31-1.3.89-1.3,1.63h4.17v.83h-5.07v-.64c-.01-1.35.99-2.17,1.82-2.59l1.15-.59c.82-.41,1.11-.93,1.11-1.58,0-.85-.64-1.42-1.49-1.42-.98,0-1.6.69-1.55,1.72h-.95ZM136.97,27.03c-1.83,0-2.56-1.25-2.56-3.56v-.6c0-2.31.73-3.56,2.56-3.56h.37c1.84,0,2.56,1.25,2.56,3.56v.6c0,2.31-.72,3.56-2.56,3.56h-.37ZM137.33,26.2c1.17,0,1.66-.87,1.66-2.62v-.82c0-1.75-.48-2.62-1.66-2.62h-.33c-1.16,0-1.66.87-1.66,2.62v.82c0,1.75.5,2.62,1.66,2.62h.33ZM142.25,21.85c-.06-1.54.93-2.53,2.49-2.53,1.42,0,2.45.87,2.45,2.24,0,1.01-.63,1.83-1.76,2.39l-1.08.54c-.61.31-1.3.89-1.3,1.63h4.17v.83h-5.07v-.64c-.01-1.35.99-2.17,1.82-2.59l1.15-.59c.82-.41,1.11-.93,1.11-1.58,0-.85-.64-1.42-1.49-1.42-.98,0-1.6.69-1.55,1.72h-.95ZM152.05,27.03c-1.44,0-2.46-.89-2.6-2.21h.88c.13.91.74,1.38,1.68,1.38,1.08,0,1.8-.65,1.8-1.75s-.71-1.77-1.84-1.77c-.79,0-1.39.33-1.62.88h-.75l.58-4.17h4.04v.83h-3.34l-.33,2.27c.42-.4,1.02-.61,1.68-.61,1.41,0,2.53,1.02,2.53,2.56s-1.16,2.58-2.72,2.58Z" fill="#fff"/>
          <path d="M14.12,40.8l-1.48-7h.81l1.14,5.53,1.27-5.53h.67l1.26,5.53,1.16-5.53h.8l-1.47,7h-.87l-1.22-5.32-1.21,5.32h-.86Z" fill="#fff" fill-opacity=".75"/>
          <path d="M23,40.8l3.14-7h.71l-3.15,7h-.7ZM27.84,40.8l3.14-7h.71l-3.15,7h-.7ZM32.67,40.8l3.14-7h.71l-3.15,7h-.7Z" fill="#fff" fill-opacity=".75"/>
          <path d="M41.35,35.26c-.11.16-.36.24-.63.24h-.89v-.77h.79c.45,0,.69-.19.75-.93h.83v6.23h1.33v.77h-3.63v-.77h1.45v-4.77ZM48.09,40.88c-1.35,0-2.49-.74-2.49-2.07,0-.85.57-1.53,1.3-1.78-.56-.27-1.02-.77-1.02-1.47,0-1.08.9-1.84,2.21-1.84s2.21.76,2.21,1.84c0,.7-.46,1.2-1.02,1.47.73.25,1.29.93,1.29,1.78,0,1.33-1.13,2.07-2.48,2.07ZM48.09,40.11c.98,0,1.61-.49,1.61-1.3s-.63-1.33-1.61-1.33-1.62.5-1.62,1.33.64,1.3,1.62,1.3ZM48.09,36.7c.83,0,1.36-.43,1.36-1.13s-.53-1.1-1.36-1.1-1.36.41-1.36,1.1.53,1.13,1.36,1.13ZM52.74,36.07c-.06-1.43.86-2.35,2.31-2.35,1.32,0,2.27.81,2.27,2.08,0,.94-.58,1.7-1.63,2.22l-1,.5c-.57.29-1.21.83-1.21,1.51h3.87v.77h-4.7v-.59c-.01-1.25.92-2.01,1.69-2.4l1.07-.55c.76-.38,1.03-.86,1.03-1.47,0-.79-.59-1.32-1.38-1.32-.91,0-1.48.64-1.44,1.6h-.88ZM62.81,40.8v-1.75h-3.73v-.77l3.58-4.48h1.01v4.48h1.09v.77h-1.09v1.75h-.86ZM59.98,38.28h2.83v-3.54l-2.83,3.54Z" fill="#fff" fill-opacity=".75"/>
          <path d="M259.43,27.71c0-8.5,6.89-15.4,15.4-15.4h0c8.5,0,15.4,6.89,15.4,15.4h0c0,8.5-6.89,15.4-15.4,15.4h0c-8.5,0-15.4-6.89-15.4-15.4h0Z" fill="#fff" fill-opacity=".1"/>
          <path d="M271.93,24.51c0,.89.31,1.65.93,2.27.62.62,1.38.93,2.27.93-.89,0-1.65.31-2.27.93-.62.62-.93,1.38-.93,2.27,0-.84-.27-1.56-.82-2.16l-.11-.12c-.62-.62-1.38-.93-2.27-.93.84,0,1.56-.27,2.16-.82l.12-.11c.62-.62.93-1.38.93-2.27ZM271.93,26.66c-.14.2-.3.4-.48.58-.18.18-.38.34-.58.48.2.14.4.3.58.48.18.18.34.37.48.58.14-.2.3-.4.48-.58.18-.18.37-.34.58-.48-.2-.14-.39-.3-.58-.48-.18-.18-.34-.37-.48-.58Z" fill="#fff" fill-rule="evenodd"/>
          <path d="M280.27,28.03h-4.47v-.64h4.47v.64Z" fill="#fff"/>
          <path d="M280.27,25.47h-6.41v-.64h6.41v.64Z" fill="#fff"/>
          <path d="M280.27,30.6h-6.4v-.64h6.4v.64Z" fill="#fff"/>
          <path d="M14.56,70.91v-5.44h-1.94v-.67h4.62v.67h-1.94v5.44h-.75ZM19,70.91v-.67h1.08v-4.76h-1.08v-.67h2.91v.67h-1.07v4.76h1.07v.67h-2.91ZM23.98,70.91v-6.11h.95l1.55,4.94,1.55-4.94h.95v6.11h-.71v-4.76l-1.49,4.76h-.61l-1.49-4.76v4.76h-.71ZM31.16,70.91v-6.11h3.86v.67h-3.11v1.95h2.54v.67h-2.54v2.15h3.2v.67h-3.95ZM41.88,70.91v-6.11h2.17c1.15,0,1.86.58,1.86,1.48,0,.65-.34,1.07-.81,1.28.64.21,1.09.71,1.09,1.56,0,1.09-.74,1.78-2,1.78h-2.31ZM44.06,70.24c.9,0,1.38-.39,1.38-1.12s-.48-1.13-1.38-1.13h-1.44v2.24h1.44ZM44.02,67.33c.74,0,1.14-.31,1.14-.94s-.4-.93-1.13-.93h-1.41v1.88h1.4ZM49.53,70.91v-2.56l-2.08-3.55h.8l1.66,2.84,1.64-2.84h.81l-2.09,3.55v2.56h-.75ZM58.91,70.91v-6.11h2.29c1.2,0,1.95.73,1.95,1.81s-.74,1.81-1.95,1.81h-1.55v2.5h-.74ZM61.19,67.75c.86,0,1.19-.54,1.19-1.14s-.32-1.14-1.19-1.14h-1.54v2.29h1.54ZM64.95,70.91v-.67h1.08v-4.76h-1.08v-.67h2.91v.67h-1.07v4.76h1.07v.67h-2.91ZM70.26,70.91v-6.11h.75v5.43h3.04v.67h-3.79ZM76.11,70.91v-6.11h.75v5.43h3.04v.67h-3.8ZM81.21,70.91l2.24-6.11h.71l2.23,6.11h-.77l-.58-1.65h-2.49l-.59,1.65h-.76ZM82.79,68.6h2.02l-1-2.87-1.02,2.87ZM88.05,70.91v-6.11h2.24c1.21,0,1.95.65,1.95,1.7,0,.72-.38,1.22-.97,1.5.48.26.79.77.82,1.39l.1,1.52h-.72l-.1-1.47c-.03-.59-.42-1.01-.99-1.01h-1.59v2.49h-.74ZM90.29,67.75c.86,0,1.19-.56,1.19-1.16s-.32-1.13-1.19-1.13h-1.5v2.29h1.5ZM96.25,70.98c-1.47,0-2.26-.82-2.35-2.07h.74c.08.85.56,1.4,1.61,1.4.85,0,1.44-.32,1.44-1.06,0-1.64-3.58-.63-3.58-2.89,0-.97.85-1.62,2.08-1.62s2.06.71,2.15,1.81h-.73c-.07-.69-.61-1.13-1.42-1.13s-1.33.37-1.33.95c0,1.63,3.6.52,3.6,2.89,0,1.11-.94,1.74-2.22,1.74Z" fill="#a4a7ae"/>
          <path d="M15.94,99.9v-2.35h-2.43v2.35h-.62v-5.09h.62v2.18h2.43v-2.18h.63v5.09h-.63ZM18.34,99.9v-5.09h1.87c1.01,0,1.62.54,1.62,1.42,0,.6-.32,1.02-.81,1.25.4.22.65.64.68,1.16l.09,1.26h-.6l-.09-1.23c-.03-.49-.35-.84-.82-.84h-1.32v2.07h-.62ZM20.21,97.27c.72,0,.99-.47.99-.97s-.27-.94-.99-.94h-1.25v1.91h1.25ZM25.18,99.96c-1.22,0-1.88-.68-1.96-1.72h.62c.07.71.47,1.16,1.34,1.16.71,0,1.2-.27,1.2-.89,0-1.37-2.98-.52-2.98-2.41,0-.81.71-1.35,1.73-1.35s1.72.59,1.8,1.5h-.61c-.06-.57-.51-.95-1.18-.95s-1.11.31-1.11.79c0,1.36,3,.44,3,2.41,0,.92-.79,1.45-1.85,1.45ZM28.53,99.9l2.28-5.09h.52l-2.29,5.09h-.51ZM33.8,99.9l-1.08-5.09h.59l.83,4.02.92-4.02h.49l.92,4.02.84-4.02h.58l-1.07,5.09h-.63l-.89-3.87-.88,3.87h-.63ZM39.41,99.9v-5.09h3.21v.56h-2.59v1.62h2.12v.56h-2.12v1.79h2.67v.56h-3.29ZM44.41,99.9v-5.09h3.21v.56h-2.59v1.62h2.12v.56h-2.12v1.79h2.67v.56h-3.29ZM49.95,99.9h-.63v-5.09h.63v2.42l2.22-2.42h.79l-1.87,2.03,2,3.06h-.72l-1.71-2.6-.71.77v1.82Z" fill="#fff" fill-opacity=".5"/>
          <path d="M14.33,107.39c-.1.14-.31.21-.55.21h-.78v-.67h.69c.39,0,.6-.17.65-.81h.72v5.43h1.16v.67h-3.17v-.67h1.26v-4.16ZM19.57,112.29c-1.4,0-2.27-1.1-2.27-2.81,0-2.29,1.01-3.44,2.44-3.44,1.05,0,1.88.66,2.04,1.62h-.74c-.14-.6-.65-.96-1.3-.96-1.05,0-1.68,1.04-1.74,2.38.3-.54.92-.95,1.68-.95,1.24,0,2.07.86,2.07,2.06s-.92,2.09-2.18,2.09ZM19.57,111.62c.82,0,1.41-.6,1.41-1.42s-.54-1.39-1.36-1.39-1.47.59-1.47,1.4.58,1.41,1.41,1.41ZM24.95,112.29c-1.18,0-2.17-.65-2.17-1.81,0-.74.5-1.33,1.13-1.55-.49-.24-.89-.67-.89-1.28,0-.94.79-1.61,1.93-1.61s1.93.66,1.93,1.61c0,.61-.4,1.05-.89,1.28.64.22,1.13.81,1.13,1.55,0,1.16-.99,1.81-2.16,1.81ZM24.95,111.62c.85,0,1.4-.43,1.4-1.13s-.55-1.16-1.4-1.16-1.41.44-1.41,1.16.56,1.13,1.41,1.13ZM24.95,108.64c.72,0,1.19-.37,1.19-.99s-.46-.96-1.19-.96-1.19.36-1.19.96.46.99,1.19.99ZM31.98,112.22v-2.82h-2.91v2.82h-.74v-6.11h.74v2.62h2.91v-2.62h.75v6.11h-.75Z" fill="#fff"/>
          <path d="M71.18,99.9v-5.09h.71l2.36,4.08v-4.08h.61v5.09h-.71l-2.35-4.07v4.07h-.62ZM78.53,99.96c-1.3,0-2.19-1.05-2.19-2.6s.89-2.6,2.19-2.6,2.14,1.05,2.14,2.6-.87,2.6-2.14,2.6ZM78.52,99.4c.9,0,1.51-.82,1.51-2.04s-.61-2.04-1.51-2.04-1.54.82-1.54,2.04.63,2.04,1.54,2.04ZM83.36,99.9v-4.53h-1.61v-.56h3.85v.56h-1.61v4.53h-.63ZM90.64,99.9l1.87-5.09h.59l1.86,5.09h-.64l-.48-1.37h-2.08l-.49,1.37h-.63ZM91.95,97.98h1.69l-.84-2.39-.85,2.39ZM98.2,99.96c-1.31,0-2.24-.93-2.24-2.6s.93-2.6,2.24-2.6c1.06,0,1.79.65,1.93,1.64h-.65c-.09-.65-.57-1.08-1.29-1.08-.97,0-1.59.76-1.59,2.04s.62,2.04,1.59,2.04c.71,0,1.22-.44,1.29-1.08h.64c-.12,1-.87,1.64-1.93,1.64ZM103.62,99.96c-1.31,0-2.24-.93-2.24-2.6s.93-2.6,2.24-2.6c1.06,0,1.79.65,1.93,1.64h-.65c-.09-.65-.57-1.08-1.29-1.08-.97,0-1.59.76-1.59,2.04s.62,2.04,1.59,2.04c.71,0,1.22-.44,1.29-1.08h.64c-.12,1-.87,1.64-1.93,1.64ZM109,99.96c-1.3,0-2.19-1.05-2.19-2.6s.89-2.6,2.19-2.6,2.14,1.05,2.14,2.6-.87,2.6-2.14,2.6ZM108.99,99.4c.9,0,1.51-.82,1.51-2.04s-.61-2.04-1.51-2.04-1.54.82-1.54,2.04.63,2.04,1.54,2.04ZM114.44,99.96c-1.12,0-1.83-.69-1.83-1.8v-3.34h.61v3.37c0,.75.48,1.21,1.22,1.21s1.23-.47,1.23-1.21v-3.37h.61v3.34c0,1.11-.72,1.8-1.84,1.8ZM117.98,99.9v-5.09h.71l2.36,4.08v-4.08h.61v5.09h-.71l-2.35-4.07v4.07h-.62ZM124.67,99.9v-4.53h-1.61v-.56h3.85v.56h-1.61v4.53h-.63ZM128.46,99.9v-5.09h3.21v.56h-2.59v1.62h2.12v.56h-2.12v1.79h2.67v.56h-3.29ZM133.3,99.9v-5.09h1.47c1.35,0,2.38.92,2.38,2.54s-1.03,2.54-2.38,2.54h-1.47ZM134.75,99.34c.92,0,1.74-.58,1.74-1.98s-.83-1.98-1.74-1.98h-.83v3.97h.83Z" fill="#fff" fill-opacity=".5"/>
          <path d="M73.22,112.29c-1.17,0-1.99-.72-2.1-1.79h.72c.1.73.6,1.12,1.36,1.12.87,0,1.46-.52,1.46-1.41s-.58-1.43-1.49-1.43c-.64,0-1.13.27-1.31.72h-.61l.47-3.38h3.27v.67h-2.7l-.27,1.84c.34-.32.83-.5,1.36-.5,1.14,0,2.05.83,2.05,2.08s-.94,2.08-2.2,2.08ZM78.52,112.29c-1.48,0-2.08-1.01-2.08-2.88v-.49c0-1.87.59-2.88,2.08-2.88h.3c1.49,0,2.08,1.01,2.08,2.88v.49c0,1.87-.58,2.88-2.08,2.88h-.3ZM78.81,111.62c.95,0,1.34-.71,1.34-2.12v-.66c0-1.41-.39-2.12-1.34-2.12h-.27c-.94,0-1.34.71-1.34,2.12v.66c0,1.41.4,2.12,1.34,2.12h.27ZM85.77,112.22v-2.82h-2.91v2.82h-.74v-6.11h.74v2.62h2.91v-2.62h.75v6.11h-.75ZM93.82,113.37c-.73-1.08-1.17-2.46-1.17-3.75s.44-2.67,1.17-3.75h.66c-.71,1.18-1.11,2.48-1.11,3.75s.4,2.57,1.11,3.75h-.66ZM98.23,112.29c-1.22,0-2.18-.79-2.18-1.99h.73c0,.79.63,1.32,1.46,1.32s1.39-.41,1.39-1.13-.54-1.1-1.39-1.1h-.49v-.65h.48c.72,0,1.16-.44,1.16-1.06s-.47-.96-1.2-.96-1.15.42-1.19,1.13h-.72c.04-1.09.81-1.81,1.93-1.81s1.95.66,1.95,1.61c0,.61-.39,1.14-.88,1.36.64.21,1.12.72,1.12,1.47,0,1.17-.99,1.81-2.16,1.81ZM103.49,112.29c-1.48,0-2.08-1.01-2.08-2.88v-.49c0-1.87.59-2.88,2.08-2.88h.3c1.49,0,2.08,1.01,2.08,2.88v.49c0,1.87-.58,2.88-2.08,2.88h-.3ZM103.78,111.62c.95,0,1.34-.71,1.34-2.12v-.66c0-1.41-.39-2.12-1.34-2.12h-.27c-.94,0-1.34.71-1.34,2.12v.66c0,1.41.4,2.12,1.34,2.12h.27ZM107.29,112.22l3.38-6.11h.61l-3.38,6.11h-.61ZM107.91,108.83c-.72,0-1.21-.58-1.21-1.4s.49-1.4,1.21-1.4,1.19.58,1.19,1.4-.48,1.4-1.19,1.4ZM107.91,108.34c.4,0,.65-.37.65-.9s-.25-.9-.65-.9-.66.37-.66.9.25.9.66.9ZM110.67,112.29c-.72,0-1.21-.58-1.21-1.4s.49-1.4,1.21-1.4,1.2.58,1.2,1.4-.48,1.4-1.2,1.4ZM110.67,111.79c.4,0,.65-.37.65-.9s-.25-.9-.65-.9-.66.37-.66.9.25.9.66.9ZM113.96,105.85c.73,1.08,1.17,2.46,1.17,3.75s-.44,2.67-1.17,3.75h-.66c.71-1.18,1.11-2.48,1.11-3.75s-.4-2.57-1.11-3.75h.66Z" fill="#fff"/>
          <line x1="12.32" y1="122.33" x2="287.85" y2="122.33" fill="none" stroke="#fff" stroke-opacity=".15" stroke-width=".73"/>
          <path d="M14.16,136.06c0-.77.62-1.39,1.39-1.39h2.78c.77,0,1.39.62,1.39,1.39v2.78c0,.77-.62,1.39-1.39,1.39h-2.78c-.77,0-1.39-.62-1.39-1.39v-2.78Z" fill="#a38523"/>
          <path d="M22.57,139.89v-5.09h.63v4.53h2.54v.56h-3.16ZM27.26,139.89v-.56h.9v-3.97h-.9v-.56h2.42v.56h-.89v3.97h.89v.56h-2.42ZM31.61,139.89v-5.09h3.22v.56h-2.6v1.68h2.12v.56h-2.12v2.29h-.63ZM36.49,139.89v-5.09h3.21v.56h-2.59v1.62h2.12v.56h-2.12v1.79h2.67v.56h-3.29Z" fill="#fff" fill-opacity=".5"/>
          <path d="M12.99,148.08c-.05-1.25.75-2.05,2.02-2.05,1.15,0,1.98.71,1.98,1.81,0,.82-.51,1.48-1.42,1.94l-.87.44c-.5.25-1.06.72-1.06,1.32h3.38v.67h-4.1v-.51c0-1.09.8-1.75,1.47-2.09l.93-.48c.66-.33.9-.75.9-1.28,0-.69-.51-1.15-1.2-1.15-.79,0-1.29.56-1.26,1.4h-.77ZM20.22,152.27c-1.17,0-1.99-.72-2.1-1.79h.72c.1.73.6,1.12,1.36,1.12.87,0,1.46-.52,1.46-1.41s-.58-1.43-1.49-1.43c-.64,0-1.13.27-1.31.72h-.61l.47-3.38h3.27v.67h-2.7l-.27,1.84c.34-.32.83-.5,1.36-.5,1.14,0,2.05.83,2.05,2.08s-.94,2.09-2.2,2.09ZM27.26,152.2v-2.82h-2.91v2.82h-.74v-6.11h.74v2.62h2.91v-2.62h.75v6.11h-.75ZM35.31,153.35c-.73-1.08-1.17-2.46-1.17-3.75s.44-2.67,1.17-3.75h.66c-.71,1.18-1.11,2.48-1.11,3.75s.4,2.57,1.11,3.75h-.66ZM39.12,147.37c-.1.14-.31.21-.55.21h-.78v-.67h.69c.39,0,.6-.17.65-.81h.72v5.44h1.16v.67h-3.17v-.67h1.26v-4.16ZM44.23,152.27c-1.17,0-1.99-.72-2.1-1.79h.72c.1.73.6,1.12,1.36,1.12.87,0,1.46-.52,1.46-1.41s-.58-1.43-1.49-1.43c-.64,0-1.13.27-1.31.72h-.61l.47-3.38h3.27v.67h-2.7l-.27,1.84c.34-.32.83-.5,1.36-.5,1.14,0,2.05.83,2.05,2.08s-.94,2.09-2.2,2.09ZM47.82,152.2l3.38-6.11h.61l-3.38,6.11h-.61ZM48.44,148.82c-.72,0-1.21-.58-1.21-1.4s.49-1.4,1.21-1.4,1.2.58,1.2,1.4-.48,1.4-1.2,1.4ZM48.44,148.32c.4,0,.65-.37.65-.9s-.25-.9-.65-.9-.66.37-.66.9.25.9.66.9ZM51.21,152.27c-.72,0-1.21-.58-1.21-1.4s.49-1.4,1.21-1.4,1.2.58,1.2,1.4-.48,1.4-1.2,1.4ZM51.21,151.78c.4,0,.65-.37.65-.9s-.25-.9-.65-.9-.66.37-.66.9.25.9.66.9ZM54.5,145.84c.73,1.08,1.17,2.46,1.17,3.75s-.44,2.67-1.17,3.75h-.66c.71-1.18,1.11-2.48,1.11-3.75s-.4-2.57-1.11-3.75h.66Z" fill="#fff"/>
          <path d="M83.04,136.06c0-.77.62-1.39,1.39-1.39h2.78c.77,0,1.39.62,1.39,1.39v2.78c0,.77-.62,1.39-1.39,1.39h-2.78c-.77,0-1.39-.62-1.39-1.39v-2.78Z" fill="#6baa83"/>
          <path d="M94.27,139.89v-2.35h-2.43v2.35h-.62v-5.09h.62v2.18h2.43v-2.18h.63v5.09h-.63ZM96.76,139.89v-5.09h3.21v.56h-2.59v1.62h2.12v.56h-2.12v1.79h2.67v.56h-3.29ZM101.22,139.89l1.87-5.09h.59l1.86,5.09h-.64l-.48-1.37h-2.08l-.49,1.37h-.63ZM102.54,137.96h1.69l-.84-2.39-.85,2.39ZM107.1,139.89v-5.09h.63v4.53h2.54v.56h-3.16ZM112.69,139.89v-4.53h-1.61v-.56h3.85v.56h-1.61v4.53h-.63ZM119.39,139.89v-2.35h-2.43v2.35h-.62v-5.09h.62v2.18h2.43v-2.18h.63v5.09h-.63Z" fill="#fff" fill-opacity=".5"/>
          <path d="M83.21,147.37c-.1.14-.31.21-.55.21h-.78v-.67h.69c.39,0,.6-.17.65-.81h.72v5.44h1.16v.67h-3.17v-.67h1.26v-4.16ZM87.26,152.2c0-.92.12-1.82.95-3.16l1.4-2.28h-3.56v-.67h4.41v.61l-1.68,2.77c-.69,1.15-.78,1.93-.79,2.73h-.74ZM95.21,152.2v-2.82h-2.91v2.82h-.74v-6.11h.74v2.62h2.91v-2.62h.75v6.11h-.75ZM103.26,153.35c-.73-1.08-1.17-2.46-1.17-3.75s.44-2.67,1.17-3.75h.66c-.71,1.18-1.11,2.48-1.11,3.75s.4,2.57,1.11,3.75h-.66ZM107.06,147.37c-.1.14-.31.21-.55.21h-.78v-.67h.69c.39,0,.6-.17.65-.81h.72v5.44h1.16v.67h-3.17v-.67h1.27v-4.16ZM112.14,152.27c-1.48,0-2.08-1.01-2.08-2.88v-.49c0-1.87.59-2.88,2.08-2.88h.3c1.49,0,2.08,1.01,2.08,2.88v.49c0,1.87-.59,2.88-2.08,2.88h-.3ZM112.43,151.6c.95,0,1.34-.71,1.34-2.12v-.66c0-1.41-.39-2.12-1.34-2.12h-.27c-.94,0-1.34.71-1.34,2.12v.66c0,1.41.4,2.12,1.34,2.12h.27ZM115.94,152.2l3.38-6.11h.61l-3.38,6.11h-.61ZM116.56,148.82c-.72,0-1.21-.58-1.21-1.4s.49-1.4,1.21-1.4,1.19.58,1.19,1.4-.48,1.4-1.19,1.4ZM116.56,148.32c.4,0,.65-.37.65-.9s-.25-.9-.65-.9-.66.37-.66.9.25.9.66.9ZM119.32,152.27c-.72,0-1.21-.58-1.21-1.4s.49-1.4,1.21-1.4,1.2.58,1.2,1.4-.48,1.4-1.2,1.4ZM119.32,151.78c.4,0,.65-.37.65-.9s-.25-.9-.65-.9-.66.37-.66.9.25.9.66.9ZM122.61,145.84c.73,1.08,1.17,2.46,1.17,3.75s-.44,2.67-1.17,3.75h-.66c.71-1.18,1.11-2.48,1.11-3.75s-.4-2.57-1.11-3.75h.66Z" fill="#fff"/>
          <path d="M151.93,136.06c0-.77.62-1.39,1.39-1.39h2.78c.77,0,1.39.62,1.39,1.39v2.78c0,.77-.62,1.39-1.39,1.39h-2.78c-.77,0-1.39-.62-1.39-1.39v-2.78Z" fill="#3c5999"/>
          <path d="M160.84,139.89l-1.08-5.09h.59l.83,4.02.92-4.02h.49l.92,4.02.84-4.02h.58l-1.07,5.09h-.63l-.89-3.87-.88,3.87h-.63ZM168.22,139.94c-1.3,0-2.19-1.05-2.19-2.6s.89-2.6,2.19-2.6,2.14,1.05,2.14,2.6-.87,2.6-2.14,2.6ZM168.21,139.39c.9,0,1.51-.82,1.51-2.04s-.61-2.04-1.51-2.04-1.54.82-1.54,2.04.63,2.04,1.54,2.04ZM171.91,139.89v-5.09h1.87c1.01,0,1.62.54,1.62,1.42,0,.6-.32,1.02-.81,1.25.4.22.65.64.68,1.16l.09,1.26h-.6l-.09-1.23c-.03-.49-.35-.84-.82-.84h-1.32v2.07h-.62ZM173.78,137.26c.72,0,.99-.47.99-.97s-.27-.94-.99-.94h-1.25v1.91h1.25ZM177.7,139.89h-.63v-5.09h.63v2.42l2.22-2.42h.79l-1.87,2.03,2,3.06h-.72l-1.71-2.6-.71.77v1.82Z" fill="#fff" fill-opacity=".5"/>
          <path d="M153.63,152.2v-1.53h-3.25v-.67l3.12-3.91h.88v3.91h.95v.67h-.95v1.53h-.75ZM151.16,150h2.47v-3.09l-2.47,3.09ZM156.25,148.08c-.05-1.25.75-2.05,2.02-2.05,1.15,0,1.98.71,1.98,1.81,0,.82-.51,1.48-1.42,1.94l-.87.44c-.5.25-1.06.72-1.06,1.32h3.38v.67h-4.1v-.51c0-1.09.8-1.75,1.47-2.09l.93-.48c.66-.33.9-.75.9-1.28,0-.69-.51-1.15-1.2-1.15-.79,0-1.29.56-1.26,1.4h-.77ZM165.2,152.2v-2.82h-2.91v2.82h-.74v-6.11h.74v2.62h2.91v-2.62h.75v6.11h-.75ZM173.25,153.35c-.73-1.08-1.17-2.46-1.17-3.75s.44-2.67,1.17-3.75h.66c-.71,1.18-1.11,2.48-1.11,3.75s.4,2.57,1.11,3.75h-.66ZM175.72,148.08c-.05-1.25.75-2.05,2.02-2.05,1.15,0,1.98.71,1.98,1.81,0,.82-.51,1.48-1.42,1.94l-.87.44c-.5.25-1.06.72-1.06,1.32h3.38v.67h-4.1v-.51c0-1.09.8-1.75,1.47-2.09l.93-.48c.66-.33.9-.75.9-1.28,0-.69-.51-1.15-1.2-1.15-.79,0-1.29.56-1.26,1.4h-.77ZM182.94,152.27c-1.17,0-1.99-.72-2.1-1.79h.72c.1.73.6,1.12,1.36,1.12.87,0,1.46-.52,1.46-1.41s-.58-1.43-1.49-1.43c-.64,0-1.13.27-1.31.72h-.61l.47-3.38h3.27v.67h-2.7l-.27,1.84c.34-.32.83-.5,1.36-.5,1.14,0,2.05.83,2.05,2.08s-.94,2.09-2.2,2.09ZM186.53,152.2l3.38-6.11h.61l-3.38,6.11h-.61ZM187.15,148.82c-.72,0-1.21-.58-1.21-1.4s.49-1.4,1.21-1.4,1.19.58,1.19,1.4-.48,1.4-1.19,1.4ZM187.15,148.32c.4,0,.65-.37.65-.9s-.25-.9-.65-.9-.66.37-.66.9.25.9.66.9ZM189.92,152.27c-.72,0-1.21-.58-1.21-1.4s.49-1.4,1.21-1.4,1.2.58,1.2,1.4-.48,1.4-1.2,1.4ZM189.92,151.78c.4,0,.65-.37.65-.9s-.25-.9-.65-.9-.66.37-.66.9.25.9.66.9ZM193.21,145.84c.73,1.08,1.17,2.46,1.17,3.75s-.44,2.67-1.17,3.75h-.66c.71-1.18,1.11-2.48,1.11-3.75s-.4-2.57-1.11-3.75h.66Z" fill="#fff"/>
          <path d="M220.81,136.06c0-.77.62-1.39,1.39-1.39h2.78c.77,0,1.39.62,1.39,1.39v2.78c0,.77-.62,1.39-1.39,1.39h-2.78c-.77,0-1.39-.62-1.39-1.39v-2.78Z" fill="#838c9f"/>
          <path d="M230.72,139.94c-1.22,0-1.88-.68-1.96-1.72h.62c.07.71.46,1.16,1.34,1.16.71,0,1.2-.27,1.2-.89,0-1.37-2.98-.52-2.98-2.41,0-.81.71-1.35,1.73-1.35s1.72.59,1.8,1.5h-.61c-.06-.57-.51-.95-1.19-.95s-1.1.31-1.1.79c0,1.36,3,.44,3,2.41,0,.92-.79,1.45-1.85,1.45ZM234.3,139.89v-5.09h.63v4.53h2.54v.56h-3.16ZM239.09,139.89v-5.09h3.21v.56h-2.59v1.62h2.12v.56h-2.12v1.79h2.67v.56h-3.29ZM244.09,139.89v-5.09h3.21v.56h-2.59v1.62h2.12v.56h-2.12v1.79h2.67v.56h-3.29ZM249.01,139.89v-5.09h1.91c1,0,1.62.61,1.62,1.5s-.62,1.5-1.62,1.5h-1.29v2.08h-.62ZM250.91,137.26c.72,0,.99-.45.99-.95s-.27-.95-.99-.95h-1.29v1.91h1.29Z" fill="#fff" fill-opacity=".5"/>
          <path d="M221.64,152.27c-1.22,0-2.18-.79-2.18-1.99h.73c0,.79.63,1.32,1.46,1.32s1.39-.41,1.39-1.13-.54-1.1-1.39-1.1h-.49v-.65h.48c.72,0,1.16-.44,1.16-1.06s-.47-.96-1.2-.96-1.15.42-1.19,1.13h-.72c.04-1.09.81-1.81,1.93-1.81s1.95.66,1.95,1.61c0,.61-.39,1.14-.88,1.36.64.21,1.13.72,1.13,1.47,0,1.17-.99,1.81-2.16,1.81ZM226.98,152.27c-1.22,0-2.18-.79-2.18-1.99h.73c0,.79.63,1.32,1.46,1.32s1.39-.41,1.39-1.13-.54-1.1-1.39-1.1h-.49v-.65h.48c.72,0,1.16-.44,1.16-1.06s-.47-.96-1.2-.96-1.15.42-1.19,1.13h-.72c.04-1.09.81-1.81,1.93-1.81s1.95.66,1.95,1.61c0,.61-.39,1.14-.88,1.36.64.21,1.13.72,1.13,1.47,0,1.17-.99,1.81-2.16,1.81ZM233.99,152.2v-2.82h-2.91v2.82h-.74v-6.11h.74v2.62h2.91v-2.62h.75v6.11h-.75ZM242.04,153.35c-.73-1.08-1.17-2.46-1.17-3.75s.44-2.67,1.17-3.75h.66c-.71,1.18-1.11,2.48-1.11,3.75s.4,2.57,1.11,3.75h-.66ZM244.5,148.08c-.05-1.25.75-2.05,2.02-2.05,1.15,0,1.98.71,1.98,1.81,0,.82-.51,1.48-1.42,1.94l-.87.44c-.5.25-1.06.72-1.06,1.32h3.38v.67h-4.1v-.51c0-1.09.8-1.75,1.47-2.09l.93-.48c.66-.33.9-.75.9-1.28,0-.69-.52-1.15-1.2-1.15-.79,0-1.29.56-1.26,1.4h-.77ZM251.71,152.27c-1.48,0-2.08-1.01-2.08-2.88v-.49c0-1.87.59-2.88,2.08-2.88h.3c1.49,0,2.08,1.01,2.08,2.88v.49c0,1.87-.59,2.88-2.08,2.88h-.3ZM252,151.6c.95,0,1.34-.71,1.34-2.12v-.66c0-1.41-.39-2.12-1.34-2.12h-.27c-.94,0-1.34.71-1.34,2.12v.66c0,1.41.4,2.12,1.34,2.12h.27ZM255.51,152.2l3.38-6.11h.61l-3.38,6.11h-.61ZM256.13,148.82c-.72,0-1.21-.58-1.21-1.4s.49-1.4,1.21-1.4,1.19.58,1.19,1.4-.48,1.4-1.19,1.4ZM256.13,148.32c.4,0,.65-.37.65-.9s-.25-.9-.65-.9-.66.37-.66.9.25.9.66.9ZM258.89,152.27c-.72,0-1.21-.58-1.21-1.4s.49-1.4,1.21-1.4,1.2.58,1.2,1.4-.48,1.4-1.2,1.4ZM258.89,151.78c.4,0,.65-.37.65-.9s-.25-.9-.65-.9-.66.37-.66.9.25.9.66.9ZM262.18,145.84c.73,1.08,1.17,2.46,1.17,3.75s-.44,2.67-1.17,3.75h-.66c.71-1.18,1.11-2.48,1.11-3.75s-.4-2.57-1.11-3.75h.66Z" fill="#fff"/>
          <g mask="url(#mask-1)">
            <path d="M276.22,331.22v-.73H23.95v1.45h252.27v-.73Z" fill="#fff" fill-opacity=".15"/>
          </g>
          <rect x="47.21" y="172.73" width="11.11" height="52.34" fill="url(#linear-gradient5)"/>
          <rect x="47.21" y="172.73" width="11.11" height="52.34" fill="none"/>
          <rect x="47.21" y="225.07" width="11.11" height="15.27" fill="url(#linear-gradient6)"/>
          <rect x="47.21" y="225.07" width="11.11" height="15.27" fill="none"/>
          <rect x="47.21" y="240.34" width="11.11" height="39.98" fill="url(#linear-gradient7)"/>
          <rect x="47.21" y="240.34" width="11.11" height="39.98" fill="none"/>
          <rect x="47.21" y="240.34" width="11.11" height="39.98" fill="none"/>
          <rect x="47.21" y="280.33" width="11.11" height="50.89" fill="url(#linear-gradient8)"/>
          <rect x="47.21" y="280.33" width="11.11" height="50.89" fill="none"/>
          <rect x="81.59" y="172.73" width="11.11" height="13.09" fill="url(#linear-gradient9)"/>
          <rect x="81.59" y="172.73" width="11.11" height="13.09" fill="none"/>
          <rect x="81.59" y="185.82" width="11.11" height="5.24" fill="url(#linear-gradient10)"/>
          <rect x="81.59" y="185.82" width="11.11" height="5.24" fill="none"/>
          <rect x="81.59" y="191.06" width="11.11" height="23.26" fill="url(#linear-gradient11)"/>
          <rect x="81.59" y="191.06" width="11.11" height="23.26" fill="none"/>
          <rect x="81.59" y="191.06" width="11.11" height="23.26" fill="none"/>
          <rect x="81.59" y="214.32" width="11.11" height="78.71" fill="url(#linear-gradient12)"/>
          <rect x="81.59" y="214.32" width="11.11" height="78.71" fill="none"/>
          <rect x="81.59" y="293.03" width="11.11" height="38.18" fill="url(#linear-gradient13)"/>
          <rect x="81.59" y="293.03" width="11.11" height="38.18" fill="none"/>
          <rect x="115.97" y="172.73" width="11.11" height="13.09" fill="url(#linear-gradient14)"/>
          <rect x="115.97" y="172.73" width="11.11" height="13.09" fill="none"/>
          <rect x="115.97" y="185.82" width="11.11" height="4.87" fill="url(#linear-gradient15)"/>
          <rect x="115.97" y="185.82" width="11.11" height="4.87" fill="none"/>
          <rect x="115.97" y="190.68" width="11.11" height="23.26" fill="url(#linear-gradient16)"/>
          <rect x="115.97" y="190.68" width="11.11" height="23.26" fill="none"/>
          <rect x="115.97" y="190.68" width="11.11" height="23.26" fill="none"/>
          <rect x="115.97" y="213.95" width="11.11" height="78.34" fill="url(#linear-gradient17)"/>
          <rect x="115.97" y="213.95" width="11.11" height="78.34" fill="none"/>
          <rect x="115.97" y="292.28" width="11.11" height="38.93" fill="url(#linear-gradient18)"/>
          <rect x="115.97" y="292.28" width="11.11" height="38.93" fill="none"/>
          <rect x="150.34" y="172.73" width="11.11" height="15.27" fill="url(#linear-gradient19)"/>
          <rect x="150.34" y="172.73" width="11.11" height="15.27" fill="none"/>
          <rect x="150.34" y="188" width="11.11" height="4.87" fill="url(#linear-gradient20)"/>
          <rect x="150.34" y="188" width="11.11" height="4.87" fill="none"/>
          <rect x="150.34" y="192.86" width="11.11" height="27.63" fill="url(#linear-gradient21)"/>
          <rect x="150.34" y="192.86" width="11.11" height="27.63" fill="none"/>
          <rect x="150.34" y="192.86" width="11.11" height="27.63" fill="none"/>
          <rect x="150.34" y="220.49" width="11.11" height="83.77" fill="url(#linear-gradient22)"/>
          <rect x="150.34" y="220.49" width="11.11" height="83.77" fill="none"/>
          <rect x="150.34" y="304.26" width="11.11" height="26.95" fill="url(#linear-gradient23)"/>
          <rect x="150.34" y="304.26" width="11.11" height="26.95" fill="none"/>
          <rect x="184.72" y="172.73" width="11.11" height="10.9" fill="url(#linear-gradient24)"/>
          <rect x="184.72" y="172.73" width="11.11" height="10.9" fill="none"/>
          <rect x="184.72" y="183.64" width="11.11" height="7.49" fill="url(#linear-gradient25)"/>
          <rect x="184.72" y="183.64" width="11.11" height="7.49" fill="none"/>
          <rect x="184.72" y="191.12" width="11.11" height="25.44" fill="url(#linear-gradient26)"/>
          <rect x="184.72" y="191.12" width="11.11" height="25.44" fill="none"/>
          <rect x="184.72" y="191.12" width="11.11" height="25.44" fill="none"/>
          <rect x="184.72" y="216.57" width="11.11" height="75.34" fill="url(#linear-gradient27)"/>
          <rect x="184.72" y="216.57" width="11.11" height="75.34" fill="none"/>
          <rect x="184.72" y="291.91" width="11.11" height="39.31" fill="url(#linear-gradient28)"/>
          <rect x="184.72" y="291.91" width="11.11" height="39.31" fill="none"/>
          <rect x="219.09" y="172.73" width="11.11" height="13.09" fill="url(#linear-gradient29)"/>
          <rect x="219.09" y="172.73" width="11.11" height="13.09" fill="none"/>
          <rect x="219.09" y="185.82" width="11.11" height="25.44" fill="url(#linear-gradient30)"/>
          <rect x="219.09" y="185.82" width="11.11" height="25.44" fill="none"/>
          <rect x="219.09" y="185.82" width="11.11" height="25.44" fill="none"/>
          <rect x="219.09" y="211.26" width="11.11" height="78.03" fill="url(#linear-gradient31)"/>
          <rect x="219.09" y="211.26" width="11.11" height="78.03" fill="none"/>
          <rect x="219.09" y="289.29" width="11.11" height="41.93" fill="url(#linear-gradient32)"/>
          <rect x="219.09" y="289.29" width="11.11" height="41.93" fill="none"/>
          <rect x="253.47" y="172.73" width="11.11" height="55.91" fill="url(#linear-gradient33)"/>
          <rect x="253.47" y="172.73" width="11.11" height="55.91" fill="none"/>
          <rect x="253.47" y="228.64" width="11.11" height="4.49" fill="url(#linear-gradient34)"/>
          <rect x="253.47" y="228.64" width="11.11" height="4.49" fill="none"/>
          <rect x="253.47" y="233.14" width="11.11" height="55.78" fill="url(#linear-gradient35)"/>
          <rect x="253.47" y="233.14" width="11.11" height="55.78" fill="none"/>
          <rect x="253.47" y="233.14" width="11.11" height="55.78" fill="none"/>
          <rect x="253.47" y="288.91" width="11.11" height="42.3" fill="url(#linear-gradient36)"/>
          <rect x="253.47" y="288.91" width="11.11" height="42.3" fill="none"/>
          <path d="M12.88,172.31c-.04-1.04.63-1.71,1.68-1.71.96,0,1.65.59,1.65,1.51,0,.68-.42,1.24-1.18,1.61l-.73.36c-.41.21-.88.6-.88,1.1h2.81v.56h-3.42v-.43c0-.91.67-1.46,1.23-1.75l.78-.4c.55-.28.75-.63.75-1.07,0-.57-.43-.96-1-.96-.66,0-1.08.46-1.05,1.16h-.64ZM20.2,175.75v-1.27h-2.71v-.56l2.6-3.26h.73v3.26h.79v.56h-.79v1.27h-.63ZM18.14,173.91h2.06v-2.57l-2.06,2.57ZM26.02,175.75v-2.35h-2.43v2.35h-.62v-5.09h.62v2.18h2.43v-2.18h.63v5.09h-.63Z" fill="#fff" fill-opacity=".5"/>
          <line x1="264.58" y1="173.42" x2="27.71" y2="173.42" fill="none" stroke="#fff" stroke-dasharray="1.45 1.45" stroke-opacity=".15" stroke-width=".73"/>
          <path d="M50.61,342.27v-5.09h.79l1.29,4.11,1.29-4.11h.79v5.09h-.59v-3.97l-1.24,3.97h-.51l-1.24-3.97v3.97h-.59Z" fill="#fff" fill-opacity=".5"/>
          <path d="M86.7,342.27v-4.53h-1.61v-.56h3.85v.56h-1.61v4.53h-.63Z" fill="#fff" fill-opacity=".5"/>
          <path d="M119.75,342.27l-1.08-5.09h.59l.83,4.02.92-4.02h.49l.92,4.02.84-4.02h.58l-1.07,5.09h-.63l-.89-3.87-.88,3.87h-.63Z" fill="#fff" fill-opacity=".5"/>
          <path d="M155.46,342.27v-4.53h-1.61v-.56h3.85v.56h-1.61v4.53h-.63Z" fill="#fff" fill-opacity=".5"/>
          <path d="M188.69,342.27v-5.09h3.22v.56h-2.6v1.68h2.12v.56h-2.12v2.29h-.63Z" fill="#fff" fill-opacity=".5"/>
          <path d="M224.65,342.33c-1.22,0-1.88-.68-1.96-1.72h.62c.07.71.47,1.16,1.34,1.16.71,0,1.2-.27,1.2-.89,0-1.37-2.98-.52-2.98-2.41,0-.81.71-1.35,1.73-1.35s1.72.59,1.8,1.5h-.61c-.06-.57-.51-.95-1.18-.95s-1.11.31-1.11.79c0,1.36,3,.44,3,2.41,0,.92-.79,1.45-1.85,1.45Z" fill="#fff" fill-opacity=".5"/>
          <path d="M259.02,342.33c-1.22,0-1.88-.68-1.96-1.72h.62c.07.71.46,1.16,1.34,1.16.71,0,1.2-.27,1.2-.89,0-1.37-2.98-.52-2.98-2.41,0-.81.71-1.35,1.73-1.35s1.72.59,1.8,1.5h-.61c-.06-.57-.51-.95-1.19-.95s-1.1.31-1.1.79c0,1.36,3,.44,3,2.41,0,.92-.79,1.45-1.85,1.45Z" fill="#fff" fill-opacity=".5"/>
        </g>
      </g>
    </g>
  </g>
</svg>