<?xml version="1.0" encoding="UTF-8"?>
<svg id="Layer_1" xmlns="http://www.w3.org/2000/svg" version="1.1" viewBox="0 0 1920 1080">
  <!-- Generator: Adobe Illustrator 30.2.1, SVG Export Plug-In . SVG Version: 2.1.1 Build 1)  -->
  <g>
    <rect x="1314.69" y="489.57" width="211.34" height="211.45" fill="red"/>
    <rect x="1314.17" y="489.18" width=".78" height="10.64" fill="#fff"/>
    <rect x="1314.17" y="489.18" width="10.64" height=".78" fill="#fff"/>
    <rect x="1515.75" y="489.18" width="10.64" height=".78" fill="#fff"/>
    <rect x="1525.61" y="489.18" width=".78" height="10.64" fill="#fff"/>
    <rect x="1525.61" y="690.79" width=".78" height="10.64" fill="#fff"/>
    <rect x="1515.75" y="700.64" width="10.64" height=".78" fill="#fff"/>
    <rect x="1314.17" y="690.78" width=".78" height="10.64" fill="#fff"/>
    <rect x="1314.17" y="700.64" width="10.64" height=".78" fill="#fff"/>
    <rect x="1314.6" y="489.6" width="211.42" height="211.42" fill="none" stroke="#fff" stroke-miterlimit="10" stroke-width=".15"/>
  </g>
  <g>
    <rect x="1590.2" y="557.24" width="211.34" height="211.45" fill="red"/>
    <rect x="1589.69" y="556.85" width=".78" height="10.64" fill="#fff"/>
    <rect x="1589.68" y="556.85" width="10.64" height=".78" fill="#fff"/>
    <rect x="1791.26" y="556.85" width="10.64" height=".78" fill="#fff"/>
    <rect x="1801.13" y="556.85" width=".78" height="10.64" fill="#fff"/>
    <rect x="1801.13" y="758.46" width=".78" height="10.64" fill="#fff"/>
    <rect x="1791.26" y="768.31" width="10.64" height=".78" fill="#fff"/>
    <rect x="1589.68" y="758.45" width=".78" height="10.64" fill="#fff"/>
    <rect x="1589.69" y="768.31" width="10.64" height=".78" fill="#fff"/>
    <rect x="1590.12" y="557.27" width="211.42" height="211.42" fill="none" stroke="#fff" stroke-miterlimit="10" stroke-width=".15"/>
  </g>
  <g>
    <rect x="1012.59" y="707.09" width="211.34" height="211.45" fill="red"/>
    <rect x="1012.07" y="706.69" width=".78" height="10.64" fill="#fff"/>
    <rect x="1012.06" y="706.69" width="10.64" height=".78" fill="#fff"/>
    <rect x="1213.64" y="706.69" width="10.64" height=".78" fill="#fff"/>
    <rect x="1223.51" y="706.69" width=".78" height="10.64" fill="#fff"/>
    <rect x="1223.51" y="908.3" width=".78" height="10.64" fill="#fff"/>
    <rect x="1213.64" y="918.15" width="10.64" height=".78" fill="#fff"/>
    <rect x="1012.06" y="908.29" width=".78" height="10.64" fill="#fff"/>
    <rect x="1012.07" y="918.15" width="10.64" height=".78" fill="#fff"/>
    <rect x="1012.5" y="707.11" width="211.42" height="211.42" fill="none" stroke="#fff" stroke-miterlimit="10" stroke-width=".15"/>
  </g>
  <g>
    <rect x="1335.73" y="778.92" width="149.87" height="149.95" fill="red"/>
    <rect x="1335.36" y="778.64" width=".55" height="7.54" fill="#fff"/>
    <rect x="1335.36" y="778.64" width="7.54" height=".55" fill="#fff"/>
    <rect x="1478.31" y="778.64" width="7.54" height=".55" fill="#fff"/>
    <rect x="1485.31" y="778.64" width=".55" height="7.54" fill="#fff"/>
    <rect x="1485.31" y="921.61" width=".55" height="7.54" fill="#fff"/>
    <rect x="1478.31" y="928.6" width="7.54" height=".55" fill="#fff"/>
    <rect x="1335.36" y="921.61" width=".55" height="7.54" fill="#fff"/>
    <rect x="1335.36" y="928.6" width="7.54" height=".55" fill="#fff"/>
    <rect x="1335.67" y="778.94" width="149.93" height="149.93" fill="none" stroke="#fff" stroke-miterlimit="10" stroke-width=".11"/>
  </g>
  <g>
    <rect x="1341.78" y="200.73" width="19.43" height="1.43" fill="#fff"/>
    <rect x="1359.8" y="200.73" width="1.43" height="19.43" fill="#fff"/>
    <rect x="1359.8" y="568.96" width="1.43" height="19.43" fill="#fff"/>
    <rect x="1341.78" y="586.96" width="19.43" height="1.43" fill="#fff"/>
    <g>
      <rect x="974.56" y="201.45" width="385.99" height="386.2" fill="red"/>
      <rect x="973.62" y="200.73" width="1.43" height="19.43" fill="#fff"/>
      <rect x="973.61" y="200.73" width="19.43" height="1.43" fill="#fff"/>
      <rect x="973.61" y="568.95" width="1.43" height="19.43" fill="#fff"/>
      <rect x="973.62" y="586.96" width="19.43" height="1.43" fill="#fff"/>
      <rect x="974.4" y="201.5" width="386.16" height="386.16" fill="none" stroke="#fff" stroke-miterlimit="10" stroke-width=".28"/>
    </g>
  </g>
  <g>
    <rect x="1539.47" y="262.46" width="143.57" height="143.65" fill="red"/>
    <rect x="1539.12" y="262.19" width=".53" height="7.23" fill="#fff"/>
    <rect x="1539.12" y="262.19" width="7.23" height=".53" fill="#fff"/>
    <rect x="1676.06" y="262.19" width="7.23" height=".53" fill="#fff"/>
    <rect x="1682.76" y="262.19" width=".53" height="7.23" fill="#fff"/>
    <rect x="1682.76" y="399.15" width=".53" height="7.23" fill="#fff"/>
    <rect x="1676.06" y="405.85" width="7.23" height=".53" fill="#fff"/>
    <rect x="1539.12" y="399.15" width=".53" height="7.23" fill="#fff"/>
    <rect x="1539.12" y="405.85" width="7.23" height=".53" fill="#fff"/>
    <rect x="1539.41" y="262.47" width="143.63" height="143.63" fill="none" stroke="#fff" stroke-miterlimit="10" stroke-width=".1"/>
  </g>
</svg>