<?xml version="1.0" encoding="UTF-8"?>
<svg id="Layer_1" xmlns="http://www.w3.org/2000/svg" version="1.1" viewBox="0 0 1862.04 1074.29">
  <!-- Generator: Adobe Illustrator 30.2.1, SVG Export Plug-In . SVG Version: 2.1.1 Build 1)  -->
  <rect width="1862.04" height="1074.29"/>
  <text transform="translate(108.17 153.03)" fill="#fff" font-family="SeasonMixTRIAL-Regular, &apos;Season Mix TRIAL&apos;" font-size="68.41"><tspan x="0" y="0">The Time Creation Cycle</tspan></text>
  <g>
    <path d="M1038.3,453.38c-1.11,0-2.05-.2-2.83-.59-.78-.39-1.38-.95-1.81-1.66-.43-.71-.67-1.54-.72-2.49h1.68c.09.97.43,1.75,1.02,2.33.59.58,1.47.87,2.66.87.65,0,1.23-.08,1.72-.25.49-.17.88-.43,1.16-.79.28-.36.42-.83.42-1.4,0-.53-.15-.96-.44-1.28s-.68-.58-1.17-.77-1.02-.36-1.6-.5c-.58-.14-1.17-.3-1.76-.47-.59-.17-1.13-.4-1.61-.67-.48-.27-.87-.65-1.17-1.12-.3-.47-.45-1.08-.45-1.81s.2-1.4.61-1.95c.41-.55.97-.99,1.68-1.3.71-.31,1.54-.47,2.47-.47s1.76.17,2.48.51,1.29.82,1.72,1.44c.43.62.67,1.35.74,2.19h-1.68c-.08-.79-.41-1.42-.99-1.89s-1.34-.71-2.27-.71c-.63,0-1.17.09-1.62.26s-.8.43-1.04.76c-.24.33-.36.72-.36,1.16,0,.55.15.97.45,1.28.3.31.69.55,1.18.73.49.18,1.03.34,1.62.47.59.13,1.18.28,1.76.44s1.12.38,1.61.67.89.67,1.18,1.14c.29.47.44,1.1.44,1.89,0,.84-.22,1.56-.66,2.15-.44.59-1.04,1.05-1.8,1.36-.76.31-1.63.47-2.62.47Z" fill="#999"/>
    <path d="M1049.65,453.22c-.96,0-1.73-.28-2.3-.84s-.86-1.33-.86-2.32v-5.5h-2.1v-1.42h2.1v-3.22h1.6v3.22h3.1v1.42h-3.1v5.46c0,.56.15,1,.44,1.31.29.31.69.47,1.18.47h1.48v1.42h-1.54Z" fill="#999"/>
    <path d="M1053.21,453.22v-10.08h1.6v2.04c.23-.69.56-1.21.99-1.54.43-.33,1.02-.5,1.75-.5h1.28v1.42h-1.38c-.68,0-1.21.19-1.59.56-.38.37-.65.88-.81,1.51-.16.63-.24,1.35-.24,2.15v4.44h-1.6Z" fill="#999"/>
    <path d="M1064.25,453.38c-.75,0-1.4-.17-1.97-.51-.57-.34-1-.82-1.31-1.43-.31-.61-.46-1.33-.46-2.14v-6.16h1.6v5.9c0,.85.23,1.55.69,2.08s1.07.8,1.83.8c.57,0,1.08-.14,1.53-.43.45-.29.8-.68,1.05-1.19.25-.51.38-1.08.38-1.72v-5.44h1.6v10.08h-1.6v-1.94c-.27.69-.69,1.22-1.28,1.57-.59.35-1.27.53-2.06.53Z" fill="#999"/>
    <path d="M1076.43,453.38c-1.05,0-1.95-.25-2.68-.74-.73-.49-1.29-1.13-1.66-1.92s-.56-1.63-.56-2.54c0-.68.1-1.33.31-1.95.21-.62.52-1.18.94-1.67s.93-.88,1.54-1.16c.61-.28,1.31-.42,2.11-.42s1.47.14,2.13.42c.66.28,1.21.69,1.65,1.22.44.53.71,1.17.8,1.92h-1.58c-.07-.4-.24-.76-.53-1.08-.29-.32-.64-.57-1.06-.76-.42-.19-.88-.28-1.39-.28-.73,0-1.34.17-1.83.51-.49.34-.85.79-1.08,1.36-.23.57-.35,1.2-.35,1.89s.12,1.31.36,1.88c.24.57.6,1.03,1.09,1.37.49.34,1.09.51,1.81.51.76,0,1.4-.18,1.93-.54.53-.36.88-.84,1.05-1.44h1.56c-.11.68-.36,1.28-.76,1.79-.4.51-.92.91-1.56,1.2-.64.29-1.39.43-2.24.43Z" fill="#999"/>
    <path d="M1087.16,453.22c-.96,0-1.73-.28-2.3-.84s-.86-1.33-.86-2.32v-5.5h-2.1v-1.42h2.1v-3.22h1.6v3.22h3.1v1.42h-3.1v5.46c0,.56.15,1,.44,1.31.29.31.69.47,1.18.47h1.48v1.42h-1.54Z" fill="#999"/>
    <path d="M1094.34,453.38c-.75,0-1.4-.17-1.97-.51-.57-.34-1-.82-1.31-1.43-.31-.61-.46-1.33-.46-2.14v-6.16h1.6v5.9c0,.85.23,1.55.69,2.08s1.07.8,1.83.8c.57,0,1.08-.14,1.53-.43.45-.29.8-.68,1.05-1.19.25-.51.38-1.08.38-1.72v-5.44h1.6v10.08h-1.6v-1.94c-.27.69-.69,1.22-1.28,1.57-.59.35-1.27.53-2.06.53Z" fill="#999"/>
    <path d="M1102.32,453.22v-10.08h1.6v2.04c.23-.69.56-1.21.99-1.54.43-.33,1.02-.5,1.75-.5h1.28v1.42h-1.38c-.68,0-1.21.19-1.59.56-.38.37-.65.88-.81,1.51-.16.63-.24,1.35-.24,2.15v4.44h-1.6Z" fill="#999"/>
    <path d="M1113.64,453.38c-.75,0-1.43-.14-2.04-.41-.61-.27-1.14-.65-1.58-1.14-.44-.49-.78-1.05-1.02-1.69-.24-.64-.36-1.31-.36-2.02s.11-1.41.33-2.04c.22-.63.54-1.17.96-1.63.42-.46.93-.82,1.52-1.08.59-.26,1.26-.39,2.01-.39s1.39.12,1.97.36c.58.24,1.07.57,1.48,1,.41.43.72.93.93,1.5s.32,1.19.32,1.86c0,.12,0,.24-.01.36,0,.12-.02.24-.03.36h-8.54v-1.32h6.92c-.05-.85-.35-1.53-.89-2.02-.54-.49-1.26-.74-2.15-.74-.49,0-.94.08-1.34.25-.4.17-.74.41-1.02.74-.28.33-.49.72-.64,1.18-.15.46-.22.99-.22,1.59,0,.75.15,1.41.44,1.99.29.58.7,1.04,1.21,1.37.51.33,1.1.5,1.75.5.81,0,1.47-.17,1.98-.51s.84-.83,1-1.47h1.64c-.11.68-.37,1.28-.79,1.79s-.95.91-1.6,1.19c-.65.28-1.39.42-2.23.42Z" fill="#999"/>
    <path d="M1126.58,457.3l1.38-3.84-3.68-10.32h1.66l2.82,8.18,2.8-8.18h1.66l-5.04,14.16h-1.6Z" fill="#999"/>
    <path d="M1139.37,453.38c-1,0-1.89-.22-2.66-.67s-1.38-1.06-1.81-1.84c-.43-.78-.65-1.68-.65-2.69s.22-1.91.65-2.69c.43-.78,1.04-1.39,1.81-1.84.77-.45,1.66-.67,2.66-.67s1.89.22,2.66.67c.77.45,1.38,1.06,1.82,1.84.44.78.66,1.68.66,2.69s-.22,1.91-.66,2.69c-.44.78-1.05,1.39-1.82,1.84-.77.45-1.66.67-2.66.67ZM1139.37,451.94c.69,0,1.3-.16,1.83-.48s.93-.76,1.22-1.33c.29-.57.43-1.22.43-1.95s-.14-1.38-.43-1.95c-.29-.57-.69-1.01-1.22-1.33s-1.13-.48-1.81-.48-1.3.16-1.83.48-.94.76-1.23,1.33c-.29.57-.44,1.22-.44,1.95s.15,1.38.44,1.95c.29.57.7,1.01,1.23,1.33s1.13.48,1.81.48Z" fill="#999"/>
    <path d="M1150.47,453.38c-.75,0-1.4-.17-1.97-.51-.57-.34-1-.82-1.31-1.43-.31-.61-.46-1.33-.46-2.14v-6.16h1.6v5.9c0,.85.23,1.55.69,2.08s1.07.8,1.83.8c.57,0,1.08-.14,1.53-.43.45-.29.8-.68,1.05-1.19.25-.51.38-1.08.38-1.72v-5.44h1.6v10.08h-1.6v-1.94c-.27.69-.69,1.22-1.28,1.57-.59.35-1.27.53-2.06.53Z" fill="#999"/>
    <path d="M1158.45,453.22v-10.08h1.6v2.04c.23-.69.56-1.21.99-1.54.43-.33,1.02-.5,1.75-.5h1.28v1.42h-1.38c-.68,0-1.21.19-1.59.56-.38.37-.65.88-.81,1.51-.16.63-.24,1.35-.24,2.15v4.44h-1.6Z" fill="#999"/>
    <path d="M1174.65,453.22c-.96,0-1.73-.28-2.3-.84s-.86-1.33-.86-2.32v-5.5h-2.1v-1.42h2.1v-3.22h1.6v3.22h3.1v1.42h-3.1v5.46c0,.56.15,1,.44,1.31.29.31.69.47,1.18.47h1.48v1.42h-1.54Z" fill="#999"/>
    <path d="M1178.08,439.01h1.84v2.24h-1.84v-2.24ZM1178.2,453.22v-10.08h1.6v10.08h-1.6Z" fill="#999"/>
    <path d="M1182.86,453.22v-10.08h1.62v1.94c.19-.63.55-1.13,1.09-1.52.54-.39,1.2-.58,1.97-.58s1.5.19,2.11.56c.61.37,1,.91,1.19,1.6.13-.41.36-.78.68-1.11.32-.33.71-.58,1.16-.77s.92-.28,1.4-.28c.73,0,1.36.16,1.88.47.52.31.92.76,1.21,1.34.29.58.43,1.28.43,2.09v6.34h-1.62v-5.92c0-.85-.2-1.55-.6-2.08-.4-.53-.96-.8-1.68-.8-.55,0-1.02.16-1.43.48s-.72.73-.93,1.24c-.21.51-.32,1.05-.32,1.62v5.46h-1.6v-5.92c0-.85-.2-1.55-.6-2.08-.4-.53-.95-.8-1.66-.8-.56,0-1.04.16-1.44.48-.4.32-.71.73-.92,1.24-.21.51-.32,1.05-.32,1.62v5.46h-1.62Z" fill="#999"/>
    <path d="M1204.78,453.38c-.75,0-1.43-.14-2.04-.41-.61-.27-1.14-.65-1.58-1.14-.44-.49-.78-1.05-1.02-1.69-.24-.64-.36-1.31-.36-2.02s.11-1.41.33-2.04c.22-.63.54-1.17.96-1.63.42-.46.93-.82,1.52-1.08.59-.26,1.26-.39,2.01-.39s1.39.12,1.97.36c.58.24,1.07.57,1.48,1,.41.43.72.93.93,1.5s.32,1.19.32,1.86c0,.12,0,.24-.01.36,0,.12-.02.24-.03.36h-8.54v-1.32h6.92c-.05-.85-.35-1.53-.89-2.02-.54-.49-1.26-.74-2.15-.74-.49,0-.94.08-1.34.25-.4.17-.74.41-1.02.74-.28.33-.49.72-.64,1.18-.15.46-.22.99-.22,1.59,0,.75.15,1.41.44,1.99.29.58.7,1.04,1.21,1.37.51.33,1.1.5,1.75.5.81,0,1.47-.17,1.98-.51s.84-.83,1-1.47h1.64c-.11.68-.37,1.28-.79,1.79s-.95.91-1.6,1.19c-.65.28-1.39.42-2.23.42Z" fill="#999"/>
    <path d="M1218.54,453.22l-3.06-10.08h1.6l2.22,8,2.48-8h1.56l2.44,8,2.22-8h1.62l-3.06,10.08h-1.54l-2.48-8.02-2.46,8.02h-1.54Z" fill="#999"/>
    <path d="M1231.49,439.01h1.84v2.24h-1.84v-2.24ZM1231.61,453.22v-10.08h1.6v10.08h-1.6Z" fill="#999"/>
    <path d="M1240.25,453.22c-.96,0-1.73-.28-2.3-.84s-.86-1.33-.86-2.32v-5.5h-2.1v-1.42h2.1v-3.22h1.6v3.22h3.1v1.42h-3.1v5.46c0,.56.15,1,.44,1.31.29.31.69.47,1.18.47h1.48v1.42h-1.54Z" fill="#999"/>
    <path d="M1243.81,453.22v-14.22h1.6v6.08c.28-.69.71-1.22,1.3-1.57s1.27-.53,2.04-.53,1.42.17,1.99.51,1,.81,1.31,1.42c.31.61.46,1.32.46,2.15v6.16h-1.62v-5.9c0-.87-.23-1.56-.68-2.09-.45-.53-1.06-.79-1.82-.79-.59,0-1.1.14-1.55.43-.45.29-.8.68-1.05,1.18-.25.5-.38,1.08-.38,1.73v5.44h-1.6Z" fill="#999"/>
    <path d="M1260.09,439.01h1.84v2.24h-1.84v-2.24ZM1260.21,453.22v-10.08h1.6v10.08h-1.6Z" fill="#999"/>
    <path d="M1264.87,453.22v-10.08h1.6v1.94c.28-.69.71-1.22,1.3-1.57s1.27-.53,2.04-.53,1.42.17,1.99.51,1,.81,1.31,1.42c.31.61.46,1.32.46,2.15v6.16h-1.62v-5.9c0-.87-.23-1.56-.68-2.09-.45-.53-1.06-.79-1.82-.79-.59,0-1.1.14-1.55.43-.45.29-.8.68-1.05,1.18-.25.5-.38,1.08-.38,1.73v5.44h-1.6Z" fill="#999"/>
    <path d="M1280.28,453.22c-.96,0-1.73-.28-2.3-.84s-.86-1.33-.86-2.32v-5.5h-2.1v-1.42h2.1v-3.22h1.6v3.22h3.1v1.42h-3.1v5.46c0,.56.15,1,.44,1.31.29.31.69.47,1.18.47h1.48v1.42h-1.54Z" fill="#999"/>
    <path d="M1287.92,453.38c-.75,0-1.43-.14-2.04-.41-.61-.27-1.14-.65-1.58-1.14-.44-.49-.78-1.05-1.02-1.69-.24-.64-.36-1.31-.36-2.02s.11-1.41.33-2.04c.22-.63.54-1.17.96-1.63.42-.46.93-.82,1.52-1.08.59-.26,1.26-.39,2.01-.39s1.39.12,1.97.36c.58.24,1.07.57,1.48,1,.41.43.72.93.93,1.5s.32,1.19.32,1.86c0,.12,0,.24-.01.36,0,.12-.02.24-.03.36h-8.54v-1.32h6.92c-.05-.85-.35-1.53-.89-2.02-.54-.49-1.26-.74-2.15-.74-.49,0-.94.08-1.34.25-.4.17-.74.41-1.02.74-.28.33-.49.72-.64,1.18-.15.46-.22.99-.22,1.59,0,.75.15,1.41.44,1.99.29.58.7,1.04,1.21,1.37.51.33,1.1.5,1.75.5.81,0,1.47-.17,1.98-.51s.84-.83,1-1.47h1.64c-.11.68-.37,1.28-.79,1.79s-.95.91-1.6,1.19c-.65.28-1.39.42-2.23.42Z" fill="#999"/>
    <path d="M1294.86,453.22v-10.08h1.6v1.94c.28-.69.71-1.22,1.3-1.57s1.27-.53,2.04-.53,1.42.17,1.99.51,1,.81,1.31,1.42c.31.61.46,1.32.46,2.15v6.16h-1.62v-5.9c0-.87-.23-1.56-.68-2.09-.45-.53-1.06-.79-1.82-.79-.59,0-1.1.14-1.55.43-.45.29-.8.68-1.05,1.18-.25.5-.38,1.08-.38,1.73v5.44h-1.6Z" fill="#999"/>
    <path d="M1310.28,453.22c-.96,0-1.73-.28-2.3-.84s-.86-1.33-.86-2.32v-5.5h-2.1v-1.42h2.1v-3.22h1.6v3.22h3.1v1.42h-3.1v5.46c0,.56.15,1,.44,1.31.29.31.69.47,1.18.47h1.48v1.42h-1.54Z" fill="#999"/>
    <path d="M1313.72,439.01h1.84v2.24h-1.84v-2.24ZM1313.84,453.22v-10.08h1.6v10.08h-1.6Z" fill="#999"/>
    <path d="M1322.91,453.38c-1,0-1.89-.22-2.66-.67s-1.38-1.06-1.81-1.84c-.43-.78-.65-1.68-.65-2.69s.22-1.91.65-2.69c.43-.78,1.04-1.39,1.81-1.84.77-.45,1.66-.67,2.66-.67s1.89.22,2.66.67c.77.45,1.38,1.06,1.82,1.84.44.78.66,1.68.66,2.69s-.22,1.91-.66,2.69c-.44.78-1.05,1.39-1.82,1.84-.77.45-1.66.67-2.66.67ZM1322.91,451.94c.69,0,1.3-.16,1.83-.48s.93-.76,1.22-1.33c.29-.57.43-1.22.43-1.95s-.14-1.38-.43-1.95c-.29-.57-.69-1.01-1.22-1.33s-1.13-.48-1.81-.48-1.3.16-1.83.48-.94.76-1.23,1.33c-.29.57-.44,1.22-.44,1.95s.15,1.38.44,1.95c.29.57.7,1.01,1.23,1.33s1.13.48,1.81.48Z" fill="#999"/>
    <path d="M1330.39,453.22v-10.08h1.6v1.94c.28-.69.71-1.22,1.3-1.57s1.27-.53,2.04-.53,1.42.17,1.99.51,1,.81,1.31,1.42c.31.61.46,1.32.46,2.15v6.16h-1.62v-5.9c0-.87-.23-1.56-.68-2.09-.45-.53-1.06-.79-1.82-.79-.59,0-1.1.14-1.55.43-.45.29-.8.68-1.05,1.18-.25.5-.38,1.08-.38,1.73v5.44h-1.6Z" fill="#999"/>
    <path d="M1341.71,451.36h1.82v1.86h-1.82v-1.86Z" fill="#999"/>
    <path d="M1354.29,453.22v-12.46h-4.48v-1.54h10.68v1.54h-4.48v12.46h-1.72Z" fill="#999"/>
    <path d="M1364.65,453.38c-1,0-1.89-.22-2.66-.67s-1.38-1.06-1.81-1.84c-.43-.78-.65-1.68-.65-2.69s.22-1.91.65-2.69c.43-.78,1.04-1.39,1.81-1.84.77-.45,1.66-.67,2.66-.67s1.89.22,2.66.67c.77.45,1.38,1.06,1.82,1.84.44.78.66,1.68.66,2.69s-.22,1.91-.66,2.69c-.44.78-1.05,1.39-1.82,1.84-.77.45-1.66.67-2.66.67ZM1364.65,451.94c.69,0,1.3-.16,1.83-.48s.93-.76,1.22-1.33c.29-.57.43-1.22.43-1.95s-.14-1.38-.43-1.95c-.29-.57-.69-1.01-1.22-1.33s-1.13-.48-1.81-.48-1.3.16-1.83.48-.94.76-1.23,1.33c-.29.57-.44,1.22-.44,1.95s.15,1.38.44,1.95c.29.57.7,1.01,1.23,1.33s1.13.48,1.81.48Z" fill="#999"/>
    <path d="M1381.2,453.38c-.75,0-1.43-.14-2.04-.41-.61-.27-1.14-.65-1.58-1.14-.44-.49-.78-1.05-1.02-1.69-.24-.64-.36-1.31-.36-2.02s.11-1.41.33-2.04c.22-.63.54-1.17.96-1.63.42-.46.93-.82,1.52-1.08.59-.26,1.26-.39,2.01-.39s1.39.12,1.97.36c.58.24,1.07.57,1.48,1,.41.43.72.93.93,1.5s.32,1.19.32,1.86c0,.12,0,.24-.01.36,0,.12-.02.24-.03.36h-8.54v-1.32h6.92c-.05-.85-.35-1.53-.89-2.02-.54-.49-1.26-.74-2.15-.74-.49,0-.94.08-1.34.25-.4.17-.74.41-1.02.74-.28.33-.49.72-.64,1.18-.15.46-.22.99-.22,1.59,0,.75.15,1.41.44,1.99.29.58.7,1.04,1.21,1.37.51.33,1.1.5,1.75.5.81,0,1.47-.17,1.98-.51s.84-.83,1-1.47h1.64c-.11.68-.37,1.28-.79,1.79s-.95.91-1.6,1.19c-.65.28-1.39.42-2.23.42Z" fill="#999"/>
    <path d="M1388.14,453.22v-10.08h1.6v1.94c.28-.69.71-1.22,1.3-1.57s1.27-.53,2.04-.53,1.42.17,1.99.51,1,.81,1.31,1.42c.31.61.46,1.32.46,2.15v6.16h-1.62v-5.9c0-.87-.23-1.56-.68-2.09-.45-.53-1.06-.79-1.82-.79-.59,0-1.1.14-1.55.43-.45.29-.8.68-1.05,1.18-.25.5-.38,1.08-.38,1.73v5.44h-1.6Z" fill="#999"/>
    <path d="M1400.38,457.3v-1.38h4.66c.65,0,1.19-.22,1.6-.65.41-.43.62-.99.62-1.67v-1.78c-.24.47-.67.84-1.3,1.13s-1.32.43-2.08.43c-1.04,0-1.92-.23-2.63-.69s-1.26-1.08-1.63-1.87-.56-1.67-.56-2.64c0-.73.11-1.41.32-2.04.21-.63.52-1.18.93-1.66.41-.48.91-.85,1.51-1.11.6-.26,1.29-.39,2.08-.39.44,0,.88.07,1.31.21.43.14.83.33,1.19.58.36.25.65.53.86.85v-1.48h1.6v10.52c0,.72-.15,1.35-.46,1.9-.31.55-.74.97-1.31,1.28s-1.22.46-1.95.46h-4.76ZM1404.06,451.94c.68,0,1.27-.15,1.76-.46.49-.31.88-.74,1.16-1.31.28-.57.42-1.23.42-1.99,0-1.15-.3-2.06-.91-2.74-.61-.68-1.42-1.02-2.43-1.02-.51,0-.96.09-1.37.27-.41.18-.76.43-1.06.76s-.53.72-.68,1.18-.23.98-.23,1.55c0,1.13.3,2.04.91,2.73s1.42,1.03,2.43,1.03Z" fill="#999"/>
    <path d="M1411.78,439.01h1.84v2.24h-1.84v-2.24ZM1411.9,453.22v-10.08h1.6v10.08h-1.6Z" fill="#999"/>
    <path d="M1416.55,453.22v-10.08h1.6v1.94c.28-.69.71-1.22,1.3-1.57s1.27-.53,2.04-.53,1.42.17,1.99.51,1,.81,1.31,1.42c.31.61.46,1.32.46,2.15v6.16h-1.62v-5.9c0-.87-.23-1.56-.68-2.09-.45-.53-1.06-.79-1.82-.79-.59,0-1.1.14-1.55.43-.45.29-.8.68-1.05,1.18-.25.5-.38,1.08-.38,1.73v5.44h-1.6Z" fill="#999"/>
    <path d="M1432.43,453.38c-.75,0-1.43-.14-2.04-.41-.61-.27-1.14-.65-1.58-1.14-.44-.49-.78-1.05-1.02-1.69-.24-.64-.36-1.31-.36-2.02s.11-1.41.33-2.04c.22-.63.54-1.17.96-1.63.42-.46.93-.82,1.52-1.08.59-.26,1.26-.39,2.01-.39s1.39.12,1.97.36c.58.24,1.07.57,1.48,1,.41.43.72.93.93,1.5s.32,1.19.32,1.86c0,.12,0,.24-.01.36,0,.12-.02.24-.03.36h-8.54v-1.32h6.92c-.05-.85-.35-1.53-.89-2.02-.54-.49-1.26-.74-2.15-.74-.49,0-.94.08-1.34.25-.4.17-.74.41-1.02.74-.28.33-.49.72-.64,1.18-.15.46-.22.99-.22,1.59,0,.75.15,1.41.44,1.99.29.58.7,1.04,1.21,1.37.51.33,1.1.5,1.75.5.81,0,1.47-.17,1.98-.51s.84-.83,1-1.47h1.64c-.11.68-.37,1.28-.79,1.79s-.95.91-1.6,1.19c-.65.28-1.39.42-2.23.42Z" fill="#999"/>
    <path d="M1443.65,453.38c-.75,0-1.43-.14-2.04-.41-.61-.27-1.14-.65-1.58-1.14-.44-.49-.78-1.05-1.02-1.69-.24-.64-.36-1.31-.36-2.02s.11-1.41.33-2.04c.22-.63.54-1.17.96-1.63.42-.46.93-.82,1.52-1.08.59-.26,1.26-.39,2.01-.39s1.39.12,1.97.36c.58.24,1.07.57,1.48,1,.41.43.72.93.93,1.5s.32,1.19.32,1.86c0,.12,0,.24-.01.36,0,.12-.02.24-.03.36h-8.54v-1.32h6.92c-.05-.85-.35-1.53-.89-2.02-.54-.49-1.26-.74-2.15-.74-.49,0-.94.08-1.34.25-.4.17-.74.41-1.02.74-.28.33-.49.72-.64,1.18-.15.46-.22.99-.22,1.59,0,.75.15,1.41.44,1.99.29.58.7,1.04,1.21,1.37.51.33,1.1.5,1.75.5.81,0,1.47-.17,1.98-.51s.84-.83,1-1.47h1.64c-.11.68-.37,1.28-.79,1.79s-.95.91-1.6,1.19c-.65.28-1.39.42-2.23.42Z" fill="#999"/>
    <path d="M1450.59,453.22v-10.08h1.6v2.04c.23-.69.56-1.21.99-1.54.43-.33,1.02-.5,1.75-.5h1.28v1.42h-1.38c-.68,0-1.21.19-1.59.56-.38.37-.65.88-.81,1.51-.16.63-.24,1.35-.24,2.15v4.44h-1.6Z" fill="#999"/>
    <path d="M1464,457.3l1.38-3.84-3.68-10.32h1.66l2.82,8.18,2.8-8.18h1.66l-5.04,14.16h-1.6Z" fill="#999"/>
    <path d="M1476.8,453.38c-1,0-1.89-.22-2.66-.67s-1.38-1.06-1.81-1.84c-.43-.78-.65-1.68-.65-2.69s.22-1.91.65-2.69c.43-.78,1.04-1.39,1.81-1.84.77-.45,1.66-.67,2.66-.67s1.89.22,2.66.67c.77.45,1.38,1.06,1.82,1.84.44.78.66,1.68.66,2.69s-.22,1.91-.66,2.69c-.44.78-1.05,1.39-1.82,1.84-.77.45-1.66.67-2.66.67ZM1476.8,451.94c.69,0,1.3-.16,1.83-.48s.93-.76,1.22-1.33c.29-.57.43-1.22.43-1.95s-.14-1.38-.43-1.95c-.29-.57-.69-1.01-1.22-1.33s-1.13-.48-1.81-.48-1.3.16-1.83.48-.94.76-1.23,1.33c-.29.57-.44,1.22-.44,1.95s.15,1.38.44,1.95c.29.57.7,1.01,1.23,1.33s1.13.48,1.81.48Z" fill="#999"/>
    <path d="M1487.9,453.38c-.75,0-1.4-.17-1.97-.51-.57-.34-1-.82-1.31-1.43-.31-.61-.46-1.33-.46-2.14v-6.16h1.6v5.9c0,.85.23,1.55.69,2.08s1.07.8,1.83.8c.57,0,1.08-.14,1.53-.43.45-.29.8-.68,1.05-1.19.25-.51.38-1.08.38-1.72v-5.44h1.6v10.08h-1.6v-1.94c-.27.69-.69,1.22-1.28,1.57-.59.35-1.27.53-2.06.53Z" fill="#999"/>
    <path d="M1495.88,453.22v-10.08h1.6v2.04c.23-.69.56-1.21.99-1.54.43-.33,1.02-.5,1.75-.5h1.28v1.42h-1.38c-.68,0-1.21.19-1.59.56-.38.37-.65.88-.81,1.51-.16.63-.24,1.35-.24,2.15v4.44h-1.6Z" fill="#999"/>
    <path d="M1512.08,453.22c-.96,0-1.73-.28-2.3-.84s-.86-1.33-.86-2.32v-5.5h-2.1v-1.42h2.1v-3.22h1.6v3.22h3.1v1.42h-3.1v5.46c0,.56.15,1,.44,1.31.29.31.69.47,1.18.47h1.48v1.42h-1.54Z" fill="#999"/>
    <path d="M1515.51,439.01h1.84v2.24h-1.84v-2.24ZM1515.63,453.22v-10.08h1.6v10.08h-1.6Z" fill="#999"/>
    <path d="M1520.29,453.22v-10.08h1.62v1.94c.19-.63.55-1.13,1.09-1.52.54-.39,1.2-.58,1.97-.58s1.5.19,2.11.56c.61.37,1,.91,1.19,1.6.13-.41.36-.78.68-1.11.32-.33.71-.58,1.16-.77s.92-.28,1.4-.28c.73,0,1.36.16,1.88.47.52.31.92.76,1.21,1.34.29.58.43,1.28.43,2.09v6.34h-1.62v-5.92c0-.85-.2-1.55-.6-2.08-.4-.53-.96-.8-1.68-.8-.55,0-1.02.16-1.43.48s-.72.73-.93,1.24c-.21.51-.32,1.05-.32,1.62v5.46h-1.6v-5.92c0-.85-.2-1.55-.6-2.08-.4-.53-.95-.8-1.66-.8-.56,0-1.04.16-1.44.48-.4.32-.71.73-.92,1.24-.21.51-.32,1.05-.32,1.62v5.46h-1.62Z" fill="#999"/>
    <path d="M1542.21,453.38c-.75,0-1.43-.14-2.04-.41-.61-.27-1.14-.65-1.58-1.14-.44-.49-.78-1.05-1.02-1.69-.24-.64-.36-1.31-.36-2.02s.11-1.41.33-2.04c.22-.63.54-1.17.96-1.63.42-.46.93-.82,1.52-1.08.59-.26,1.26-.39,2.01-.39s1.39.12,1.97.36c.58.24,1.07.57,1.48,1,.41.43.72.93.93,1.5s.32,1.19.32,1.86c0,.12,0,.24-.01.36,0,.12-.02.24-.03.36h-8.54v-1.32h6.92c-.05-.85-.35-1.53-.89-2.02-.54-.49-1.26-.74-2.15-.74-.49,0-.94.08-1.34.25-.4.17-.74.41-1.02.74-.28.33-.49.72-.64,1.18-.15.46-.22.99-.22,1.59,0,.75.15,1.41.44,1.99.29.58.7,1.04,1.21,1.37.51.33,1.1.5,1.75.5.81,0,1.47-.17,1.98-.51s.84-.83,1-1.47h1.64c-.11.68-.37,1.28-.79,1.79s-.95.91-1.6,1.19c-.65.28-1.39.42-2.23.42Z" fill="#999"/>
    <path d="M1033.52,470.1h1.84v2.24h-1.84v-2.24ZM1033.64,484.32v-10.08h1.6v10.08h-1.6Z" fill="#999"/>
    <path d="M1041.5,484.48c-.79,0-1.47-.13-2.04-.4-.57-.27-1.02-.65-1.35-1.16-.33-.51-.52-1.11-.57-1.82h1.5c.07.63.31,1.12.74,1.47s1,.53,1.72.53c.43,0,.81-.07,1.14-.2.33-.13.59-.33.76-.58.17-.25.26-.55.26-.88,0-.39-.11-.68-.32-.88s-.49-.35-.84-.46c-.35-.11-.73-.19-1.14-.25s-.83-.14-1.26-.23c-.43-.09-.81-.23-1.16-.42-.35-.19-.63-.45-.84-.79-.21-.34-.32-.79-.32-1.35,0-.6.15-1.12.46-1.56s.73-.79,1.26-1.04,1.15-.38,1.84-.38c.77,0,1.43.12,1.98.36.55.24.98.59,1.3,1.06.32.47.51,1.02.56,1.66h-1.52c-.04-.36-.16-.67-.36-.92-.2-.25-.47-.45-.8-.6s-.71-.22-1.14-.22c-.53,0-1,.13-1.41.4-.41.27-.61.65-.61,1.14,0,.37.11.65.32.84.21.19.49.33.84.42.35.09.73.17,1.16.23.43.06.85.14,1.27.23.42.09.8.24,1.15.43.35.19.63.47.84.83.21.36.32.84.32,1.44,0,.48-.08.91-.25,1.28-.17.37-.41.7-.73.97-.32.27-.71.48-1.17.63s-.99.22-1.59.22Z" fill="#999"/>
    <path d="M1056.39,484.32c-.96,0-1.73-.28-2.3-.84s-.86-1.33-.86-2.32v-5.5h-2.1v-1.42h2.1v-3.22h1.6v3.22h3.1v1.42h-3.1v5.46c0,.56.15,1,.44,1.31.29.31.69.47,1.18.47h1.48v1.42h-1.54Z" fill="#999"/>
    <path d="M1064.17,484.48c-1,0-1.89-.22-2.66-.67s-1.38-1.06-1.81-1.84c-.43-.78-.65-1.68-.65-2.69s.22-1.91.65-2.69c.43-.78,1.04-1.39,1.81-1.84.77-.45,1.66-.67,2.66-.67s1.89.22,2.66.67c.77.45,1.38,1.06,1.82,1.84.44.78.66,1.68.66,2.69s-.22,1.91-.66,2.69c-.44.78-1.05,1.39-1.82,1.84-.77.45-1.66.67-2.66.67ZM1064.17,483.04c.69,0,1.3-.16,1.83-.48s.93-.76,1.22-1.33c.29-.57.43-1.22.43-1.95s-.14-1.38-.43-1.95c-.29-.57-.69-1.01-1.22-1.33s-1.13-.48-1.81-.48-1.3.16-1.83.48-.94.76-1.23,1.33c-.29.57-.44,1.22-.44,1.95s.15,1.38.44,1.95c.29.57.7,1.01,1.23,1.33s1.13.48,1.81.48Z" fill="#999"/>
    <path d="M1077.09,488.4v-1.38h4.66c.65,0,1.19-.22,1.6-.65.41-.43.62-.99.62-1.67v-1.78c-.24.47-.67.84-1.3,1.13s-1.32.43-2.08.43c-1.04,0-1.92-.23-2.63-.69s-1.26-1.08-1.63-1.87-.56-1.67-.56-2.64c0-.73.11-1.41.32-2.04.21-.63.52-1.18.93-1.66.41-.48.91-.85,1.51-1.11.6-.26,1.29-.39,2.08-.39.44,0,.88.07,1.31.21.43.14.83.33,1.19.58.36.25.65.53.86.85v-1.48h1.6v10.52c0,.72-.15,1.35-.46,1.9-.31.55-.74.97-1.31,1.28s-1.22.46-1.95.46h-4.76ZM1080.77,483.04c.68,0,1.27-.15,1.76-.46.49-.31.88-.74,1.16-1.31.28-.57.42-1.23.42-1.99,0-1.15-.3-2.06-.91-2.74-.61-.68-1.42-1.02-2.43-1.02-.51,0-.96.09-1.37.27-.41.18-.76.43-1.06.76s-.53.72-.68,1.18-.23.98-.23,1.55c0,1.13.3,2.04.91,2.73s1.42,1.03,2.43,1.03Z" fill="#999"/>
    <path d="M1088.48,470.1h1.84v2.24h-1.84v-2.24ZM1088.6,484.32v-10.08h1.6v10.08h-1.6Z" fill="#999"/>
    <path d="M1095.84,484.32l-3.7-10.08h1.66l2.88,8.1,2.88-8.1h1.64l-3.68,10.08h-1.68Z" fill="#999"/>
    <path d="M1107.2,484.48c-.75,0-1.43-.14-2.04-.41-.61-.27-1.14-.65-1.58-1.14-.44-.49-.78-1.05-1.02-1.69-.24-.64-.36-1.31-.36-2.02s.11-1.41.33-2.04c.22-.63.54-1.17.96-1.63.42-.46.93-.82,1.52-1.08.59-.26,1.26-.39,2.01-.39s1.39.12,1.97.36c.58.24,1.07.57,1.48,1,.41.43.72.93.93,1.5s.32,1.19.32,1.86c0,.12,0,.24-.01.36,0,.12-.02.24-.03.36h-8.54v-1.32h6.92c-.05-.85-.35-1.53-.89-2.02-.54-.49-1.26-.74-2.15-.74-.49,0-.94.08-1.34.25-.4.17-.74.41-1.02.74-.28.33-.49.72-.64,1.18-.15.46-.22.99-.22,1.59,0,.75.15,1.41.44,1.99.29.58.7,1.04,1.21,1.37.51.33,1.1.5,1.75.5.81,0,1.47-.17,1.98-.51s.84-.83,1-1.47h1.64c-.11.68-.37,1.28-.79,1.79s-.95.91-1.6,1.19c-.65.28-1.39.42-2.23.42Z" fill="#999"/>
    <path d="M1118.82,470.1h1.84v2.24h-1.84v-2.24ZM1118.94,484.32v-10.08h1.6v10.08h-1.6Z" fill="#999"/>
    <path d="M1127.58,484.32c-.96,0-1.73-.28-2.3-.84s-.86-1.33-.86-2.32v-5.5h-2.1v-1.42h2.1v-3.22h1.6v3.22h3.1v1.42h-3.1v5.46c0,.56.15,1,.44,1.31.29.31.69.47,1.18.47h1.48v1.42h-1.54Z" fill="#999"/>
    <path d="M1139.13,484.48c-.79,0-1.47-.13-2.04-.4-.57-.27-1.02-.65-1.35-1.16-.33-.51-.52-1.11-.57-1.82h1.5c.07.63.31,1.12.74,1.47s1,.53,1.72.53c.43,0,.81-.07,1.14-.2.33-.13.59-.33.76-.58.17-.25.26-.55.26-.88,0-.39-.11-.68-.32-.88s-.49-.35-.84-.46c-.35-.11-.73-.19-1.14-.25s-.83-.14-1.26-.23c-.43-.09-.81-.23-1.16-.42-.35-.19-.63-.45-.84-.79-.21-.34-.32-.79-.32-1.35,0-.6.15-1.12.46-1.56s.73-.79,1.26-1.04,1.15-.38,1.84-.38c.77,0,1.43.12,1.98.36.55.24.98.59,1.3,1.06.32.47.51,1.02.56,1.66h-1.52c-.04-.36-.16-.67-.36-.92-.2-.25-.47-.45-.8-.6s-.71-.22-1.14-.22c-.53,0-1,.13-1.41.4-.41.27-.61.65-.61,1.14,0,.37.11.65.32.84.21.19.49.33.84.42.35.09.73.17,1.16.23.43.06.85.14,1.27.23.42.09.8.24,1.15.43.35.19.63.47.84.83.21.36.32.84.32,1.44,0,.48-.08.91-.25,1.28-.17.37-.41.7-.73.97-.32.27-.71.48-1.17.63s-.99.22-1.59.22Z" fill="#999"/>
    <path d="M1149.19,484.32c-.96,0-1.73-.28-2.3-.84s-.86-1.33-.86-2.32v-5.5h-2.1v-1.42h2.1v-3.22h1.6v3.22h3.1v1.42h-3.1v5.46c0,.56.15,1,.44,1.31.29.31.69.47,1.18.47h1.48v1.42h-1.54Z" fill="#999"/>
    <path d="M1152.75,484.32v-10.08h1.6v2.04c.23-.69.56-1.21.99-1.54.43-.33,1.02-.5,1.75-.5h1.28v1.42h-1.38c-.68,0-1.21.19-1.59.56-.38.37-.65.88-.81,1.51-.16.63-.24,1.35-.24,2.15v4.44h-1.6Z" fill="#999"/>
    <path d="M1163.79,484.48c-.75,0-1.4-.17-1.97-.51-.57-.34-1-.82-1.31-1.43-.31-.61-.46-1.33-.46-2.14v-6.16h1.6v5.9c0,.85.23,1.55.69,2.08s1.07.8,1.83.8c.57,0,1.08-.14,1.53-.43.45-.29.8-.68,1.05-1.19.25-.51.38-1.08.38-1.72v-5.44h1.6v10.08h-1.6v-1.94c-.27.69-.69,1.22-1.28,1.57-.59.35-1.27.53-2.06.53Z" fill="#999"/>
    <path d="M1175.97,484.48c-1.05,0-1.95-.25-2.68-.74-.73-.49-1.29-1.13-1.66-1.92s-.56-1.63-.56-2.54c0-.68.1-1.33.31-1.95.21-.62.52-1.18.94-1.67s.93-.88,1.54-1.16c.61-.28,1.31-.42,2.11-.42s1.47.14,2.13.42c.66.28,1.21.69,1.65,1.22.44.53.71,1.17.8,1.92h-1.58c-.07-.4-.24-.76-.53-1.08-.29-.32-.64-.57-1.06-.76-.42-.19-.88-.28-1.39-.28-.73,0-1.34.17-1.83.51-.49.34-.85.79-1.08,1.36-.23.57-.35,1.2-.35,1.89s.12,1.31.36,1.88c.24.57.6,1.03,1.09,1.37.49.34,1.09.51,1.81.51.76,0,1.4-.18,1.93-.54.53-.36.88-.84,1.05-1.44h1.56c-.11.68-.36,1.28-.76,1.79-.4.51-.92.91-1.56,1.2-.64.29-1.39.43-2.24.43Z" fill="#999"/>
    <path d="M1186.7,484.32c-.96,0-1.73-.28-2.3-.84s-.86-1.33-.86-2.32v-5.5h-2.1v-1.42h2.1v-3.22h1.6v3.22h3.1v1.42h-3.1v5.46c0,.56.15,1,.44,1.31.29.31.69.47,1.18.47h1.48v1.42h-1.54Z" fill="#999"/>
    <path d="M1193.88,484.48c-.75,0-1.4-.17-1.97-.51-.57-.34-1-.82-1.31-1.43-.31-.61-.46-1.33-.46-2.14v-6.16h1.6v5.9c0,.85.23,1.55.69,2.08s1.07.8,1.83.8c.57,0,1.08-.14,1.53-.43.45-.29.8-.68,1.05-1.19.25-.51.38-1.08.38-1.72v-5.44h1.6v10.08h-1.6v-1.94c-.27.69-.69,1.22-1.28,1.57-.59.35-1.27.53-2.06.53Z" fill="#999"/>
    <path d="M1201.86,484.32v-10.08h1.6v2.04c.23-.69.56-1.21.99-1.54.43-.33,1.02-.5,1.75-.5h1.28v1.42h-1.38c-.68,0-1.21.19-1.59.56-.38.37-.65.88-.81,1.51-.16.63-.24,1.35-.24,2.15v4.44h-1.6Z" fill="#999"/>
    <path d="M1213.18,484.48c-.75,0-1.43-.14-2.04-.41-.61-.27-1.14-.65-1.58-1.14-.44-.49-.78-1.05-1.02-1.69-.24-.64-.36-1.31-.36-2.02s.11-1.41.33-2.04c.22-.63.54-1.17.96-1.63.42-.46.93-.82,1.52-1.08.59-.26,1.26-.39,2.01-.39s1.39.12,1.97.36c.58.24,1.07.57,1.48,1,.41.43.72.93.93,1.5s.32,1.19.32,1.86c0,.12,0,.24-.01.36,0,.12-.02.24-.03.36h-8.54v-1.32h6.92c-.05-.85-.35-1.53-.89-2.02-.54-.49-1.26-.74-2.15-.74-.49,0-.94.08-1.34.25-.4.17-.74.41-1.02.74-.28.33-.49.72-.64,1.18-.15.46-.22.99-.22,1.59,0,.75.15,1.41.44,1.99.29.58.7,1.04,1.21,1.37.51.33,1.1.5,1.75.5.81,0,1.47-.17,1.98-.51s.84-.83,1-1.47h1.64c-.11.68-.37,1.28-.79,1.79s-.95.91-1.6,1.19c-.65.28-1.39.42-2.23.42Z" fill="#999"/>
    <path d="M1229.89,484.48c-.48,0-.94-.08-1.37-.23-.43-.15-.82-.36-1.17-.63s-.63-.59-.84-.96v1.66h-1.6v-14.22h1.6v5.78c.32-.53.79-.97,1.4-1.3.61-.33,1.27-.5,1.98-.5,1.04,0,1.92.23,2.64.69.72.46,1.27,1.08,1.64,1.87.37.79.56,1.67.56,2.64,0,.73-.11,1.41-.32,2.04-.21.63-.52,1.18-.93,1.66s-.91.85-1.51,1.11c-.6.26-1.29.39-2.08.39ZM1229.71,483.04c.51,0,.96-.09,1.37-.27.41-.18.76-.43,1.06-.76s.53-.72.69-1.18.24-.98.24-1.55c0-1.15-.3-2.06-.91-2.74-.61-.68-1.42-1.02-2.45-1.02-.67,0-1.25.16-1.75.47-.5.31-.89.75-1.17,1.31-.28.56-.42,1.22-.42,1.98,0,1.13.31,2.04.92,2.73s1.42,1.03,2.42,1.03Z" fill="#999"/>
    <path d="M1241.35,484.48c-.75,0-1.43-.14-2.04-.41-.61-.27-1.14-.65-1.58-1.14-.44-.49-.78-1.05-1.02-1.69-.24-.64-.36-1.31-.36-2.02s.11-1.41.33-2.04c.22-.63.54-1.17.96-1.63.42-.46.93-.82,1.52-1.08.59-.26,1.26-.39,2.01-.39s1.39.12,1.97.36c.58.24,1.07.57,1.48,1,.41.43.72.93.93,1.5s.32,1.19.32,1.86c0,.12,0,.24-.01.36,0,.12-.02.24-.03.36h-8.54v-1.32h6.92c-.05-.85-.35-1.53-.89-2.02-.54-.49-1.26-.74-2.15-.74-.49,0-.94.08-1.34.25-.4.17-.74.41-1.02.74-.28.33-.49.72-.64,1.18-.15.46-.22.99-.22,1.59,0,.75.15,1.41.44,1.99.29.58.7,1.04,1.21,1.37.51.33,1.1.5,1.75.5.81,0,1.47-.17,1.98-.51s.84-.83,1-1.47h1.64c-.11.68-.37,1.28-.79,1.79s-.95.91-1.6,1.19c-.65.28-1.39.42-2.23.42Z" fill="#999"/>
    <path d="M1249.01,484.32v-8.66h-2.1v-1.42h2.1v-1.02c0-.64.13-1.19.39-1.66.26-.47.63-.83,1.1-1.08.47-.25,1.02-.38,1.65-.38h1.58v1.42h-1.52c-.48,0-.87.15-1.16.46-.29.31-.44.73-.44,1.28v.98h3.12v1.42h-3.12v8.66h-1.6Z" fill="#999"/>
    <path d="M1259.53,484.48c-1,0-1.89-.22-2.66-.67s-1.38-1.06-1.81-1.84c-.43-.78-.65-1.68-.65-2.69s.22-1.91.65-2.69c.43-.78,1.04-1.39,1.81-1.84.77-.45,1.66-.67,2.66-.67s1.89.22,2.66.67c.77.45,1.38,1.06,1.82,1.84.44.78.66,1.68.66,2.69s-.22,1.91-.66,2.69c-.44.78-1.05,1.39-1.82,1.84-.77.45-1.66.67-2.66.67ZM1259.53,483.04c.69,0,1.3-.16,1.83-.48s.93-.76,1.22-1.33c.29-.57.43-1.22.43-1.95s-.14-1.38-.43-1.95c-.29-.57-.69-1.01-1.22-1.33s-1.13-.48-1.81-.48-1.3.16-1.83.48-.94.76-1.23,1.33c-.29.57-.44,1.22-.44,1.95s.15,1.38.44,1.95c.29.57.7,1.01,1.23,1.33s1.13.48,1.81.48Z" fill="#999"/>
    <path d="M1267.01,484.32v-10.08h1.6v2.04c.23-.69.56-1.21.99-1.54.43-.33,1.02-.5,1.75-.5h1.28v1.42h-1.38c-.68,0-1.21.19-1.59.56-.38.37-.65.88-.81,1.51-.16.63-.24,1.35-.24,2.15v4.44h-1.6Z" fill="#999"/>
    <path d="M1278.32,484.48c-.75,0-1.43-.14-2.04-.41-.61-.27-1.14-.65-1.58-1.14-.44-.49-.78-1.05-1.02-1.69-.24-.64-.36-1.31-.36-2.02s.11-1.41.33-2.04c.22-.63.54-1.17.96-1.63.42-.46.93-.82,1.52-1.08.59-.26,1.26-.39,2.01-.39s1.39.12,1.97.36c.58.24,1.07.57,1.48,1,.41.43.72.93.93,1.5s.32,1.19.32,1.86c0,.12,0,.24-.01.36,0,.12-.02.24-.03.36h-8.54v-1.32h6.92c-.05-.85-.35-1.53-.89-2.02-.54-.49-1.26-.74-2.15-.74-.49,0-.94.08-1.34.25-.4.17-.74.41-1.02.74-.28.33-.49.72-.64,1.18-.15.46-.22.99-.22,1.59,0,.75.15,1.41.44,1.99.29.58.7,1.04,1.21,1.37.51.33,1.1.5,1.75.5.81,0,1.47-.17,1.98-.51s.84-.83,1-1.47h1.64c-.11.68-.37,1.28-.79,1.79s-.95.91-1.6,1.19c-.65.28-1.39.42-2.23.42Z" fill="#999"/>
    <path d="M1289.94,470.1h1.84v2.24h-1.84v-2.24ZM1290.06,484.32v-10.08h1.6v10.08h-1.6Z" fill="#999"/>
    <path d="M1298.7,484.32c-.96,0-1.73-.28-2.3-.84s-.86-1.33-.86-2.32v-5.5h-2.1v-1.42h2.1v-3.22h1.6v3.22h3.1v1.42h-3.1v5.46c0,.56.15,1,.44,1.31.29.31.69.47,1.18.47h1.48v1.42h-1.54Z" fill="#999"/>
    <path d="M1306.94,470.1h1.84v2.24h-1.84v-2.24ZM1307.06,484.32v-10.08h1.6v10.08h-1.6Z" fill="#999"/>
    <path d="M1314.92,484.48c-.79,0-1.47-.13-2.04-.4-.57-.27-1.02-.65-1.35-1.16-.33-.51-.52-1.11-.57-1.82h1.5c.07.63.31,1.12.74,1.47s1,.53,1.72.53c.43,0,.81-.07,1.14-.2.33-.13.59-.33.76-.58.17-.25.26-.55.26-.88,0-.39-.11-.68-.32-.88s-.49-.35-.84-.46c-.35-.11-.73-.19-1.14-.25s-.83-.14-1.26-.23c-.43-.09-.81-.23-1.16-.42-.35-.19-.63-.45-.84-.79-.21-.34-.32-.79-.32-1.35,0-.6.15-1.12.46-1.56s.73-.79,1.26-1.04,1.15-.38,1.84-.38c.77,0,1.43.12,1.98.36.55.24.98.59,1.3,1.06.32.47.51,1.02.56,1.66h-1.52c-.04-.36-.16-.67-.36-.92-.2-.25-.47-.45-.8-.6s-.71-.22-1.14-.22c-.53,0-1,.13-1.41.4-.41.27-.61.65-.61,1.14,0,.37.11.65.32.84.21.19.49.33.84.42.35.09.73.17,1.16.23.43.06.85.14,1.27.23.42.09.8.24,1.15.43.35.19.63.47.84.83.21.36.32.84.32,1.44,0,.48-.08.91-.25,1.28-.17.37-.41.7-.73.97-.32.27-.71.48-1.17.63s-.99.22-1.59.22Z" fill="#999"/>
    <path d="M1330.11,484.48c-.75,0-1.43-.14-2.04-.41-.61-.27-1.14-.65-1.58-1.14-.44-.49-.78-1.05-1.02-1.69-.24-.64-.36-1.31-.36-2.02s.11-1.41.33-2.04c.22-.63.54-1.17.96-1.63.42-.46.93-.82,1.52-1.08.59-.26,1.26-.39,2.01-.39s1.39.12,1.97.36c.58.24,1.07.57,1.48,1,.41.43.72.93.93,1.5s.32,1.19.32,1.86c0,.12,0,.24-.01.36,0,.12-.02.24-.03.36h-8.54v-1.32h6.92c-.05-.85-.35-1.53-.89-2.02-.54-.49-1.26-.74-2.15-.74-.49,0-.94.08-1.34.25-.4.17-.74.41-1.02.74-.28.33-.49.72-.64,1.18-.15.46-.22.99-.22,1.59,0,.75.15,1.41.44,1.99.29.58.7,1.04,1.21,1.37.51.33,1.1.5,1.75.5.81,0,1.47-.17,1.98-.51s.84-.83,1-1.47h1.64c-.11.68-.37,1.28-.79,1.79s-.95.91-1.6,1.19c-.65.28-1.39.42-2.23.42Z" fill="#999"/>
    <path d="M1337.29,484.32h-1.82l6.98-10.08h1.84l-7,10.08ZM1344.63,484.32h-1.84l-7-10.08h1.86l6.98,10.08Z" fill="#999"/>
    <path d="M1346.29,488.4v-14.16h1.6v1.64c.32-.53.79-.97,1.4-1.3.61-.33,1.27-.5,1.98-.5,1.04,0,1.92.23,2.64.69.72.46,1.27,1.08,1.64,1.87.37.79.56,1.67.56,2.64,0,.73-.11,1.41-.32,2.04-.21.63-.52,1.18-.93,1.66s-.91.85-1.51,1.11c-.6.26-1.29.39-2.08.39-.47,0-.92-.08-1.36-.23-.44-.15-.83-.36-1.18-.63s-.63-.59-.84-.96v5.74h-1.6ZM1351.09,483.04c.51,0,.97-.09,1.38-.27.41-.18.77-.43,1.06-.76.29-.33.52-.72.68-1.18s.24-.98.24-1.55c0-1.15-.3-2.06-.91-2.74-.61-.68-1.42-1.02-2.45-1.02-.49,0-.95.09-1.36.27-.41.18-.77.43-1.06.76-.29.33-.52.72-.68,1.18-.16.46-.24.98-.24,1.55,0,1.13.31,2.04.92,2.73s1.42,1.03,2.42,1.03Z" fill="#999"/>
    <path d="M1362.73,484.48c-.75,0-1.43-.14-2.04-.41-.61-.27-1.14-.65-1.58-1.14-.44-.49-.78-1.05-1.02-1.69-.24-.64-.36-1.31-.36-2.02s.11-1.41.33-2.04c.22-.63.54-1.17.96-1.63.42-.46.93-.82,1.52-1.08.59-.26,1.26-.39,2.01-.39s1.39.12,1.97.36c.58.24,1.07.57,1.48,1,.41.43.72.93.93,1.5s.32,1.19.32,1.86c0,.12,0,.24-.01.36,0,.12-.02.24-.03.36h-8.54v-1.32h6.92c-.05-.85-.35-1.53-.89-2.02-.54-.49-1.26-.74-2.15-.74-.49,0-.94.08-1.34.25-.4.17-.74.41-1.02.74-.28.33-.49.72-.64,1.18-.15.46-.22.99-.22,1.59,0,.75.15,1.41.44,1.99.29.58.7,1.04,1.21,1.37.51.33,1.1.5,1.75.5.81,0,1.47-.17,1.98-.51s.84-.83,1-1.47h1.64c-.11.68-.37,1.28-.79,1.79s-.95.91-1.6,1.19c-.65.28-1.39.42-2.23.42Z" fill="#999"/>
    <path d="M1369.66,484.32v-10.08h1.6v2.04c.23-.69.56-1.21.99-1.54.43-.33,1.02-.5,1.75-.5h1.28v1.42h-1.38c-.68,0-1.21.19-1.59.56-.38.37-.65.88-.81,1.51-.16.63-.24,1.35-.24,2.15v4.44h-1.6Z" fill="#999"/>
    <path d="M1376.96,470.1h1.84v2.24h-1.84v-2.24ZM1377.08,484.32v-10.08h1.6v10.08h-1.6Z" fill="#999"/>
    <path d="M1386.02,484.48c-.75,0-1.43-.14-2.04-.41-.61-.27-1.14-.65-1.58-1.14-.44-.49-.78-1.05-1.02-1.69-.24-.64-.36-1.31-.36-2.02s.11-1.41.33-2.04c.22-.63.54-1.17.96-1.63.42-.46.93-.82,1.52-1.08.59-.26,1.26-.39,2.01-.39s1.39.12,1.97.36c.58.24,1.07.57,1.48,1,.41.43.72.93.93,1.5s.32,1.19.32,1.86c0,.12,0,.24-.01.36,0,.12-.02.24-.03.36h-8.54v-1.32h6.92c-.05-.85-.35-1.53-.89-2.02-.54-.49-1.26-.74-2.15-.74-.49,0-.94.08-1.34.25-.4.17-.74.41-1.02.74-.28.33-.49.72-.64,1.18-.15.46-.22.99-.22,1.59,0,.75.15,1.41.44,1.99.29.58.7,1.04,1.21,1.37.51.33,1.1.5,1.75.5.81,0,1.47-.17,1.98-.51s.84-.83,1-1.47h1.64c-.11.68-.37,1.28-.79,1.79s-.95.91-1.6,1.19c-.65.28-1.39.42-2.23.42Z" fill="#999"/>
    <path d="M1392.96,484.32v-10.08h1.6v1.94c.28-.69.71-1.22,1.3-1.57s1.27-.53,2.04-.53,1.42.17,1.99.51,1,.81,1.31,1.42c.31.61.46,1.32.46,2.15v6.16h-1.62v-5.9c0-.87-.23-1.56-.68-2.09-.45-.53-1.06-.79-1.82-.79-.59,0-1.1.14-1.55.43-.45.29-.8.68-1.05,1.18-.25.5-.38,1.08-.38,1.73v5.44h-1.6Z" fill="#999"/>
    <path d="M1408.76,484.48c-1.05,0-1.95-.25-2.68-.74-.73-.49-1.29-1.13-1.66-1.92s-.56-1.63-.56-2.54c0-.68.1-1.33.31-1.95.21-.62.52-1.18.94-1.67s.93-.88,1.54-1.16c.61-.28,1.31-.42,2.11-.42s1.47.14,2.13.42c.66.28,1.21.69,1.65,1.22.44.53.71,1.17.8,1.92h-1.58c-.07-.4-.24-.76-.53-1.08-.29-.32-.64-.57-1.06-.76-.42-.19-.88-.28-1.39-.28-.73,0-1.34.17-1.83.51-.49.34-.85.79-1.08,1.36-.23.57-.35,1.2-.35,1.89s.12,1.31.36,1.88c.24.57.6,1.03,1.09,1.37.49.34,1.09.51,1.81.51.76,0,1.4-.18,1.93-.54.53-.36.88-.84,1.05-1.44h1.56c-.11.68-.36,1.28-.76,1.79-.4.51-.92.91-1.56,1.2-.64.29-1.39.43-2.24.43Z" fill="#999"/>
    <path d="M1419.89,484.48c-.75,0-1.43-.14-2.04-.41-.61-.27-1.14-.65-1.58-1.14-.44-.49-.78-1.05-1.02-1.69-.24-.64-.36-1.31-.36-2.02s.11-1.41.33-2.04c.22-.63.54-1.17.96-1.63.42-.46.93-.82,1.52-1.08.59-.26,1.26-.39,2.01-.39s1.39.12,1.97.36c.58.24,1.07.57,1.48,1,.41.43.72.93.93,1.5s.32,1.19.32,1.86c0,.12,0,.24-.01.36,0,.12-.02.24-.03.36h-8.54v-1.32h6.92c-.05-.85-.35-1.53-.89-2.02-.54-.49-1.26-.74-2.15-.74-.49,0-.94.08-1.34.25-.4.17-.74.41-1.02.74-.28.33-.49.72-.64,1.18-.15.46-.22.99-.22,1.59,0,.75.15,1.41.44,1.99.29.58.7,1.04,1.21,1.37.51.33,1.1.5,1.75.5.81,0,1.47-.17,1.98-.51s.84-.83,1-1.47h1.64c-.11.68-.37,1.28-.79,1.79s-.95.91-1.6,1.19c-.65.28-1.39.42-2.23.42Z" fill="#999"/>
    <path d="M1430.97,484.48c-1.04,0-1.92-.23-2.63-.69s-1.26-1.08-1.63-1.87-.56-1.67-.56-2.64c0-.73.11-1.41.32-2.04.21-.63.52-1.18.93-1.66.41-.48.91-.85,1.51-1.11.6-.26,1.29-.39,2.08-.39.71,0,1.37.17,1.98.5.61.33,1.07.77,1.38,1.3v-5.78h1.6v14.22h-1.6v-1.66c-.31.55-.77.99-1.38,1.32-.61.33-1.28.5-2,.5ZM1431.15,483.04c.51,0,.96-.09,1.37-.27.41-.18.76-.43,1.06-.76s.53-.72.68-1.18.23-.98.23-1.55c0-1.15-.3-2.06-.91-2.74-.61-.68-1.42-1.02-2.43-1.02-.51,0-.96.09-1.37.27-.41.18-.76.43-1.06.76s-.53.72-.68,1.18-.23.98-.23,1.55c0,1.13.3,2.04.91,2.73s1.42,1.03,2.43,1.03Z" fill="#999"/>
    <path d="M1438.71,482.46h1.82v1.86h-1.82v-1.86Z" fill="#999"/>
    <path d="M1448.29,484.32v-14h8.76v1.54h-7.04v4.46h5.74v1.54h-5.74v4.92h7.26v1.54h-8.98Z" fill="#999"/>
    <path d="M1462.41,484.48c-.69,0-1.3-.13-1.83-.38-.53-.25-.93-.61-1.22-1.07-.29-.46-.43-.99-.43-1.59,0-.65.16-1.22.49-1.7.33-.48.79-.85,1.39-1.11.6-.26,1.31-.39,2.12-.39h2.34c.21,0,.37-.04.46-.12.09-.08.14-.2.14-.36,0-.68-.24-1.24-.71-1.67-.47-.43-1.14-.65-1.99-.65-.49,0-.94.09-1.34.28-.4.19-.72.43-.97.74-.25.31-.38.65-.41,1.02h-1.54c.07-.67.3-1.25.69-1.76.39-.51.9-.91,1.53-1.2.63-.29,1.31-.44,2.06-.44.88,0,1.64.16,2.27.47.63.31,1.13.75,1.48,1.31.35.56.53,1.21.53,1.96v6.5h-1.6v-1.74c-.19.37-.45.7-.79.99-.34.29-.74.51-1.19.67-.45.16-.95.24-1.48.24ZM1462.65,483.12c1.01,0,1.8-.3,2.37-.89.57-.59.85-1.41.85-2.45v-.22h-2.84c-.73,0-1.33.16-1.78.49s-.68.78-.68,1.37c0,.51.19.92.57,1.23.38.31.88.47,1.51.47Z" fill="#999"/>
    <path d="M1474.56,484.48c-1.05,0-1.95-.25-2.68-.74-.73-.49-1.29-1.13-1.66-1.92s-.56-1.63-.56-2.54c0-.68.1-1.33.31-1.95.21-.62.52-1.18.94-1.67s.93-.88,1.54-1.16c.61-.28,1.31-.42,2.11-.42s1.47.14,2.13.42c.66.28,1.21.69,1.65,1.22.44.53.71,1.17.8,1.92h-1.58c-.07-.4-.24-.76-.53-1.08-.29-.32-.64-.57-1.06-.76-.42-.19-.88-.28-1.39-.28-.73,0-1.34.17-1.83.51-.49.34-.85.79-1.08,1.36-.23.57-.35,1.2-.35,1.89s.12,1.31.36,1.88c.24.57.6,1.03,1.09,1.37.49.34,1.09.51,1.81.51.76,0,1.4-.18,1.93-.54.53-.36.88-.84,1.05-1.44h1.56c-.11.68-.36,1.28-.76,1.79-.4.51-.92.91-1.56,1.2-.64.29-1.39.43-2.24.43Z" fill="#999"/>
    <path d="M1481.42,484.32v-14.22h1.6v6.08c.28-.69.71-1.22,1.3-1.57s1.27-.53,2.04-.53,1.42.17,1.99.51,1,.81,1.31,1.42c.31.61.46,1.32.46,2.15v6.16h-1.62v-5.9c0-.87-.23-1.56-.68-2.09-.45-.53-1.06-.79-1.82-.79-.59,0-1.1.14-1.55.43-.45.29-.8.68-1.05,1.18-.25.5-.38,1.08-.38,1.73v5.44h-1.6Z" fill="#999"/>
    <path d="M1501,484.32v-12.46h-4.48v-1.54h10.68v1.54h-4.48v12.46h-1.72Z" fill="#999"/>
    <path d="M1508.84,470.1h1.84v2.24h-1.84v-2.24ZM1508.96,484.32v-10.08h1.6v10.08h-1.6Z" fill="#999"/>
    <path d="M1513.62,484.32v-10.08h1.62v1.94c.19-.63.55-1.13,1.09-1.52.54-.39,1.2-.58,1.97-.58s1.5.19,2.11.56c.61.37,1,.91,1.19,1.6.13-.41.36-.78.68-1.11.32-.33.71-.58,1.16-.77s.92-.28,1.4-.28c.73,0,1.36.16,1.88.47.52.31.92.76,1.21,1.34.29.58.43,1.28.43,2.09v6.34h-1.62v-5.92c0-.85-.2-1.55-.6-2.08-.4-.53-.96-.8-1.68-.8-.55,0-1.02.16-1.43.48s-.72.73-.93,1.24c-.21.51-.32,1.05-.32,1.62v5.46h-1.6v-5.92c0-.85-.2-1.55-.6-2.08-.4-.53-.95-.8-1.66-.8-.56,0-1.04.16-1.44.48-.4.32-.71.73-.92,1.24-.21.51-.32,1.05-.32,1.62v5.46h-1.62Z" fill="#999"/>
    <path d="M1535.53,484.48c-.75,0-1.43-.14-2.04-.41-.61-.27-1.14-.65-1.58-1.14-.44-.49-.78-1.05-1.02-1.69-.24-.64-.36-1.31-.36-2.02s.11-1.41.33-2.04c.22-.63.54-1.17.96-1.63.42-.46.93-.82,1.52-1.08.59-.26,1.26-.39,2.01-.39s1.39.12,1.97.36c.58.24,1.07.57,1.48,1,.41.43.72.93.93,1.5s.32,1.19.32,1.86c0,.12,0,.24-.01.36,0,.12-.02.24-.03.36h-8.54v-1.32h6.92c-.05-.85-.35-1.53-.89-2.02-.54-.49-1.26-.74-2.15-.74-.49,0-.94.08-1.34.25-.4.17-.74.41-1.02.74-.28.33-.49.72-.64,1.18-.15.46-.22.99-.22,1.59,0,.75.15,1.41.44,1.99.29.58.7,1.04,1.21,1.37.51.33,1.1.5,1.75.5.81,0,1.47-.17,1.98-.51s.84-.83,1-1.47h1.64c-.11.68-.37,1.28-.79,1.79s-.95.91-1.6,1.19c-.65.28-1.39.42-2.23.42Z" fill="#999"/>
    <path d="M1033.82,515.42v-14h5.02c.88,0,1.64.14,2.28.42.64.28,1.13.67,1.47,1.18s.51,1.11.51,1.8c0,.76-.18,1.38-.53,1.86-.35.48-.8.84-1.33,1.08.73.25,1.33.67,1.8,1.25.47.58.7,1.36.7,2.35,0,.83-.18,1.54-.55,2.15-.37.61-.89,1.08-1.57,1.41-.68.33-1.5.5-2.46.5h-5.34ZM1035.52,507.22h3.26c.85,0,1.5-.18,1.95-.54.45-.36.67-.9.67-1.62s-.22-1.24-.67-1.6c-.45-.36-1.1-.54-1.95-.54h-3.26v4.3ZM1035.52,513.88h3.34c1.04,0,1.82-.22,2.35-.66s.79-1.07.79-1.9-.26-1.48-.79-1.92-1.31-.66-2.35-.66h-3.34v5.14Z" fill="#999"/>
    <path d="M1046.13,515.42v-14.22h1.6v14.22h-1.6Z" fill="#999"/>
    <path d="M1055.21,515.58c-1,0-1.89-.22-2.66-.67s-1.38-1.06-1.81-1.84c-.43-.78-.65-1.68-.65-2.69s.22-1.91.65-2.69c.43-.78,1.04-1.39,1.81-1.84.77-.45,1.66-.67,2.66-.67s1.89.22,2.66.67c.77.45,1.38,1.06,1.82,1.84.44.78.66,1.68.66,2.69s-.22,1.91-.66,2.69c-.44.78-1.05,1.39-1.82,1.84-.77.45-1.66.67-2.66.67ZM1055.21,514.14c.69,0,1.3-.16,1.83-.48s.93-.76,1.22-1.33c.29-.57.43-1.22.43-1.95s-.14-1.38-.43-1.95c-.29-.57-.69-1.01-1.22-1.33s-1.13-.48-1.81-.48-1.3.16-1.83.48-.94.76-1.23,1.33c-.29.57-.44,1.22-.44,1.95s.15,1.38.44,1.95c.29.57.7,1.01,1.23,1.33s1.13.48,1.81.48Z" fill="#999"/>
    <path d="M1066.89,515.58c-1.05,0-1.95-.25-2.68-.74-.73-.49-1.29-1.13-1.66-1.92s-.56-1.63-.56-2.54c0-.68.1-1.33.31-1.95.21-.62.52-1.18.94-1.67s.93-.88,1.54-1.16c.61-.28,1.31-.42,2.11-.42s1.47.14,2.13.42c.66.28,1.21.69,1.65,1.22.44.53.71,1.17.8,1.92h-1.58c-.07-.4-.24-.76-.53-1.08-.29-.32-.64-.57-1.06-.76-.42-.19-.88-.28-1.39-.28-.73,0-1.34.17-1.83.51-.49.34-.85.79-1.08,1.36-.23.57-.35,1.2-.35,1.89s.12,1.31.36,1.88c.24.57.6,1.03,1.09,1.37.49.34,1.09.51,1.81.51.76,0,1.4-.18,1.93-.54.53-.36.88-.84,1.05-1.44h1.56c-.11.68-.36,1.28-.76,1.79-.4.51-.92.91-1.56,1.2-.64.29-1.39.43-2.24.43Z" fill="#999"/>
    <path d="M1073.75,515.42v-14.22h1.62v14.22h-1.62ZM1074.77,512.12l.02-1.96,5.32-4.82h2.14l-7.48,6.78ZM1080.61,515.42l-4.36-5.7,1.44-.72,4.94,6.42h-2.02Z" fill="#999"/>
    <path d="M1093.84,515.58c-.48,0-.94-.08-1.37-.23-.43-.15-.82-.36-1.17-.63s-.63-.59-.84-.96v1.66h-1.6v-14.22h1.6v5.78c.32-.53.79-.97,1.4-1.3.61-.33,1.27-.5,1.98-.5,1.04,0,1.92.23,2.64.69.72.46,1.27,1.08,1.64,1.87.37.79.56,1.67.56,2.64,0,.73-.11,1.41-.32,2.04-.21.63-.52,1.18-.93,1.66s-.91.85-1.51,1.11c-.6.26-1.29.39-2.08.39ZM1093.66,514.14c.51,0,.96-.09,1.37-.27.41-.18.76-.43,1.06-.76s.53-.72.69-1.18.24-.98.24-1.55c0-1.15-.3-2.06-.91-2.74-.61-.68-1.42-1.02-2.45-1.02-.67,0-1.25.16-1.75.47-.5.31-.89.75-1.17,1.31-.28.56-.42,1.22-.42,1.98,0,1.13.31,2.04.92,2.73s1.42,1.03,2.42,1.03Z" fill="#999"/>
    <path d="M1105.3,515.58c-.75,0-1.43-.14-2.04-.41-.61-.27-1.14-.65-1.58-1.14-.44-.49-.78-1.05-1.02-1.69-.24-.64-.36-1.31-.36-2.02s.11-1.41.33-2.04c.22-.63.54-1.17.96-1.63.42-.46.93-.82,1.52-1.08.59-.26,1.26-.39,2.01-.39s1.39.12,1.97.36c.58.24,1.07.57,1.48,1,.41.43.72.93.93,1.5s.32,1.19.32,1.86c0,.12,0,.24-.01.36,0,.12-.02.24-.03.36h-8.54v-1.32h6.92c-.05-.85-.35-1.53-.89-2.02-.54-.49-1.26-.74-2.15-.74-.49,0-.94.08-1.34.25-.4.17-.74.41-1.02.74-.28.33-.49.72-.64,1.18-.15.46-.22.99-.22,1.59,0,.75.15,1.41.44,1.99.29.58.7,1.04,1.21,1.37.51.33,1.1.5,1.75.5.81,0,1.47-.17,1.98-.51s.84-.83,1-1.47h1.64c-.11.68-.37,1.28-.79,1.79s-.95.91-1.6,1.19c-.65.28-1.39.42-2.23.42Z" fill="#999"/>
    <path d="M1112.88,519.5v-1.38h4.66c.65,0,1.19-.22,1.6-.65.41-.43.62-.99.62-1.67v-1.78c-.24.47-.67.84-1.3,1.13s-1.32.43-2.08.43c-1.04,0-1.92-.23-2.63-.69s-1.26-1.08-1.63-1.87-.56-1.67-.56-2.64c0-.73.11-1.41.32-2.04.21-.63.52-1.18.93-1.66.41-.48.91-.85,1.51-1.11.6-.26,1.29-.39,2.08-.39.44,0,.88.07,1.31.21.43.14.83.33,1.19.58.36.25.65.53.86.85v-1.48h1.6v10.52c0,.72-.15,1.35-.46,1.9-.31.55-.74.97-1.31,1.28s-1.22.46-1.95.46h-4.76ZM1116.56,514.14c.68,0,1.27-.15,1.76-.46.49-.31.88-.74,1.16-1.31.28-.57.42-1.23.42-1.99,0-1.15-.3-2.06-.91-2.74-.61-.68-1.42-1.02-2.43-1.02-.51,0-.96.09-1.37.27-.41.18-.76.43-1.06.76s-.53.72-.68,1.18-.23.98-.23,1.55c0,1.13.3,2.04.91,2.73s1.42,1.03,2.43,1.03Z" fill="#999"/>
    <path d="M1124.28,501.2h1.84v2.24h-1.84v-2.24ZM1124.4,515.42v-10.08h1.6v10.08h-1.6Z" fill="#999"/>
    <path d="M1129.06,515.42v-10.08h1.6v1.94c.28-.69.71-1.22,1.3-1.57s1.27-.53,2.04-.53,1.42.17,1.99.51,1,.81,1.31,1.42c.31.61.46,1.32.46,2.15v6.16h-1.62v-5.9c0-.87-.23-1.56-.68-2.09-.45-.53-1.06-.79-1.82-.79-.59,0-1.1.14-1.55.43-.45.29-.8.68-1.05,1.18-.25.5-.38,1.08-.38,1.73v5.44h-1.6Z" fill="#999"/>
    <path d="M1143.85,515.58c-.79,0-1.47-.13-2.04-.4-.57-.27-1.02-.65-1.35-1.16-.33-.51-.52-1.11-.57-1.82h1.5c.07.63.31,1.12.74,1.47s1,.53,1.72.53c.43,0,.81-.07,1.14-.2.33-.13.59-.33.76-.58.17-.25.26-.55.26-.88,0-.39-.11-.68-.32-.88s-.49-.35-.84-.46c-.35-.11-.73-.19-1.14-.25s-.83-.14-1.26-.23c-.43-.09-.81-.23-1.16-.42-.35-.19-.63-.45-.84-.79-.21-.34-.32-.79-.32-1.35,0-.6.15-1.12.46-1.56s.73-.79,1.26-1.04,1.15-.38,1.84-.38c.77,0,1.43.12,1.98.36.55.24.98.59,1.3,1.06.32.47.51,1.02.56,1.66h-1.52c-.04-.36-.16-.67-.36-.92-.2-.25-.47-.45-.8-.6s-.71-.22-1.14-.22c-.53,0-1,.13-1.41.4-.41.27-.61.65-.61,1.14,0,.37.11.65.32.84.21.19.49.33.84.42.35.09.73.17,1.16.23.43.06.85.14,1.27.23.42.09.8.24,1.15.43.35.19.63.47.84.83.21.36.32.84.32,1.44,0,.48-.08.91-.25,1.28-.17.37-.41.7-.73.97-.32.27-.71.48-1.17.63s-.99.22-1.59.22Z" fill="#999"/>
    <path d="M1157.77,515.58c-.69,0-1.3-.13-1.83-.38-.53-.25-.93-.61-1.22-1.07-.29-.46-.43-.99-.43-1.59,0-.65.16-1.22.49-1.7.33-.48.79-.85,1.39-1.11.6-.26,1.31-.39,2.12-.39h2.34c.21,0,.37-.04.46-.12.09-.08.14-.2.14-.36,0-.68-.24-1.24-.71-1.67-.47-.43-1.14-.65-1.99-.65-.49,0-.94.09-1.34.28-.4.19-.72.43-.97.74-.25.31-.38.65-.41,1.02h-1.54c.07-.67.3-1.25.69-1.76.39-.51.9-.91,1.53-1.2.63-.29,1.31-.44,2.06-.44.88,0,1.64.16,2.27.47.63.31,1.13.75,1.48,1.31.35.56.53,1.21.53,1.96v6.5h-1.6v-1.74c-.19.37-.45.7-.79.99-.34.29-.74.51-1.19.67-.45.16-.95.24-1.48.24ZM1158.01,514.22c1.01,0,1.8-.3,2.37-.89.57-.59.85-1.41.85-2.45v-.22h-2.84c-.73,0-1.33.16-1.78.49s-.68.78-.68,1.37c0,.51.19.92.57,1.23.38.31.88.47,1.51.47Z" fill="#999"/>
    <path d="M1168.93,515.58c-.79,0-1.47-.13-2.04-.4-.57-.27-1.02-.65-1.35-1.16-.33-.51-.52-1.11-.57-1.82h1.5c.07.63.31,1.12.74,1.47s1,.53,1.72.53c.43,0,.81-.07,1.14-.2.33-.13.59-.33.76-.58.17-.25.26-.55.26-.88,0-.39-.11-.68-.32-.88s-.49-.35-.84-.46c-.35-.11-.73-.19-1.14-.25s-.83-.14-1.26-.23c-.43-.09-.81-.23-1.16-.42-.35-.19-.63-.45-.84-.79-.21-.34-.32-.79-.32-1.35,0-.6.15-1.12.46-1.56s.73-.79,1.26-1.04,1.15-.38,1.84-.38c.77,0,1.43.12,1.98.36.55.24.98.59,1.3,1.06.32.47.51,1.02.56,1.66h-1.52c-.04-.36-.16-.67-.36-.92-.2-.25-.47-.45-.8-.6s-.71-.22-1.14-.22c-.53,0-1,.13-1.41.4-.41.27-.61.65-.61,1.14,0,.37.11.65.32.84.21.19.49.33.84.42.35.09.73.17,1.16.23.43.06.85.14,1.27.23.42.09.8.24,1.15.43.35.19.63.47.84.83.21.36.32.84.32,1.44,0,.48-.08.91-.25,1.28-.17.37-.41.7-.73.97-.32.27-.71.48-1.17.63s-.99.22-1.59.22Z" fill="#999"/>
    <path d="M1182.85,515.58c-.69,0-1.3-.13-1.83-.38-.53-.25-.93-.61-1.22-1.07-.29-.46-.43-.99-.43-1.59,0-.65.16-1.22.49-1.7.33-.48.79-.85,1.39-1.11.6-.26,1.31-.39,2.12-.39h2.34c.21,0,.37-.04.46-.12.09-.08.14-.2.14-.36,0-.68-.24-1.24-.71-1.67-.47-.43-1.14-.65-1.99-.65-.49,0-.94.09-1.34.28-.4.19-.72.43-.97.74-.25.31-.38.65-.41,1.02h-1.54c.07-.67.3-1.25.69-1.76.39-.51.9-.91,1.53-1.2.63-.29,1.31-.44,2.06-.44.88,0,1.64.16,2.27.47.63.31,1.13.75,1.48,1.31.35.56.53,1.21.53,1.96v6.5h-1.6v-1.74c-.19.37-.45.7-.79.99-.34.29-.74.51-1.19.67-.45.16-.95.24-1.48.24ZM1183.09,514.22c1.01,0,1.8-.3,2.37-.89.57-.59.85-1.41.85-2.45v-.22h-2.84c-.73,0-1.33.16-1.78.49s-.68.78-.68,1.37c0,.51.19.92.57,1.23.38.31.88.47,1.51.47Z" fill="#999"/>
    <path d="M1195.6,519.5v-14.16h1.6v1.64c.32-.53.79-.97,1.4-1.3.61-.33,1.27-.5,1.98-.5,1.04,0,1.92.23,2.64.69.72.46,1.27,1.08,1.64,1.87.37.79.56,1.67.56,2.64,0,.73-.11,1.41-.32,2.04-.21.63-.52,1.18-.93,1.66s-.91.85-1.51,1.11c-.6.26-1.29.39-2.08.39-.47,0-.92-.08-1.36-.23-.44-.15-.83-.36-1.18-.63s-.63-.59-.84-.96v5.74h-1.6ZM1200.4,514.14c.51,0,.97-.09,1.38-.27.41-.18.77-.43,1.06-.76.29-.33.52-.72.68-1.18s.24-.98.24-1.55c0-1.15-.3-2.06-.91-2.74-.61-.68-1.42-1.02-2.45-1.02-.49,0-.95.09-1.36.27-.41.18-.77.43-1.06.76-.29.33-.52.72-.68,1.18-.16.46-.24.98-.24,1.55,0,1.13.31,2.04.92,2.73s1.42,1.03,2.42,1.03Z" fill="#999"/>
    <path d="M1207.76,515.42v-10.08h1.6v2.04c.23-.69.56-1.21.99-1.54.43-.33,1.02-.5,1.75-.5h1.28v1.42h-1.38c-.68,0-1.21.19-1.59.56-.38.37-.65.88-.81,1.51-.16.63-.24,1.35-.24,2.15v4.44h-1.6Z" fill="#999"/>
    <path d="M1219.22,515.58c-1,0-1.89-.22-2.66-.67s-1.38-1.06-1.81-1.84c-.43-.78-.65-1.68-.65-2.69s.22-1.91.65-2.69c.43-.78,1.04-1.39,1.81-1.84.77-.45,1.66-.67,2.66-.67s1.89.22,2.66.67c.77.45,1.38,1.06,1.82,1.84.44.78.66,1.68.66,2.69s-.22,1.91-.66,2.69c-.44.78-1.05,1.39-1.82,1.84-.77.45-1.66.67-2.66.67ZM1219.22,514.14c.69,0,1.3-.16,1.83-.48s.93-.76,1.22-1.33c.29-.57.43-1.22.43-1.95s-.14-1.38-.43-1.95c-.29-.57-.69-1.01-1.22-1.33s-1.13-.48-1.81-.48-1.3.16-1.83.48-.94.76-1.23,1.33c-.29.57-.44,1.22-.44,1.95s.15,1.38.44,1.95c.29.57.7,1.01,1.23,1.33s1.13.48,1.81.48Z" fill="#999"/>
    <path d="M1224.48,519.5v-1.38h.84c.45,0,.8-.16,1.03-.47.23-.31.35-.76.35-1.35v-10.96h1.6v11.02c0,1.01-.25,1.79-.74,2.33-.49.54-1.21.81-2.14.81h-.94ZM1226.58,501.2h1.84v2.24h-1.84v-2.24Z" fill="#999"/>
    <path d="M1235.63,515.58c-.75,0-1.43-.14-2.04-.41-.61-.27-1.14-.65-1.58-1.14-.44-.49-.78-1.05-1.02-1.69-.24-.64-.36-1.31-.36-2.02s.11-1.41.33-2.04c.22-.63.54-1.17.96-1.63.42-.46.93-.82,1.52-1.08.59-.26,1.26-.39,2.01-.39s1.39.12,1.97.36c.58.24,1.07.57,1.48,1,.41.43.72.93.93,1.5s.32,1.19.32,1.86c0,.12,0,.24-.01.36,0,.12-.02.24-.03.36h-8.54v-1.32h6.92c-.05-.85-.35-1.53-.89-2.02-.54-.49-1.26-.74-2.15-.74-.49,0-.94.08-1.34.25-.4.17-.74.41-1.02.74-.28.33-.49.72-.64,1.18-.15.46-.22.99-.22,1.59,0,.75.15,1.41.44,1.99.29.58.7,1.04,1.21,1.37.51.33,1.1.5,1.75.5.81,0,1.47-.17,1.98-.51s.84-.83,1-1.47h1.64c-.11.68-.37,1.28-.79,1.79s-.95.91-1.6,1.19c-.65.28-1.39.42-2.23.42Z" fill="#999"/>
    <path d="M1246.77,515.58c-1.05,0-1.95-.25-2.68-.74-.73-.49-1.29-1.13-1.66-1.92s-.56-1.63-.56-2.54c0-.68.1-1.33.31-1.95.21-.62.52-1.18.94-1.67s.93-.88,1.54-1.16c.61-.28,1.31-.42,2.11-.42s1.47.14,2.13.42c.66.28,1.21.69,1.65,1.22.44.53.71,1.17.8,1.92h-1.58c-.07-.4-.24-.76-.53-1.08-.29-.32-.64-.57-1.06-.76-.42-.19-.88-.28-1.39-.28-.73,0-1.34.17-1.83.51-.49.34-.85.79-1.08,1.36-.23.57-.35,1.2-.35,1.89s.12,1.31.36,1.88c.24.57.6,1.03,1.09,1.37.49.34,1.09.51,1.81.51.76,0,1.4-.18,1.93-.54.53-.36.88-.84,1.05-1.44h1.56c-.11.68-.36,1.28-.76,1.79-.4.51-.92.91-1.56,1.2-.64.29-1.39.43-2.24.43Z" fill="#999"/>
    <path d="M1257.51,515.42c-.96,0-1.73-.28-2.3-.84s-.86-1.33-.86-2.32v-5.5h-2.1v-1.42h2.1v-3.22h1.6v3.22h3.1v1.42h-3.1v5.46c0,.56.15,1,.44,1.31.29.31.69.47,1.18.47h1.48v1.42h-1.54Z" fill="#999"/>
    <path d="M1260.95,501.2h1.84v2.24h-1.84v-2.24ZM1261.07,515.42v-10.08h1.6v10.08h-1.6Z" fill="#999"/>
    <path d="M1270.15,515.58c-1,0-1.89-.22-2.66-.67s-1.38-1.06-1.81-1.84c-.43-.78-.65-1.68-.65-2.69s.22-1.91.65-2.69c.43-.78,1.04-1.39,1.81-1.84.77-.45,1.66-.67,2.66-.67s1.89.22,2.66.67c.77.45,1.38,1.06,1.82,1.84.44.78.66,1.68.66,2.69s-.22,1.91-.66,2.69c-.44.78-1.05,1.39-1.82,1.84-.77.45-1.66.67-2.66.67ZM1270.15,514.14c.69,0,1.3-.16,1.83-.48s.93-.76,1.22-1.33c.29-.57.43-1.22.43-1.95s-.14-1.38-.43-1.95c-.29-.57-.69-1.01-1.22-1.33s-1.13-.48-1.81-.48-1.3.16-1.83.48-.94.76-1.23,1.33c-.29.57-.44,1.22-.44,1.95s.15,1.38.44,1.95c.29.57.7,1.01,1.23,1.33s1.13.48,1.81.48Z" fill="#999"/>
    <path d="M1277.63,515.42v-10.08h1.6v1.94c.28-.69.71-1.22,1.3-1.57s1.27-.53,2.04-.53,1.42.17,1.99.51,1,.81,1.31,1.42c.31.61.46,1.32.46,2.15v6.16h-1.62v-5.9c0-.87-.23-1.56-.68-2.09-.45-.53-1.06-.79-1.82-.79-.59,0-1.1.14-1.55.43-.45.29-.8.68-1.05,1.18-.25.5-.38,1.08-.38,1.73v5.44h-1.6Z" fill="#999"/>
    <path d="M1298.44,515.58c-1,0-1.89-.22-2.66-.67s-1.38-1.06-1.81-1.84c-.43-.78-.65-1.68-.65-2.69s.22-1.91.65-2.69c.43-.78,1.04-1.39,1.81-1.84.77-.45,1.66-.67,2.66-.67s1.89.22,2.66.67c.77.45,1.38,1.06,1.82,1.84.44.78.66,1.68.66,2.69s-.22,1.91-.66,2.69c-.44.78-1.05,1.39-1.82,1.84-.77.45-1.66.67-2.66.67ZM1298.44,514.14c.69,0,1.3-.16,1.83-.48s.93-.76,1.22-1.33c.29-.57.43-1.22.43-1.95s-.14-1.38-.43-1.95c-.29-.57-.69-1.01-1.22-1.33s-1.13-.48-1.81-.48-1.3.16-1.83.48-.94.76-1.23,1.33c-.29.57-.44,1.22-.44,1.95s.15,1.38.44,1.95c.29.57.7,1.01,1.23,1.33s1.13.48,1.81.48Z" fill="#999"/>
    <path d="M1306.6,515.42v-8.66h-2.1v-1.42h2.1v-1.02c0-.64.13-1.19.39-1.66.26-.47.63-.83,1.1-1.08.47-.25,1.02-.38,1.65-.38h1.58v1.42h-1.52c-.48,0-.87.15-1.16.46-.29.31-.44.73-.44,1.28v.98h3.12v1.42h-3.12v8.66h-1.6Z" fill="#999"/>
    <path d="M1319.82,515.42l-3.06-10.08h1.6l2.22,8,2.48-8h1.56l2.44,8,2.22-8h1.62l-3.06,10.08h-1.54l-2.48-8.02-2.46,8.02h-1.54Z" fill="#999"/>
    <path d="M1332.89,515.42v-14.22h1.6v6.08c.28-.69.71-1.22,1.3-1.57s1.27-.53,2.04-.53,1.42.17,1.99.51,1,.81,1.31,1.42c.31.61.46,1.32.46,2.15v6.16h-1.62v-5.9c0-.87-.23-1.56-.68-2.09-.45-.53-1.06-.79-1.82-.79-.59,0-1.1.14-1.55.43-.45.29-.8.68-1.05,1.18-.25.5-.38,1.08-.38,1.73v5.44h-1.6Z" fill="#999"/>
    <path d="M1347.49,515.58c-.69,0-1.3-.13-1.83-.38-.53-.25-.93-.61-1.22-1.07-.29-.46-.43-.99-.43-1.59,0-.65.16-1.22.49-1.7.33-.48.79-.85,1.39-1.11.6-.26,1.31-.39,2.12-.39h2.34c.21,0,.37-.04.46-.12.09-.08.14-.2.14-.36,0-.68-.24-1.24-.71-1.67-.47-.43-1.14-.65-1.99-.65-.49,0-.94.09-1.34.28-.4.19-.72.43-.97.74-.25.31-.38.65-.41,1.02h-1.54c.07-.67.3-1.25.69-1.76.39-.51.9-.91,1.53-1.2.63-.29,1.31-.44,2.06-.44.88,0,1.64.16,2.27.47.63.31,1.13.75,1.48,1.31.35.56.53,1.21.53,1.96v6.5h-1.6v-1.74c-.19.37-.45.7-.79.99-.34.29-.74.51-1.19.67-.45.16-.95.24-1.48.24ZM1347.73,514.22c1.01,0,1.8-.3,2.37-.89.57-.59.85-1.41.85-2.45v-.22h-2.84c-.73,0-1.33.16-1.78.49s-.68.78-.68,1.37c0,.51.19.92.57,1.23.38.31.88.47,1.51.47Z" fill="#999"/>
    <path d="M1359.29,515.42c-.96,0-1.73-.28-2.3-.84s-.86-1.33-.86-2.32v-5.5h-2.1v-1.42h2.1v-3.22h1.6v3.22h3.1v1.42h-3.1v5.46c0,.56.15,1,.44,1.31.29.31.69.47,1.18.47h1.48v1.42h-1.54Z" fill="#999"/>
    <path d="M1368.85,519.5l1.38-3.84-3.68-10.32h1.66l2.82,8.18,2.8-8.18h1.66l-5.04,14.16h-1.6Z" fill="#999"/>
    <path d="M1381.64,515.58c-1,0-1.89-.22-2.66-.67s-1.38-1.06-1.81-1.84c-.43-.78-.65-1.68-.65-2.69s.22-1.91.65-2.69c.43-.78,1.04-1.39,1.81-1.84.77-.45,1.66-.67,2.66-.67s1.89.22,2.66.67c.77.45,1.38,1.06,1.82,1.84.44.78.66,1.68.66,2.69s-.22,1.91-.66,2.69c-.44.78-1.05,1.39-1.82,1.84-.77.45-1.66.67-2.66.67ZM1381.64,514.14c.69,0,1.3-.16,1.83-.48s.93-.76,1.22-1.33c.29-.57.43-1.22.43-1.95s-.14-1.38-.43-1.95c-.29-.57-.69-1.01-1.22-1.33s-1.13-.48-1.81-.48-1.3.16-1.83.48-.94.76-1.23,1.33c-.29.57-.44,1.22-.44,1.95s.15,1.38.44,1.95c.29.57.7,1.01,1.23,1.33s1.13.48,1.81.48Z" fill="#999"/>
    <path d="M1392.74,515.58c-.75,0-1.4-.17-1.97-.51-.57-.34-1-.82-1.31-1.43-.31-.61-.46-1.33-.46-2.14v-6.16h1.6v5.9c0,.85.23,1.55.69,2.08s1.07.8,1.83.8c.57,0,1.08-.14,1.53-.43.45-.29.8-.68,1.05-1.19.25-.51.38-1.08.38-1.72v-5.44h1.6v10.08h-1.6v-1.94c-.27.69-.69,1.22-1.28,1.57-.59.35-1.27.53-2.06.53Z" fill="#999"/>
    <path d="M1405.4,501.2h1.84v2.24h-1.84v-2.24ZM1405.52,515.42v-10.08h1.6v10.08h-1.6Z" fill="#999"/>
    <path d="M1410.18,515.42v-10.08h1.6v1.94c.28-.69.71-1.22,1.3-1.57s1.27-.53,2.04-.53,1.42.17,1.99.51,1,.81,1.31,1.42c.31.61.46,1.32.46,2.15v6.16h-1.62v-5.9c0-.87-.23-1.56-.68-2.09-.45-.53-1.06-.79-1.82-.79-.59,0-1.1.14-1.55.43-.45.29-.8.68-1.05,1.18-.25.5-.38,1.08-.38,1.73v5.44h-1.6Z" fill="#999"/>
    <path d="M1425.6,515.42c-.96,0-1.73-.28-2.3-.84s-.86-1.33-.86-2.32v-5.5h-2.1v-1.42h2.1v-3.22h1.6v3.22h3.1v1.42h-3.1v5.46c0,.56.15,1,.44,1.31.29.31.69.47,1.18.47h1.48v1.42h-1.54Z" fill="#999"/>
    <path d="M1433.23,515.58c-.75,0-1.43-.14-2.04-.41-.61-.27-1.14-.65-1.58-1.14-.44-.49-.78-1.05-1.02-1.69-.24-.64-.36-1.31-.36-2.02s.11-1.41.33-2.04c.22-.63.54-1.17.96-1.63.42-.46.93-.82,1.52-1.08.59-.26,1.26-.39,2.01-.39s1.39.12,1.97.36c.58.24,1.07.57,1.48,1,.41.43.72.93.93,1.5s.32,1.19.32,1.86c0,.12,0,.24-.01.36,0,.12-.02.24-.03.36h-8.54v-1.32h6.92c-.05-.85-.35-1.53-.89-2.02-.54-.49-1.26-.74-2.15-.74-.49,0-.94.08-1.34.25-.4.17-.74.41-1.02.74-.28.33-.49.72-.64,1.18-.15.46-.22.99-.22,1.59,0,.75.15,1.41.44,1.99.29.58.7,1.04,1.21,1.37.51.33,1.1.5,1.75.5.81,0,1.47-.17,1.98-.51s.84-.83,1-1.47h1.64c-.11.68-.37,1.28-.79,1.79s-.95.91-1.6,1.19c-.65.28-1.39.42-2.23.42Z" fill="#999"/>
    <path d="M1440.17,515.42v-10.08h1.6v1.94c.28-.69.71-1.22,1.3-1.57s1.27-.53,2.04-.53,1.42.17,1.99.51,1,.81,1.31,1.42c.31.61.46,1.32.46,2.15v6.16h-1.62v-5.9c0-.87-.23-1.56-.68-2.09-.45-.53-1.06-.79-1.82-.79-.59,0-1.1.14-1.55.43-.45.29-.8.68-1.05,1.18-.25.5-.38,1.08-.38,1.73v5.44h-1.6Z" fill="#999"/>
    <path d="M1455.91,515.58c-1.04,0-1.92-.23-2.63-.69s-1.26-1.08-1.63-1.87-.56-1.67-.56-2.64c0-.73.11-1.41.32-2.04.21-.63.52-1.18.93-1.66.41-.48.91-.85,1.51-1.11.6-.26,1.29-.39,2.08-.39.71,0,1.37.17,1.98.5.61.33,1.07.77,1.38,1.3v-5.78h1.6v14.22h-1.6v-1.66c-.31.55-.77.99-1.38,1.32-.61.33-1.28.5-2,.5ZM1456.09,514.14c.51,0,.96-.09,1.37-.27.41-.18.76-.43,1.06-.76s.53-.72.68-1.18.23-.98.23-1.55c0-1.15-.3-2.06-.91-2.74-.61-.68-1.42-1.02-2.43-1.02-.51,0-.96.09-1.37.27-.41.18-.76.43-1.06.76s-.53.72-.68,1.18-.23.98-.23,1.55c0,1.13.3,2.04.91,2.73s1.42,1.03,2.43,1.03Z" fill="#999"/>
    <path d="M1472.71,515.42c-.96,0-1.73-.28-2.3-.84s-.86-1.33-.86-2.32v-5.5h-2.1v-1.42h2.1v-3.22h1.6v3.22h3.1v1.42h-3.1v5.46c0,.56.15,1,.44,1.31.29.31.69.47,1.18.47h1.48v1.42h-1.54Z" fill="#999"/>
    <path d="M1480.48,515.58c-1,0-1.89-.22-2.66-.67s-1.38-1.06-1.81-1.84c-.43-.78-.65-1.68-.65-2.69s.22-1.91.65-2.69c.43-.78,1.04-1.39,1.81-1.84.77-.45,1.66-.67,2.66-.67s1.89.22,2.66.67c.77.45,1.38,1.06,1.82,1.84.44.78.66,1.68.66,2.69s-.22,1.91-.66,2.69c-.44.78-1.05,1.39-1.82,1.84-.77.45-1.66.67-2.66.67ZM1480.48,514.14c.69,0,1.3-.16,1.83-.48s.93-.76,1.22-1.33c.29-.57.43-1.22.43-1.95s-.14-1.38-.43-1.95c-.29-.57-.69-1.01-1.22-1.33s-1.13-.48-1.81-.48-1.3.16-1.83.48-.94.76-1.23,1.33c-.29.57-.44,1.22-.44,1.95s.15,1.38.44,1.95c.29.57.7,1.01,1.23,1.33s1.13.48,1.81.48Z" fill="#999"/>
    <path d="M1496.9,515.58c-1.04,0-1.92-.23-2.63-.69s-1.26-1.08-1.63-1.87-.56-1.67-.56-2.64c0-.73.11-1.41.32-2.04.21-.63.52-1.18.93-1.66.41-.48.91-.85,1.51-1.11.6-.26,1.29-.39,2.08-.39.71,0,1.37.17,1.98.5.61.33,1.07.77,1.38,1.3v-5.78h1.6v14.22h-1.6v-1.66c-.31.55-.77.99-1.38,1.32-.61.33-1.28.5-2,.5ZM1497.08,514.14c.51,0,.96-.09,1.37-.27.41-.18.76-.43,1.06-.76s.53-.72.68-1.18.23-.98.23-1.55c0-1.15-.3-2.06-.91-2.74-.61-.68-1.42-1.02-2.43-1.02-.51,0-.96.09-1.37.27-.41.18-.76.43-1.06.76s-.53.72-.68,1.18-.23.98-.23,1.55c0,1.13.3,2.04.91,2.73s1.42,1.03,2.43,1.03Z" fill="#999"/>
    <path d="M1509.34,515.58c-1,0-1.89-.22-2.66-.67s-1.38-1.06-1.81-1.84c-.43-.78-.65-1.68-.65-2.69s.22-1.91.65-2.69c.43-.78,1.04-1.39,1.81-1.84.77-.45,1.66-.67,2.66-.67s1.89.22,2.66.67c.77.45,1.38,1.06,1.82,1.84.44.78.66,1.68.66,2.69s-.22,1.91-.66,2.69c-.44.78-1.05,1.39-1.82,1.84-.77.45-1.66.67-2.66.67ZM1509.34,514.14c.69,0,1.3-.16,1.83-.48s.93-.76,1.22-1.33c.29-.57.43-1.22.43-1.95s-.14-1.38-.43-1.95c-.29-.57-.69-1.01-1.22-1.33s-1.13-.48-1.81-.48-1.3.16-1.83.48-.94.76-1.23,1.33c-.29.57-.44,1.22-.44,1.95s.15,1.38.44,1.95c.29.57.7,1.01,1.23,1.33s1.13.48,1.81.48Z" fill="#999"/>
    <path d="M1516.3,513.56h1.82v1.86h-1.82v-1.86Z" fill="#999"/>
  </g>
  <g>
    <g>
      <path d="M449.74,884c-138.75-13.37-247.22-130.28-247.22-272.54,0-40.01,8.58-78.02,24.01-112.28" fill="none" stroke="#fff" stroke-miterlimit="10" stroke-width="2.05"/>
      <polygon points="231.59 508.74 229.66 509.44 226.26 499.92 217.01 504.02 216.19 502.14 227.44 497.16 231.59 508.74" fill="#fff"/>
    </g>
    <g>
      <path d="M724.25,495.1c16.6,35.32,25.88,74.76,25.88,116.36,0,141.85-107.87,258.51-246.06,272.42" fill="none" stroke="#fff" stroke-miterlimit="10" stroke-width="2.05"/>
      <polygon points="509.85 874.72 511.41 876.05 504.85 883.74 513 889.72 511.79 891.37 501.86 884.09 509.85 874.72" fill="#fff"/>
    </g>
    <g>
      <path d="M252.92,453.11c49.61-69.87,131.19-115.47,223.41-115.47s169.48,43.21,219.41,109.98" fill="none" stroke="#fff" stroke-miterlimit="10" stroke-width="2.05"/>
      <polygon points="684.9 447.46 685.23 445.44 695.2 447.04 696.07 436.97 698.12 437.15 697.06 449.41 684.9 447.46" fill="#fff"/>
    </g>
    <g>
      <path d="M426.52,290.79v-11.67h7.3v1.28h-5.87v3.72h4.78v1.28h-4.78v4.1h6.05v1.28h-7.48Z" fill="#fff"/>
      <path d="M437.55,290.79v-11.67h1.63l6,9.5v-9.5h1.43v11.67h-1.63l-6-9.47v9.47h-1.43Z" fill="#fff"/>
      <path d="M455.81,290.93c-.71,0-1.4-.12-2.06-.38-.66-.25-1.25-.62-1.77-1.12-.52-.49-.93-1.11-1.23-1.86-.31-.74-.46-1.62-.46-2.62,0-.8.1-1.52.3-2.15.2-.63.48-1.19.83-1.67.36-.48.77-.88,1.24-1.19.47-.32.99-.56,1.54-.72.56-.16,1.13-.24,1.73-.24.9,0,1.71.16,2.43.48s1.31.77,1.77,1.34.73,1.24.83,1.99h-1.55c-.1-.51-.31-.96-.62-1.33-.32-.38-.72-.67-1.21-.88s-1.04-.32-1.67-.32c-.47,0-.91.07-1.33.2-.42.13-.8.33-1.15.58-.35.26-.65.57-.9.95-.25.38-.44.81-.58,1.3-.14.49-.21,1.04-.21,1.65,0,1.01.18,1.87.54,2.57.36.7.86,1.23,1.48,1.58.63.36,1.34.53,2.14.53.49,0,.95-.06,1.38-.19.43-.13.82-.31,1.15-.55.33-.24.59-.52.78-.84.19-.32.28-.67.28-1.05,0-.32-.07-.57-.22-.73-.15-.17-.38-.25-.69-.25h-2.63v-1.23h3c.4,0,.75.08,1.04.24.29.16.52.39.68.68.16.29.24.64.24,1.04v4.03h-1.33v-1.77c-.16.27-.36.52-.6.75-.24.23-.53.43-.85.6-.32.17-.68.3-1.08.4-.39.1-.82.15-1.27.15Z" fill="#fff"/>
      <path d="M464.81,290.79v-11.67h1.43v11.67h-1.43ZM466.25,280.41h-1.43v-1.28h1.43v1.28ZM466.25,290.79h-1.43v-1.28h1.43v1.28Z" fill="#fff"/>
      <path d="M470.58,290.79v-11.67h1.63l6,9.5v-9.5h1.43v11.67h-1.63l-6-9.47v9.47h-1.43Z" fill="#fff"/>
      <path d="M483.98,290.79v-11.67h7.3v1.28h-5.87v3.72h4.78v1.28h-4.78v4.1h6.05v1.28h-7.48Z" fill="#fff"/>
      <path d="M495.01,290.79v-11.67h7.3v1.28h-5.87v3.72h4.78v1.28h-4.78v4.1h6.05v1.28h-7.48Z" fill="#fff"/>
      <path d="M506.05,290.79v-11.67h4.43c.77,0,1.43.13,1.98.39.56.26.98.62,1.27,1.09s.44,1.03.44,1.7c0,.8-.19,1.45-.57,1.96-.38.51-.89.88-1.52,1.12-.64.24-1.34.36-2.11.36h-2.5v5.05h-1.43ZM512.71,290.79l-.2-2.82c-.04-.57-.23-1.03-.57-1.39-.33-.36-.77-.54-1.32-.54h-3.42v-1.17h3.55c.61,0,1.14.13,1.6.38.46.26.82.61,1.08,1.07s.42.98.47,1.57l.2,2.9h-1.4ZM507.48,284.76h2.98c.56,0,1-.11,1.33-.32.33-.21.57-.48.72-.82.15-.33.22-.69.22-1.08s-.07-.73-.22-1.06c-.15-.33-.39-.59-.72-.79-.33-.2-.77-.3-1.33-.3h-2.98v4.37Z" fill="#fff"/>
    </g>
    <g>
      <path d="M738.48,784.39v-11.67h4.43c.77,0,1.43.13,1.98.39s.98.62,1.27,1.09c.29.47.44,1.03.44,1.7,0,.8-.19,1.45-.57,1.96-.38.5-.89.88-1.52,1.12-.64.24-1.34.36-2.11.36h-2.5v5.05h-1.43ZM745.15,784.39l-.2-2.82c-.04-.57-.23-1.03-.57-1.39s-.77-.54-1.32-.54h-3.42v-1.17h3.55c.61,0,1.14.13,1.6.38s.82.61,1.08,1.07c.27.46.42.98.47,1.57l.2,2.9h-1.4ZM739.92,778.35h2.98c.56,0,1-.11,1.33-.32.33-.21.57-.48.72-.82.15-.33.22-.69.22-1.08s-.07-.73-.22-1.06c-.15-.33-.39-.59-.72-.79-.33-.2-.77-.3-1.33-.3h-2.98v4.37Z" fill="#fff"/>
      <path d="M750.5,784.39v-11.67h7.3v1.28h-5.87v3.72h4.78v1.28h-4.78v4.1h6.05v1.28h-7.48Z" fill="#fff"/>
      <path d="M766.15,784.52c-.73,0-1.44-.12-2.11-.37s-1.27-.61-1.81-1.11c-.53-.49-.95-1.12-1.26-1.87-.31-.75-.46-1.62-.46-2.62,0-.8.1-1.52.3-2.16.2-.64.48-1.2.83-1.67s.77-.88,1.25-1.19c.48-.32.99-.55,1.54-.71.55-.16,1.12-.23,1.71-.23.84,0,1.62.16,2.32.49.71.33,1.29.77,1.75,1.34.46.57.74,1.21.84,1.93h-1.48c-.07-.48-.26-.9-.59-1.27-.33-.37-.74-.67-1.23-.88-.49-.22-1.04-.33-1.62-.33-.48,0-.93.07-1.36.2s-.81.33-1.15.58c-.34.26-.63.57-.88.95-.24.38-.43.81-.57,1.31s-.2,1.04-.2,1.64c0,1.01.18,1.87.53,2.57.36.7.85,1.23,1.48,1.58.63.36,1.34.53,2.14.53.61,0,1.17-.11,1.67-.32s.91-.51,1.23-.88c.32-.37.51-.8.57-1.27h1.47c-.09.72-.36,1.37-.82,1.93s-1.04,1.01-1.74,1.34c-.71.33-1.49.49-2.36.49Z" fill="#fff"/>
      <path d="M779.73,784.52c-.82,0-1.58-.15-2.27-.44-.69-.29-1.3-.71-1.82-1.25-.52-.54-.92-1.17-1.2-1.9-.28-.73-.42-1.52-.42-2.38,0-.69.09-1.34.27-1.94.18-.61.44-1.15.78-1.64.34-.49.75-.91,1.23-1.27.48-.36,1.01-.63,1.58-.83.58-.19,1.19-.29,1.85-.29.82,0,1.58.15,2.27.44.69.29,1.3.71,1.82,1.25.52.54.92,1.17,1.21,1.9s.43,1.52.43,2.38c0,.69-.09,1.34-.27,1.94-.18.61-.45,1.15-.79,1.64-.34.49-.75.91-1.22,1.27-.47.36-1,.63-1.58.83s-1.2.29-1.87.29ZM779.73,783.24c.5,0,.96-.08,1.39-.23.43-.16.82-.37,1.17-.65.35-.28.65-.61.91-.99.26-.38.45-.81.59-1.29.14-.48.21-.98.21-1.52,0-.9-.18-1.7-.55-2.41-.37-.71-.87-1.26-1.52-1.67-.64-.41-1.38-.61-2.2-.61-.49,0-.95.08-1.38.23-.43.16-.82.37-1.17.65-.35.28-.65.61-.9.99-.25.38-.44.81-.58,1.29s-.21.98-.21,1.52c0,.9.18,1.7.55,2.41.37.71.87,1.26,1.52,1.67.64.41,1.37.61,2.18.61Z" fill="#fff"/>
      <path d="M789.13,784.39v-11.67h4.43c.77,0,1.43.13,1.98.39s.98.62,1.27,1.09c.29.47.44,1.03.44,1.7,0,.8-.19,1.45-.57,1.96-.38.5-.89.88-1.52,1.12-.64.24-1.34.36-2.11.36h-2.5v5.05h-1.43ZM795.8,784.39l-.2-2.82c-.04-.57-.23-1.03-.57-1.39s-.77-.54-1.32-.54h-3.42v-1.17h3.55c.61,0,1.14.13,1.6.38s.82.61,1.08,1.07c.27.46.42.98.47,1.57l.2,2.9h-1.4ZM790.56,778.35h2.98c.56,0,1-.11,1.33-.32.33-.21.57-.48.72-.82.15-.33.22-.69.22-1.08s-.07-.73-.22-1.06c-.15-.33-.39-.59-.72-.79-.33-.2-.77-.3-1.33-.3h-2.98v4.37Z" fill="#fff"/>
      <path d="M801.15,784.39v-11.67h3.43c.82,0,1.59.13,2.29.39.71.26,1.32.64,1.86,1.13.53.5.95,1.1,1.24,1.83.29.72.44,1.55.44,2.48s-.15,1.76-.44,2.48c-.29.72-.71,1.33-1.24,1.82-.53.5-1.15.87-1.86,1.13-.71.26-1.47.39-2.29.39h-3.43ZM802.58,783.1h1.97c.57,0,1.11-.09,1.63-.27s.99-.45,1.41-.81c.42-.36.74-.83.98-1.41.24-.58.36-1.27.36-2.07,0-1.08-.21-1.95-.62-2.62-.41-.67-.95-1.16-1.62-1.47-.67-.31-1.39-.47-2.14-.47h-1.97v9.1Z" fill="#fff"/>
    </g>
    <g>
      <path d="M133.59,784.39v-11.67h4.43c.77,0,1.43.13,1.98.39s.98.62,1.27,1.09c.29.47.44,1.03.44,1.7,0,.8-.19,1.45-.57,1.96-.38.5-.89.88-1.52,1.12-.64.24-1.34.36-2.11.36h-2.5v5.05h-1.43ZM140.25,784.39l-.2-2.82c-.04-.57-.23-1.03-.57-1.39s-.77-.54-1.32-.54h-3.42v-1.17h3.55c.61,0,1.14.13,1.6.38s.82.61,1.08,1.07c.27.46.42.98.47,1.57l.2,2.9h-1.4ZM135.02,778.35h2.98c.56,0,1-.11,1.33-.32.33-.21.57-.48.72-.82.15-.33.22-.69.22-1.08s-.07-.73-.22-1.06c-.15-.33-.39-.59-.72-.79-.33-.2-.77-.3-1.33-.3h-2.98v4.37Z" fill="#fff"/>
      <path d="M145.6,784.39v-11.67h7.3v1.28h-5.87v3.72h4.78v1.28h-4.78v4.1h6.05v1.28h-7.48Z" fill="#fff"/>
      <path d="M159.89,784.39l-4.42-11.67h1.47l3.67,10.02,3.7-10.02h1.45l-4.42,11.67h-1.45Z" fill="#fff"/>
      <path d="M168.92,784.39v-11.67h7.3v1.28h-5.87v3.72h4.78v1.28h-4.78v4.1h6.05v1.28h-7.48Z" fill="#fff"/>
      <path d="M178.74,784.39l4.65-11.67h1.3l4.63,11.67h-1.48l-3.8-9.92-3.82,9.92h-1.48ZM181.02,781.24l.3-1.27h5.42l.3,1.27h-6.02Z" fill="#fff"/>
      <path d="M192.45,784.39v-11.67h1.43v10.38h5.83v1.28h-7.27Z" fill="#fff"/>
    </g>
    <text transform="translate(390.62 604.71)" fill="#fff" font-family="SeasonMixTRIAL-Regular, &apos;Season Mix TRIAL&apos;" font-size="27.33"><tspan x="0" y="0">Time Creation</tspan><tspan x="50.31" y="27.33">Cycle</tspan></text>
  </g>
  <g>
    <path d="M1043.49,331.52c-1.39,0-2.53-.31-3.41-.95s-1.52-1.56-1.92-2.77c-.4-1.22-.6-2.72-.6-4.49v-1.39c0-1.77.2-3.27.6-4.49.4-1.22,1.04-2.14,1.92-2.77.88-.63,2.02-.95,3.41-.95h.87c1.43,0,2.57.32,3.43.95.86.63,1.5,1.55,1.9,2.77.41,1.22.61,2.72.61,4.49v1.39c0,1.77-.2,3.27-.61,4.49-.41,1.22-1.04,2.14-1.9,2.77s-2.01.95-3.43.95h-.87ZM1044.33,329.61c.91,0,1.65-.22,2.2-.67s.97-1.12,1.24-2.02c.27-.9.41-2.02.41-3.36v-1.89c0-1.36-.14-2.48-.41-3.37-.27-.89-.69-1.55-1.24-2-.56-.45-1.29-.67-2.2-.67h-.77c-.9,0-1.63.22-2.2.67-.57.45-.99,1.12-1.26,2-.27.89-.4,2.01-.4,3.37v1.89c0,1.34.13,2.46.4,3.36.26.9.68,1.57,1.26,2.02s1.31.67,2.2.67h.77Z" fill="#fff"/>
    <path d="M1057.69,313.91v17.41h-2.11v-13.78c-.08.12-.2.22-.36.32-.16.1-.34.17-.55.21-.21.04-.43.06-.66.06h-1.67v-1.92h1.42c.56,0,1-.15,1.31-.46.31-.31.49-.92.56-1.85h2.06ZM1055.58,329.41h2.11v1.92h-2.11v-1.92Z" fill="#fff"/>
  </g>
  <text transform="translate(1031.94 407.95)" fill="#fff" font-family="SeasonMixTRIAL-Regular, &apos;Season Mix TRIAL&apos;" font-size="67.51"><tspan x="0" y="0">Engineer</tspan></text>
  <text transform="translate(1093.81 622)" fill="#fff" font-family="SeasonMixTRIAL-Regular, &apos;Season Mix TRIAL&apos;" font-size="24.88"><tspan x="0" y="0">Set your pillar intentions (Work/Life/Health/Sleep split) </tspan><tspan x="0" y="67.51">Create Time Blocks with tags (Activities, People, Places) </tspan><tspan x="0" y="135.02">Favorites — place your most-used blocks in one touch </tspan><tspan x="0" y="202.53">Recurring blocks = your Rhythm</tspan></text>
  <rect x="1028.93" y="601.13" width="7.16" height="19.27" fill="#fff"/>
  <rect x="1040.34" y="593.66" width="7.16" height="26.74" fill="#fff"/>
  <rect x="1052.2" y="603.74" width="7.16" height="16.67" fill="#fff"/>
  <rect x="1063.71" y="598.1" width="7.16" height="22.3" fill="#fff"/>
  <rect x="1028.02" y="673.7" width="11.78" height="11.78" fill="#fff" opacity=".8" stroke="#fff" stroke-miterlimit="10" stroke-width="1.03"/>
  <rect x="1043.63" y="673.7" width="11.78" height="11.78" fill="#fff" stroke="#fff" stroke-miterlimit="10" stroke-width="1.03"/>
  <rect x="1059.25" y="673.7" width="11.78" height="11.78" fill="#fff" opacity=".6" stroke="#fff" stroke-miterlimit="10" stroke-width="1.03"/>
  <rect x="1028.02" y="742.37" width="11.78" height="11.78" fill="none" opacity=".8" stroke="#fff" stroke-miterlimit="10" stroke-width="1.03"/>
  <g>
    <polyline points="1055.41 753.71 1055.41 754.15 1054.97 754.15" fill="none" stroke="#fff" stroke-miterlimit="10" stroke-width="1.03"/>
    <line x1="1054.14" y1="754.15" x2="1044.49" y2="754.15" fill="none" stroke="#fff" stroke-dasharray=".84 .84" stroke-miterlimit="10" stroke-width="1.03"/>
    <polyline points="1044.07 754.15 1043.63 754.15 1043.63 753.71" fill="none" stroke="#fff" stroke-miterlimit="10" stroke-width="1.03"/>
    <line x1="1043.63" y1="752.87" x2="1043.63" y2="743.23" fill="none" stroke="#fff" stroke-dasharray=".84 .84" stroke-miterlimit="10" stroke-width="1.03"/>
    <polyline points="1043.63 742.81 1043.63 742.37 1044.07 742.37" fill="none" stroke="#fff" stroke-miterlimit="10" stroke-width="1.03"/>
    <line x1="1044.91" y1="742.37" x2="1054.56" y2="742.37" fill="none" stroke="#fff" stroke-dasharray=".84 .84" stroke-miterlimit="10" stroke-width="1.03"/>
    <polyline points="1054.97 742.37 1055.41 742.37 1055.41 742.81" fill="none" stroke="#fff" stroke-miterlimit="10" stroke-width="1.03"/>
    <line x1="1055.41" y1="743.65" x2="1055.41" y2="753.29" fill="none" stroke="#fff" stroke-dasharray=".84 .84" stroke-miterlimit="10" stroke-width="1.03"/>
  </g>
  <g opacity=".6">
    <g>
      <polyline points="1071.03 753.71 1071.03 754.15 1070.59 754.15" fill="none" stroke="#fff" stroke-miterlimit="10" stroke-width="1.03"/>
      <line x1="1069.75" y1="754.15" x2="1060.1" y2="754.15" fill="none" stroke="#fff" stroke-dasharray=".84 .84" stroke-miterlimit="10" stroke-width="1.03"/>
      <polyline points="1059.68 754.15 1059.25 754.15 1059.25 753.71" fill="none" stroke="#fff" stroke-miterlimit="10" stroke-width="1.03"/>
      <line x1="1059.25" y1="752.87" x2="1059.25" y2="743.23" fill="none" stroke="#fff" stroke-dasharray=".84 .84" stroke-miterlimit="10" stroke-width="1.03"/>
      <polyline points="1059.25 742.81 1059.25 742.37 1059.68 742.37" fill="none" stroke="#fff" stroke-miterlimit="10" stroke-width="1.03"/>
      <line x1="1060.52" y1="742.37" x2="1070.17" y2="742.37" fill="none" stroke="#fff" stroke-dasharray=".84 .84" stroke-miterlimit="10" stroke-width="1.03"/>
      <polyline points="1070.59 742.37 1071.03 742.37 1071.03 742.81" fill="none" stroke="#fff" stroke-miterlimit="10" stroke-width="1.03"/>
      <line x1="1071.03" y1="743.65" x2="1071.03" y2="753.29" fill="none" stroke="#fff" stroke-dasharray=".84 .84" stroke-miterlimit="10" stroke-width="1.03"/>
    </g>
  </g>
  <rect x="1028.02" y="809.71" width="11.78" height="11.78" fill="none" opacity=".8" stroke="#fff" stroke-miterlimit="10" stroke-width="1.03"/>
  <rect x="1043.63" y="809.71" width="11.78" height="11.78" fill="none" opacity=".8" stroke="#fff" stroke-miterlimit="10" stroke-width="1.03"/>
  <rect x="1059.25" y="809.71" width="11.78" height="11.78" fill="none" opacity=".8" stroke="#fff" stroke-miterlimit="10" stroke-width="1.03"/>
</svg>