<svg width="143" height="40" viewBox="0 0 143 40" fill="none" xmlns="http://www.w3.org/2000/svg">
<rect width="143" height="40" fill="#992E7D"/>
<path d="M53.1262 25.096C51.1102 25.096 50.0182 23.968 49.8982 22.252H50.9182C51.0262 23.416 51.6862 24.172 53.1262 24.172C54.2902 24.172 55.1062 23.728 55.1062 22.708C55.1062 20.452 50.1862 21.844 50.1862 18.736C50.1862 17.404 51.3502 16.504 53.0422 16.504C54.7102 16.504 55.8742 17.476 56.0062 18.988H54.9982C54.9022 18.04 54.1582 17.428 53.0422 17.428C51.9022 17.428 51.2182 17.932 51.2182 18.736C51.2182 20.98 56.1742 19.456 56.1742 22.708C56.1742 24.232 54.8782 25.096 53.1262 25.096ZM59.0436 25V16.6H60.0756V24.076H64.2636V25H59.0436ZM66.9374 25V16.6H72.2414V17.524H67.9694V20.2H71.4614V21.124H67.9694V24.076H72.3734V25H66.9374ZM75.1865 25V16.6H80.4905V17.524H76.2185V20.2H79.7105V21.124H76.2185V24.076H80.6225V25H75.1865ZM83.3156 25V16.6H86.4716C88.1276 16.6 89.1476 17.608 89.1476 19.084C89.1476 20.56 88.1276 21.568 86.4716 21.568H84.3356V25H83.3156ZM86.4596 20.656C87.6476 20.656 88.0916 19.912 88.0916 19.084C88.0916 18.256 87.6476 17.512 86.4596 17.512H84.3356V20.656H86.4596Z" fill="white"/>
</svg>
