<?xml version="1.0" encoding="UTF-8"?>
<svg id="Layer_1" xmlns="http://www.w3.org/2000/svg" version="1.1" viewBox="0 0 574.6 470.67">
  <!-- Generator: Adobe Illustrator 30.2.1, SVG Export Plug-In . SVG Version: 2.1.1 Build 1)  -->
  <g>
    <path id="arc-reveal" d="M273.88,444.5c-92.15-8.88-164.19-86.53-164.19-181,0-26.57,5.7-51.81,15.94-74.57" fill="none" stroke="#fff" stroke-miterlimit="10" stroke-width="1.36"/>
    <polygon points="129.01 195.28 127.72 195.74 125.46 189.42 119.32 192.14 118.77 190.89 126.25 187.58 129.01 195.28" fill="#fff"/>
  </g>
  <g>
    <path id="arc-engineer" d="M456.2,186.21c11.03,23.45,17.19,49.65,17.19,77.28,0,94.21-71.64,171.69-163.42,180.93" fill="none" stroke="#fff" stroke-miterlimit="10" stroke-width="1.36"/>
    <polygon points="313.81 438.34 314.84 439.22 310.49 444.33 315.9 448.3 315.1 449.4 308.5 444.56 313.81 438.34" fill="#fff"/>
  </g>
  <g>
    <path id="arc-record" d="M143.17,158.33c32.95-46.41,87.13-76.69,148.37-76.69s112.56,28.7,145.72,73.04" fill="none" stroke="#fff" stroke-miterlimit="10" stroke-width="1.36"/>
    <polygon points="430.07 154.58 430.28 153.23 436.91 154.3 437.49 147.61 438.84 147.73 438.14 155.87 430.07 154.58" fill="#fff"/>
  </g>
  <g id="label-engineer">
    <path d="M246.11,34.19v-10.64h6.66v1.17h-5.35v3.39h4.36v1.17h-4.36v3.74h5.52v1.17h-6.83Z" fill="#fff"/>
    <path d="M256.18,34.19v-10.64h1.49l5.47,8.66v-8.66h1.31v10.64h-1.49l-5.47-8.63v8.63h-1.31Z" fill="#fff"/>
    <path d="M272.84,34.31c-.65,0-1.27-.11-1.88-.34-.6-.23-1.14-.57-1.61-1.02-.47-.45-.85-1.02-1.12-1.69s-.42-1.47-.42-2.39c0-.73.09-1.38.27-1.96.18-.58.44-1.08.76-1.52.32-.44.7-.8,1.13-1.09.43-.29.9-.51,1.41-.65.51-.15,1.03-.22,1.58-.22.82,0,1.56.15,2.22.44.66.29,1.2.7,1.61,1.22.42.52.67,1.13.76,1.82h-1.41c-.09-.47-.28-.87-.57-1.22-.29-.34-.66-.61-1.1-.81s-.95-.29-1.52-.29c-.43,0-.83.06-1.21.18-.38.12-.73.3-1.05.53-.32.23-.59.52-.82.87-.23.34-.41.74-.53,1.19-.13.45-.19.95-.19,1.5,0,.92.16,1.7.49,2.34.33.64.78,1.12,1.35,1.44.57.32,1.22.49,1.95.49.45,0,.87-.06,1.26-.17.4-.12.74-.28,1.05-.5s.54-.47.71-.77.26-.61.26-.96c0-.29-.07-.52-.21-.67-.14-.15-.35-.23-.63-.23h-2.4v-1.12h2.74c.36,0,.68.07.95.22.27.15.48.35.62.62s.22.58.22.95v3.68h-1.22v-1.61c-.14.24-.32.47-.55.68-.22.21-.48.4-.77.55-.29.15-.62.27-.98.36-.36.09-.75.14-1.16.14Z" fill="#fff"/>
    <path d="M281.04,34.19v-10.64h1.31v10.64h-1.31ZM282.35,24.72h-1.31v-1.17h1.31v1.17ZM282.35,34.19h-1.31v-1.17h1.31v1.17Z" fill="#fff"/>
    <path d="M286.3,34.19v-10.64h1.49l5.47,8.66v-8.66h1.31v10.64h-1.49l-5.47-8.63v8.63h-1.31Z" fill="#fff"/>
    <path d="M298.52,34.19v-10.64h6.66v1.17h-5.35v3.39h4.36v1.17h-4.36v3.74h5.52v1.17h-6.83Z" fill="#fff"/>
    <path d="M308.59,34.19v-10.64h6.66v1.17h-5.35v3.39h4.36v1.17h-4.36v3.74h5.52v1.17h-6.83Z" fill="#fff"/>
    <path d="M318.65,34.19v-10.64h4.04c.7,0,1.3.12,1.81.36.51.24.89.57,1.16,1s.4.94.4,1.55c0,.73-.17,1.33-.52,1.79-.34.46-.81.8-1.39,1.02-.58.22-1.22.33-1.92.33h-2.28v4.61h-1.31ZM324.73,34.19l-.18-2.57c-.04-.52-.21-.94-.52-1.27-.3-.33-.7-.49-1.2-.49h-3.12v-1.06h3.24c.56,0,1.04.12,1.46.35.42.23.75.56.99.97s.38.89.43,1.43l.18,2.65h-1.28ZM319.96,28.69h2.72c.51,0,.91-.1,1.21-.29.3-.19.52-.44.65-.74.14-.3.21-.63.21-.99s-.07-.67-.21-.97c-.14-.3-.35-.54-.65-.72-.3-.18-.7-.27-1.21-.27h-2.72v3.98Z" fill="#fff"/>
  </g>
  <g id="label-record">
    <path d="M482.33,400.36v-10.64h4.04c.7,0,1.3.12,1.81.36s.89.57,1.16,1,.4.94.4,1.55c0,.73-.17,1.33-.52,1.79s-.81.8-1.39,1.02c-.58.22-1.22.33-1.92.33h-2.28v4.61h-1.31ZM488.41,400.36l-.18-2.57c-.04-.52-.21-.94-.52-1.27-.3-.33-.7-.49-1.2-.49h-3.12v-1.06h3.24c.56,0,1.04.12,1.46.35.42.23.74.56.99.97.24.42.39.89.43,1.43l.18,2.65h-1.28ZM483.64,394.85h2.72c.51,0,.91-.1,1.21-.29.3-.19.52-.44.65-.74.14-.3.21-.63.21-.99s-.07-.67-.21-.97c-.14-.3-.35-.54-.65-.72-.3-.18-.7-.27-1.21-.27h-2.72v3.98Z" fill="#fff"/>
    <path d="M493.29,400.36v-10.64h6.66v1.17h-5.35v3.39h4.36v1.17h-4.36v3.74h5.52v1.17h-6.83Z" fill="#fff"/>
    <path d="M507.57,400.48c-.67,0-1.31-.11-1.92-.33s-1.16-.56-1.65-1.01-.87-1.02-1.15-1.7c-.28-.68-.42-1.48-.42-2.39,0-.73.09-1.39.27-1.97.18-.58.44-1.09.76-1.53s.7-.8,1.14-1.09c.44-.29.9-.5,1.41-.65.5-.14,1.02-.21,1.56-.21.77,0,1.48.15,2.12.45s1.18.71,1.6,1.22c.42.52.68,1.1.77,1.76h-1.35c-.06-.44-.24-.82-.54-1.16-.3-.34-.67-.61-1.12-.8-.45-.2-.95-.3-1.48-.3-.44,0-.85.06-1.24.18-.39.12-.74.3-1.05.53-.31.23-.58.52-.8.87-.22.34-.4.74-.52,1.19-.12.45-.18.95-.18,1.5,0,.92.16,1.7.49,2.34.32.64.77,1.12,1.34,1.44s1.22.49,1.95.49c.56,0,1.06-.1,1.52-.3.46-.2.83-.47,1.12-.81.29-.34.46-.73.52-1.16h1.34c-.08.66-.33,1.25-.75,1.76-.42.52-.95.92-1.59,1.22s-1.36.45-2.15.45Z" fill="#fff"/>
    <path d="M519.96,400.48c-.75,0-1.44-.13-2.08-.4-.63-.27-1.19-.65-1.66-1.14-.47-.49-.84-1.07-1.09-1.73-.26-.66-.39-1.39-.39-2.17,0-.63.08-1.22.25-1.77.17-.55.4-1.05.71-1.5.31-.45.68-.83,1.12-1.16.44-.32.92-.57,1.44-.75.53-.18,1.09-.27,1.69-.27.75,0,1.44.13,2.07.4.63.27,1.19.65,1.66,1.14.47.49.84,1.07,1.1,1.73s.4,1.39.4,2.17c0,.63-.08,1.22-.25,1.77-.17.55-.41,1.05-.72,1.5-.31.45-.69.83-1.12,1.16-.43.33-.91.58-1.44.75-.53.18-1.09.27-1.7.27ZM519.96,399.31c.46,0,.88-.07,1.27-.21.39-.14.75-.34,1.06-.59s.59-.55.83-.9.41-.74.54-1.18c.13-.44.19-.9.19-1.38,0-.82-.17-1.55-.5-2.2-.33-.64-.8-1.15-1.38-1.52s-1.26-.55-2.01-.55c-.45,0-.87.07-1.26.21-.4.14-.75.34-1.07.59s-.59.55-.82.9c-.23.35-.41.74-.53,1.18-.13.44-.19.9-.19,1.38,0,.82.17,1.55.5,2.2.33.64.8,1.15,1.38,1.52.59.37,1.25.55,1.99.55Z" fill="#fff"/>
    <path d="M528.53,400.36v-10.64h4.04c.7,0,1.3.12,1.81.36s.89.57,1.16,1,.4.94.4,1.55c0,.73-.17,1.33-.52,1.79s-.81.8-1.39,1.02c-.58.22-1.22.33-1.92.33h-2.28v4.61h-1.31ZM534.61,400.36l-.18-2.57c-.04-.52-.21-.94-.52-1.27-.3-.33-.7-.49-1.2-.49h-3.12v-1.06h3.24c.56,0,1.04.12,1.46.35.42.23.74.56.99.97.24.42.39.89.43,1.43l.18,2.65h-1.28ZM529.84,394.85h2.72c.51,0,.91-.1,1.21-.29.3-.19.52-.44.65-.74.14-.3.21-.63.21-.99s-.07-.67-.21-.97c-.14-.3-.35-.54-.65-.72-.3-.18-.7-.27-1.21-.27h-2.72v3.98Z" fill="#fff"/>
    <path d="M539.49,400.36v-10.64h3.13c.75,0,1.45.12,2.09.36.64.24,1.21.58,1.69,1.03.49.45.86,1.01,1.13,1.67.27.66.4,1.41.4,2.26s-.13,1.61-.4,2.26c-.27.66-.65,1.21-1.13,1.67-.49.45-1.05.79-1.69,1.03-.64.24-1.34.36-2.09.36h-3.13ZM540.8,399.18h1.79c.52,0,1.01-.08,1.49-.24.48-.16.9-.41,1.28-.74.38-.33.68-.76.9-1.28.22-.53.33-1.16.33-1.88,0-.98-.19-1.78-.56-2.39-.38-.61-.87-1.05-1.48-1.34-.61-.28-1.26-.42-1.95-.42h-1.79v8.3Z" fill="#fff"/>
  </g>
  <g id="label-reveal">
    <path d="M27.26,400.36v-10.64h4.04c.7,0,1.3.12,1.81.36s.89.57,1.16,1,.4.94.4,1.55c0,.73-.17,1.33-.52,1.79-.34.46-.81.8-1.39,1.02-.58.22-1.22.33-1.92.33h-2.28v4.61h-1.31ZM33.34,400.36l-.18-2.57c-.04-.52-.21-.94-.52-1.27-.3-.33-.7-.49-1.2-.49h-3.12v-1.06h3.24c.56,0,1.04.12,1.46.35.42.23.74.56.99.97.24.42.39.89.43,1.43l.18,2.65h-1.28ZM28.56,394.85h2.72c.51,0,.91-.1,1.21-.29.3-.19.52-.44.65-.74.14-.3.21-.63.21-.99s-.07-.67-.21-.97c-.14-.3-.35-.54-.65-.72-.3-.18-.7-.27-1.21-.27h-2.72v3.98Z" fill="#fff"/>
    <path d="M38.22,400.36v-10.64h6.66v1.17h-5.35v3.39h4.36v1.17h-4.36v3.74h5.52v1.17h-6.83Z" fill="#fff"/>
    <path d="M51.24,400.36l-4.03-10.64h1.34l3.34,9.14,3.37-9.14h1.32l-4.03,10.64h-1.32Z" fill="#fff"/>
    <path d="M59.48,400.36v-10.64h6.66v1.17h-5.35v3.39h4.36v1.17h-4.36v3.74h5.52v1.17h-6.83Z" fill="#fff"/>
    <path d="M68.44,400.36l4.24-10.64h1.19l4.23,10.64h-1.35l-3.47-9.04-3.48,9.04h-1.35ZM70.52,397.48l.27-1.16h4.94l.27,1.16h-5.49Z" fill="#fff"/>
    <path d="M80.94,400.36v-10.64h1.31v9.47h5.32v1.17h-6.63Z" fill="#fff"/>
  </g>
  <text transform="translate(213.37 257.48)" fill="#fff" font-family="SeasonMixTRIAL-Regular, &apos;Season Mix TRIAL&apos;" font-size="24.92"><tspan x="0" y="0">Time Creation</tspan><tspan x="45.89" y="24.92">Cycle</tspan></text>
</svg>