<svg width="15" height="15" viewBox="0 0 15 15" fill="none" xmlns="http://www.w3.org/2000/svg">
<path d="M10.5385 11.1281L11.1281 10.5385L7.91667 7.32646V3.33333H7.08333V7.67313L10.5385 11.1281ZM7.50271 15C6.46562 15 5.49056 14.8032 4.5775 14.4096C3.66458 14.016 2.87042 13.4818 2.195 12.8071C1.51958 12.1324 0.98493 11.3389 0.591042 10.4267C0.197014 9.51458 0 8.53993 0 7.50271C0 6.46562 0.196805 5.49056 0.590417 4.5775C0.984028 3.66458 1.51819 2.87042 2.19292 2.195C2.86764 1.51958 3.66111 0.98493 4.57333 0.591042C5.48542 0.197014 6.46007 0 7.49729 0C8.53437 0 9.50944 0.196806 10.4225 0.590417C11.3354 0.984028 12.1296 1.51819 12.805 2.19292C13.4804 2.86764 14.0151 3.66111 14.409 4.57333C14.803 5.48542 15 6.46007 15 7.49729C15 8.53437 14.8032 9.50944 14.4096 10.4225C14.016 11.3354 13.4818 12.1296 12.8071 12.805C12.1324 13.4804 11.3389 14.0151 10.4267 14.409C9.51458 14.803 8.53993 15 7.50271 15ZM7.5 14.1667C9.34722 14.1667 10.9201 13.5174 12.2188 12.2188C13.5174 10.9201 14.1667 9.34722 14.1667 7.5C14.1667 5.65278 13.5174 4.07986 12.2188 2.78125C10.9201 1.48264 9.34722 0.833333 7.5 0.833333C5.65278 0.833333 4.07986 1.48264 2.78125 2.78125C1.48264 4.07986 0.833333 5.65278 0.833333 7.5C0.833333 9.34722 1.48264 10.9201 2.78125 12.2188C4.07986 13.5174 5.65278 14.1667 7.5 14.1667Z" fill="white"/>
</svg>
