<svg width="14" height="14" viewBox="0 0 14 14" fill="none" xmlns="http://www.w3.org/2000/svg">
<path d="M3.10896 10.4167H3.94229V5.41667H3.10896V10.4167ZM6.25 10.4167H7.08333V2.91667H6.25V10.4167ZM9.39104 10.4167H10.2244V7.91667H9.39104V10.4167ZM1.34625 13.3333C0.962639 13.3333 0.642361 13.2049 0.385417 12.9479C0.128472 12.691 0 12.3707 0 11.9871V1.34625C0 0.962639 0.128472 0.642361 0.385417 0.385417C0.642361 0.128472 0.962639 0 1.34625 0H11.9871C12.3707 0 12.691 0.128472 12.9479 0.385417C13.2049 0.642361 13.3333 0.962639 13.3333 1.34625V11.9871C13.3333 12.3707 13.2049 12.691 12.9479 12.9479C12.691 13.2049 12.3707 13.3333 11.9871 13.3333H1.34625ZM1.34625 12.5H11.9871C12.1154 12.5 12.233 12.4466 12.3398 12.3398C12.4466 12.233 12.5 12.1154 12.5 11.9871V1.34625C12.5 1.21792 12.4466 1.10035 12.3398 0.993542C12.233 0.886736 12.1154 0.833333 11.9871 0.833333H1.34625C1.21792 0.833333 1.10035 0.886736 0.993542 0.993542C0.886736 1.10035 0.833333 1.21792 0.833333 1.34625V11.9871C0.833333 12.1154 0.886736 12.233 0.993542 12.3398C1.10035 12.4466 1.21792 12.5 1.34625 12.5Z" fill="white"/>
</svg>
