<svg width="12" height="16" viewBox="0 0 12 16" fill="none" xmlns="http://www.w3.org/2000/svg">
<path d="M5.91646 7.27563C6.28743 7.27563 6.60403 7.14354 6.86625 6.87938C7.12861 6.61521 7.25979 6.29764 7.25979 5.92667C7.25979 5.55569 7.12764 5.23903 6.86333 4.97667C6.59917 4.71444 6.2816 4.58333 5.91062 4.58333C5.53965 4.58333 5.22306 4.71542 4.96083 4.97958C4.69847 5.24375 4.56729 5.56132 4.56729 5.93229C4.56729 6.30326 4.69944 6.61993 4.96375 6.88229C5.22792 7.14451 5.54549 7.27563 5.91646 7.27563ZM5.91354 13.8975C7.47979 12.5342 8.71806 11.1476 9.62833 9.73792C10.5386 8.3282 10.9937 7.10896 10.9937 6.08021C10.9937 4.55562 10.5111 3.29729 9.54583 2.30521C8.58056 1.31326 7.36979 0.817291 5.91354 0.817291C4.45729 0.817291 3.24653 1.31326 2.28125 2.30521C1.31597 3.29729 0.833333 4.55562 0.833333 6.08021C0.833333 7.10896 1.28847 8.3282 2.19875 9.73792C3.10903 11.1476 4.34729 12.5342 5.91354 13.8975ZM5.91354 15.016C3.95521 13.2842 2.48007 11.6691 1.48812 10.1706C0.496041 8.67229 0 7.30882 0 6.08021C0 4.31729 0.574028 2.86319 1.72208 1.71792C2.87 0.572639 4.26715 0 5.91354 0C7.55993 0 8.95708 0.572639 10.105 1.71792C11.2531 2.86319 11.8271 4.31729 11.8271 6.08021C11.8271 7.30882 11.331 8.67229 10.339 10.1706C9.34701 11.6691 7.87187 13.2842 5.91354 15.016Z" fill="white"/>
</svg>
