<svg width="12" height="12" viewBox="0 0 12 12" fill="none" xmlns="http://www.w3.org/2000/svg">
<path d="M5.83333 5C5.14583 5 4.55729 4.75521 4.06771 4.26562C3.57813 3.77604 3.33333 3.1875 3.33333 2.5C3.33333 1.8125 3.57813 1.22396 4.06771 0.734375C4.55729 0.244792 5.14583 0 5.83333 0C6.52083 0 7.10938 0.244792 7.59896 0.734375C8.08854 1.22396 8.33333 1.8125 8.33333 2.5C8.33333 3.1875 8.08854 3.77604 7.59896 4.26562C7.10938 4.75521 6.52083 5 5.83333 5ZM0 11.0258V9.65396C0 9.30993 0.100139 8.98806 0.300417 8.68833C0.500833 8.38875 0.770347 8.15611 1.10896 7.99042C1.89535 7.61333 2.68222 7.33049 3.46958 7.14188C4.25694 6.9534 5.04486 6.85917 5.83333 6.85917C6.62181 6.85917 7.40972 6.9534 8.19708 7.14188C8.98445 7.33049 9.77132 7.61333 10.5577 7.99042C10.8963 8.15611 11.1658 8.38875 11.3663 8.68833C11.5665 8.98806 11.6667 9.30993 11.6667 9.65396V11.0258H0ZM0.833333 10.1925H10.8333V9.65396C10.8333 9.4691 10.7738 9.29549 10.6546 9.13312C10.5356 8.97076 10.3708 8.83347 10.1602 8.72125C9.47438 8.38903 8.76722 8.13451 8.03875 7.95771C7.31028 7.7809 6.57514 7.6925 5.83333 7.6925C5.09153 7.6925 4.35639 7.7809 3.62792 7.95771C2.89944 8.13451 2.19229 8.38903 1.50646 8.72125C1.2959 8.83347 1.13111 8.97076 1.01208 9.13312C0.892917 9.29549 0.833333 9.4691 0.833333 9.65396V10.1925ZM5.83333 4.16667C6.29167 4.16667 6.68403 4.00347 7.01042 3.67708C7.33681 3.35069 7.5 2.95833 7.5 2.5C7.5 2.04167 7.33681 1.64931 7.01042 1.32292C6.68403 0.996528 6.29167 0.833333 5.83333 0.833333C5.375 0.833333 4.98264 0.996528 4.65625 1.32292C4.32986 1.64931 4.16667 2.04167 4.16667 2.5C4.16667 2.95833 4.32986 3.35069 4.65625 3.67708C4.98264 4.00347 5.375 4.16667 5.83333 4.16667Z" fill="white"/>
</svg>
