<svg width="143" height="40" viewBox="0 0 143 40" fill="none" xmlns="http://www.w3.org/2000/svg">
<rect width="143" height="40" fill="#2F499D"/>
<path d="M53.9251 25L52.1491 16.6H53.1211L54.4891 23.236L56.0131 16.6H56.8171L58.3291 23.236L59.7211 16.6H60.6811L58.9171 25H57.8731L56.4091 18.616L54.9571 25H53.9251ZM66.1 25.096C63.952 25.096 62.488 23.368 62.488 20.8C62.488 18.232 63.952 16.504 66.1 16.504C68.212 16.504 69.64 18.232 69.64 20.8C69.64 23.368 68.212 25.096 66.1 25.096ZM66.088 24.172C67.576 24.172 68.584 22.816 68.584 20.8C68.584 18.784 67.576 17.428 66.088 17.428C64.576 17.428 63.544 18.784 63.544 20.8C63.544 22.816 64.576 24.172 66.088 24.172ZM72.2015 25V16.6H75.2855C76.9535 16.6 77.9615 17.488 77.9615 18.94C77.9615 19.924 77.4335 20.62 76.6295 21.004C77.2895 21.364 77.7095 22.06 77.7575 22.912L77.9015 25H76.9055L76.7615 22.972C76.7135 22.156 76.1855 21.58 75.4055 21.58H73.2215V25H72.2015ZM75.2855 20.656C76.4735 20.656 76.9175 19.888 76.9175 19.06C76.9175 18.232 76.4735 17.512 75.2855 17.512H73.2215V20.656H75.2855ZM81.752 25H80.708V16.6H81.752V20.596L85.412 16.6H86.72L83.636 19.948L86.936 25H85.748L82.928 20.716L81.752 21.988V25Z" fill="white"/>
</svg>
