<svg width="40" height="40" viewBox="0 0 40 40" fill="none" xmlns="http://www.w3.org/2000/svg">
<mask id="path-1-inside-1_69_2043" fill="white">
<path d="M0 20C0 8.95431 8.95431 0 20 0V0C31.0457 0 40 8.95431 40 20V20C40 31.0457 31.0457 40 20 40V40C8.95431 40 0 31.0457 0 20V20Z"/>
</mask>
<g clip-path="url(#paint0_angular_69_2043_clip_path)" data-figma-skip-parse="true" mask="url(#path-1-inside-1_69_2043)"><g transform="matrix(0.02 0 0 0.125 20 20)"><foreignObject x="-1050" y="-1050" width="2100" height="2100"><div xmlns="http://www.w3.org/1999/xhtml" style="background:conic-gradient(from 90deg,rgba(163, 133, 35, 1) 0deg,rgba(220, 137, 78, 1) 90deg,rgba(60, 89, 153, 1) 180deg,rgba(107, 170, 131, 1) 271.731deg,rgba(131, 140, 159, 1) 360deg);height:100%;width:100%;opacity:1"></div></foreignObject></g></g><path d="M0 20H1H0ZM40 20H41H40ZM40 20H41H40ZM0 20H1H0ZM20 0M40 20M20 40M0 20M20 40V39C9.50659 39 1 30.4934 1 20H0H-1C-1 31.598 8.40202 41 20 41V40ZM40 20H39C39 30.4934 30.4934 39 20 39V40V41C31.598 41 41 31.598 41 20H40ZM20 0V1C30.4934 1 39 9.50659 39 20H40H41C41 8.40202 31.598 -1 20 -1V0ZM20 0V-1C8.40202 -1 -1 8.40202 -1 20H0H1C1 9.50659 9.50659 1 20 1V0Z" data-figma-gradient-fill="{&#34;type&#34;:&#34;GRADIENT_ANGULAR&#34;,&#34;stops&#34;:[{&#34;color&#34;:{&#34;r&#34;:0.63921570777893066,&#34;g&#34;:0.52156865596771240,&#34;b&#34;:0.13725490868091583,&#34;a&#34;:1.0},&#34;position&#34;:0.0},{&#34;color&#34;:{&#34;r&#34;:0.86316859722137451,&#34;g&#34;:0.53909128904342651,&#34;b&#34;:0.30760756134986877,&#34;a&#34;:1.0},&#34;position&#34;:0.250},{&#34;color&#34;:{&#34;r&#34;:0.23529411852359772,&#34;g&#34;:0.34901961684226990,&#34;b&#34;:0.60000002384185791,&#34;a&#34;:1.0},&#34;position&#34;:0.50},{&#34;color&#34;:{&#34;r&#34;:0.41960784792900085,&#34;g&#34;:0.66666668653488159,&#34;b&#34;:0.51372551918029785,&#34;a&#34;:1.0},&#34;position&#34;:0.75480771064758301},{&#34;color&#34;:{&#34;r&#34;:0.51372551918029785,&#34;g&#34;:0.54901963472366333,&#34;b&#34;:0.62352943420410156,&#34;a&#34;:1.0},&#34;position&#34;:1.0}],&#34;stopsVar&#34;:[{&#34;color&#34;:{&#34;r&#34;:0.63921570777893066,&#34;g&#34;:0.52156865596771240,&#34;b&#34;:0.13725490868091583,&#34;a&#34;:1.0},&#34;position&#34;:0.0},{&#34;color&#34;:{&#34;r&#34;:0.86316859722137451,&#34;g&#34;:0.53909128904342651,&#34;b&#34;:0.30760756134986877,&#34;a&#34;:1.0},&#34;position&#34;:0.250},{&#34;color&#34;:{&#34;r&#34;:0.23529411852359772,&#34;g&#34;:0.34901961684226990,&#34;b&#34;:0.60000002384185791,&#34;a&#34;:1.0},&#34;position&#34;:0.50},{&#34;color&#34;:{&#34;r&#34;:0.41960784792900085,&#34;g&#34;:0.66666668653488159,&#34;b&#34;:0.51372551918029785,&#34;a&#34;:1.0},&#34;position&#34;:0.75480771064758301},{&#34;color&#34;:{&#34;r&#34;:0.51372551918029785,&#34;g&#34;:0.54901963472366333,&#34;b&#34;:0.62352943420410156,&#34;a&#34;:1.0},&#34;position&#34;:1.0}],&#34;transform&#34;:{&#34;m00&#34;:40.0,&#34;m01&#34;:0.0,&#34;m02&#34;:0.0,&#34;m10&#34;:0.0,&#34;m11&#34;:250.0,&#34;m12&#34;:-105.0},&#34;opacity&#34;:1.0,&#34;blendMode&#34;:&#34;NORMAL&#34;,&#34;visible&#34;:true}" mask="url(#path-1-inside-1_69_2043)"/>
<path d="M25 28C25 27.1636 25.2909 26.4545 25.8727 25.8727C26.4545 25.2909 27.1636 25 28 25C27.1636 25 26.4545 24.7091 25.8727 24.1273C25.2909 23.5455 25 22.8364 25 22C25 22.8364 24.7091 23.5455 24.1273 24.1273C23.5455 24.7091 22.8364 25 22 25C22.8364 25 23.5455 25.2909 24.1273 25.8727C24.7091 26.4545 25 27.1636 25 28Z" fill="white"/>
<path d="M25 22C25 22.8364 25.2909 23.5455 25.8727 24.1273C26.4545 24.7091 27.1636 25 28 25C27.1636 25 26.4545 25.2909 25.8727 25.8727L25.668 26.0967C25.2225 26.6336 25 27.2682 25 28C25 27.2682 24.7775 26.6336 24.332 26.0967L24.1273 25.8727C23.5455 25.2909 22.8364 25 22 25C22.8364 25 23.5455 24.7091 24.1273 24.1273C24.7091 23.5455 25 22.8364 25 22ZM18 12C18 13.6727 18.5818 15.0909 19.7455 16.2545C20.9091 17.4182 22.3273 18 24 18C22.3273 18 20.9091 18.5818 19.7455 19.7455C18.5818 20.9091 18 22.3273 18 24C18 22.4318 17.4885 21.0875 16.4658 19.9668L16.2545 19.7455C15.0909 18.5818 13.6727 18 12 18C13.5682 18 14.9125 17.4885 16.0332 16.4658L16.2545 16.2545C17.4182 15.0909 18 13.6727 18 12ZM18 15.6533C17.7143 16.1169 17.3694 16.5545 16.9619 16.9619C16.5545 17.3694 16.1169 17.7143 15.6533 18C16.1169 18.2857 16.5545 18.6306 16.9619 19.0381C17.3692 19.4453 17.7144 19.8824 18 20.3457C18.2856 19.8824 18.6308 19.4453 19.0381 19.0381C19.4453 18.6308 19.8824 18.2856 20.3457 18C19.8824 17.7144 19.4453 17.3692 19.0381 16.9619C18.6306 16.5545 18.2857 16.1169 18 15.6533Z" fill="white"/>
<defs>
<clipPath id="paint0_angular_69_2043_clip_path"><path d="M0 20H1H0ZM40 20H41H40ZM40 20H41H40ZM0 20H1H0ZM20 0M40 20M20 40M0 20M20 40V39C9.50659 39 1 30.4934 1 20H0H-1C-1 31.598 8.40202 41 20 41V40ZM40 20H39C39 30.4934 30.4934 39 20 39V40V41C31.598 41 41 31.598 41 20H40ZM20 0V1C30.4934 1 39 9.50659 39 20H40H41C41 8.40202 31.598 -1 20 -1V0ZM20 0V-1C8.40202 -1 -1 8.40202 -1 20H0H1C1 9.50659 9.50659 1 20 1V0Z" mask="url(#path-1-inside-1_69_2043)"/></clipPath></defs>
</svg>
